<?xml version="1.0" encoding="UTF-8" standalone="no"?>
<!-- Created with Inkscape (http://www.inkscape.org/) -->

<svg
   width="197.93149mm"
   height="216.44824mm"
   viewBox="0 0 197.93149 216.44824"
   version="1.1"
   id="svg1"
   inkscape:version="1.3.2 (091e20ef0f, 2023-11-25)"
   sodipodi:docname="ascii.svg"
   xmlns:inkscape="http://www.inkscape.org/namespaces/inkscape"
   xmlns:sodipodi="http://sodipodi.sourceforge.net/DTD/sodipodi-0.dtd"
   xmlns="http://www.w3.org/2000/svg"
   xmlns:svg="http://www.w3.org/2000/svg">
  <sodipodi:namedview
     id="namedview1"
     pagecolor="#ffffff"
     bordercolor="#000000"
     borderopacity="0.25"
     inkscape:showpageshadow="2"
     inkscape:pageopacity="0.0"
     inkscape:pagecheckerboard="0"
     inkscape:deskcolor="#d1d1d1"
     inkscape:document-units="mm"
     inkscape:zoom="0.75187991"
     inkscape:cx="400.32989"
     inkscape:cy="355.1099"
     inkscape:window-width="1904"
     inkscape:window-height="1032"
     inkscape:window-x="8"
     inkscape:window-y="40"
     inkscape:window-maximized="0"
     inkscape:current-layer="layer1" />
  <defs
     id="defs1">
    <rect
       x="144.6705"
       y="368.2973"
       width="622.01013"
       height="714.67761"
       id="rect1" />
  </defs>
  <g
     inkscape:label="Layer 1"
     inkscape:groupmode="layer"
     id="layer1"
     transform="translate(0.96541627,-54.668993)">
    <rect
       style="fill:#001122;stroke-width:24.3471;stroke-linecap:round;stroke-linejoin:round"
       id="rect2"
       width="197.93149"
       height="216.44824"
       x="-0.96541625"
       y="54.668995" />
    <path
       d="m 201.88589,392.58487 c -2.4,0 -3.456,1.344 -3.456,4.032 0,2.496 0.48,9.504 0.48,11.904 0,2.88 -0.768,18.048 -0.768,20.832 0,2.49601 1.632,4.608 3.648,4.608 1.824,0 3.168,-1.536 3.168,-3.84 0,-9.312 0.672,-14.112 0.672,-23.52 0,-2.208 -0.192,-4.60799 -0.288,-7.104 -0.48,-5.76 -1.056,-6.912 -3.456,-6.912 z m 0.384,46.75201 c -3.456,0 -6.144,2.88 -6.144,6.43199 0,3.552 2.976,6.432 6.528,6.432 3.168,0 5.76,-2.688 5.76,-6.048 0,-3.648 -2.784,-6.81599 -6.144,-6.81599 z m 43.58396,-47.23201 c -1.728,0 -3.264,1.632 -3.264,3.36 0,2.208 0.096,3.55201 0.096,5.664 0,2.496 0,3.456 0.192,4.32 0.192,1.632 1.536,2.688 3.264,2.688 1.92,0 3.36,-1.344 3.36,-3.35999 0,-3.93601 0,-3.93601 -0.192,-9.50401 -0.096,-1.728 -1.632,-3.168 -3.456,-3.168 z m -7.296,3.168 c -0.192,-1.824 -1.536,-3.072 -3.36,-3.072 -2.016,0 -3.36,1.44 -3.36,3.36 0,1.536 0.192,4.128 0.192,5.568 0,1.152 -0.096,2.4 -0.096,3.456 0,1.824 1.536,3.36001 3.264,3.36001 1.824,0 3.36,-1.34401 3.456,-3.168 0,-1.15201 0.096,-2.01601 0.096,-4.12801 0,-2.4 -0.096,-3.648 -0.192,-5.376 z m 51.26396,-2.976 c -1.728,0 -3.168,1.248 -3.36,2.976 -0.48,4.608 -1.152,9.312 -1.824,13.92001 -2.304,0.096 -4.704,0.192 -7.2,0.192 0.672,-4.32 1.152,-8.73601 1.536,-12.96001 v -0.38399 c 0,-1.632 -1.248,-3.072 -2.976,-3.264 h -0.384 c -1.632,0 -3.072,1.24799 -3.264,2.976 -0.48,4.416 -1.056,9.024 -1.728,13.632 -2.112,0 -4.32,-0.192 -6.624,-0.28801 h -0.192 c -1.728,0 -3.264,1.44 -3.36,3.16801 v 0.19199 c 0,1.728 1.44,3.264 3.168,3.36 2.112,0.096 4.032,0.192 5.952,0.192 -0.672,4.224 -1.44,8.25601 -2.112,12.288 -1.152,0 -2.304,0.096 -3.552,0.096 -1.824,0 -3.264,1.632 -3.264,3.45601 0,1.82399 1.632,3.264 3.456,3.264 h 2.208 c -0.864,5.18399 -1.728,9.98399 -2.208,14.11199 v 0.384 c 0,1.72801 1.248,3.16801 2.976,3.36001 h 0.384 c 1.728,0 3.168,-1.24801 3.36,-2.976 0.48,-4.22401 1.344,-9.312 2.304,-14.88 h 7.296 c -0.768,4.89599 -1.44,9.59999 -2.016,13.82399 v 0.48 c 0,1.632 1.248,2.976 2.88,3.26401 h 0.48 c 1.632,0 2.976,-1.248 3.264,-2.88 0.576,-4.32 1.344,-9.40801 2.208,-14.688 h 3.936 1.92 c 1.824,0 3.264,-1.63201 3.264,-3.456 0,-1.82401 -1.632,-3.26401 -3.456,-3.26401 h -4.512 c 0.672,-4.12799 1.344,-8.256 2.016,-12.576 1.344,0 2.592,-0.096 3.936,-0.096 1.824,0 3.36,-1.536 3.36,-3.36 0,-1.824 -1.536,-3.36 -3.36,-3.36 -0.96,0 -1.92,0.096 -2.88,0.096 0.672,-4.31999 1.248,-8.64 1.728,-13.05599 v -0.384 c 0,-1.72801 -1.248,-3.16801 -2.976,-3.36001 z m -6.24,23.712 c -0.672,4.32 -1.344,8.35201 -2.016,12.384 h -7.296 c 0.672,-3.93599 1.44,-8.064 2.112,-12.288 2.496,0 4.896,0 7.2,-0.096 z m 35.23197,-20.15999 c -0.096,0.57599 -0.384,1.72799 -0.576,2.88 h -0.576 c -3.84,0 -9.888,0.86399 -12.672,4.99199 -0.48,0.768 -2.112,3.456 -2.112,6.72 0,3.744 2.112,8.256 10.56,11.712 -1.152,4.896 -2.304,9.79201 -3.36,14.496 -1.44,-0.672 -2.784,-1.44 -3.648,-2.304 -0.768,-0.864 -1.728,-1.15199 -2.496,-1.15199 -1.632,0 -2.88,1.34399 -2.88,3.168 0,1.24799 0.576,2.68799 2.112,3.93599 0.768,0.57601 2.976,2.11201 5.472,3.072 -0.384,1.82401 -0.768,3.55201 -0.864,3.936 -0.096,0.672 -0.192,1.248 -0.192,1.824 0,2.11201 1.056,3.36 2.496,3.64801 0.192,0 0.48,0.096 0.672,0.096 1.632,0 2.976,-1.344 3.552,-3.84001 0.192,-0.67199 0.48,-2.496 0.864,-4.32 h 1.248 c 9.216,0 17.376,-5.47199 17.376,-12.76799 0,-0.76801 -0.096,-1.632 -0.288,-2.40001 -0.576,-2.592 -2.688,-7.488 -12.288,-11.52 0.864,-3.744 1.632,-7.68 2.4,-11.616 1.728,0.48 3.456,1.056 4.608,1.92 0.768,0.576 1.536,0.768 2.208,0.768 1.728,0 2.976,-1.43999 2.976,-3.168 0,-1.24799 -0.768,-2.78399 -2.496,-3.83999 -0.96,-0.57601 -3.36,-1.72801 -5.952,-2.40001 0.192,-1.05599 0.384,-2.304 0.384,-2.304 0.096,-0.48 0.096,-0.864 0.096,-1.24799 0,-2.20801 -1.056,-3.74401 -3.072,-3.84001 h -0.192 c -2.016,0 -2.976,1.536 -3.36,3.55201 z m -1.824,9.69599 c -0.672,3.36 -1.44,6.62401 -2.112,9.888 -4.32,-1.92 -5.376,-3.84 -5.376,-5.28 0,-1.44 1.056,-2.49599 1.344,-2.688 0.384,-0.384 2.112,-1.824 6.144,-1.92 z m 2.688,19.2 c 7.488,3.552 7.488,5.952 7.488,6.816 0,3.84 -5.568,6.33601 -10.464,6.43201 0.96,-4.32001 1.92,-8.73601 2.976,-13.24801 z m 44.35196,-28.99199 c -7.968,17.952 -16.416,32.63999 -22.944,51.264 -0.096,0.38399 -0.192,0.67199 -0.192,1.05599 0,1.44 0.96,2.784 2.304,3.26401 0.384,0.096 0.672,0.192 1.056,0.192 1.44,0 2.688,-0.96001 3.168,-2.30401 6.336,-18.048 14.592,-32.44799 22.752,-50.784 0.192,-0.48 0.288,-0.864 0.288,-1.344 0,-1.24799 -0.768,-2.496 -2.016,-3.072 -0.384,-0.192 -0.864,-0.288 -1.344,-0.288 -1.248,0 -2.4,0.67201 -3.072,2.01601 z m -16.992,-0.48001 c -4.128,0 -8.448,3.84 -8.64,12.76801 v 0.67199 c 0,7.488 3.072,12.192 7.392,12.192 6.72,0 8.064,-11.04 8.256,-12.48 0.096,-1.056 0.192,-2.016 0.192,-2.88 0,-7.392 -3.648,-10.272 -7.2,-10.272 z m -0.192,6.72001 c 0.384,0.67199 0.672,2.30399 0.672,3.93599 0,0.576 0,1.248 -0.096,1.82401 -0.192,1.34399 -0.672,3.83999 -1.632,5.56799 -0.384,-0.96 -0.672,-2.68799 -0.672,-4.416 v -0.768 c 0.096,-3.744 1.344,-5.952 1.728,-6.14399 z m 18.24,21.024 c -3.936,0 -7.488,3.55199 -7.488,11.23199 v 1.152 c 0.288,7.2 3.36,12.192 7.776,12.288 h 0.096 c 4.128,0 7.872,-4.32 7.872,-12.096 0,-8.25599 -3.936,-12.57599 -8.256,-12.57599 z m 0.096,6.71999 c 0.288,0.288 1.44,2.4 1.44,5.664 0,1.05601 -0.096,3.36 -1.056,5.184 -0.864,-1.34399 -1.152,-3.936 -1.248,-5.47199 v -0.86401 c 0,-1.92 0.288,-3.744 0.864,-4.512 z m 29.47196,-34.368 c -5.856,0 -11.904,4.704 -12.288,11.616 0,0.67201 -0.096,1.248 -0.096,1.92 0,3.552 0.672,6.912 1.824,9.984 -5.28,8.16 -7.104,13.632 -7.488,17.856 -0.096,0.576 -0.096,1.05601 -0.096,1.632 0,7.488 5.28,12.576 11.136,12.576 h 0.576 c 6.048,-0.288 11.616,-5.28 14.688,-8.54399 1.152,1.05599 2.304,2.20799 3.456,3.16799 0.576,0.576 1.44,0.864 2.208,0.864 0.96,0 1.92,-0.384 2.592,-1.15199 0.576,-0.57601 0.864,-1.344 0.864,-2.11201 0,-0.95999 -0.384,-1.92 -1.152,-2.592 -1.248,-1.15199 -2.496,-2.208 -3.744,-3.36 0.576,-0.86399 1.152,-1.632 1.632,-2.49599 0.384,-0.57601 0.48,-1.24801 0.48,-1.82401 0,-1.05599 -0.48,-2.208 -1.536,-2.784 -0.576,-0.288 -1.248,-0.48 -1.824,-0.48 -1.152,0 -2.208,0.57601 -2.88,1.632 -0.288,0.48001 -0.576,0.864 -0.864,1.344 -3.744,-3.55199 -7.872,-7.872 -10.464,-12.95999 2.4,-3.55201 4.896,-6.81601 7.008,-9.60001 2.4,-3.168 3.36,-5.856 3.36,-7.96799 0,-4.51201 -4.224,-6.72001 -7.392,-6.72001 z m 0.576,6.816 c -0.768,3.264 -4.032,6.72 -6.048,9.408 -0.096,-0.86399 -0.192,-1.728 -0.192,-2.784 0,-3.072 0.96,-6.432 6.24,-6.624 z m -7.584,23.80801 c 2.496,3.93599 5.856,7.77599 10.272,11.904 -1.728,1.82399 -6.24,6.144 -10.08,6.33599 h -0.192 c -2.208,0 -4.416,-1.82399 -4.416,-5.664 0,-0.384 0.096,-0.76799 0.096,-1.152 0.384,-3.744 2.496,-8.256 4.32,-11.42399 z m 44.92797,-33.60001 c -1.92,0 -3.36,1.536 -3.36,3.26401 0,0.096 0.096,1.82399 0.096,5.66399 0,2.592 0,3.55201 0.192,4.416 0.192,1.632 1.536,2.688 3.264,2.688 1.92,0 3.36,-1.344 3.36,-3.35999 0,-3.93601 0,-3.93601 -0.192,-9.50401 -0.096,-1.632 -1.632,-3.168 -3.36,-3.168 z m 46.94396,0.192 c -3.072,0 -19.872,9.024 -20.256,31.968 v 0.768 c 0,14.11201 7.392,25.536 19.68,27.744 h 0.576 c 1.632,0 2.976,-1.056 3.264,-2.688 v -0.57599 c 0,-1.632 -1.056,-2.976 -2.688,-3.26401 -10.848,-1.92 -14.112,-13.056 -14.112,-21.216 v -0.672 c 0.192,-10.75199 5.664,-21.888 14.784,-25.63199 1.344,-0.48001 2.112,-1.72801 2.112,-3.072 0,-0.38401 -0.096,-0.86401 -0.288,-1.24801 -0.48,-1.248 -1.728,-2.112 -3.072,-2.112 z m 22.27196,0.672 c -0.48,0.576 -0.672,1.344 -0.672,2.112 0,1.056 0.384,2.016 1.248,2.688 7.776,6.048 11.04,14.496 11.04,23.13601 0,1.05599 0,2.01599 -0.096,3.072 -0.864,9.59999 -5.856,18.52799 -13.056,22.94399 -1.056,0.672 -1.632,1.728 -1.632,2.88 0,0.576 0.192,1.15201 0.48,1.728 0.672,1.05601 1.728,1.632 2.88,1.632 0.576,0 1.152,-0.192 1.728,-0.47999 9.504,-5.76001 15.264,-16.608 16.32,-28.12801 0.096,-1.152 0.192,-2.4 0.192,-3.55199 0,-10.464 -4.224,-21.21601 -13.728,-28.608 -0.576,-0.48001 -1.344,-0.67201 -2.016,-0.67201 -0.96,0 -2.016,0.384 -2.688,1.248 z m 45.88797,10.752 c -1.824,0 -3.456,1.536 -3.456,3.36 0,3.072 0.096,5.952 0.096,8.736 -1.92,-1.152 -3.744,-2.496 -5.28,-3.93599 -0.672,-0.57601 -1.44,-0.96001 -2.304,-0.96001 -0.864,0 -1.728,0.384 -2.4,1.05601 -0.576,0.67199 -0.96,1.44 -0.96,2.30399 0,0.864 0.384,1.728 1.056,2.40001 2.4,2.30399 4.8,4.03199 7.296,5.56799 -2.784,1.72801 -5.472,3.744 -7.872,6.52801 -0.576,0.67199 -0.864,1.344 -0.864,2.11199 0,0.96 0.48,1.92 1.248,2.592 0.672,0.576 1.344,0.86401 2.112,0.86401 0.96,0 1.92,-0.48001 2.592,-1.248 1.632,-1.82401 3.456,-3.26401 5.472,-4.608 0,7.29599 -0.192,9.312 -0.192,9.40799 0,1.728 1.44,3.264 3.168,3.36 h 0.192 c 1.728,0 3.168,-1.44 3.264,-3.168 0.192,-3.64799 0.384,-6.912 0.384,-9.984 1.824,1.344 3.552,2.88 5.184,4.80001 0.672,0.76799 1.632,1.24799 2.592,1.24799 0.768,0 1.44,-0.288 2.112,-0.768 0.768,-0.672 1.248,-1.63199 1.248,-2.592 0,-0.76799 -0.288,-1.536 -0.768,-2.20799 -2.208,-2.59201 -4.512,-4.608 -6.816,-6.33601 2.4,-1.632 4.896,-3.648 7.104,-6.24 0.576,-0.672 0.864,-1.344 0.864,-2.112 0,-0.96 -0.48,-1.91999 -1.248,-2.592 -0.672,-0.57599 -1.344,-0.86399 -2.112,-0.86399 -0.96,0 -1.92,0.47999 -2.592,1.24799 -1.728,2.11201 -3.744,3.648 -5.76,4.99201 -0.096,-3.072 -0.096,-6.24 -0.096,-9.60001 0,-1.824 -1.44,-3.36 -3.264,-3.36 z m 38.01596,1.632 c -1.728,0.192 -3.072,1.632 -3.072,3.36 0,0.38401 0.48,5.472 0.48,10.84801 -3.36,0 -6.72,0 -9.504,0.192 -1.728,0.096 -3.168,1.63199 -3.168,3.35999 0,1.824 1.536,3.36 3.36,3.36 h 0.192 c 2.592,-0.096 5.76,-0.192 9.12,-0.192 0,3.552 0,7.104 0.096,11.04 0.096,1.72801 1.536,3.26401 3.264,3.26401 h 0.192 c 1.728,-0.096 3.264,-1.536 3.264,-3.26401 0,-0.096 -0.096,-2.016 -0.096,-11.136 3.36,0 6.528,0 9.12,-0.096 1.728,-0.096 3.168,-1.632 3.168,-3.35999 0,-1.824 -1.536,-3.36 -3.36,-3.36 h -0.192 c -2.4,0.096 -5.472,0.096 -8.736,0.096 0,-3.55201 -0.096,-7.10401 -0.48,-11.04001 -0.192,-1.728 -1.632,-3.072 -3.36,-3.072 z m 43.10396,34.944 c -1.728,0.19201 -3.072,1.63201 -3.072,3.36001 0,0 0.096,1.72799 0.096,2.976 0,6.14399 -2.4,9.31199 -7.296,12 -1.152,0.57599 -1.728,1.72799 -1.728,2.976 0,0.57599 0.096,1.15199 0.384,1.632 0.576,1.05599 1.728,1.63199 2.88,1.63199 0.576,0 1.152,-0.096 1.728,-0.38399 6.528,-3.64801 10.752,-9.88801 10.752,-18.43201 0,-0.86399 0,-1.824 -0.096,-2.68799 -0.192,-1.72801 -1.632,-3.07201 -3.36,-3.07201 z m 24.57597,-21.312 c -1.824,0 -3.36,1.536 -3.36,3.36001 0,1.824 1.536,3.36 3.36,3.36 h 1.824 c 4.32,0 8.64,-0.192 12.864,-0.192 1.536,0 2.976,0 4.512,0.096 h 0.192 c 1.824,0 3.36,-1.536 3.36,-3.36001 0,-1.728 -1.44,-3.264 -3.168,-3.36 -1.824,-0.096 -3.552,-0.096 -5.28,-0.096 -4.416,0 -8.544,0.192 -12.768,0.192 z m 47.99996,19.96801 c -3.072,0 -6.048,2.49599 -6.048,6.43199 0,3.36 2.88,6.432 6.528,6.432 2.688,0 5.76,-2.20799 5.76,-6.048 0,-3.83999 -2.976,-6.81599 -6.24,-6.81599 z m 46.84796,-43.68001 c -7.968,17.952 -16.416,32.736 -22.944,51.36001 -0.096,0.38399 -0.192,0.67199 -0.192,1.05599 0,1.44 0.96,2.688 2.304,3.16801 0.384,0.096 0.672,0.192 1.056,0.192 1.344,0 2.688,-0.86401 3.168,-2.20801 6.336,-18.048 14.592,-32.44799 22.752,-50.784 0.192,-0.48 0.288,-0.864 0.288,-1.344 0,-1.24799 -0.768,-2.496 -2.016,-3.072 -0.48,-0.192 -0.864,-0.288 -1.344,-0.288 -1.152,0 -2.496,0.57601 -3.072,1.92 z m -582.04745,115.968 c -13.344,0 -20.736,21.024 -20.736,38.592 0,6.912 2.208,12.768 5.76,16.80001 -0.384,0.95999 -0.864,1.82399 -1.248,2.784 -0.192,0.384 -0.288,0.864 -0.288,1.34399 0,1.344 0.768,2.49601 2.112,3.072 0.384,0.192 0.864,0.288 1.344,0.288 1.344,0 2.496,-0.76799 3.072,-2.112 0.192,-0.384 0.288,-0.672 0.48,-1.056 2.4,1.248 4.992,1.92001 7.776,1.92001 11.52,0 17.856,-16.51201 17.856,-29.568 0,-13.34401 -3.456,-21.216 -4.704,-23.61601 0.48,-1.05599 0.96,-2.112 1.536,-3.26399 0.192,-0.48 0.288,-0.96 0.288,-1.44001 0,-1.248 -0.672,-2.49599 -1.824,-3.072 -0.48,-0.192 -0.96,-0.288 -1.44,-0.288 -1.248,0 -2.496,0.576 -3.072,1.82401 0,0.096 -0.096,0.192 -0.096,0.28799 -1.92,-1.536 -4.224,-2.496 -6.816,-2.496 z m 0,6.72 c 1.44,0 2.688,0.76801 3.84,2.112 -6.912,14.976 -10.656,25.92001 -15.84,38.976 -1.344,-2.592 -2.016,-5.76 -2.016,-9.216 0,-14.976 6.24,-31.872 14.016,-31.872 z m 7.488,10.27201 c 1.632,6.14399 1.92,11.712 1.92,15.168 0,9.98399 -4.8,22.75199 -11.136,22.75199 -1.92,0 -3.744,-0.48 -5.28,-1.44 5.184,-12.95999 8.736,-23.328 14.496,-36.47999 z m 29.08797,-16.32001 c -0.864,0.096 -1.728,0.57601 -2.304,1.24801 -4.512,5.376 -5.856,9.40799 -9.12,13.15199 -0.576,0.672 -0.864,1.44001 -0.864,2.208 0,0.864 0.384,1.82401 1.152,2.49601 0.672,0.576 1.536,0.86399 2.304,0.86399 0.96,0 1.824,-0.38399 2.496,-1.15199 1.536,-1.72801 2.592,-3.36 3.648,-4.99201 0.288,7.584 0.48,14.49601 0.48,21.792 0,5.856 -0.096,11.904 -0.48,18.528 -1.536,0 -3.072,-0.096 -4.608,-0.096 -1.92,0 -3.936,0.096 -6.144,0.288 -1.728,0.19201 -2.976,1.632 -2.976,3.36001 0,1.82399 1.44,3.36 3.264,3.36 h 0.384 c 1.92,-0.192 3.744,-0.288 5.568,-0.288 3.552,0 7.104,0.288 10.944,0.288 2.784,0 5.664,-0.192 8.832,-0.576 1.728,-0.19201 2.88,-1.63201 2.88,-3.36001 0,-2.01599 -1.632,-3.264 -3.36,-3.264 h -0.384 c -2.688,0.384 -5.184,0.48 -7.68,0.48 0.384,-7.008 0.48,-13.248 0.48,-19.392 0,-10.27199 -0.384,-19.968 -0.864,-31.68 -0.096,-1.82399 -1.632,-3.264 -3.456,-3.264 z m 37.63196,0.57601 c -2.976,0 -6.336,0.576 -9.312,2.59199 -2.976,2.016 -5.376,5.376 -7.296,10.36801 -0.096,0.38399 -0.288,0.86399 -0.288,1.24799 0,1.44001 0.96,2.592 2.208,3.072 0.384,0.096 0.768,0.288 1.152,0.288 1.44,0 2.688,-0.96 3.168,-2.20799 1.536,-4.12801 3.36,-6.144 4.896,-7.20001 1.536,-1.056 3.168,-1.43999 5.472,-1.43999 3.168,0 5.568,2.304 5.568,6.81599 0,4.99201 -2.688,12.672 -5.184,16.51201 -4.8,7.48799 -11.616,17.27999 -16.128,24.864 -0.288,0.47999 -0.384,1.05599 -0.384,1.72799 0,1.824 1.536,3.36001 3.36,3.36001 h 0.192 c 3.456,-0.28801 6.528,-0.28801 9.6,-0.28801 h 6.144 c 3.552,0 7.2,-0.096 11.232,-0.48 1.728,-0.192 3.072,-1.63199 3.072,-3.36 0,-0.096 -0.096,-0.288 -0.096,-0.384 -0.192,-1.728 -1.536,-2.976 -3.264,-2.976 h -0.384 c -3.264,0.288 -6.336,0.384 -9.312,0.384 -2.304,0 -4.608,-0.096 -7.008,-0.096 -1.344,0 -2.592,0.096 -4.032,0.096 4.032,-6.24 8.928,-13.34399 12.672,-19.19999 3.264,-5.08801 6.24,-13.05601 6.24,-20.16001 0,-7.48799 -5.472,-13.53599 -12.288,-13.53599 z m 41.66396,0.48 c -4.896,0 -12.384,1.91999 -16.416,9.40799 -0.288,0.48 -0.384,1.056 -0.384,1.632 0,1.24801 0.576,2.4 1.728,2.976 0.48,0.288 1.056,0.38401 1.632,0.38401 1.248,0 2.4,-0.57601 2.976,-1.728 2.688,-4.89601 7.2,-5.95201 10.464,-5.95201 4.128,0 4.608,4.032 4.608,5.85601 0,5.76 -7.392,9.31199 -9.984,9.50399 -1.728,0.096 -3.168,1.53601 -3.168,3.264 0,1.72801 1.344,3.264 3.072,3.456 8.352,0.86401 12.096,4.992 12.096,14.4 0,1.72801 -0.096,6.048 -6.816,7.68001 -1.536,0.384 -3.168,0.48 -4.896,0.48 -3.36,0 -6.912,-0.576 -9.792,-1.44001 -0.288,-0.096 -0.672,-0.192 -0.96,-0.192 -1.44,0 -2.784,0.96001 -3.264,2.4 -0.096,0.384 -0.192,0.672 -0.192,1.056 0,1.44 0.96,2.688 2.304,3.168 3.456,1.05601 7.488,1.824 11.52,1.824 2.304,0 4.704,-0.288 6.912,-0.76799 3.744,-0.864 11.904,-4.032 11.904,-14.11201 0,-7.39199 -2.112,-14.496 -8.832,-18.432 2.88,-2.208 6.816,-6.23999 6.816,-12.28799 0,-7.58401 -4.896,-12.576 -11.328,-12.576 z m 43.29597,1.91999 c -0.768,6.81601 -1.152,13.34401 -1.44,19.584 -5.088,0.48 -10.272,0.384 -15.552,0.672 0.384,-3.93599 1.152,-7.00799 3.168,-16.22399 0.096,-0.192 0.096,-0.48 0.096,-0.67201 0,-1.536 -1.056,-2.976 -2.688,-3.264 -0.192,-0.096 -0.48,-0.096 -0.672,-0.096 -1.536,0 -3.072,1.05601 -3.36,2.688 -3.168,14.304 -3.552,16.22401 -3.552,21.312 0,1.824 1.632,3.264 3.456,3.264 h 0.288 c 5.472,-0.576 11.904,-0.288 18.528,-0.864 -1.152,27.168 -1.632,27.552 -1.632,27.84 0,1.632 1.248,3.072 2.976,3.26401 h 0.288 c 1.728,0 3.168,-1.34401 3.36,-3.07201 1.056,-10.176 1.344,-19.584 1.728,-29.08799 0.192,0 0.384,-0.096 0.576,-0.096 1.632,-0.288 2.688,-1.82401 2.688,-3.36 0,-0.192 0,-0.48001 -0.096,-0.67201 -0.288,-1.344 -1.44,-2.39999 -2.784,-2.59199 0.768,-14.592 1.248,-18.048 1.248,-18.24001 0,-1.72799 -1.248,-3.168 -2.976,-3.36 h -0.384 c -1.44,0 -3.072,1.05601 -3.264,2.976 z m 44.15996,-3.072 c -3.168,0.192 -16.896,1.24801 -24.576,1.34401 -1.824,0 -3.168,1.43999 -3.264,3.264 -0.768,18.43199 -1.44,19.77599 -1.44,21.216 0,1.92 1.536,3.45599 3.36,3.45599 0.48,0 0.864,-0.096 1.344,-0.288 4.704,-2.112 7.872,-2.784 9.216,-2.784 5.664,0.192 11.424,4.128 11.424,14.592 0,4.224 -2.88,8.83201 -7.008,11.42401 -2.208,1.34399 -4.608,2.20799 -7.296,2.20799 -2.4,0 -4.896,-0.672 -7.584,-2.30399 -0.576,-0.384 -1.248,-0.48 -1.824,-0.48 -1.056,0 -2.208,0.48 -2.784,1.53599 -0.288,0.576 -0.48,1.248 -0.48,1.82401 0,1.15199 0.576,2.20799 1.632,2.88 3.552,2.20799 7.392,3.168 10.944,3.168 3.936,0 7.776,-1.15201 10.944,-3.168 6.048,-3.74401 10.176,-10.08001 10.176,-17.08801 0,-13.24799 -8.832,-21.11999 -17.952,-21.31199 h -0.48 c -1.92,0 -3.936,0.47999 -6.336,1.24799 0.384,-4.51199 0.672,-9.12 0.768,-12.768 8.064,-0.28799 18.912,-1.05599 21.696,-1.24799 1.728,-0.096 3.168,-1.63201 3.168,-3.36001 0,-1.91999 -1.632,-3.36 -3.456,-3.36 z m 26.97596,1.15201 c -7.296,5.952 -18.528,14.4 -18.528,31.67999 0,7.00801 1.344,27.264 16.8,27.264 9.888,0 15.84,-8.06399 15.84,-18.24 0,-9.888 -5.856,-18.624 -15.264,-18.624 -4.32,0 -7.776,1.92001 -10.272,4.224 1.824,-10.752 9.12,-15.84 15.648,-21.12 0.864,-0.672 1.248,-1.72799 1.248,-2.68799 0,-0.67201 -0.192,-1.44001 -0.672,-2.016 -0.672,-0.768 -1.632,-1.24801 -2.592,-1.24801 -0.768,0 -1.536,0.28801 -2.208,0.76801 z m -1.152,28.79999 c 8.544,0 8.544,11.904 8.544,11.904 0,2.4 -0.576,11.52 -9.12,11.52 -6.624,0 -9.024,-7.48799 -9.792,-14.976 4.416,-7.19999 7.584,-8.448 10.368,-8.448 z m 50.97597,-29.27999 c -6.336,0 -13.92,0.672 -20.64,0.672 -2.208,0 -4.416,-0.096 -6.336,-0.288 h -0.384 c -1.824,0 -3.264,1.43999 -3.264,3.264 0,1.72799 1.344,3.168 3.072,3.36 2.4,0.19199 4.992,0.28799 7.584,0.28799 4.992,0 10.08,-0.28799 14.784,-0.47999 -4.992,11.808 -14.496,35.712 -17.568,48.86399 -0.096,0.288 -0.096,0.48 -0.096,0.768 0,1.53601 1.056,3.072 2.592,3.36 0.288,0.096 0.48,0.096 0.768,0.096 1.536,0 2.976,-1.05601 3.264,-2.592 3.264,-13.82401 15.84,-44.64 19.296,-52.60801 0.192,-0.48 0.288,-0.86399 0.288,-1.34399 0,-1.72801 -1.44,-3.36 -3.36,-3.36 z m 22.27196,0.288 c -7.104,0.192 -13.44,5.76 -13.44,13.15199 0,6.336 4.224,10.65601 7.872,13.63201 -3.744,5.952 -6.144,11.13599 -7.296,15.648 -0.576,2.11199 -0.768,4.03199 -0.768,5.76 0,8.15999 5.856,11.52 12,11.52 9.216,0 18.336,-7.00801 18.336,-16.32001 -0.096,-8.544 -6.528,-13.63199 -12.96,-18.144 3.648,-5.088 8.256,-10.752 14.016,-16.992 0.576,-0.672 0.864,-1.44 0.864,-2.20799 0,-0.86401 -0.384,-1.82401 -1.056,-2.496 -0.672,-0.576 -1.44,-0.96 -2.304,-0.96 -0.864,0 -1.728,0.384 -2.4,1.056 -0.192,0.19199 -0.384,0.47999 -0.576,0.67199 -3.936,-2.976 -8.064,-4.31999 -11.904,-4.31999 z m 0.96,6.72 c 2.016,0.096 4.32,0.76799 6.816,2.592 -3.648,4.22399 -6.816,8.256 -9.504,11.904 -3.552,-2.88 -4.992,-5.18401 -4.992,-8.06401 0,-3.456 3.264,-6.43199 7.488,-6.43199 z m -1.056,24.096 c 6.528,4.60799 10.08,7.776 10.08,12.57599 0,5.856 -6.624,9.6 -11.616,9.6 -4.128,0 -5.28,-1.91999 -5.28,-4.70399 0,-1.24801 0.192,-2.688 0.576,-4.22401 0.864,-3.456 2.88,-7.87199 6.24,-13.24799 z m 40.41596,-32.16001 h -0.192 c -8.544,0 -14.88,6.144 -14.88,15.552 0,5.28 1.536,15.64801 13.92,15.64801 1.728,0 3.456,-0.38401 4.896,-1.05601 -0.096,0.288 -6.048,22.65601 -6.048,27.84001 0,1.72799 1.152,3.168 2.88,3.36 h 0.384 c 1.728,0 3.168,-1.24801 3.36,-2.976 2.208,-17.37601 11.808,-45.88801 11.808,-49.34401 0,-1.15199 -1.248,-2.88 -2.112,-3.552 -4.416,-3.45599 -9.312,-5.376 -14.016,-5.472 z m -0.096,6.72 c 2.784,0.096 5.952,1.15201 9.12,3.36001 -0.48,1.63199 -1.248,4.22399 -2.496,6.91199 -1.536,3.264 -4.224,7.488 -7.68,7.488 -2.784,0 -7.2,-0.192 -7.2,-8.928 0,-7.296 4.224,-8.832 7.872,-8.832 z m 38.87997,-0.288 c -3.072,0 -6.048,2.496 -6.048,6.432 0,3.36001 2.784,6.43201 6.432,6.43201 2.688,0 5.76,-2.20801 5.76,-6.048 0,-3.84001 -2.88,-6.81601 -6.144,-6.81601 z m 0.288,41.088 c -3.072,0 -6.048,2.49601 -6.048,6.432 0,3.36 2.784,6.432 6.432,6.432 2.688,0 5.76,-2.20799 5.76,-6.048 0,-3.84 -2.88,-6.816 -6.144,-6.816 z m 40.99196,-40.992 c -3.072,0 -6.048,2.496 -6.048,6.43201 0,3.36 2.784,6.432 6.432,6.432 2.688,0 5.76,-2.20801 5.76,-6.048 0,-3.84001 -2.88,-6.81601 -6.144,-6.81601 z m 0.768,40.8 h -0.288 c -1.728,0.192 -3.072,1.63201 -3.072,3.36 0,0 0.096,1.72801 0.096,2.976 0,6.144 -2.4,9.312 -7.296,12 -1.152,0.576 -1.728,1.72801 -1.728,2.976 0,0.576 0.096,1.152 0.384,1.63201 0.576,1.05599 1.728,1.63199 2.88,1.63199 0.576,0 1.152,-0.096 1.728,-0.384 6.528,-3.64799 10.752,-9.88799 10.752,-18.432 0,-0.86399 0,-1.824 -0.096,-2.688 -0.192,-1.728 -1.632,-3.072 -3.36,-3.072 z m 45.50396,-34.752 c -8.256,3.36001 -16.128,10.464 -23.52,15.55201 -0.96,0.672 -1.44,1.63199 -1.44,2.68799 0,0.96001 0.384,1.92 1.152,2.592 0.384,0.384 17.184,15.36 23.424,16.41601 h 0.576 c 1.632,0 3.072,-1.05601 3.36,-2.68801 v -0.47999 c 0,-1.53601 -1.248,-2.784 -2.784,-3.456 -6.336,-2.688 -11.616,-7.58401 -16.896,-12 7.296,-5.088 12.576,-9.12 18.24,-12.38401 1.056,-0.672 1.728,-1.728 1.728,-2.87999 0,-0.57601 -0.192,-1.15201 -0.48,-1.728 -0.576,-0.96 -1.632,-1.72801 -2.688,-1.72801 -0.192,0 -0.48,0 -0.672,0.096 z m 38.97597,7.872 c -5.664,0.096 -11.136,0.288 -16.896,0.288 -2.112,0 -4.224,0 -6.336,-0.096 h -0.192 c -1.824,0 -3.264,1.63201 -3.264,3.456 0,1.72801 1.44,3.168 3.168,3.264 2.304,0.096 4.416,0.096 6.528,0.096 5.952,0 11.52,-0.192 16.992,-0.288 1.824,0 3.36,-1.53599 3.36,-3.36 0,-1.82399 -1.536,-3.36 -3.36,-3.36 z m -23.52,14.11201 c -1.728,0.096 -3.072,1.63199 -3.072,3.36 0,1.91999 1.632,3.26399 3.36,3.26399 h 0.192 c 2.304,-0.192 4.512,-0.192 6.72,-0.192 4.032,0 7.872,0.192 11.808,0.192 1.92,0 3.84,-0.096 5.76,-0.192 1.728,-0.096 3.168,-1.632 3.168,-3.35999 0,-1.82401 -1.536,-3.36 -3.36,-3.36 h -0.192 c -1.824,0.096 -3.648,0.192 -5.472,0.192 -3.456,0 -7.008,-0.192 -10.848,-0.192 -2.592,0 -5.28,0.096 -8.064,0.288 z m 37.53596,-21.6 c -0.672,0.672 -1.056,1.53599 -1.056,2.39999 0,0.86401 0.384,1.728 1.056,2.4 4.416,4.32001 12.768,9.504 18.624,12.768 -5.952,4.12801 -11.52,7.776 -19.2,13.92 -0.768,0.672 -1.248,1.63201 -1.248,2.592 0,0.768 0.288,1.44 0.768,2.11201 0.672,0.864 1.728,1.24799 2.688,1.24799 0.672,0 1.44,-0.192 2.016,-0.67199 9.216,-7.39201 15.264,-11.13601 23.232,-16.89601 0.96,-0.67199 1.44,-1.63199 1.44,-2.688 0,-1.152 -0.672,-2.4 -1.824,-2.976 -3.744,-1.91999 -17.664,-10.176 -21.792,-14.20799 -0.672,-0.67201 -1.536,-0.96001 -2.4,-0.96001 -0.864,0 -1.728,0.288 -2.304,0.96001 z m 51.83996,-13.344 c -8.064,0 -15.264,6.33599 -16.992,15.35999 -0.096,0.192 -0.096,0.48 -0.096,0.672 0,1.536 1.056,2.976 2.688,3.26401 0.192,0.096 0.48,0.096 0.672,0.096 1.536,0 2.976,-1.05601 3.264,-2.688 1.248,-6.24 6.048,-9.98401 10.464,-9.98401 6.336,0 9.984,4.51201 9.984,9.60001 0,5.75999 -8.736,7.19999 -12.768,14.30399 -1.056,1.92001 -1.728,4.22401 -1.728,6.81601 0,1.24799 0.192,2.39999 0.48,3.744 0.288,1.53599 1.728,2.592 3.264,2.592 0.288,0 0.48,0 0.768,-0.096 1.536,-0.288 2.592,-1.72801 2.592,-3.264 0,-0.28801 0,-0.48001 -0.096,-0.76801 -0.192,-0.96 -0.288,-1.82399 -0.288,-2.496 0,-1.344 0.384,-2.30399 0.864,-3.264 2.88,-5.08799 13.632,-7.77599 13.632,-17.56799 0,-8.544 -6.912,-16.32 -16.704,-16.32 z m -1.248,47.99999 c -3.072,0 -6.048,2.496 -6.048,6.432 0,3.36 2.784,6.432 6.432,6.432 2.688,0 5.76,-2.20799 5.76,-6.048 0,-3.84 -2.88,-6.816 -6.144,-6.816 z m -570.62345,71.904 c -12,0 -22.368,17.08801 -22.368,36.384 0,17.664 7.296,24 13.44,24.576 h 0.96 c 2.784,0 5.664,-0.96 8.448,-2.784 0.96,-0.672 1.536,-1.72799 1.536,-2.78399 0,-0.57601 -0.192,-1.24801 -0.576,-1.82401 -0.672,-0.95999 -1.728,-1.536 -2.784,-1.536 -0.576,0 -1.248,0.192 -1.824,0.57601 -2.016,1.34399 -3.552,1.72799 -4.704,1.72799 h -0.384 c -4.512,-0.48 -7.392,-8.64 -7.392,-17.952 0,-17.184 9.12,-29.664 15.648,-29.664 3.936,0 7.008,9.024 7.008,17.088 0,3.456 -0.768,7.87201 -2.016,10.65601 -0.48,-1.92 -0.768,-5.472 -0.96,-10.65601 -0.096,-1.34399 -1.728,-5.664 -5.856,-5.664 -0.48,0 -0.96,0.096 -1.536,0.192 -3.936,0.96 -8.256,5.76 -9.024,14.11201 -0.096,0.57599 -0.096,1.15199 -0.096,1.63199 0,6.048 3.456,9.60001 6.816,9.60001 0.672,0 1.248,-0.096 1.824,-0.38401 1.728,-0.768 3.072,-1.91999 4.032,-3.36 0.576,0.76801 2.208,2.592 4.896,2.592 6.624,0 8.64,-12.96 8.64,-18.72 0,-11.424 -4.608,-23.808 -13.728,-23.808 z m -2.688,25.44001 c -0.096,2.49599 -0.576,5.18399 -1.248,7.29599 -0.48,1.44 -1.056,2.49601 -1.536,3.264 -0.192,-0.67199 -0.288,-1.53599 -0.192,-2.88 0.096,-0.57599 0.576,-5.472 2.976,-7.67999 z m 37.63197,-23.616 c -1.44,0 -2.688,0.864 -3.168,2.20799 -3.84,10.36801 -13.44,39.93601 -15.936,53.28 v 0.576 c 0,1.63201 1.056,3.072 2.688,3.36 h 0.48 c 1.632,0 3.168,-1.152 3.456,-2.78399 0.768,-4.22401 2.496,-10.65601 4.512,-17.664 2.592,0.096 5.76,0.192 8.928,0.192 1.92,0 3.84,0 5.568,-0.096 1.632,6.81599 3.072,13.15199 4.32,17.37599 0.384,1.536 1.728,2.4 3.168,2.4 0.288,0 0.672,0 0.96,-0.096 1.536,-0.384 2.4,-1.72799 2.4,-3.264 0,-0.288 0,-0.672 -0.096,-0.95999 -3.456,-11.808 -8.832,-40.99201 -14.304,-52.60801 -0.672,-1.34399 -1.92,-1.91999 -2.976,-1.91999 z m 0,13.43999 c 1.824,5.856 3.456,12.48 4.992,18.912 -1.728,0 -3.552,0.096 -5.472,0.096 -1.92,0 -3.744,-0.096 -5.472,-0.096 2.016,-6.72 4.128,-13.44 5.952,-18.912 z m 26.11196,-13.82399 c -1.44,0.48 -3.648,0.96 -3.648,3.264 0,2.20799 -0.096,4.31999 -0.096,6.432 0,9.216 0.384,17.568 0.384,25.91999 0,12.67201 -0.96,20.064 -0.96,20.256 0,2.20801 3.072,3.36 7.392,3.36 9.312,0 24.096,-5.568 24.096,-19.29599 v -0.768 c -0.384,-7.58401 -4.608,-12.48001 -10.176,-14.4 4.032,-3.552 5.568,-7.58401 5.568,-11.32801 0,-2.208 -0.576,-4.31999 -1.44,-6.144 -2.784,-5.76 -9.312,-9.024 -13.344,-9.024 -4.032,0 -5.376,0.96 -7.776,1.72801 z m 15.072,10.17599 c 0.576,1.248 0.864,2.30401 0.864,3.36 0,6.432 -9.504,9.984 -12.672,10.94401 -0.096,-5.08801 -0.288,-10.27201 -0.288,-15.74401 v -2.68799 c 1.344,-0.57601 3.072,-1.15201 4.8,-1.15201 2.592,0 5.376,1.24801 7.296,5.28 z m 5.376,29.28001 v 0.67199 c 0,11.42401 -13.44,12.384 -17.76,12.384 0.576,-5.856 0.672,-11.424 0.672,-16.992 v -4.31999 c 2.112,-0.384 4.608,-0.672 7.008,-0.672 5.088,0 9.792,1.63199 10.08,8.928 z m 34.17596,-40.22401 c -13.632,0 -22.368,21.504 -22.368,34.36801 0,22.07999 12.192,25.82399 17.76,25.82399 11.904,0 16.608,-14.11199 17.088,-15.264 0.192,-0.48 0.288,-0.864 0.288,-1.34399 0,-1.24801 -0.768,-2.49601 -2.016,-3.072 -0.384,-0.192 -0.864,-0.288 -1.344,-0.288 -1.344,0 -2.496,0.76799 -3.072,2.11199 -1.056,2.496 -4.608,11.136 -10.944,11.136 -10.368,0 -11.04,-15.264 -11.04,-19.10399 0,-11.32801 7.872,-27.648 15.648,-27.648 h 0.576 c 1.44,0 2.688,0.192 4.416,2.49599 0.672,0.96001 1.632,1.44001 2.688,1.44001 0.672,0 1.44,-0.288 2.016,-0.672 0.864,-0.57601 1.344,-1.53601 1.344,-2.592 0,-0.76801 -0.192,-1.44001 -0.672,-2.11201 -3.36,-4.51199 -8.064,-5.28 -10.368,-5.28 z m 22.27197,2.01601 c -1.152,0.47999 -2.016,1.63199 -2.112,2.87999 -0.96,15.84 -1.92,33.408 -2.112,51.744 0,1.82401 1.344,3.264 3.168,3.36 h 1.632 c 23.232,0 26.304,-21.984 26.304,-33.408 0,-10.46399 -2.208,-25.34399 -15.168,-26.688 -0.576,-0.096 -1.248,-0.096 -1.824,-0.096 -4.416,0 -8.448,1.63201 -9.888,2.20801 z m 10.944,4.51199 c 7.968,0.86401 9.216,12.76801 9.216,20.064 0,19.87201 -8.352,26.01601 -17.664,26.688 0.288,-16.12799 1.152,-31.584 2.016,-45.79199 1.728,-0.576 3.648,-0.96001 5.472,-0.96001 z m 49.43996,-6.24 h -0.672 c -2.304,0.384 -4.128,0.57601 -5.952,0.57601 -3.648,0 -6.816,-0.67201 -11.04,-0.67201 -1.44,0 -2.976,0.096 -4.704,0.288 -1.536,0.192 -2.784,1.44001 -2.976,2.976 -0.672,6.144 -0.96,12.096 -0.96,17.952 0,10.46401 0.768,20.736 0.768,31.10401 0,3.072 -0.096,5.18399 -0.096,5.28 0,1.82399 1.536,3.168 3.264,3.168 h 0.48 c 2.304,-0.28801 4.416,-0.38401 6.432,-0.38401 2.88,0 5.568,0.19201 8.256,0.19201 3.072,0 6.24,-0.19201 9.792,-1.24801 1.536,-0.384 2.4,-1.72799 2.4,-3.168 0,-0.288 0,-0.67199 -0.096,-0.95999 -0.384,-1.53601 -1.728,-2.40001 -3.264,-2.40001 -0.288,0 -0.672,0 -0.96,0.096 -2.4,0.672 -4.8,0.864 -7.2,0.864 -2.4,0 -4.896,-0.192 -7.872,-0.192 -1.344,0 -2.784,0.096 -4.416,0.192 v -2.4 c 0,-6.432 -0.288,-12.672 -0.48,-18.912 h 1.632 c 2.304,0 4.224,-0.192 6.336,-0.192 0.672,0 1.44,0 2.208,0.096 h 0.192 c 1.728,0 3.456,-1.34399 3.456,-3.264 0,-1.728 -1.344,-3.35999 -3.072,-3.45599 -1.056,-0.096 -2.112,-0.096 -2.976,-0.096 -2.496,0 -4.512,0.192 -6.624,0.192 h -1.344 v -5.47201 c 0,-4.51199 0.096,-8.928 0.48,-13.43999 h 1.632 c 3.84,0 7.104,0.48 10.944,0.48 2.016,0 4.224,-0.096 6.912,-0.576 1.632,-0.28801 2.688,-1.72801 2.688,-3.36001 v -0.576 c -0.288,-1.63199 -1.632,-2.688 -3.168,-2.688 z m 16.89596,0 c -1.536,0.192 -2.784,1.44001 -2.976,2.976 -0.672,6.144 -0.96,12.096 -0.96,17.952 0,10.46401 0.768,20.64 0.768,31.00801 0,3.072 -0.096,5.18399 -0.096,5.27999 0,1.728 1.536,3.168 3.264,3.26401 h 0.192 c 1.728,0 3.168,-1.53601 3.264,-3.26401 0,-1.91999 0.096,-3.84 0.096,-5.75999 0,-6.52801 -0.288,-12.96001 -0.48,-19.29601 h 1.44 c 2.496,0 4.512,-0.288 6.816,-0.288 0.576,0 1.248,0 1.92,0.096 h 0.192 c 1.728,0 3.456,-1.34399 3.456,-3.264 0,-1.728 -1.344,-3.26399 -3.072,-3.35999 -1.248,-0.096 -2.304,-0.096 -3.36,-0.096 -2.304,0 -4.128,0.096 -6.048,0.096 h -1.536 v -5.47201 c 0,-4.512 0.096,-8.928 0.48,-13.43999 h 1.632 c 3.84,0 7.104,0.48 10.944,0.48 2.016,0 4.224,-0.096 6.912,-0.57601 1.632,-0.288 2.688,-1.632 2.688,-3.264 v -0.576 c -0.288,-1.63199 -1.728,-2.784 -3.36,-2.784 h -0.48 c -2.304,0.384 -4.32,0.576 -6.144,0.576 -3.552,0 -6.528,-0.576 -10.656,-0.576 -1.44,0 -3.072,0.096 -4.896,0.288 z m 54.71997,0.096 c -13.632,0 -22.368,21.50401 -22.368,34.36801 0,22.07999 12.192,25.82399 17.76,25.82399 6.24,0 11.04,-4.70399 13.536,-10.56 1.632,-3.83999 2.496,-8.256 2.496,-12.86399 0,-2.496 -0.192,-4.99201 -0.768,-7.48801 -0.384,-1.53599 -1.728,-2.592 -3.36,-2.592 -5.184,0.096 -6.816,0.576 -10.848,0.576 h -1.92 -0.192 c -1.824,0 -3.264,1.536 -3.264,3.36001 0,1.72799 1.44,3.168 3.168,3.264 0.96,0 1.728,0.096 2.496,0.096 3.168,0 5.088,-0.288 7.776,-0.48 0.096,1.15199 0.192,2.30399 0.192,3.456 0,3.64799 -0.672,7.19999 -1.92,9.98399 -1.92,4.32 -4.608,6.528 -7.392,6.528 -10.368,0 -11.04,-15.264 -11.04,-19.10399 0,-11.32801 7.872,-27.648 15.648,-27.648 h 0.288 c 1.536,0 2.88,0.096 4.704,2.59199 0.576,0.86401 1.536,1.344 2.592,1.344 0.768,0 1.44,-0.192 2.112,-0.67199 0.864,-0.576 1.344,-1.53601 1.344,-2.592 0,-0.768 -0.192,-1.44001 -0.672,-2.11201 -3.36,-4.51199 -8.064,-5.28 -10.368,-5.28 z m 21.11996,-0.096 h -0.192 c -1.728,0 -3.168,1.44001 -3.264,3.168 -0.864,19.10401 -0.768,35.808 -1.152,54.144 0,1.824 1.44,3.36001 3.264,3.36001 1.824,0 3.456,-1.44001 3.456,-3.26401 0.192,-8.25599 0.192,-16.224 0.288,-24.096 0.768,0 1.632,0.096 2.4,0.096 4.896,0 9.504,-0.768 13.728,-0.768 0.864,0 1.632,0 2.4,0.096 -0.096,4.51201 -0.192,8.928 -0.192,13.53601 0,3.83999 0.096,7.77599 0.192,11.808 0.096,1.72799 1.536,3.168 3.264,3.168 h 0.192 c 1.728,-0.096 3.264,-1.53601 3.264,-3.264 0,-0.288 -0.192,-4.80001 -0.192,-11.712 0,-13.72801 0.768,-26.20801 0.768,-42.24 0,-1.82401 -1.536,-3.36 -3.36,-3.36 -1.824,0 -3.36,1.53599 -3.36,3.36 0,7.96799 -0.192,15.072 -0.384,21.98399 -1.248,-0.096 -2.496,-0.192 -3.648,-0.192 -4.704,0 -9.12,0.672 -13.248,0.672 h -1.728 c 0.096,-11.232 0.768,-23.03999 0.768,-23.232 0,-1.72799 -1.536,-3.168 -3.264,-3.264 z m 38.20796,0.57601 h -0.192 c -1.824,0 -3.456,1.34399 -3.456,3.264 0,1.72799 1.44,3.36 3.168,3.456 1.44,0.096 2.688,0.192 3.936,0.192 1.92,0 3.84,-0.096 5.568,-0.192 v 1.34399 c 0,11.136 -0.864,20.736 -0.864,31.68001 0,4.12799 0.192,8.544 0.48,13.15199 -2.976,0.192 -6.048,0.576 -9.792,0.672 -1.728,0.096 -3.264,1.536 -3.264,3.264 0,1.824 1.44,3.45601 3.264,3.45601 h 0.192 c 7.008,-0.288 11.328,-0.86401 16.32,-0.86401 2.592,0 5.472,0.096 8.928,0.67201 h 0.48 c 1.632,0 3.072,-1.24801 3.36,-2.88 v -0.48001 c 0,-1.632 -1.248,-2.976 -2.88,-3.264 -3.84,-0.576 -7.008,-0.768 -9.888,-0.768 -0.288,-4.51199 -0.48,-8.832 -0.48,-12.86399 0,-10.75201 0.864,-20.44801 0.864,-32.06401 v -1.34399 c 1.344,0 2.784,-0.096 4.32,-0.096 1.536,0 2.976,0 4.704,0.192 h 0.288 c 1.824,0 3.36,-1.53601 3.36,-3.36 0,-1.72801 -1.344,-3.168 -3.072,-3.36001 -2.112,-0.192 -4.032,-0.288 -5.856,-0.288 -5.376,0 -9.792,0.67201 -14.976,0.67201 -1.44,0 -2.88,-0.096 -4.512,-0.192 z m 58.94397,-0.19201 c -1.536,0.38401 -2.496,1.728 -2.496,3.26401 0,0.288 0,0.576 0.096,0.864 2.304,9.024 2.592,18.81599 2.592,26.016 0,11.03999 -3.168,22.94399 -8.832,22.94399 -2.688,0 -8.736,-1.53599 -8.736,-8.928 0,-0.672 0.096,-1.43999 0.192,-2.304 v -0.48 c 0,-1.63199 -1.152,-3.072 -2.784,-3.36 h -0.48 c -1.632,0 -3.072,1.24801 -3.36,2.88 -0.192,1.056 -0.192,2.11201 -0.192,3.072 0,9.984 7.296,15.84 15.36,15.84 10.464,0 15.552,-14.01599 15.552,-29.66399 0,-7.29601 -0.192,-17.76 -2.784,-27.74401 -0.384,-1.63199 -1.824,-2.496 -3.264,-2.496 -0.288,0 -0.576,0 -0.864,0.096 z m 21.11996,-1.152 h -0.192 c -1.728,0 -3.264,1.44001 -3.36,3.168 -1.152,25.15201 -1.152,25.24801 -1.152,54.432 0,1.72801 1.536,3.168 3.264,3.264 h 0.192 c 1.728,0 3.168,-1.44 3.264,-3.168 0.384,-8.544 0.48,-16.70399 0.576,-24.768 0.576,-0.288 1.344,-0.384 2.112,-0.384 4.512,0 10.656,5.08801 10.656,23.52001 v 1.43999 c 0,1.82401 1.536,3.36 3.36,3.36 1.824,0 3.36,-1.44 3.36,-3.264 v -1.63199 c 0,-10.46401 -1.92,-25.82401 -13.152,-29.472 4.704,-7.008 8.16,-14.01601 12.096,-21.696 0.288,-0.48 0.384,-0.96001 0.384,-1.44001 0,-1.24799 -0.768,-2.496 -1.92,-3.072 -0.48,-0.192 -0.96,-0.384 -1.536,-0.384 -1.152,0 -2.4,0.672 -2.976,1.82401 -4.224,8.15999 -7.584,15.168 -12.288,21.98399 0.288,-17.088 0.48,-20.256 0.48,-20.448 0,-1.72799 -1.44,-3.168 -3.168,-3.264 z m 35.80796,0.864 c -2.208,0.096 -3.168,2.016 -3.36,3.93601 -0.48,4.03199 -0.96,21.79199 -0.96,36.096 0,7.77599 0.096,14.592 0.48,17.568 0.192,1.63199 1.632,2.976 3.264,2.976 h 0.192 c 8.928,-0.28801 13.056,-1.15201 20.448,-1.15201 1.056,0 2.208,0.096 3.456,0.096 h 0.192 c 1.824,0 3.264,-1.63199 3.264,-3.456 0,-1.72799 -1.536,-3.168 -3.264,-3.264 -1.536,0 -2.976,-0.096 -4.224,-0.096 -6.432,0 -10.464,0.576 -16.8,0.96 -0.192,-4.31999 -0.288,-10.65599 -0.288,-17.376 0,-11.61599 0.288,-24.384 0.768,-29.95199 0.096,-0.67201 0.096,-1.34401 0.096,-1.92 0,-2.59201 -0.672,-4.41601 -2.976,-4.41601 z m 37.53597,-0.576 c -1.44,0.288 -2.496,1.53601 -2.592,2.976 -1.344,14.304 -0.576,40.03201 -1.248,54.72 v 0.096 c 0,1.824 1.344,3.26401 3.168,3.36001 h 0.192 c 1.824,0 3.264,-1.34401 3.36,-3.168 0.384,-9.12001 0.384,-21.98401 0.48,-33.69601 0.096,0.384 0.096,0.76801 0.192,1.15201 1.536,8.15999 2.88,16.41599 5.376,22.07999 0.48,1.152 1.728,2.01601 3.072,2.01601 1.536,0 2.688,-1.05601 3.168,-2.40001 1.536,-4.608 3.648,-12.28799 5.952,-20.064 -0.096,12.672 -0.192,25.63201 -0.192,30.624 0,2.208 1.632,3.36001 3.36,3.36001 1.632,0 3.36,-1.05601 3.36,-3.26401 0.096,-8.44799 0.096,-40.032 0.576,-53.08799 v -0.096 c 0,-1.82401 -1.536,-3.36 -3.36,-3.36 -1.44,0 -2.592,0.768 -3.072,2.01599 -2.976,7.29601 -6.72,20.352 -9.696,30.72001 -0.672,-3.072 -1.248,-6.43201 -1.92,-9.79201 -1.536,-8.25599 -3.264,-16.70399 -6.528,-22.55999 -0.576,-1.05601 -1.728,-1.72801 -2.976,-1.72801 -0.192,0 -0.48,0.096 -0.672,0.096 z m 62.49596,0.384 h -0.096 c -1.824,0 -3.36,1.44001 -3.36,3.264 -0.096,3.072 -0.096,6.43201 -0.096,9.88801 0,5.76 0.096,11.808 0.096,18.144 0,2.88 -0.096,5.76 -0.096,8.64 -4.992,-12.76801 -10.752,-26.304 -16.032,-37.44001 -0.576,-1.15199 -1.632,-1.91999 -2.976,-1.91999 -1.728,0 -3.168,1.34399 -3.36,2.976 -0.672,5.66399 -0.864,11.23199 -0.864,16.79999 0,6.912 0.288,13.82401 0.288,20.928 0,4.99201 -0.096,10.176 -0.576,15.456 v 0.288 c 0,1.728 1.344,3.168 3.072,3.36 h 0.288 c 1.728,0 3.168,-1.344 3.36,-3.072 0.48,-5.856 0.672,-11.32799 0.672,-16.704 0,-7.296 -0.288,-14.208 -0.288,-20.92799 v -1.82401 c 5.856,13.24801 11.712,28.03201 16.032,40.22401 0.48,1.34399 1.728,2.20799 3.168,2.20799 1.824,0 3.264,-1.44 3.36,-3.168 0.48,-8.54399 0.672,-17.37599 0.672,-25.72799 0,-6.336 -0.096,-12.384 -0.096,-17.952 0,-3.552 0,-6.912 0.096,-9.98401 v -0.096 c 0,-1.82399 -1.44,-3.36 -3.264,-3.36 z m 28.79996,-0.576 c -13.344,0 -20.736,21.024 -20.736,38.592 0,13.53601 8.64,23.04001 19.008,23.04001 11.52,0 17.856,-16.51201 17.856,-29.568 0,-14.976 -4.512,-32.06401 -16.128,-32.06401 z m 0,6.72 c 8.832,0 9.408,25.15201 9.408,25.44001 0,9.98399 -4.8,22.75199 -11.136,22.75199 -7.2,0 -12.288,-7.296 -12.288,-16.32 0,-14.976 6.24,-31.872 14.016,-31.872 z m -577.05545,114.81601 -11.328,0.288 c -1.824,0 -3.456,1.15199 -3.648,2.976 -0.48,5.376 -0.576,10.36799 -0.576,15.072 0,5.28 0.096,10.27199 0.096,15.35999 0,7.008 -0.288,14.20801 -1.728,22.176 v 0.48 c 0,1.632 1.152,3.168 2.784,3.45601 h 0.576 c 1.632,0 2.976,-1.05601 3.264,-2.688 1.632,-8.928 1.92,-16.70401 1.92,-24.288 12.288,-2.208 19.296,-7.00801 22.08,-12.96001 0.864,-1.91999 1.248,-3.84 1.248,-5.664 0,-7.67999 -6.72,-14.20799 -14.4,-14.20799 z m 7.392,17.08799 c -1.44,3.072 -5.856,6.91201 -16.128,8.928 v -0.768 c 0,-1.92 -0.096,-6.144 -0.096,-10.36799 0,-2.976 0,-6.048 0.288,-8.448 1.824,-0.384 3.552,-0.576 5.184,-0.576 6.912,0 11.616,3.264 11.616,7.77599 0,1.05601 -0.288,2.304 -0.864,3.456 z m 32.06397,-18.624 c -13.344,0 -20.736,21.024 -20.736,38.592 0,11.52001 6.24,20.06401 14.4,22.368 0.672,4.992 2.304,9.60001 6.144,11.616 1.344,0.76801 2.88,1.05601 4.32,1.05601 3.264,0 6.432,-1.53601 8.064,-3.36 0.576,-0.67201 0.864,-1.44001 0.864,-2.208 0,-0.96 -0.48,-1.92001 -1.248,-2.59201 -0.672,-0.57599 -1.344,-0.86399 -2.112,-0.86399 -0.96,0 -1.92,0.48 -2.592,1.24799 -0.384,0.48 -1.44,1.152 -2.592,1.152 -0.48,0 -0.96,-0.096 -1.536,-0.384 -1.344,-0.768 -2.112,-2.688 -2.496,-5.18399 10.08,-2.01601 15.648,-17.28 15.648,-29.376 0,-15.072 -4.608,-32.06401 -16.128,-32.06401 z m 0,6.72 c 8.832,0 9.408,25.15201 9.408,25.44001 0,8.928 -3.936,20.16 -9.312,22.36799 0.096,-4.79999 0.672,-8.25599 0.672,-8.64 0,-1.72799 -1.248,-3.168 -2.976,-3.36 h -0.384 c -1.728,0 -3.168,1.24801 -3.36,2.976 -0.288,2.112 -0.576,4.992 -0.672,8.16 -4.512,-2.4 -7.392,-8.256 -7.392,-15.072 0,-14.976 6.24,-31.872 14.016,-31.872 z m 33.21596,-7.104 c -2.784,0 -5.664,0.768 -8.16,2.68801 -0.768,0.57599 -1.248,1.53599 -1.344,2.496 -0.384,6.43199 -0.48,12.47999 -0.48,18.24 0,3.64799 0.096,7.29599 0.096,10.84799 0,17.856 -1.056,21.88801 -1.056,23.616 0,1.72801 1.248,3.168 2.976,3.36 h 0.384 c 1.728,0 3.168,-1.248 3.36,-2.976 0.96,-8.832 1.056,-16.99199 1.056,-25.056 0.384,0 0.864,-0.096 1.248,-0.096 10.368,0 11.232,15.552 11.904,24.768 0.096,1.72801 1.632,3.168 3.36,3.168 h 0.192 c 1.728,-0.096 3.168,-1.63199 3.168,-3.36 0,-0.288 -0.192,-21.216 -9.408,-28.60799 6.432,-4.03201 8.544,-9.024 8.544,-13.53601 0,-2.304 -0.576,-4.41599 -1.44,-6.24 -2.88,-5.856 -8.832,-9.312 -14.4,-9.312 z m 8.352,12.288 c 0.576,1.152 0.864,2.30401 0.864,3.36 0,4.41601 -4.608,8.256 -12.48,10.84801 0,-6.144 0.096,-12.48 0.384,-19.20001 0.864,-0.48 1.824,-0.672 2.784,-0.672 3.456,0 6.912,2.688 8.448,5.664 z m 35.51996,-11.808 c -7.68,0 -16.896,6.528 -16.896,15.072 0,1.24801 0.192,2.496 0.576,3.744 3.936,12.38401 21.792,11.136 24.288,22.08001 0.192,0.67199 0.192,1.34399 0.192,1.91999 0,5.952 -6.336,11.232 -12,11.232 -0.384,0 -0.672,-0.096 -1.056,-0.096 -3.264,-0.384 -6.432,-2.304 -8.736,-8.256 -0.48,-1.344 -1.728,-2.11199 -3.072,-2.11199 -0.384,0 -0.864,0 -1.248,0.192 -1.344,0.47999 -2.112,1.72799 -2.112,3.072 0,0.38399 0,0.86399 0.192,1.24799 2.976,7.68001 8.448,11.904 14.208,12.576 0.672,0.096 1.248,0.096 1.92,0.096 9.6,0 18.624,-8.54399 18.624,-18.048 0,-1.056 -0.096,-2.20799 -0.384,-3.36 -3.264,-14.4 -21.792,-14.30399 -24.384,-22.55999 -0.192,-0.576 -0.288,-1.05601 -0.288,-1.63201 0,-4.22399 4.992,-7.96799 9.216,-8.448 0.384,0 0.768,-0.096 1.152,-0.096 2.208,0 4.224,0.86401 6.048,2.976 0.672,0.76801 1.536,1.15201 2.496,1.15201 0.768,0 1.536,-0.288 2.208,-0.76801 0.768,-0.672 1.152,-1.536 1.152,-2.49599 0,-0.76801 -0.288,-1.53601 -0.768,-2.20801 -3.072,-3.64799 -7.296,-5.28 -11.328,-5.28 z m 23.42397,0.864 h -0.192 c -1.824,0 -3.456,1.44001 -3.456,3.36001 0,1.72799 1.44,3.264 3.168,3.36 1.728,0.192 3.456,0.192 4.992,0.192 1.536,0 3.072,-0.096 4.512,-0.096 v 1.15199 c 0,11.13601 -0.864,20.832 -0.864,31.77601 0,5.18399 0.192,10.65599 0.768,16.60799 0.192,1.72801 1.632,3.072 3.36,3.072 h 0.288 c 1.728,-0.192 3.072,-1.72799 3.072,-3.456 0,-0.192 -0.768,-6.91199 -0.768,-16.31999 0,-10.65601 0.864,-20.448 0.864,-31.96801 v -1.24799 c 1.056,0 2.016,-0.096 3.072,-0.096 1.824,0 3.84,0.096 5.952,0.288 h 0.288 c 1.824,0 3.36,-1.53601 3.36,-3.36 0,-1.72801 -1.344,-3.16801 -3.072,-3.36001 -2.208,-0.192 -4.224,-0.288 -6.144,-0.288 -5.184,0 -9.504,0.57601 -14.496,0.57601 -1.536,0 -2.976,-0.096 -4.704,-0.19201 z m 64.31996,0.19201 c -1.824,0 -3.36,1.43999 -3.36,3.264 v 0.768 c 0,4.70399 0.576,12.28799 0.576,20.16 0,3.264 -0.096,6.528 -0.384,9.696 -0.672,6.23999 -1.536,18.62399 -9.888,19.00799 -8.16,-0.192 -9.696,-10.55999 -10.56,-16.89599 -0.48,-3.84001 -0.576,-8.064 -0.576,-12.28801 0,-7.392 0.672,-20.25599 0.672,-20.44799 0,-1.72801 -1.536,-3.168 -3.264,-3.264 h -0.192 c -1.728,0 -3.168,1.53599 -3.264,3.264 -0.288,5.56799 -0.768,12.86399 -0.768,20.44799 0,4.32 0.192,8.832 0.672,13.05601 1.344,11.13599 5.568,22.84799 17.28,22.84799 11.616,0 15.552,-12.384 16.608,-25.152 0.288,-3.45599 0.384,-6.91199 0.384,-10.36799 0,-8.352 -0.576,-15.93601 -0.576,-19.96801 v -0.67199 c 0,-1.82401 -1.536,-3.456 -3.36,-3.456 z m 34.65596,1.63199 c -4.8,13.63201 -7.296,27.936 -10.656,41.952 -2.88,-13.05599 -5.856,-30.048 -8.832,-41.28 -0.384,-1.53599 -1.728,-2.496 -3.264,-2.496 -0.288,0 -0.576,0 -0.864,0.096 -1.536,0.38401 -2.496,1.728 -2.496,3.26401 0,0.288 0,0.576 0.096,0.864 3.744,14.496 7.776,40.03199 12,53.568 0.384,1.34399 1.632,2.30399 3.072,2.30399 1.44,0 2.784,-0.864 3.264,-2.20799 4.128,-11.23201 9.504,-41.856 14.016,-53.56801 0.192,-0.38399 0.192,-0.86399 0.192,-1.248 0,-1.344 -0.768,-2.68799 -2.112,-3.168 -0.384,-0.192 -0.864,-0.288 -1.248,-0.288 -1.344,0 -2.688,0.86401 -3.168,2.208 z m 14.68797,-2.304 c -1.824,0 -3.456,1.44001 -3.456,3.264 v 2.4 c 0,16.22401 3.456,39.456 6.432,52.12801 0.384,1.53599 1.824,2.59199 3.36,2.59199 1.536,0 2.976,-1.152 3.264,-2.68799 1.344,-6.24001 2.784,-13.44001 4.128,-20.16 1.056,7.00799 2.208,14.208 3.168,19.96799 0.288,1.536 1.632,2.688 3.168,2.784 h 0.192 c 1.44,0 2.88,-1.056 3.264,-2.49599 5.184,-19.29601 7.776,-43.29601 7.776,-53.184 v -1.05601 c 0,-1.82399 -1.632,-3.264 -3.456,-3.264 -1.824,0 -3.264,1.63201 -3.264,3.45601 v 0.576 c 0,5.856 -1.344,20.06399 -3.84,34.55999 -1.248,-8.06399 -2.4,-16.224 -3.168,-21.696 -0.192,-1.632 -1.632,-2.88 -3.264,-2.976 h -0.192 c -1.536,0 -2.976,1.248 -3.264,2.784 -1.056,5.47201 -2.688,13.92001 -4.416,22.56 -1.824,-11.42399 -3.168,-24.576 -3.168,-34.272 v -1.824 c 0,-1.82399 -1.44,-3.456 -3.264,-3.456 z m 38.30396,0 c -1.344,0.48 -2.304,1.72801 -2.304,3.168 0,0.384 0.096,0.67201 0.192,1.05601 4.224,12.47999 8.352,19.96799 12,26.11199 -4.128,6.43201 -8.352,13.92 -11.808,26.304 -0.096,0.288 -0.096,0.672 -0.096,0.96 0,1.44 0.864,2.784 2.4,3.16801 0.288,0.096 0.672,0.096 0.96,0.096 1.44,0 2.784,-0.86401 3.168,-2.4 2.784,-9.98401 5.952,-16.22401 9.312,-21.696 3.456,5.66399 6.528,11.23199 9.6,21.312 0.48,1.43999 1.728,2.49599 3.168,2.49599 0.288,0 0.576,-0.096 0.96,-0.192 1.44,-0.48 2.496,-1.82399 2.496,-3.264 0,-0.288 -0.096,-0.576 -0.192,-0.96 -3.744,-12.38399 -7.872,-19.00799 -12,-25.728 4.224,-6.624 8.64,-13.82399 12.288,-26.30399 0.096,-0.288 0.096,-0.67201 0.096,-0.96001 0,-1.43999 -0.864,-2.784 -2.4,-3.168 -0.288,-0.096 -0.576,-0.096 -0.864,-0.096 -1.44,0 -2.784,0.86401 -3.264,2.4 -2.976,10.08 -6.24,16.032 -9.792,21.696 -3.072,-5.27999 -6.24,-11.712 -9.696,-21.888 -0.576,-1.43999 -1.824,-2.304 -3.168,-2.304 -0.384,0 -0.672,0.096 -1.056,0.192 z m 61.34396,1.72801 c -3.264,7.58399 -5.376,14.112 -8.64,20.832 -3.648,-7.29601 -7.104,-14.11201 -9.12,-20.16001 -0.48,-1.34399 -1.824,-2.304 -3.264,-2.304 -0.384,0 -0.672,0.096 -1.056,0.192 -1.344,0.48001 -2.304,1.728 -2.304,3.168 0,0.38401 0.096,0.67201 0.192,1.05601 2.88,8.544 7.968,17.472 12.384,26.688 v 3.36 c 0,5.664 0.096,10.94399 0.096,15.93599 0,4.41601 -0.096,6.912 -0.096,7.008 0,1.728 1.536,3.16801 3.264,3.26401 h 0.192 c 1.728,0 3.168,-1.53601 3.264,-3.26401 0.096,-2.01599 0.096,-4.128 0.096,-6.24 0,-5.08799 -0.096,-10.272 -0.096,-15.744 v -5.088 c 5.088,-9.216 7.488,-17.08799 11.328,-26.01599 0.192,-0.384 0.288,-0.86401 0.288,-1.34401 0,-1.34399 -0.768,-2.496 -2.112,-3.072 -0.48,-0.192 -0.864,-0.288 -1.344,-0.288 -1.248,0 -2.496,0.672 -3.072,2.01601 z m 42.91197,-1.63201 c -6.72,0 -17.856,0.57601 -25.728,0.57601 -1.824,0 -3.36,1.53599 -3.36,3.36 0,1.82399 1.536,3.36 3.36,3.36 6.144,0 14.208,-0.288 20.352,-0.48 -7.008,14.39999 -20.736,42.24 -24.48,48.864 -0.288,0.47999 -0.384,1.05599 -0.384,1.63199 0,1.728 1.44,3.36001 3.36,3.36001 h 0.096 c 6.528,-0.19201 12,-0.76801 17.568,-0.76801 2.88,0 5.76,0.192 8.736,0.576 h 0.48 c 1.632,0 3.072,-1.248 3.36,-2.87999 v -0.48001 c 0,-1.63199 -1.248,-3.072 -2.88,-3.36 -3.36,-0.48 -6.624,-0.672 -9.696,-0.672 -4.032,0 -7.968,0.288 -11.904,0.576 6.528,-12.672 19.104,-38.592 24.096,-48.864 0.192,-0.47999 0.384,-0.95999 0.384,-1.44 0,-1.72799 -1.44,-3.36 -3.36,-3.36 z m 16.70396,0.96001 c -1.536,0.096 -2.88,1.34399 -3.072,2.88 -0.576,4.89599 -0.768,9.984 -0.768,15.264 0,12.096 1.056,24.86399 1.056,37.05599 v 1.056 c 0,1.824 1.632,3.45601 3.456,3.45601 h 0.192 c 1.248,-0.096 2.496,-0.096 3.648,-0.096 2.592,0 4.992,0.096 7.68,0.096 1.632,0 3.36,0 5.184,-0.19201 1.728,-0.192 2.976,-1.632 2.976,-3.264 0,-1.82399 -1.44,-3.36 -3.264,-3.36 h -0.384 c -1.44,0.096 -2.88,0.192 -4.224,0.192 -2.784,0 -5.376,-0.192 -8.544,-0.192 -0.096,-12.096 -1.152,-24.192 -1.152,-35.23199 0,-3.93601 0.192,-7.68001 0.48,-11.232 3.456,-0.288 6.72,-0.384 10.176,-0.384 h 3.264 c 1.824,0 3.456,-1.44001 3.456,-3.264 0,-1.82401 -1.536,-3.45601 -3.36,-3.45601 -1.056,0 -2.112,-0.096 -3.168,-0.096 -4.704,0 -8.928,0.38401 -13.632,0.76801 z m 36.57596,0.384 c -1.248,0.57599 -1.92,1.72799 -1.92,2.976 0,0.47999 0.096,0.95999 0.288,1.43999 7.104,15.456 10.368,34.46401 17.28,52.32001 0.48,1.34399 1.728,2.11199 3.072,2.11199 0.384,0 0.864,0 1.248,-0.192 1.344,-0.48 2.112,-1.72799 2.112,-3.072 0,-0.384 0,-0.864 -0.192,-1.24799 -6.528,-16.99201 -9.792,-36.096 -17.472,-52.70401 -0.576,-1.24799 -1.728,-1.91999 -2.976,-1.91999 -0.48,0 -0.96,0.096 -1.44,0.288 z m 39.55197,-1.24801 h -0.48 c -1.632,0 -3.072,1.24801 -3.36,2.88 v 0.48 c 0,1.632 1.248,3.07201 2.88,3.36001 1.728,0.192 3.36,0.288 5.088,0.288 3.84,0 7.68,-0.384 10.656,-0.384 0,1.53599 -0.096,3.168 -0.096,4.79999 0,8.928 0.576,19.20001 0.576,28.99201 0,4.70399 -0.096,9.21599 -0.48,13.53599 -4.608,-0.192 -11.424,-0.48 -15.552,-0.576 -1.824,0 -3.36,1.44001 -3.36,3.264 0,1.82401 1.44,3.456 3.264,3.456 4.704,0.096 14.208,0.67201 18.624,0.67201 1.728,0 3.168,-1.24801 3.36,-2.976 0.672,-5.664 0.864,-11.712 0.864,-17.76 0,-10.08001 -0.576,-20.352 -0.576,-28.89601 0,-5.088 0.192,-7.29599 0.192,-7.67999 0,-1.63201 -1.248,-3.07201 -2.88,-3.36001 -1.536,-0.192 -3.168,-0.288 -4.8,-0.288 -3.744,0 -7.296,0.384 -10.56,0.384 -1.152,0 -2.304,0 -3.36,-0.192 z m 47.23196,0 c -0.864,0.096 -1.728,0.57601 -2.304,1.34401 -2.592,3.64799 -8.448,12.384 -10.464,17.376 -0.192,0.384 -0.288,0.864 -0.288,1.24799 0,1.344 0.768,2.688 2.112,3.168 0.384,0.192 0.864,0.288 1.248,0.288 1.344,0 2.688,-0.768 3.168,-2.112 0.864,-2.11199 4.032,-7.392 6.72,-11.51999 2.112,4.03199 4.608,8.928 6.816,12.288 0.672,0.95999 1.728,1.53599 2.88,1.53599 0.576,0 1.152,-0.192 1.728,-0.48 0.96,-0.672 1.536,-1.824 1.536,-2.976 0,-0.57599 -0.192,-1.15199 -0.48,-1.72799 -2.688,-4.22401 -6.912,-12.57601 -9.312,-16.8 -0.576,-1.056 -1.728,-1.63201 -2.88,-1.63201 z m 26.30396,53.568 c -1.728,0.096 -3.264,1.53601 -3.264,3.264 0,1.824 1.44,3.36 3.264,3.36 h 0.192 c 3.936,-0.096 7.872,-0.288 11.616,-0.288 4.128,0 8.256,0.192 12.192,0.57601 h 0.384 c 1.824,0 3.264,-1.53601 3.264,-3.36001 0,-1.63199 -1.248,-3.072 -2.976,-3.264 -4.032,-0.384 -7.872,-0.576 -12,-0.576 -3.84,0 -7.872,0.192 -12.672,0.288 z m -571.00745,67.20001 c -0.768,0.672 -1.248,1.63199 -1.248,2.59199 0,0.76801 0.288,1.44 0.864,2.112 3.264,3.84 6.72,5.856 11.232,7.87201 0.48,0.192 0.864,0.288 1.344,0.288 1.248,0 2.496,-0.768 3.072,-2.01601 0.192,-0.48 0.288,-0.864 0.288,-1.34399 0,-1.24801 -0.768,-2.49601 -2.016,-3.072 -4.128,-1.82401 -6.144,-2.976 -8.832,-6.144 -0.672,-0.76801 -1.632,-1.15201 -2.496,-1.15201 -0.768,0 -1.536,0.288 -2.208,0.86401 z m 46.55997,20.25599 c -5.568,0.096 -10.08,4.03201 -12.48,6.72001 -0.576,0.672 -0.864,1.43999 -0.864,2.30399 0,0.96001 0.384,1.824 1.056,2.496 0.576,0.576 1.44,0.864 2.208,0.864 0.96,0 1.92,-0.384 2.592,-1.152 1.056,-1.24799 4.416,-4.51199 7.776,-4.51199 1.056,0 2.112,0.288 3.168,1.15199 1.728,1.44 3.456,4.70401 4.32,10.368 -2.304,-1.91999 -5.568,-3.168 -9.312,-3.168 -1.632,0 -3.36,0.288 -5.184,0.76801 -6.336,1.82399 -10.272,7.29599 -10.272,12.86399 0,5.37601 3.84,10.94401 12.576,11.23201 h 0.768 c 7.584,0 17.856,-3.93601 18.24,-6.81601 0.192,-1.63199 0.384,-4.32 0.384,-7.488 0,-10.368 -2.112,-25.632 -14.688,-25.632 z m -1.152,21.69601 h 0.192 c 5.376,0 8.736,4.41599 9.024,8.736 -4.224,2.11199 -6.816,2.78399 -10.656,2.78399 h -1.536 c -2.112,-0.096 -6.144,-0.768 -6.144,-4.512 0,-3.55199 3.552,-6.91199 9.12,-7.00799 z m 26.01596,-42.91201 c -1.824,0 -3.36,1.44001 -3.36,3.264 v 2.496 c 0,9.98401 0.288,19.77601 0.288,29.472 0,15.072 -0.768,20.736 -0.768,21.696 0,1.72801 1.344,3.072 3.072,3.264 1.536,0.096 3.168,0.192 4.8,0.192 2.208,0 4.32,-0.096 6.432,-0.096 7.392,-0.096 18.528,-6.048 18.528,-21.024 0,-0.672 -0.096,-1.344 -0.096,-2.01599 -0.576,-8.16001 -4.992,-13.24801 -10.464,-13.92001 -0.96,-0.096 -1.824,-0.192 -2.688,-0.192 -4.704,0 -8.832,1.72801 -12.096,5.08801 -0.096,-8.16001 -0.288,-13.72801 -0.288,-21.12 v -3.74401 c 0,-1.82399 -1.536,-3.36 -3.36,-3.36 z m 14.976,29.856 h 0.768 c 4.224,0 6.048,3.744 6.432,7.87201 v 1.34399 c 0,7.776 -4.512,14.304 -11.712,14.496 h -4.8 -2.496 c 0.288,-3.456 0.768,-11.52 2.208,-15.36 2.688,-7.39199 7.2,-8.256 9.6,-8.352 z m 38.20796,-6.432 c -11.424,0 -18.624,12.096 -18.624,23.04001 0,8.256 6.048,14.88 16.32,14.88 7.104,0 12.96,-2.688 15.84,-8.25601 0.288,-0.47999 0.384,-1.05599 0.384,-1.536 0,-1.248 -0.672,-2.49599 -1.824,-3.072 -0.48,-0.288 -1.056,-0.384 -1.536,-0.384 -1.248,0 -2.4,0.67201 -2.976,1.824 -1.824,3.36 -4.224,4.70401 -9.888,4.70401 -3.168,0 -9.6,-1.05601 -9.6,-8.16 0,-5.952 3.648,-16.32001 11.904,-16.32001 4.608,0 5.376,0.57601 8.256,4.22401 0.672,0.76799 1.632,1.24799 2.592,1.24799 0.768,0 1.44,-0.288 2.112,-0.768 0.768,-0.67199 1.248,-1.632 1.248,-2.592 0,-0.76799 -0.288,-1.43999 -0.768,-2.112 -3.36,-4.22399 -7.488,-6.72 -13.44,-6.72 z m 47.13597,-23.616 c -1.632,0.288 -2.688,1.82401 -2.688,3.36 0,0.192 0,0.48001 0.096,0.67201 0.864,3.744 2.208,13.15199 2.208,18.432 v 2.4 c -2.688,-1.92001 -6.048,-2.88 -9.312,-2.88 -1.728,0 -3.36,0.288 -4.992,0.768 -7.392,2.304 -13.536,9.88799 -13.536,20.736 0,6.71999 2.112,17.27999 15.648,17.27999 9.792,0 14.208,-8.63999 16.224,-15.264 2.304,-7.77599 2.688,-16.79999 2.688,-23.03999 0,-6.24 -1.344,-14.88 -2.4,-19.87201 -0.288,-1.63199 -1.728,-2.688 -3.264,-2.688 -0.192,0 -0.48,0 -0.672,0.096 z m -2.784,43.58401 c -1.536,4.99199 -3.84,10.27199 -9.792,10.46399 -6.72,0 -8.928,-3.36 -8.928,-10.55999 0,-8.44801 4.224,-12.86401 8.832,-14.30401 0.864,-0.288 1.92,-0.47999 2.88,-0.47999 3.168,0 6.624,1.63199 8.64,5.568 -0.288,4.12799 -0.768,6.432 -1.632,9.312 z m 33.31196,-20.16001 c -7.2,0 -19.104,7.104 -19.104,21.12 0,10.36801 7.104,16.60801 15.552,16.89601 h 0.48 c 6.24,0 12.288,-3.552 15.552,-9.024 0.288,-0.576 0.48,-1.15201 0.48,-1.72801 0,-1.15199 -0.576,-2.208 -1.632,-2.88 -0.576,-0.288 -1.152,-0.48 -1.728,-0.48 -1.152,0 -2.208,0.576 -2.88,1.63201 -2.112,3.456 -6.24,5.75999 -9.888,5.75999 h -0.192 c -3.84,-0.096 -8.64,-2.49599 -8.928,-9.6 1.632,0.576 3.36,0.86401 4.992,0.86401 2.688,0 5.376,-0.67201 7.68,-1.82401 4.896,-2.496 8.832,-6.43199 8.832,-11.712 0,-4.31999 -2.976,-9.024 -9.216,-9.024 z m -0.096,6.72 c 1.824,0.096 2.592,0.288 2.592,2.304 0,0.768 -2.016,4.032 -5.184,5.664 -1.536,0.768 -3.072,1.248 -4.608,1.248 -1.248,0 -2.592,-0.288 -3.744,-1.056 2.4,-5.376 7.488,-8.16 10.944,-8.16 z m 36.47996,-31.2 h -0.192 c -8.928,0 -10.752,11.61601 -11.136,15.936 -0.384,4.51201 -0.48,8.736 -0.48,12.768 h -0.864 c -1.824,0 -3.36,1.536 -3.36,3.36001 0,1.82399 1.536,3.36 3.36,3.36 h 0.864 c 0.096,6.144 0.384,12.096 0.384,18.62399 0,1.632 -0.096,3.264 -0.096,4.89601 0,1.82399 1.44,3.456 3.264,3.456 1.824,0 3.456,-1.53601 3.456,-3.36 0,-1.72801 0.096,-3.36001 0.096,-4.99201 0,-6.62399 -0.288,-12.57599 -0.384,-18.62399 2.112,0 4.032,-0.096 8.832,-0.192 1.824,0 3.264,-1.63201 3.264,-3.45601 0,-1.824 -1.632,-3.264 -3.456,-3.264 -4.704,0.096 -6.624,0.192 -8.64,0.192 0,-3.936 0.192,-7.96799 0.48,-12.288 0.384,-4.60799 1.92,-9.696 4.32,-9.696 h 0.288 c 1.632,0.288 5.76,4.128 7.296,11.712 0.288,1.63201 1.728,2.68801 3.264,2.68801 0.192,0 0.48,0 0.672,-0.096 1.632,-0.288 2.688,-1.72801 2.688,-3.264 0,-0.192 0,-0.48 -0.096,-0.672 -0.48,-2.4 -3.84,-16.89601 -13.824,-17.08801 z m 40.12797,24.384 c -9.024,0.384 -17.568,10.08 -18.24,20.928 v 1.152 c 0,7.29601 4.32,13.824 10.176,14.784 0.768,0.096 1.632,0.192 2.4,0.192 4.992,0 10.08,-2.30399 13.536,-6.528 0.096,1.44001 0.096,3.552 0.096,4.99201 0,6.048 -1.536,17.472 -13.728,17.472 -7.392,0 -7.776,-4.80001 -7.776,-6.144 0,-1.82401 -1.536,-3.264 -3.36,-3.264 -1.824,0 -3.36,1.53599 -3.36,3.36 0.096,8.44799 5.376,12.76799 14.496,12.76799 9.12,0 20.448,-4.992 20.448,-24.19199 0,-11.80801 -0.384,-14.30401 -0.768,-20.83201 -0.384,-6.52799 -0.48,-8.256 -1.536,-9.40799 -3.36,-3.744 -7.584,-5.28001 -11.712,-5.28001 z m 0.96,6.432 c 1.824,0 4.128,0.192 6.048,2.496 0.48,1.63201 0.768,3.552 0.768,5.56801 0,3.64799 -0.96,7.58399 -3.456,10.75199 -2.592,3.26401 -7.2,5.088 -10.272,5.088 -0.384,0 -0.768,0 -1.056,-0.096 -3.552,-0.48 -4.512,-4.992 -4.512,-7.968 v -0.864 c 0.48,-7.77599 7.104,-14.976 12.384,-14.976 z m 22.65596,-29.28 c -1.728,0.096 -3.168,1.63201 -3.168,3.36001 0,0.576 0.288,3.36 0.288,26.87999 0,11.136 -0.096,22.272 -0.096,26.784 0,1.824 1.44,3.36001 3.264,3.36001 1.824,0 3.456,-1.44001 3.456,-3.26401 0.096,-4.416 0.576,-11.71199 2.496,-17.47199 1.536,-4.41601 3.648,-9.024 9.024,-9.216 2.592,0 3.84,4.41599 4.512,8.73599 0.48,3.55201 0.576,7.584 0.576,11.232 v 6.528 c 0,1.824 1.536,3.36 3.36,3.36 1.824,0 3.36,-1.44 3.36,-3.264 0,-1.91999 0.096,-4.512 0.096,-7.392 0,-3.55199 -0.096,-7.68 -0.672,-11.424 -0.96,-6.336 -3.648,-14.496 -11.232,-14.496 -5.856,0 -9.504,3.36 -11.424,5.856 0,-10.84799 -0.096,-21.6 -0.288,-26.304 -0.096,-1.72799 -1.632,-3.264 -3.36,-3.264 z m 46.75196,7.584 c -3.072,0 -6.048,2.49601 -6.048,6.432 0,3.36 2.784,6.432 6.432,6.432 2.688,0 5.76,-2.208 5.76,-6.048 0,-3.84 -2.88,-6.816 -6.144,-6.816 z m -2.784,16.99201 h -0.48 c -1.632,0 -3.072,1.15199 -3.36,2.784 -0.48,3.552 -1.632,10.27199 -1.632,16.79999 v 2.01601 c 0.192,5.376 1.92,15.35999 11.136,15.35999 7.008,0 11.52,-5.568 12.48,-10.56 0,-0.192 0.096,-0.48 0.096,-0.672 0,-1.53599 -1.152,-2.88 -2.784,-3.264 -0.192,0 -0.48,-0.096 -0.672,-0.096 -1.536,0 -2.88,1.152 -3.264,2.784 -0.768,2.976 -2.784,4.99201 -5.856,5.08801 -3.936,0 -4.224,-6.048 -4.416,-8.928 v -1.92001 c 0,-5.664 1.056,-12 1.536,-15.64799 v -0.48 c 0,-1.63201 -1.152,-2.976 -2.784,-3.264 z m 53.37597,-20.16 c -3.072,0 -6.048,2.496 -6.048,6.43199 0,3.36 2.784,6.432 6.432,6.432 2.688,0 5.76,-2.208 5.76,-6.048 0,-3.83999 -2.88,-6.81599 -6.144,-6.81599 z m 2.688,18.62399 h -0.384 c -1.632,0.288 -2.88,1.72801 -2.88,3.36 v 0.48 c 1.344,10.46401 1.728,18.24 1.728,24.67201 0,7.29599 -1.632,25.15199 -9.504,25.15199 -8.352,0 -9.696,-9.98399 -9.888,-13.34399 -0.096,-1.72801 -1.632,-3.07201 -3.36,-3.07201 h -0.192 c -1.728,0.096 -3.168,1.632 -3.168,3.36001 0,6.624 4.128,19.77599 16.608,19.77599 15.264,0 16.224,-25.82399 16.224,-31.87199 0,-6.72001 -0.384,-14.784 -1.824,-25.53601 -0.192,-1.63199 -1.536,-2.976 -3.168,-2.976 z m 15.93596,-23.904 c -1.728,0.096 -3.168,1.63201 -3.168,3.36 0,0.48 0.384,4.32001 0.384,11.13601 0,10.55999 -0.864,20.352 -0.864,31.19999 0,3.84001 0.096,7.872 0.384,12 0.096,1.728 1.728,3.168 3.456,3.168 h 0.192 c 1.728,-0.096 3.072,-1.72799 3.072,-3.456 0,-0.576 -0.384,-4.99199 -0.384,-8.832 1.92,-0.768 3.36,-0.96 4.512,-0.96 0.48,0 0.864,0 1.248,0.096 1.248,0.288 2.112,0.768 3.168,2.01601 2.112,2.39999 4.032,7.39199 8.832,10.84799 0.576,0.384 1.344,0.67201 2.016,0.67201 1.056,0 1.92,-0.48001 2.592,-1.44001 0.48,-0.67199 0.672,-1.34399 0.672,-2.112 0,-1.056 -0.48,-2.01599 -1.344,-2.592 -2.784,-2.01599 -4.512,-6.048 -7.776,-9.792 -1.344,-1.53599 -3.072,-2.976 -5.28,-3.744 4.992,-4.608 8.736,-9.40799 11.52,-12.47999 0.576,-0.576 0.864,-1.34401 0.864,-2.11201 0,-0.95999 -0.384,-1.92 -1.152,-2.592 -0.576,-0.576 -1.344,-0.864 -2.112,-0.864 -0.96,0 -1.92,0.384 -2.592,1.152 -3.744,4.22401 -8.64,10.27201 -15.072,15.36 0.192,-8.35199 0.768,-16.512 0.768,-25.248 0,-3.74399 -0.096,-7.68 -0.384,-11.712 -0.096,-1.72799 -1.632,-3.072 -3.36,-3.072 z m 43.29596,-0.48 c -1.824,0 -3.36,1.536 -3.36,3.36 0,12.576 -3.744,26.01601 -3.744,39.84 0,3.55201 0.192,7.10401 0.864,10.752 0.672,3.936 2.976,6.912 6.048,7.96801 0.96,0.288 1.92,0.48 2.88,0.48 8.448,0 17.088,-9.696 17.088,-15.264 0,-1.63201 -1.248,-3.072 -2.976,-3.264 h -0.384 c -1.632,0 -3.072,1.24799 -3.264,2.976 -0.384,3.648 -6.816,8.832 -10.272,8.832 -0.288,0 -0.576,0 -0.864,-0.096 -0.672,-0.192 -1.248,-0.48 -1.632,-2.87999 -0.48,-2.88 -0.768,-5.952 -0.768,-8.928 0,-12.76801 3.744,-26.304 3.744,-40.41601 0,-1.824 -1.536,-3.36 -3.36,-3.36 z m 31.10397,22.464 c -1.728,0.096 -3.168,1.632 -3.168,3.36001 0,0.384 0.192,2.78399 0.192,8.928 0,7.87199 -0.288,16.79999 -0.384,23.32799 0,1.824 1.536,3.36 3.36,3.36 1.824,0 3.264,-1.344 3.36,-3.168 0.192,-4.51199 0.576,-12.384 1.92,-18.912 0.672,-3.264 1.536,-6.144 2.496,-7.872 0.576,-0.96 0.96,-1.536 1.248,-1.728 0.096,0.288 0.288,0.672 0.384,1.056 0.48,1.82401 0.864,4.80001 1.056,8.064 0.096,2.30401 0.096,4.80001 0.096,7.2 v 9.504 2.4 0.096 c 0.096,1.824 1.632,3.264 3.456,3.264 1.824,0 3.264,-1.53599 3.264,-3.36 0,-6.048 0.48,-13.82399 1.728,-19.87199 0.768,-3.84001 1.92,-6.72001 2.976,-8.06401 1.152,2.88001 1.536,8.35201 1.728,12.288 0.096,2.49601 0.096,4.80001 0.096,6.816 0,5.376 -0.192,8.736 -0.192,8.928 0,1.72801 1.44,3.264 3.168,3.36 h 0.192 c 1.728,0 3.264,-1.344 3.36,-3.072 0.096,-1.056 0.192,-4.416 0.192,-9.12 0,-2.20799 0,-4.60799 -0.096,-7.2 -0.192,-4.12799 -0.48,-8.256 -1.344,-11.616 -0.864,-3.64799 -2.688,-7.58399 -6.624,-7.58399 -3.264,0 -5.568,2.39999 -7.008,4.89599 -0.48,-1.24799 -2.112,-4.89599 -5.856,-4.89599 -2.496,0 -4.512,1.34399 -6.048,3.072 v -0.28801 c -0.096,-1.728 -1.632,-3.168 -3.36,-3.168 z m 40.22396,0 c -1.728,0.096 -3.168,1.632 -3.168,3.36001 0,0.384 0.192,3.072 0.192,10.75199 0,8.25601 -0.192,17.18401 -0.288,20.928 0,2.688 1.44,3.936 3.264,3.936 1.824,0 3.456,-1.344 3.456,-3.168 0.096,-4.416 0.576,-12.288 2.496,-18.624 1.44,-4.41599 3.552,-9.98399 9.024,-10.17599 2.88,0 4.032,6.33599 4.512,9.69599 0.48,3.84 0.576,8.25601 0.576,12.096 v 6.816 c 0,1.824 1.536,3.36 3.36,3.36 1.824,0 3.36,-1.536 3.36,-3.36 v -6.24 c 0,-4.12799 -0.096,-8.928 -0.672,-13.53599 -0.96,-7.29601 -3.648,-15.552 -11.136,-15.552 -6.624,0 -10.272,4.70399 -11.328,6.144 0,-1.15201 0,-2.208 -0.096,-3.26401 -0.096,-1.728 -1.632,-3.168 -3.36,-3.168 z m 50.97596,1.728 c -10.272,0 -17.952,7.392 -17.952,20.25601 0,11.712 8.352,17.568 16.128,17.568 h 0.96 c 9.408,-0.48001 17.28,-9.60001 17.28,-17.952 0,-10.94401 -6.432,-19.87201 -16.416,-19.87201 z m 0,6.72 c 9.504,0 9.696,12.384 9.696,13.15201 0,4.41599 -4.896,10.84799 -10.944,11.23199 h -0.192 c -1.44,0 -9.792,-0.384 -9.792,-10.84799 0,-4.22401 1.152,-13.53601 11.232,-13.53601 z M 153.98192,1021.8649 c -0.576,-0.96 -1.632,-1.632 -2.784,-1.632 -0.192,0 -0.48,0.096 -0.672,0.096 -1.632,0.384 -2.784,1.632 -2.784,3.168 0,0.192 0.096,0.48 0.096,0.672 0.864,4.416 1.056,8.832 1.056,13.152 0,8.352 -0.96,16.704 -0.96,25.536 0,3.168 0.096,6.432 0.48,9.792 0.192,1.728 1.632,2.976 3.36,2.976 h 0.384 c 1.728,-0.192 2.976,-1.632 2.976,-3.36 0,-0.096 -0.384,-3.744 -0.384,-8.64 0,-3.552 0.192,-7.104 0.384,-10.656 4.512,-0.288 7.68,-0.768 12.48,-2.88 6.336,-2.784 12.384,-8.448 12.384,-16.608 0,-12.576 -7.008,-17.76 -13.728,-17.76 -5.28,0 -9.024,2.112 -12.288,6.144 z m 19.296,11.616 c 0,4.992 -3.456,8.256 -8.352,10.464 -3.552,1.536 -6.048,2.208 -8.832,2.208 h -0.576 c 0.192,-3.936 0.288,-7.968 0.864,-13.728 0.576,-5.76 5.952,-10.08 9.024,-10.176 h 0.288 c 4.704,0 7.584,4.128 7.584,11.232 z m 32.54397,-18.048 h -0.384 c -9.6,0 -18.336,11.04 -18.336,22.368 0,11.616 5.088,15.456 10.368,15.456 2.112,0 4.224,-0.576 6.048,-1.632 2.304,-1.344 4.512,-3.264 6.432,-5.664 -0.48,20.928 -0.96,24.384 -0.96,25.824 0,1.728 1.344,3.264 3.072,3.36 h 0.192 c 1.728,0 3.36,-1.44 3.456,-3.168 0.96,-13.248 1.248,-33.696 1.344,-47.328 0.288,-0.48 0.384,-0.96 0.384,-1.536 0,-0.864 -0.288,-1.728 -0.96,-2.4 -3.168,-3.36 -7.008,-5.184 -10.656,-5.28 z m -0.192,6.72 c 1.44,0 2.88,0.384 4.8,2.016 v 1.92 c 0,12.48 -6.144,17.376 -10.176,19.68 -1.056,0.576 -1.824,0.864 -2.592,0.864 -3.264,0 -3.84,-5.184 -3.84,-8.832 0,-6.624 5.568,-15.648 11.616,-15.648 z m 27.45596,-3.456 v -0.096 c 0,-1.824 -1.44,-3.552 -3.168,-3.552 -1.824,0 -3.456,1.248 -3.552,3.072 -0.288,3.264 -0.384,7.008 -0.384,10.656 0,8.16 0.48,16.416 0.48,21.216 0,1.824 1.44,3.36 3.264,3.36 1.824,0 3.36,-1.44 3.456,-3.264 v -2.88 -5.664 c 0,-3.456 0.096,-7.104 0.672,-10.176 1.632,-9.12 6.24,-9.12 8.352,-9.12 2.4,0 5.76,2.112 6.624,4.32 0.48,1.344 1.824,2.208 3.168,2.208 0.384,0 0.768,0 1.152,-0.192 1.344,-0.48 2.208,-1.92 2.208,-3.264 0,-0.384 0,-0.768 -0.192,-1.152 -1.92,-4.992 -7.776,-8.64 -12.96,-8.64 -3.648,0 -6.816,1.248 -9.12,3.168 z m 46.27196,-4.32 h -0.192 c -6.72,0 -12.096,4.128 -13.632,8.448 -0.096,0.288 -0.384,1.344 -0.384,2.688 0,3.168 1.824,8.16 13.056,9.216 5.376,0.48 7.584,2.304 8.352,3.744 0.288,0.576 0.48,1.152 0.48,1.824 0,0.96 -0.384,1.92 -1.152,3.072 -1.248,1.824 -3.456,3.264 -6.144,3.552 -0.288,0 -0.672,0.096 -1.056,0.096 -2.496,0 -5.28,-0.96 -8.544,-4.032 -0.672,-0.576 -1.44,-0.864 -2.304,-0.864 -0.96,0 -1.824,0.384 -2.496,1.056 -0.576,0.672 -0.864,1.44 -0.864,2.208 0,0.864 0.384,1.824 1.056,2.496 4.416,4.032 9.12,5.856 13.44,5.856 0.48,0 1.056,0 1.536,-0.096 4.704,-0.48 8.64,-3.072 10.944,-6.528 1.344,-2.112 2.208,-4.512 2.208,-7.008 0,-1.728 -0.384,-3.456 -1.248,-4.992 -2.208,-3.936 -6.912,-6.432 -13.632,-7.008 -4.512,-0.48 -6.912,-1.728 -6.912,-2.88 0,-1.152 2.976,-4.128 7.2,-4.128 h 0.192 c 2.4,0 4.896,0.864 7.104,3.84 0.672,0.864 1.728,1.248 2.688,1.248 0.672,0 1.44,-0.192 2.016,-0.672 0.864,-0.672 1.248,-1.728 1.248,-2.688 0,-0.672 -0.192,-1.44 -0.672,-2.016 -3.36,-4.416 -8.064,-6.336 -12.288,-6.432 z m 30.91197,-13.056 c -1.824,0 -3.456,1.536 -3.456,3.36 -0.096,8.544 -2.4,18.24 -2.4,28.032 0,4.8 0.576,9.6 2.112,14.208 1.248,3.744 4.128,6.336 7.296,7.008 0.672,0.096 1.248,0.192 1.92,0.192 7.104,0 14.688,-7.296 14.688,-15.072 0,-1.344 -0.192,-2.688 -0.672,-4.032 -0.48,-1.344 -1.728,-2.112 -3.072,-2.112 -0.384,0 -0.864,0 -1.248,0.192 -1.344,0.48 -2.208,1.728 -2.208,3.072 0,0.384 0,0.768 0.192,1.152 0.192,0.576 0.288,1.152 0.288,1.728 0,4.224 -4.896,8.352 -7.968,8.352 -0.192,0 -0.384,-0.096 -0.576,-0.096 -0.96,-0.192 -1.536,-0.48 -2.208,-2.496 -1.152,-3.552 -1.632,-7.296 -1.632,-11.328 0,-2.688 0.192,-5.568 0.48,-8.448 h 7.968 3.936 c 1.824,0 3.264,-1.632 3.264,-3.456 0,-1.824 -1.632,-3.264 -3.456,-3.264 h -3.552 -7.488 c 0.48,-4.512 0.96,-9.024 1.056,-13.536 0,-1.824 -1.44,-3.456 -3.264,-3.456 z m 57.50396,14.016 c -1.824,0 -3.36,1.536 -3.36,3.36 v 4.32 c 0,6.624 -0.192,12.672 -1.152,16.896 -0.96,3.744 -2.016,6.912 -6.432,7.008 h -0.192 c -4.512,0 -6.624,-4.032 -7.872,-7.968 -1.056,-3.552 -1.44,-8.16 -1.44,-12.768 0,-3.744 0.288,-7.104 0.288,-7.2 0,-1.728 -1.344,-3.168 -3.072,-3.36 h -0.384 c -1.632,0 -3.072,1.248 -3.264,2.976 -0.192,2.592 -0.384,5.184 -0.384,7.872 0,4.992 0.48,9.984 1.824,14.4 1.44,4.992 5.184,12.768 14.496,12.768 4.8,0 10.656,-2.304 12.96,-12.288 1.152,-4.992 1.344,-10.656 1.344,-16.8 v -5.952 c 0,-1.824 -1.536,-3.264 -3.36,-3.264 z m 11.99996,0.672 c -0.768,0.672 -1.152,1.632 -1.152,2.592 0,0.768 0.288,1.536 0.864,2.112 3.072,3.456 6.432,23.328 11.52,31.68 0.672,1.056 1.728,1.632 2.784,1.632 1.248,0 2.496,-0.672 3.072,-1.92 5.856,-12.096 9.792,-22.464 12.864,-32.256 0.096,-0.288 0.192,-0.672 0.192,-0.96 0,-1.44 -0.96,-2.688 -2.4,-3.168 -0.288,-0.096 -0.672,-0.192 -0.96,-0.192 -1.44,0 -2.784,0.96 -3.264,2.4 -2.4,7.68 -5.28,15.552 -9.312,24.48 -3.84,-8.16 -3.456,-18.912 -9.408,-26.112 -0.672,-0.768 -1.632,-1.152 -2.592,-1.152 -0.768,0 -1.632,0.288 -2.208,0.864 z m 38.49597,-0.768 c -1.632,0.384 -2.784,1.632 -2.784,3.168 0,0.192 0.096,0.48 0.096,0.672 2.112,10.656 1.056,24.192 6.912,33.6 0.576,0.96 1.632,1.44 2.688,1.44 1.248,0 2.496,-0.672 3.168,-1.92 1.248,-2.688 2.688,-6.72 3.936,-10.848 1.152,3.744 2.784,7.68 5.088,10.944 0.672,0.96 1.632,1.44 2.688,1.44 1.344,0 2.592,-0.768 3.168,-2.208 3.744,-10.368 6.624,-29.76 6.624,-32.064 0,-1.728 -1.248,-3.168 -2.976,-3.36 h -0.384 c -1.728,0 -3.168,1.248 -3.36,2.976 -0.576,5.952 -2.208,14.688 -3.84,21.696 -1.536,-4.704 -2.784,-9.888 -4.032,-13.824 -0.48,-1.344 -1.824,-2.304 -3.264,-2.304 h -0.192 c -1.536,0.096 -2.784,1.248 -3.072,2.784 -0.48,2.976 -1.92,8.256 -3.36,13.056 -1.824,-8.352 -2.112,-16.608 -3.264,-22.56 -0.384,-1.632 -1.632,-2.784 -3.168,-2.784 -0.192,0 -0.48,0.096 -0.672,0.096 z m 40.60796,0.096 c -1.344,0.48 -2.112,1.728 -2.112,3.072 0,0.384 0.096,0.864 0.288,1.248 2.304,5.952 5.472,10.08 8.832,13.824 -3.456,3.936 -7.008,8.352 -9.6,14.496 -0.192,0.48 -0.288,0.864 -0.288,1.344 0,1.248 0.768,2.496 2.016,3.072 0.48,0.192 0.864,0.288 1.344,0.288 1.248,0 2.496,-0.768 3.072,-2.016 2.112,-4.992 4.992,-8.736 8.064,-12.288 3.072,3.264 6.144,6.912 9.408,12.192 0.672,1.056 1.824,1.632 2.976,1.632 0.576,0 1.248,-0.192 1.728,-0.48 0.96,-0.672 1.536,-1.728 1.536,-2.88 0,-0.576 -0.192,-1.152 -0.48,-1.728 -3.648,-6.048 -7.392,-10.176 -10.656,-13.728 3.456,-3.744 6.816,-7.68 9.216,-12.96 0.192,-0.48 0.288,-0.96 0.288,-1.44 0,-1.248 -0.672,-2.4 -1.92,-2.976 -0.48,-0.192 -0.96,-0.288 -1.44,-0.288 -1.248,0 -2.496,0.672 -3.072,1.92 -1.824,4.032 -4.512,7.392 -7.68,10.848 -2.88,-3.264 -5.184,-6.528 -7.104,-11.328 -0.48,-1.344 -1.728,-2.112 -3.072,-2.112 -0.48,0 -0.96,0.096 -1.344,0.288 z m 40.31996,-0.768 h -0.576 c -1.632,0 -2.976,1.056 -3.264,2.688 -0.576,3.264 -0.96,7.008 -0.96,10.944 0,3.072 0.192,6.336 0.864,9.312 1.056,4.608 4.224,13.248 13.536,13.248 4.512,0 7.68,-3.264 9.312,-5.568 -0.096,1.728 -0.192,3.456 -0.384,5.184 -0.48,5.28 -2.304,18.432 -7.872,18.432 -3.84,0 -7.392,-1.824 -9.888,-5.184 -0.672,-0.864 -1.728,-1.344 -2.688,-1.344 -0.672,0 -1.344,0.192 -2.016,0.672 -0.864,0.672 -1.344,1.728 -1.344,2.688 0,0.672 0.192,1.344 0.672,2.016 3.648,4.896 9.216,7.872 15.264,7.872 9.216,0 13.248,-10.656 14.592,-24.48 0.384,-4.416 0.576,-9.024 0.576,-13.44 0,-7.584 -0.48,-14.688 -0.96,-19.296 -0.192,-1.728 -1.632,-2.976 -3.264,-2.976 h -0.384 c -1.728,0.192 -3.072,1.632 -3.072,3.36 0,0 0.096,1.632 0.096,3.36 0,5.184 -0.864,10.656 -2.496,14.784 -0.576,1.536 -2.976,7.2 -6.144,7.2 -4.512,0 -6.048,-4.224 -6.912,-7.968 -0.576,-2.496 -0.768,-5.472 -0.768,-8.448 0,-3.264 0.288,-6.432 0.768,-9.12 v -0.576 c 0,-1.632 -1.056,-3.072 -2.688,-3.36 z m 37.91997,-0.096 h -0.192 c -1.824,0 -3.36,1.632 -3.36,3.456 0,1.728 1.536,3.168 3.264,3.264 7.296,0.288 13.056,0.576 17.088,0.864 -4.512,6.816 -13.248,17.952 -20.736,25.728 -0.672,0.672 -0.96,1.536 -0.96,2.304 0,1.728 1.344,3.36 3.36,3.36 h 0.48 c 2.976,-0.384 5.76,-0.48 8.448,-0.48 4.512,0 8.928,0.288 13.728,0.288 h 2.016 c 1.824,0 3.264,-1.632 3.264,-3.456 0,-1.824 -1.632,-3.264 -3.456,-3.264 h -1.44 c -4.32,0 -8.736,-0.288 -13.344,-0.288 h -1.536 c 8.064,-9.216 15.84,-19.776 18.72,-25.44 0.288,-0.48 0.384,-1.056 0.384,-1.536 0,-1.536 -1.056,-2.88 -2.688,-3.264 -4.992,-1.056 -12.192,-1.056 -23.04,-1.536 z m 55.00796,-24.76802 c -2.304,0 -6.72,0.672 -9.216,5.27999 -1.344,2.496 -1.824,5.08803 -1.824,7.68003 0,1.536 0.192,3.168 0.384,4.608 0.192,1.344 0.288,2.592 0.288,3.744 0,1.92 -0.288,3.456 -0.768,4.512 -0.768,1.632 -1.824,2.4 -4.608,2.688 -1.92,0.192 -2.976,1.824 -2.976,3.456 0,1.632 1.248,2.88 2.784,3.168 3.072,0.48 4.128,1.248 4.704,2.592 0.288,0.672 0.48,1.728 0.48,3.168 0,1.44 -0.192,3.168 -0.672,5.376 -0.384,1.728 -0.672,3.648 -0.672,5.664 0,2.592 0.48,5.184 1.632,7.68 1.056,2.208 2.976,4.224 5.664,5.184 1.248,0.48 2.592,0.672 3.936,0.672 1.632,0 3.36,-0.288 5.28,-0.96 1.344,-0.48 2.304,-1.824 2.304,-3.264 0,-0.384 -0.096,-0.672 -0.192,-1.056 -0.48,-1.344 -1.824,-2.304 -3.264,-2.304 -0.384,0 -0.672,0.096 -1.056,0.192 -1.344,0.48 -2.4,0.672 -3.168,0.672 -0.672,0 -1.152,-0.192 -1.536,-0.288 -0.864,-0.288 -1.44,-0.768 -1.92,-1.824 -0.576,-1.248 -0.864,-3.072 -0.864,-4.896 0,-1.344 0.096,-2.784 0.384,-3.936 0.576,-2.496 0.96,-4.992 0.96,-7.104 0,-2.112 -0.384,-4.128 -1.248,-5.856 -0.576,-1.152 -1.248,-2.112 -2.208,-2.976 0.96,-0.864 1.728,-1.92 2.304,-3.072 1.056,-2.208 1.536,-4.704 1.536,-7.296 0,-1.632 -0.192,-3.264 -0.48,-4.992 -0.192,-0.96 -0.192,-2.016 -0.192,-2.976 0,-2.016 0.288,-3.93602 0.864,-4.99203 0.48,-0.768 0.864,-1.248 1.728,-1.53599 0.48,-0.192 1.152,-0.288 1.92,-0.288 0.768,0 1.536,0.096 2.592,0.38399 0.288,0.096 0.576,0.096 0.864,0.096 1.44,0 2.784,-0.95999 3.168,-2.496 0.096,-0.288 0.096,-0.57599 0.096,-0.86399 0,-1.53601 -0.96,-2.88001 -2.496,-3.264 -1.536,-0.384 -3.072,-0.576 -4.512,-0.576 z m 31.48796,-0.86401 c -1.632,0.288 -2.784,1.72801 -2.784,3.36 v 0.48001 c 0.864,5.18399 1.056,10.36802 1.056,15.64802 0,11.136 -1.248,22.656 -1.248,34.272 0,2.784 0.096,5.472 0.288,8.256 0.096,1.728 1.632,3.168 3.36,3.168 h 0.192 c 1.728,-0.096 3.168,-1.632 3.168,-3.36 0,-0.096 -0.192,-3.168 -0.192,-7.392 0,-11.136 1.248,-22.56 1.248,-34.176 0,-5.76 -0.288,-11.61603 -1.248,-17.47203 -0.288,-1.63199 -1.728,-2.784 -3.36,-2.784 z m 34.17597,-0.768 c -1.824,0 -3.648,0.384 -5.568,1.056 -1.344,0.48 -2.208,1.824 -2.208,3.168 0,0.38401 0,0.76801 0.192,1.15201 0.48,1.34399 1.728,2.11199 3.072,2.11199 0.384,0 0.864,0 1.248,-0.192 1.344,-0.48 2.496,-0.672 3.264,-0.672 1.152,0 1.824,0.384 2.4,1.05601 0.768,0.768 1.344,2.49599 1.344,4.99202 0,0.864 0,1.728 -0.192,2.688 -0.288,1.824 -0.48,3.552 -0.48,5.088 0,3.168 0.672,5.856 2.016,8.064 0.768,1.248 1.728,2.208 2.88,3.072 -2.688,2.976 -4.32,7.296 -4.32,12.288 0,2.112 0.288,4.224 0.864,6.528 0.096,0.576 0.192,1.152 0.192,1.728 0,2.016 -0.768,4.128 -1.92,5.568 -0.768,0.864 -1.536,1.44 -2.304,1.632 -0.768,0.192 -1.344,0.192 -2.4,-0.384 -0.48,-0.288 -1.056,-0.384 -1.632,-0.384 -1.248,0 -2.4,0.576 -2.976,1.728 -0.288,0.48 -0.384,1.056 -0.384,1.632 0,1.152 0.576,2.304 1.728,2.88 1.536,0.864 3.264,1.344 4.896,1.344 0.864,0 1.728,-0.192 2.496,-0.384 2.304,-0.672 4.32,-2.016 5.76,-3.744 2.208,-2.688 3.552,-6.144 3.552,-9.696 0,-1.152 -0.192,-2.4 -0.48,-3.552 -0.576,-2.112 -0.768,-3.936 -0.768,-5.568 0,-5.28 2.592,-8.064 5.664,-9.024 1.344,-0.48 2.4,-1.728 2.4,-3.168 0,-1.536 -1.152,-3.072 -2.688,-3.36 -2.688,-0.576 -4.032,-1.344 -4.896,-2.688 -0.576,-0.864 -0.96,-2.208 -0.96,-4.32 0,-1.152 0.096,-2.496 0.384,-4.128 0.192,-1.44 0.384,-2.88 0.384,-4.224 0,-3.55203 -0.96,-6.72002 -3.072,-9.12003 -1.824,-2.016 -4.512,-3.168 -7.488,-3.168 z m 37.53596,27.84003 c -3.648,0.768 -6.24,4.032 -7.104,8.352 0,0.192 -0.096,0.48 -0.096,0.672 0,1.536 1.152,2.88 2.784,3.264 0.192,0.096 0.48,0.096 0.672,0.096 1.536,0 2.976,-1.056 3.264,-2.688 0.48,-2.496 1.536,-3.072 1.824,-3.168 0.288,-0.096 0.864,-0.192 1.728,1.728 1.536,3.264 4.704,5.472 7.968,5.472 0.576,0 1.056,-0.096 1.632,-0.192 5.184,-1.152 6.816,-7.392 6.816,-9.696 0,-1.728 -1.44,-3.36 -3.168,-3.456 h -0.192 c -1.728,0 -3.264,1.44 -3.36,3.168 -0.192,2.88 -1.248,3.36 -1.632,3.456 -0.384,0.096 -1.056,0.096 -1.92,-1.632 -1.728,-3.744 -4.992,-5.472 -7.872,-5.472 -0.48,0 -0.864,0 -1.344,0.096 z"
       id="text1"
       style="font-size:96px;font-family:honchokomono;-inkscape-font-specification:'honchokomono, Normal';white-space:pre;fill:#dddddd;stroke-width:60;stroke-linecap:round;stroke-linejoin:round"
       transform="matrix(0.26458333,0,0,0.26458333,-21.455244,-31.262598)"
       aria-label=" !&quot;#$%&amp;'()*+,-./&#10;0123456789:;&lt;=&gt;?&#10;@ABCDEFGHIJKLMNO&#10;PQRSTUVWXYZ[\]^_&#10;`abcdefghijklmno&#10;pqrstuvwxyz{|}~&#10;" />
  </g>
</svg>
