<?xml version="1.0" encoding="UTF-8" standalone="no"?>
<!-- Created with Inkscape (http://www.inkscape.org/) -->

<svg
   width="197.93149mm"
   height="216.44824mm"
   viewBox="0 0 197.93149 216.44824"
   version="1.1"
   id="svg1"
   inkscape:version="1.3.2 (091e20ef0f, 2023-11-25)"
   sodipodi:docname="ascii.svg"
   xmlns:inkscape="http://www.inkscape.org/namespaces/inkscape"
   xmlns:sodipodi="http://sodipodi.sourceforge.net/DTD/sodipodi-0.dtd"
   xmlns="http://www.w3.org/2000/svg"
   xmlns:svg="http://www.w3.org/2000/svg">
  <sodipodi:namedview
     id="namedview1"
     pagecolor="#ffffff"
     bordercolor="#000000"
     borderopacity="0.25"
     inkscape:showpageshadow="2"
     inkscape:pageopacity="0.0"
     inkscape:pagecheckerboard="0"
     inkscape:deskcolor="#d1d1d1"
     inkscape:document-units="mm"
     inkscape:zoom="0.68437287"
     inkscape:cx="267.39809"
     inkscape:cy="279.08763"
     inkscape:window-width="1920"
     inkscape:window-height="1048"
     inkscape:window-x="0"
     inkscape:window-y="32"
     inkscape:window-maximized="0"
     inkscape:current-layer="layer1" />
  <defs
     id="defs1">
    <rect
       x="168.50119"
       y="198.53492"
       width="633.50897"
       height="733.55776"
       id="rect3" />
    <rect
       x="144.6705"
       y="368.2973"
       width="622.01013"
       height="714.67761"
       id="rect1" />
  </defs>
  <g
     inkscape:label="Layer 1"
     inkscape:groupmode="layer"
     id="layer1"
     transform="translate(0.96541627,-54.668993)">
    <rect
       style="fill:#001122;stroke-width:24.3471;stroke-linecap:round;stroke-linejoin:round"
       id="rect2"
       width="197.93149"
       height="216.44824"
       x="-0.96541625"
       y="54.668995" />
    <path
       d="m 215.21468,227.59697 v 0.384 c 0.384,3.648 0.48,7.008 0.48,10.368 0,6.432 -0.48,12.864 -0.48,20.448 0,1.152 0,2.304 0.096,3.456 0,1.824 1.536,3.264 3.36,3.264 1.92,0 3.36,-1.536 3.36,-3.36 -0.096,-1.056 -0.096,-2.112 -0.096,-3.072 0,-7.392 0.576,-13.92 0.576,-20.736 0,-3.648 -0.192,-7.296 -0.576,-11.232 -0.192,-1.632 -1.632,-2.88 -3.36,-2.88 -1.92,0 -3.36,1.536 -3.36,3.36 z m -2.016,49.728 c 0,3.168 2.88,6.048 6.144,6.048 3.168,0 5.76,-2.592 5.76,-5.76 0,-3.168 -2.784,-6.048 -6.144,-6.048 -3.072,0 -5.76,2.496 -5.76,5.76 z m 53.47197,-40.608 v -8.448 c 0,-1.824 -1.536,-3.36 -3.36,-3.36 -1.824,0 -3.36,1.536 -3.36,3.36 v 8.544 c 0,1.824 1.536,3.264 3.36,3.264 1.824,0 3.36,-1.536 3.36,-3.36 z m -11.52,0 v -8.448 c 0,-1.824 -1.536,-3.36 -3.36,-3.36 -1.824,0 -3.36,1.536 -3.36,3.36 v 8.544 c 0,1.824 1.536,3.264 3.36,3.264 1.824,0 3.36,-1.536 3.36,-3.36 z m 38.11196,11.424 h 7.104 c -0.672,4.128 -1.248,8.16 -1.92,12.288 h -7.296 c 0.672,-4.032 1.44,-8.256 2.112,-12.288 z m 16.8,-20.448 c 0,-1.824 -1.536,-3.36 -3.36,-3.36 -1.728,0 -3.168,1.344 -3.36,2.976 -0.48,4.32 -1.152,9.12 -1.92,14.112 h -7.104 c 1.344,-8.928 1.632,-13.152 1.632,-13.248 0,-1.824 -1.536,-3.36 -3.36,-3.36 -1.728,0 -3.168,1.344 -3.36,3.072 -0.384,4.032 -0.96,8.64 -1.728,13.536 -4.608,-0.096 -6.432,-0.288 -6.816,-0.288 -1.824,0 -3.36,1.536 -3.36,3.36 0,1.824 1.44,3.264 3.168,3.36 1.728,0.096 3.84,0.192 5.952,0.288 -0.672,4.032 -1.44,8.16 -2.112,12.288 h -3.552 c -1.824,0 -3.264,1.536 -3.264,3.36 0,1.92 1.536,3.36 3.36,3.36 h 2.304 c -1.728,10.464 -2.208,14.208 -2.208,14.496 0,1.824 1.536,3.36 3.36,3.36 1.728,0 3.168,-1.248 3.36,-2.88 0.576,-4.416 1.344,-9.6 2.304,-14.976 h 7.296 c -2.016,12.48 -2.112,14.112 -2.112,14.208 0,1.824 1.536,3.36 3.36,3.36 1.728,0 3.168,-1.248 3.36,-2.88 0.672,-4.512 1.344,-9.408 2.208,-14.592 2.016,0 4.032,-0.096 5.856,-0.096 1.824,0 3.264,-1.536 3.264,-3.36 0,-1.92 -1.536,-3.36 -3.36,-3.36 h -4.608 c 0.672,-4.128 1.248,-8.352 1.92,-12.48 1.44,0 2.88,0 4.224,-0.096 1.824,-0.096 3.168,-1.536 3.168,-3.36 0,-1.92 -1.536,-3.36 -3.36,-3.36 h -0.096 c -0.96,0 -1.92,0.096 -2.88,0.096 1.44,-9.408 1.824,-13.44 1.824,-13.536 z m 21.79196,20.544 c -3.552,-1.632 -5.088,-4.224 -5.088,-6.528 0,-2.976 2.592,-5.568 7.008,-5.568 0.192,0 0.384,0 0.576,0 -0.864,4.128 -1.728,8.16 -2.496,12.096 z m 5.088,8.448 c 5.568,1.44 7.68,4.224 7.68,7.008 0,4.32 -5.184,8.832 -10.56,8.832 -0.192,0 -0.384,0 -0.576,-0.096 1.248,-5.664 2.4,-10.752 3.456,-15.744 z m 2.4,-32.352 c -2.784,0 -3.072,2.016 -3.744,5.184 -0.672,0 -1.344,0 -1.92,0 -8.448,0 -13.536,5.856 -13.536,12.288 0,4.992 3.168,10.368 10.368,13.152 -1.056,4.8 -2.112,9.696 -3.36,14.976 -3.456,-2.688 -3.456,-4.8 -6.048,-4.8 -1.824,0 -3.36,1.536 -3.36,3.36 0,2.688 5.376,6.912 7.872,8.352 -1.056,4.32 -1.056,4.32 -1.056,4.704 0,1.824 1.536,3.36 3.36,3.36 1.632,0 2.88,-1.152 3.264,-2.592 0.288,-1.056 0.48,-2.208 0.768,-3.264 0.768,0.192 1.536,0.192 2.4,0.192 9.504,0 16.992,-8.064 16.992,-15.936 0,-5.472 -3.648,-10.848 -12.96,-13.248 0.864,-4.032 1.536,-8.064 2.4,-12.192 4.224,1.92 4.896,3.36 6.72,3.36 1.824,0 3.36,-1.536 3.36,-3.36 0,-1.152 -0.576,-2.208 -1.44,-2.784 -2.496,-1.728 -4.992,-2.976 -7.296,-3.936 0.576,-3.072 0.576,-3.168 0.576,-3.456 0,-1.824 -1.536,-3.36 -3.36,-3.36 z m 31.58397,13.536 c 0,-5.856 -1.92,-11.232 -6.816,-11.232 -5.76,0 -8.928,7.2 -8.928,14.016 0,6.048 2.496,11.712 8.064,11.712 5.376,0 7.68,-8.352 7.68,-14.496 z m -7.2,-4.128 c 0.288,0.96 0.48,2.304 0.48,3.84 0,2.688 -0.576,5.952 -1.44,7.68 -0.672,-1.248 -0.96,-2.784 -0.96,-4.32 0,-2.976 0.96,-5.856 1.92,-7.2 z m 18.144,20.832 c -7.392,0 -7.584,11.04 -7.584,12.384 0,0.096 0.096,0.096 0.096,0.096 0.192,12.192 7.968,12.288 8.448,12.288 4.8,0 7.392,-5.952 7.392,-12.096 0,-6.24 -2.688,-12.672 -8.352,-12.672 z m 0.288,6.816 c 0.768,0.864 1.248,3.456 1.248,6.048 0,1.92 -0.288,3.84 -0.96,4.992 -0.96,-1.152 -1.44,-3.456 -1.44,-5.856 0,-2.016 0.384,-4.032 1.152,-5.184 z m -21.12,21.888 c 1.44,0 2.688,-0.96 3.168,-2.208 7.776,-21.216 23.136,-49.536 23.136,-52.224 0,-1.824 -1.44,-3.264 -3.264,-3.36 h -0.096 c -1.344,0 -2.592,0.864 -3.072,2.016 -7.296,16.128 -16.608,33.888 -22.944,51.168 -0.096,0.384 -0.288,0.864 -0.288,1.248 0,1.824 1.536,3.36 3.36,3.36 z m 59.23196,-47.904 c 0,-4.416 -3.744,-8.064 -9.12,-8.064 -5.76,0 -12.288,4.032 -12.288,12 0,4.224 1.92,9.984 2.4,11.232 -5.28,5.184 -7.872,12.096 -7.872,18.24 0,9.216 5.472,14.304 11.52,14.304 3.84,0 8.832,-2.016 14.688,-8.544 3.456,2.88 4.608,3.744 5.952,3.744 1.824,0 3.36,-1.536 3.36,-3.36 0,-1.152 -0.48,-2.208 -1.344,-2.784 -1.344,-0.96 -2.592,-1.92 -3.744,-2.88 2.016,-2.784 2.304,-3.168 2.304,-4.32 0,-1.824 -1.536,-3.36 -3.36,-3.36 -1.728,0 -2.112,0.576 -4.032,3.264 -4.416,-4.224 -7.488,-8.352 -9.504,-12.48 8.352,-7.68 11.04,-13.152 11.04,-16.992 z m -6.72,0.192 c 0,2.784 -5.28,8.352 -6.816,9.888 -0.768,-2.88 -1.056,-4.992 -1.056,-6.528 0,-4.128 3.072,-4.896 5.376,-4.896 2.496,0 2.496,1.152 2.496,1.536 z m -13.344,33.216 c 0,-3.456 1.152,-7.68 4.128,-11.52 2.4,4.32 5.76,8.544 10.176,12.768 -1.824,2.016 -6.432,6.528 -10.176,6.528 -2.208,0 -4.128,-3.264 -4.128,-7.776 z m 52.70396,-32.064 v -8.448 c 0,-1.824 -1.536,-3.36 -3.36,-3.36 -1.824,0 -3.36,1.536 -3.36,3.36 v 8.544 c 0,1.824 1.536,3.264 3.36,3.264 1.824,0 3.36,-1.536 3.36,-3.36 z m 43.39197,-12.288 c -0.192,0 -0.384,0 -0.48,0 -0.096,0 -0.192,0 -0.192,0 -11.52,2.592 -19.488,17.856 -19.488,32.544 0,21.312 17.088,27.936 20.16,27.936 1.824,0 3.36,-1.536 3.36,-3.36 0,-1.536 -0.96,-2.784 -2.304,-3.168 -10.56,-3.264 -14.496,-12.288 -14.496,-21.6 0,-11.712 6.432,-24 14.208,-25.728 1.536,-0.288 2.592,-1.632 2.592,-3.264 0,-1.92 -1.536,-3.36 -3.36,-3.36 z m 40.79996,28.704 c 0,-10.464 -4.128,-21.024 -13.728,-28.416 -0.576,-0.48 -1.248,-0.768 -2.016,-0.768 -1.92,0 -3.36,1.536 -3.36,3.36 0,1.056 0.576,2.112 1.344,2.688 7.872,6.144 11.136,14.592 11.136,22.944 0,10.848 -5.472,21.504 -13.344,26.304 -0.96,0.576 -1.632,1.536 -1.632,2.784 0,1.824 1.44,3.36 3.36,3.36 3.36,0 18.24,-11.904 18.24,-32.256 z m 30.81596,-5.568 c 0,-3.264 -0.096,-6.432 -0.096,-9.6 0,-1.824 -1.44,-3.36 -3.264,-3.36 h -0.096 c -1.824,0 -3.36,1.536 -3.36,3.36 0,2.88 0.096,5.856 0.096,8.832 -5.184,-3.36 -5.28,-4.992 -7.584,-4.992 -1.824,0 -3.36,1.536 -3.36,3.36 0,0.96 0.48,1.92 1.152,2.496 2.688,2.496 5.088,4.128 7.296,5.472 -2.4,1.632 -5.088,3.552 -7.776,6.336 -0.576,0.576 -0.96,1.44 -0.96,2.4 0,1.824 1.536,3.36 3.36,3.36 2.4,0 2.496,-1.92 7.968,-5.76 0,5.856 -0.288,9.216 -0.288,9.312 0,1.824 1.536,3.36 3.36,3.36 1.824,0 3.264,-1.344 3.36,-3.168 0.192,-3.264 0.288,-6.72 0.288,-10.176 5.088,3.936 5.28,6.24 7.872,6.24 1.824,0 3.36,-1.536 3.36,-3.36 0,-0.864 -0.384,-1.632 -0.864,-2.208 -2.4,-2.688 -4.704,-4.8 -6.816,-6.336 2.304,-1.536 4.704,-3.456 7.104,-6.144 0.576,-0.576 0.864,-1.44 0.864,-2.304 0,-1.824 -1.536,-3.36 -3.36,-3.36 -2.592,0 -2.496,2.304 -8.256,6.24 z m 31.58397,-6.912 c 0,0.096 0.288,4.8 0.384,10.848 -2.784,0 -5.76,0.096 -9.408,0.192 -1.824,0.096 -3.264,1.536 -3.264,3.36 0,1.92 1.536,3.36 3.36,3.36 0.096,0 4.224,-0.096 9.312,-0.192 0,3.36 0,6.912 0.096,11.04 0,1.824 1.536,3.264 3.36,3.264 1.92,0 3.36,-1.536 3.36,-3.36 0,-0.096 -0.096,-1.92 -0.096,-10.944 2.784,0 5.664,-0.096 9.024,-0.192 1.824,0 3.264,-1.536 3.264,-3.36 0,-1.92 -1.536,-3.36 -3.36,-3.36 h -0.096 c -3.264,0.096 -6.048,0.192 -8.832,0.192 -0.096,-3.36 -0.288,-6.912 -0.48,-11.04 -0.096,-1.728 -1.44,-3.168 -3.264,-3.168 -1.92,0 -3.36,1.536 -3.36,3.36 z m 43.00796,29.568 c -1.92,0 -3.36,1.536 -3.36,3.36 v 0.576 c 0.096,0.672 0.096,1.344 0.096,2.016 0,5.472 -3.648,10.752 -7.008,12.192 -1.248,0.48 -2.016,1.632 -2.016,3.072 0,1.824 1.44,3.36 3.36,3.36 3.36,0 12.48,-6.912 12.48,-18.144 0,-1.92 0,-6.432 -3.552,-6.432 z m 24.86396,-11.808 h 0.192 c 10.368,-0.384 15.648,-0.192 24.864,-0.384 1.824,0 3.264,-1.536 3.264,-3.36 0,-1.92 -1.536,-3.36 -3.36,-3.36 h -0.096 c -9.024,0.192 -14.4,0 -24.96,0.384 -1.824,0.096 -3.264,1.536 -3.264,3.36 0,1.92 1.536,3.36 3.36,3.36 z m 45.02397,18.912 c 0,3.168 2.88,6.048 6.144,6.048 3.168,0 5.76,-2.592 5.76,-5.76 0,-3.168 -2.784,-6.048 -6.144,-6.048 -3.072,0 -5.76,2.496 -5.76,5.76 z m 32.92796,6.048 c 1.44,0 2.688,-0.96 3.168,-2.304 6.432,-19.296 23.04,-49.344 23.04,-52.128 0,-1.824 -1.44,-3.36 -3.264,-3.36 h -0.096 c -1.344,0 -2.592,0.864 -3.072,2.016 -4.032,9.312 -17.184,33.984 -22.944,51.36 -0.096,0.288 -0.192,0.672 -0.192,1.056 0,1.824 1.536,3.36 3.36,3.36 z m -557.24022,115.296 c -1.344,0 -3.264,-0.48 -5.184,-1.536 12,-30.432 12.096,-30.432 14.688,-36.48 1.248,4.8 1.824,10.56 1.824,15.552 0,6.912 -3.264,22.464 -11.328,22.464 z m 5.76,-46.272 c -3.552,7.968 -6.72,15.936 -15.936,39.264 -1.152,-2.304 -1.92,-5.472 -1.92,-9.6 0,-15.936 6.528,-31.68 14.016,-31.68 1.056,0 2.304,0.288 3.84,2.016 z m 6.24,-8.352 c -2.016,0 -2.784,1.44 -3.168,2.112 -1.92,-1.44 -4.32,-2.496 -6.912,-2.496 -12.768,0 -20.736,19.68 -20.736,38.4 0,7.584 2.4,13.344 5.664,17.088 -1.344,3.36 -1.344,3.36 -1.344,4.032 0,1.824 1.536,3.36 3.36,3.36 2.304,0 2.88,-1.632 3.456,-3.072 2.592,1.344 5.376,1.92 7.68,1.92 13.056,0 18.048,-18.432 18.048,-29.184 0,-13.824 -3.264,-21.6 -4.608,-24.288 l 1.44,-2.88 c 0.288,-0.48 0.48,-1.056 0.48,-1.632 0,-1.824 -1.536,-3.36 -3.36,-3.36 z m 23.80797,13.632 c 0.192,7.488 0.288,14.592 0.288,20.832 0,8.16 -0.192,14.976 -0.384,19.488 -1.824,0 -3.552,0 -5.184,0 -4.8,0 -8.448,0 -8.448,3.552 0,1.92 1.44,3.36 3.264,3.36 h 0.48 c 1.248,-0.096 2.784,-0.192 4.608,-0.192 3.456,0 7.68,0.192 11.616,0.192 3.36,0 6.528,-0.096 9.12,-0.576 1.632,-0.288 2.784,-1.632 2.784,-3.264 0,-1.92 -1.536,-3.36 -3.36,-3.36 -0.096,0 -2.592,0.384 -8.16,0.384 0.288,-4.704 0.384,-11.328 0.384,-19.104 0,-9.312 -0.192,-20.352 -0.672,-31.968 -0.096,-1.824 -1.536,-3.168 -3.36,-3.168 -1.056,0 -2.016,0.48 -2.592,1.152 -4.512,5.184 -5.952,9.6 -9.12,13.248 -0.48,0.576 -0.768,1.344 -0.768,2.208 0,1.824 1.536,3.36 3.36,3.36 1.536,0 2.592,-0.672 6.144,-6.144 z m 46.17596,1.728 c 0,14.112 -21.984,36.864 -21.984,42.24 0,1.824 1.536,3.36 3.36,3.36 h 0.288 c 2.208,-0.192 4.704,-0.192 7.488,-0.192 2.688,0 5.664,0 8.448,0 4.032,0 7.872,-0.096 11.136,-0.576 1.632,-0.192 2.88,-1.632 2.88,-3.36 0,-1.92 -1.536,-3.36 -3.36,-3.36 h -0.48 c -2.976,0.48 -7.104,0.48 -11.616,0.48 -1.536,0 -3.072,0 -4.608,0 -1.344,0 -2.784,0 -4.128,0 5.472,-8.352 14.112,-18.912 17.856,-30.24 0.96,-2.976 1.44,-5.76 1.44,-8.256 0,-9.6 -6.624,-15.072 -13.536,-15.072 -9.696,0 -15.936,10.944 -15.936,14.784 0,1.824 1.536,3.36 3.36,3.36 1.536,0 2.88,-0.96 3.264,-2.4 1.824,-6.336 5.664,-9.024 9.216,-9.024 3.456,0 6.912,2.592 6.912,8.256 z m 31.48796,36.48 c -3.264,0 -6.624,-1.344 -8.736,-4.8 -0.576,-0.96 -1.728,-1.536 -2.88,-1.536 -1.824,0 -3.36,1.44 -3.36,3.36 0,2.208 5.184,9.696 15.168,9.696 6.528,0 17.472,-3.936 17.472,-15.072 0,-10.08 -6.624,-14.784 -8.064,-15.744 4.32,-3.264 6.24,-7.488 6.24,-11.52 0,-7.392 -6.144,-14.304 -13.92,-14.304 -8.16,0 -14.4,8.448 -14.4,10.752 0,1.824 1.44,3.36 3.264,3.36 1.152,0 2.304,-0.576 2.88,-1.536 2.976,-4.608 5.952,-5.856 8.256,-5.856 0,0 0,0 0,0 3.744,0 7.2,3.552 7.2,7.488 0,3.552 -2.88,7.488 -10.848,9.504 -1.44,0.384 -2.496,1.728 -2.496,3.264 0,1.824 1.536,3.36 3.36,3.36 h 0.48 c 0.576,0 1.152,-0.096 1.728,-0.096 7.776,0 9.6,7.872 9.6,11.712 0,5.184 -6.528,7.968 -10.944,7.968 z m 51.55197,-51.552 c -1.728,0 -3.168,1.344 -3.36,3.072 -0.576,6.72 -1.152,14.208 -1.536,21.984 -4.896,0.768 -10.464,0.672 -15.456,0.96 0.768,-10.368 3.264,-17.952 3.264,-19.68 0,-1.824 -1.536,-3.36 -3.36,-3.36 -1.632,0 -2.976,1.152 -3.264,2.688 -2.016,9.408 -3.552,16.896 -3.552,24 0,1.824 1.536,3.36 3.36,3.36 0.192,0 15.36,-0.672 18.624,-1.152 -0.48,8.448 -0.864,17.088 -1.344,24.96 v 0.192 c 0,1.824 1.536,3.36 3.36,3.36 1.824,0 3.264,-1.44 3.36,-3.168 1.152,-17.472 1.824,-37.92 3.168,-53.568 0,-0.096 0.096,-0.192 0.096,-0.288 0,-1.824 -1.536,-3.36 -3.36,-3.36 z m 42.71996,39.36 c 0,-9.504 -5.568,-18.432 -17.088,-18.432 -2.304,0 -4.8,0.384 -7.488,1.056 0.384,-4.992 0.576,-10.56 0.768,-14.304 6.72,-0.192 13.92,-0.384 21.888,-1.152 1.728,-0.192 3.072,-1.632 3.072,-3.36 0,-1.92 -1.536,-3.36 -3.36,-3.36 h -0.384 c -8.736,0.864 -16.896,1.056 -24.48,1.344 -1.632,0.096 -3.072,1.248 -3.264,2.88 -0.576,5.184 -0.672,16.416 -1.44,22.464 v 0.384 c 0,1.824 1.536,3.36 3.36,3.36 1.536,0 5.664,-2.688 11.136,-2.688 7.488,0 10.56,5.472 10.56,11.424 0,7.2 -4.416,15.456 -12.672,15.456 -4.896,0 -9.12,-3.072 -10.656,-3.072 -1.824,0 -3.36,1.536 -3.36,3.36 0,1.248 0.768,2.4 1.824,2.976 4.32,2.304 8.448,3.36 12.192,3.36 12.384,0 19.392,-11.136 19.392,-21.696 z m 38.68796,3.36 c 0,-9.984 -6.912,-19.68 -15.552,-19.68 -3.168,0 -6.528,1.248 -9.888,4.32 1.152,-6.816 4.608,-12.96 15.36,-20.736 0.864,-0.576 1.344,-1.632 1.344,-2.784 0,-1.824 -1.536,-3.36 -3.36,-3.36 -0.768,0 -1.344,0.288 -1.92,0.672 -14.88,10.752 -18.72,19.968 -18.72,32.928 0,19.296 8.16,26.592 16.32,26.592 7.584,0 16.416,-6.432 16.416,-17.952 z m -16.416,11.136 c -4.224,0 -8.448,-3.84 -9.408,-15.36 3.744,-6.336 7.296,-8.736 10.272,-8.736 5.184,0 8.64,7.008 8.64,13.152 0,8.352 -6.528,10.944 -9.504,10.944 z m 21.40797,-49.728 c 0,1.728 1.44,3.264 3.168,3.36 2.304,0.192 4.512,0.288 6.816,0.288 4.32,0 9.024,-0.288 15.456,-0.48 -5.568,13.056 -14.592,36.768 -17.568,48.768 -0.096,0.288 -0.096,0.576 -0.096,0.864 0,1.824 1.536,3.36 3.36,3.36 1.536,0 2.88,-1.152 3.264,-2.592 3.072,-12.384 14.592,-42.24 19.296,-52.512 0.192,-0.384 0.288,-0.96 0.288,-1.44 0,-1.824 -1.536,-3.36 -3.36,-3.36 h -0.096 c -9.792,0.288 -15.648,0.672 -20.832,0.672 -2.112,0 -4.032,-0.096 -6.048,-0.288 h -0.288 c -1.824,0 -3.36,1.536 -3.36,3.36 z m 39.35996,9.216 c 0,6.528 5.856,12.192 8.064,14.016 -6.144,9.6 -8.16,16.32 -8.16,21.216 0,7.584 5.376,11.616 11.616,11.616 8.64,0 18.816,-7.2 18.816,-16.416 0,-9.312 -8.544,-14.88 -13.056,-17.952 3.552,-4.992 8.256,-10.656 14.112,-17.088 0.576,-0.576 0.864,-1.344 0.864,-2.208 0,-1.824 -1.536,-3.36 -3.36,-3.36 -1.44,0 -2.208,0.672 -2.88,1.44 -4.608,-3.264 -8.544,-4.32 -11.808,-4.32 -7.584,0 -14.208,6.528 -14.208,13.056 z m 14.208,-6.336 c 3.168,0 6.144,1.92 7.296,2.688 -3.744,4.32 -6.912,8.448 -9.6,12.096 -3.936,-3.456 -5.184,-6.144 -5.184,-8.16 0,-3.072 3.456,-6.624 7.488,-6.624 z m -7.584,41.568 c 0,-5.472 4.32,-13.056 6.912,-17.184 3.36,2.208 10.176,6.528 10.176,12.384 0,6.048 -7.872,9.792 -12.384,9.792 -3.84,0 -4.704,-2.304 -4.704,-4.992 z m 51.93596,12.48 c 1.728,0 3.072,-1.344 3.264,-2.976 2.688,-22.464 8.256,-48.96 8.256,-49.44 0,-0.96 -0.48,-1.92 -1.152,-2.496 -5.376,-4.608 -10.656,-6.624 -15.264,-6.624 -8.544,0 -14.784,6.912 -14.784,16.128 0,8.928 6.528,16.32 14.016,16.32 2.016,0 4.224,-0.576 6.336,-1.92 0,0.288 -4.032,25.056 -4.032,27.648 0,1.824 1.536,3.36 3.36,3.36 z m 4.32,-51.168 c -0.96,4.32 -3.936,15.36 -9.888,15.36 -4.128,0 -7.392,-5.76 -7.392,-9.6 0,-5.568 3.168,-9.408 8.064,-9.408 2.592,0 5.76,1.152 9.216,3.648 z m 23.99997,43.104 c 0,3.168 2.88,6.048 6.144,6.048 3.168,0 5.76,-2.592 5.76,-5.76 0,-3.168 -2.784,-6.048 -6.144,-6.048 -3.072,0 -5.76,2.496 -5.76,5.76 z m 0,-40.32 c 0,3.168 2.88,6.048 6.144,6.048 3.168,0 5.76,-2.592 5.76,-5.76 0,-3.168 -2.784,-6.048 -6.144,-6.048 -3.072,0 -5.76,2.496 -5.76,5.76 z m 38.39996,0 c 0,3.168 2.88,6.048 6.144,6.048 3.168,0 5.76,-2.592 5.76,-5.76 0,-3.168 -2.784,-6.048 -6.144,-6.048 -3.072,0 -5.76,2.496 -5.76,5.76 z m 6.912,33.216 c -1.92,0 -3.36,1.536 -3.36,3.36 v 0.576 c 0.096,0.672 0.096,1.344 0.096,2.016 0,5.472 -3.648,10.752 -7.008,12.192 -1.248,0.48 -2.016,1.632 -2.016,3.072 0,1.824 1.44,3.36 3.36,3.36 3.36,0 12.48,-6.912 12.48,-18.144 0,-1.92 0,-6.432 -3.552,-6.432 z m 51.55196,-1.344 c 0,-1.44 -0.864,-2.592 -2.112,-3.072 -5.376,-2.208 -11.808,-7.392 -17.568,-12.288 6.048,-4.512 13.632,-9.984 18.24,-12.48 1.056,-0.576 1.728,-1.728 1.728,-2.976 0,-1.824 -1.44,-3.36 -3.36,-3.36 -2.016,0 -9.12,4.8 -24,15.936 -0.864,0.576 -1.344,1.632 -1.344,2.688 0,1.056 0.48,1.92 1.152,2.496 6.432,5.472 14.4,12.768 22.56,16.128 0.384,0.192 0.864,0.288 1.344,0.288 1.824,0 3.36,-1.536 3.36,-3.36 z m 12.28797,-19.584 h 0.096 c 5.184,-0.192 9.024,-0.192 12.864,-0.192 1.248,0 2.496,0 3.744,0 2.496,0 5.184,0 8.256,-0.096 1.824,0 3.264,-1.536 3.264,-3.36 0,-1.92 -1.536,-3.36 -3.36,-3.36 h -0.096 c -3.072,0.096 -5.664,0.096 -8.16,0.096 -1.248,0 -2.496,0 -3.744,0 -3.84,0 -7.776,0 -13.056,0.192 -1.824,0.096 -3.168,1.536 -3.168,3.36 0,1.92 1.536,3.36 3.36,3.36 z m 0,13.632 h 0.096 c 5.184,-0.192 9.024,-0.192 12.864,-0.192 1.248,0 2.496,0 3.744,0 2.496,0 5.184,0 8.256,-0.096 1.824,0 3.264,-1.536 3.264,-3.36 0,-1.92 -1.536,-3.36 -3.36,-3.36 h -0.096 c -3.072,0.096 -5.664,0.096 -8.16,0.096 -1.248,0 -2.496,0 -3.744,0 -3.84,0 -7.776,0 -13.056,0.192 -1.824,0.096 -3.168,1.536 -3.168,3.36 0,1.92 1.536,3.36 3.36,3.36 z m 36.09596,-24.864 c 0,1.248 0.576,2.304 1.536,2.88 5.088,3.072 12.192,8.064 17.856,12.192 -7.104,4.896 -13.344,10.752 -17.664,13.248 -1.056,0.576 -1.632,1.632 -1.632,2.88 0,1.824 1.44,3.36 3.36,3.36 3.552,0 14.592,-11.04 23.616,-16.416 0.96,-0.576 1.632,-1.632 1.632,-2.88 0,-1.152 -0.576,-2.208 -1.44,-2.784 -18.72,-13.344 -22.08,-15.84 -23.904,-15.84 -1.824,0 -3.36,1.536 -3.36,3.36 z m 53.08796,28.704 c 1.92,0 3.264,-1.536 3.264,-3.36 v -0.288 c -0.096,-0.288 -0.096,-0.576 -0.096,-0.864 0,-8.64 12.96,-12 12.96,-23.424 0,-8.16 -7.392,-14.88 -16.032,-14.88 -12.192,0 -16.224,13.152 -16.224,15.072 0,1.824 1.536,3.36 3.36,3.36 1.536,0 2.88,-1.056 3.264,-2.496 2.112,-7.872 6.816,-9.12 9.6,-9.12 4.608,0 9.312,3.264 9.312,7.872 0,1.728 -0.672,3.744 -2.304,5.76 -1.536,1.824 -10.56,8.064 -10.56,17.76 0,1.056 0,4.608 3.456,4.608 z m -6.336,10.56 c 0,3.168 2.88,6.048 6.144,6.048 3.168,0 5.76,-2.592 5.76,-5.76 0,-3.168 -2.784,-6.048 -6.144,-6.048 -3.072,0 -5.76,2.496 -5.76,5.76 z m -581.47145,102.144 c 0,-11.904 7.008,-28.704 15.84,-28.704 3.648,0 6.816,8.544 6.816,17.28 0,3.648 -0.576,7.296 -1.824,10.368 -0.672,-1.824 -0.96,-7.104 -1.056,-10.656 -0.672,-2.208 -1.632,-5.568 -6.048,-5.568 -6.144,0 -10.464,8.352 -10.464,15.84 0,6.048 3.168,9.6 6.72,9.6 2.016,0 4.224,-1.152 5.952,-3.744 1.632,2.496 3.84,2.688 4.704,2.688 5.664,0 8.736,-8.832 8.736,-18.528 0,-11.424 -4.32,-24 -13.536,-24 -14.112,0 -22.56,21.024 -22.56,35.424 -0.096,0.192 -0.096,0.288 -0.096,0.384 0,16.704 6.24,25.344 14.4,25.344 2.688,0 5.664,-0.96 8.64,-2.88 0.96,-0.576 1.536,-1.728 1.536,-2.88 0,-1.824 -1.44,-3.36 -3.36,-3.36 -1.92,0 -3.936,2.4 -6.72,2.4 -7.68,0 -7.68,-18.72 -7.68,-19.008 z m 12.96,-9.888 c -0.48,6.912 -2.4,10.08 -2.688,10.56 -0.192,-0.48 -0.288,-1.152 -0.288,-2.112 0,-2.88 0.96,-6.624 2.976,-8.448 z m 31.77597,7.68 c 1.824,-6.144 3.936,-12.672 5.952,-18.624 2.208,7.2 4.224,15.456 4.992,18.72 -3.552,0 -7.68,0 -10.944,-0.096 z m -9.792,27.168 c 1.728,0 2.976,-1.248 3.264,-2.88 0.48,-2.88 2.208,-9.792 4.512,-17.664 2.976,0.192 7.008,0.288 10.656,0.288 1.344,0 2.688,0 3.936,-0.096 1.632,7.008 3.072,13.248 4.224,17.28 0.384,1.44 1.632,2.496 3.168,2.496 1.824,0 3.36,-1.536 3.36,-3.36 0,-0.48 -9.12,-40.608 -14.304,-53.472 -0.48,-1.248 -1.632,-2.112 -3.072,-2.112 h -0.096 c -1.44,0 -2.592,0.96 -3.072,2.208 -5.568,15.456 -16.032,49.44 -16.032,53.952 0,1.824 1.632,3.36 3.456,3.36 z m 69.11996,-18.816 c 0,-5.76 -2.976,-12.096 -10.272,-14.784 3.84,-3.456 5.568,-7.68 5.568,-11.616 0,-7.776 -6.432,-14.784 -15.552,-14.784 -0.096,0 -0.096,0 -0.096,0 -2.112,0 -10.656,1.056 -10.656,5.376 0.096,12.192 0.288,22.08 0.288,29.952 0,10.176 -0.288,17.184 -0.864,21.6 v 0.48 c 0,1.632 1.248,3.072 2.784,3.36 1.92,0.384 3.84,0.576 5.664,0.576 14.4,0 23.136,-10.272 23.136,-20.16 z m -11.52,-26.4 c 0,5.952 -7.104,10.08 -12.576,11.136 -0.096,-5.376 -0.096,-11.616 -0.192,-18.432 1.632,-0.576 3.072,-0.864 4.416,-0.864 5.28,0 8.352,4.32 8.352,8.16 z m 4.8,26.4 c 0,6.24 -5.28,13.44 -16.128,13.44 -0.576,0 -1.152,0 -1.728,-0.096 0.48,-5.28 0.576,-12.288 0.576,-21.6 4.416,-1.056 4.416,-1.056 6.432,-1.056 8.544,0 10.848,5.28 10.848,9.312 z m 46.84796,2.88 c 0,-1.824 -1.536,-3.36 -3.36,-3.36 -1.44,0 -2.688,0.864 -3.168,2.112 -2.976,7.776 -7.296,11.232 -11.232,11.232 -5.568,0 -10.56,-6.912 -10.56,-17.856 0,-15.264 8.256,-29.088 15.744,-29.088 3.936,0 4.416,3.936 7.488,3.936 1.824,0 3.36,-1.536 3.36,-3.36 0,-2.4 -5.184,-7.296 -10.944,-7.296 -11.04,0 -22.368,15.648 -22.368,35.808 0,15.744 8.352,24.576 17.28,24.576 11.808,0 17.76,-14.88 17.76,-16.704 z m 36.38397,-17.568 c 0,-16.032 -7.008,-26.688 -17.376,-26.688 -3.168,0 -11.424,1.728 -11.712,5.568 -1.056,22.368 -2.112,36.192 -2.112,46.176 0,2.016 0.096,3.84 0.192,5.472 0.096,1.632 0.864,3.552 7.008,3.552 14.304,0 24,-14.976 24,-34.08 z m -11.328,-16.992 c 2.976,3.744 4.512,10.08 4.512,16.896 0,13.056 -5.568,27.552 -16.8,27.552 -0.288,0 -0.576,0 -0.768,-0.096 -0.096,-0.576 -0.096,-1.248 -0.096,-1.92 0,-9.216 1.152,-22.656 2.112,-44.256 1.92,-0.864 3.648,-1.152 5.088,-1.152 2.88,0 4.704,1.44 5.952,2.976 z m 19.19996,47.904 c 0,1.824 1.536,3.36 3.36,3.36 0.096,0 0.288,-0.096 0.384,-0.096 2.592,-0.288 4.8,-0.384 6.816,-0.384 2.976,0 5.472,0.192 8.064,0.192 2.784,0 5.664,-0.192 9.504,-1.248 1.44,-0.384 2.496,-1.728 2.496,-3.264 0,-1.824 -1.536,-3.36 -3.36,-3.36 -1.44,0 -3.648,1.152 -8.832,1.152 -2.4,0 -4.608,-0.192 -7.68,-0.192 -1.152,0 -2.496,0 -3.936,0.096 0,-5.856 -0.288,-13.344 -0.48,-21.216 3.36,-0.192 3.36,-0.192 10.464,-0.192 1.824,0 3.36,-1.536 3.36,-3.36 0,-3.456 -3.264,-3.456 -6.432,-3.456 -2.4,0 -5.088,0.096 -7.584,0.288 -0.096,-1.536 -0.096,-3.072 -0.096,-4.608 0,-5.28 0.192,-10.272 0.576,-14.4 0.48,0 1.056,0 1.632,0 4.032,0 7.488,0.576 11.328,0.576 2.016,0 4.224,-0.096 6.624,-0.672 1.536,-0.288 2.688,-1.632 2.688,-3.264 0,-1.92 -1.536,-3.36 -3.36,-3.36 h -0.672 c -1.824,0.384 -3.744,0.48 -5.76,0.48 -4.224,0 -8.544,-0.48 -12,-0.48 -3.744,0 -6.528,0.576 -6.816,3.168 -0.768,4.896 -0.96,10.848 -0.96,17.088 0,0.384 0.672,30.624 0.672,37.152 z m 38.39996,0 c 0,1.824 1.536,3.36 3.36,3.36 1.824,0 3.264,-1.44 3.36,-3.264 0,-1.44 0.096,-3.168 0.096,-5.088 0,-5.568 -0.288,-12.672 -0.48,-19.968 3.36,-0.192 3.36,-0.192 10.464,-0.192 1.824,0 3.36,-1.536 3.36,-3.36 0,-3.456 -3.264,-3.456 -6.432,-3.456 -2.4,0 -5.088,0.096 -7.584,0.288 -0.096,-1.536 -0.096,-3.072 -0.096,-4.608 0,-5.28 0.192,-10.272 0.576,-14.4 0.48,0 1.056,0 1.632,0 4.032,0 7.488,0.576 11.328,0.576 2.016,0 4.224,-0.096 6.624,-0.672 1.536,-0.288 2.688,-1.632 2.688,-3.264 0,-1.92 -1.536,-3.36 -3.36,-3.36 h -0.672 c -1.824,0.384 -3.744,0.48 -5.76,0.48 -4.224,0 -8.544,-0.48 -12,-0.48 -3.744,0 -6.528,0.576 -6.816,3.168 -0.768,4.896 -0.96,10.848 -0.96,17.088 0,0.384 0.672,30.624 0.672,37.152 z m 69.50397,-20.256 c 0,-2.496 -0.288,-5.088 -0.768,-7.488 -0.384,-1.536 -1.632,-2.592 -3.264,-2.592 -0.096,0 -9.12,0.576 -12.864,0.576 -1.824,0 -3.36,1.536 -3.36,3.36 0,3.36 3.264,3.36 4.896,3.36 2.784,0 5.472,-0.288 8.544,-0.48 0.096,1.056 0.096,2.112 0.096,3.264 0,8.832 -3.744,16.992 -9.6,16.992 -5.28,0 -10.56,-6.72 -10.56,-17.952 0,-15.264 8.256,-29.088 15.744,-29.088 3.936,0 4.416,3.936 7.488,3.936 1.824,0 3.36,-1.536 3.36,-3.36 0,-2.4 -5.184,-7.296 -10.944,-7.296 -11.04,0 -22.368,15.648 -22.368,35.808 0,15.744 8.544,24.672 17.376,24.672 10.56,0 16.224,-11.904 16.224,-23.712 z m 35.32796,-36.96 h -0.096 c -1.824,0.096 -3.264,1.536 -3.264,3.36 0,1.248 0,2.112 0,3.168 0,2.592 -0.096,6.24 -0.384,18.912 -1.248,-0.096 -2.592,-0.096 -3.744,-0.096 -5.088,0 -8.832,0.672 -13.728,0.672 -0.384,0 -0.768,0 -1.056,-0.096 0.288,-17.28 0.672,-23.04 0.672,-23.232 0,-1.824 -1.536,-3.36 -3.36,-3.36 -1.824,0 -3.264,1.44 -3.36,3.168 -0.768,14.784 -1.152,53.568 -1.152,54.144 0,1.824 1.536,3.36 3.36,3.36 1.824,0 3.36,-1.44 3.36,-3.264 0.096,-5.568 0.096,-14.688 0.288,-24.096 0.48,0.096 1.056,0.096 1.632,0.096 5.088,0 8.832,-0.672 13.44,-0.672 1.056,0 2.208,0.096 3.456,0.096 -0.192,5.088 -0.192,10.176 -0.192,14.88 0,3.84 0,7.392 0.192,10.368 0.096,1.824 1.536,3.264 3.36,3.264 1.92,0 3.36,-1.536 3.36,-3.36 v -0.192 c -0.192,-2.784 -0.192,-6.24 -0.192,-9.888 0,-14.784 0.768,-33.984 0.768,-41.76 0,-2.4 0,-5.472 -3.36,-5.472 z m 17.75996,7.104 c 1.536,0 2.976,-0.096 4.608,-0.192 0,0.384 0,0.768 0,1.056 0,9.216 -0.864,22.752 -0.864,33.888 0,4.128 0.096,8.064 0.48,11.136 -3.744,0.288 -6.816,0.672 -9.6,0.672 -1.824,0 -3.36,1.536 -3.36,3.36 0,2.688 1.728,3.36 4.8,3.36 3.36,0 8.448,-0.768 14.688,-0.768 2.88,0 5.856,0.096 9.12,0.576 h 0.48 c 1.824,0 3.36,-1.536 3.36,-3.36 0,-1.728 -1.152,-2.976 -2.784,-3.264 -3.552,-0.576 -6.912,-0.768 -9.888,-0.768 -0.384,-3.168 -0.48,-7.584 -0.48,-12.384 0,-11.232 0.768,-22.272 0.768,-31.68 0,-0.768 0,-1.44 0,-2.112 2.016,0 3.552,-0.096 4.704,-0.096 3.168,0 3.84,0.192 4.608,0.192 1.824,0 3.36,-1.536 3.36,-3.36 0,-1.728 -1.344,-3.168 -2.976,-3.36 -1.92,-0.192 -4.032,-0.288 -6.144,-0.288 -5.76,0 -12,0.672 -16.416,0.672 -1.056,0 -2.016,-0.096 -2.784,-0.192 -0.096,0 -0.288,-0.096 -0.384,-0.096 -1.824,0 -3.36,1.536 -3.36,3.36 0,3.648 3.744,3.648 8.064,3.648 z m 30.52797,36.96 c 0,10.368 7.296,15.936 15.456,15.936 5.184,0 9.408,-3.84 11.808,-9.216 2.4,-5.376 3.648,-12.672 3.648,-21.504 0,-13.248 -1.152,-19.776 -2.784,-26.592 -0.384,-1.44 -1.632,-2.592 -3.264,-2.592 -1.824,0 -3.36,1.536 -3.36,3.36 0,0.288 0,0.48 0.096,0.768 1.536,6.624 2.592,12.192 2.592,25.056 0,14.016 -3.744,24 -8.736,24 -1.248,0 -8.832,-0.288 -8.832,-9.024 0,-0.672 0,-1.44 0.192,-2.304 0,-0.096 0.096,-0.192 0.096,-0.384 0,-1.824 -1.536,-3.36 -3.36,-3.36 -3.552,0 -3.552,3.744 -3.552,5.856 z m 60.57596,12.384 c 0,0.192 0,0.384 0,0.576 0,1.824 1.44,3.36 3.264,3.36 h 0.096 c 1.824,0 3.36,-1.44 3.36,-3.264 0,-0.096 0,-0.288 0,-0.384 0,-22.08 -7.2,-28.896 -13.344,-30.624 5.088,-7.104 12.48,-21.696 12.48,-23.328 0,-1.824 -1.536,-3.36 -3.36,-3.36 -1.344,0 -2.4,0.768 -2.976,1.92 -4.512,9.312 -8.16,16.32 -12.288,21.792 0.192,-18.912 0.576,-16.896 0.576,-20.352 0,-1.824 -1.536,-3.264 -3.36,-3.264 -1.824,0 -3.264,1.44 -3.36,3.168 -0.48,10.368 -0.672,27.936 -0.672,28.224 v 0.288 c -0.288,23.616 -0.48,25.824 -0.48,25.92 0,0 0,0 0,0 0,1.824 1.536,3.264 3.36,3.264 1.728,0 3.168,-1.344 3.264,-3.072 0.384,-5.472 0.48,-14.496 0.576,-24.384 0.864,-0.288 1.728,-0.48 2.784,-0.48 9.408,0 10.08,19.2 10.08,24 z m 20.54396,-56.64 c -1.728,0 -3.168,1.248 -3.36,2.88 -0.96,6.432 -1.248,19.104 -1.248,31.008 0,9.696 0.192,18.816 0.576,23.616 0.096,1.728 1.632,3.072 3.36,3.072 3.744,0 13.632,-1.056 21.024,-1.056 0.96,0 1.92,0 2.88,0 h 0.192 c 1.824,0 3.36,-1.536 3.36,-3.36 0,-1.824 -1.44,-3.264 -3.168,-3.36 -1.248,0 -2.496,-0.096 -3.744,-0.096 -6.048,0 -12.48,0.672 -17.376,0.96 -0.192,-4.416 -0.288,-10.752 -0.288,-17.664 0,-12.48 0.288,-26.4 1.152,-32.16 v -0.48 c 0,-1.824 -1.536,-3.36 -3.36,-3.36 z m 36.86397,60.768 c 1.824,0 3.264,-1.44 3.36,-3.168 0.48,-8.736 0.384,-21.504 0.48,-33.6 2.592,13.248 3.36,17.376 5.568,22.944 0.48,1.248 1.632,2.112 3.072,2.112 1.536,0 2.784,-0.96 3.168,-2.304 1.728,-5.472 3.84,-12.96 5.952,-20.256 -0.096,12.576 -0.192,24.96 -0.192,30.816 0,1.824 1.536,3.36 3.36,3.36 1.824,0 3.36,-1.536 3.36,-3.36 0,-22.848 0.576,-52.512 0.576,-53.088 0,-1.824 -1.536,-3.36 -3.36,-3.36 -1.44,0 -2.592,0.768 -3.072,2.016 -3.072,7.392 -6.624,19.968 -9.696,30.72 -0.768,-3.36 -1.44,-6.912 -2.112,-10.464 -1.536,-7.872 -3.072,-15.744 -6.336,-21.792 -0.576,-1.056 -1.632,-1.728 -2.88,-1.728 -1.632,0 -3.168,1.248 -3.36,3.072 -1.344,15.84 -0.576,40.992 -1.248,54.624 v 0.192 c 0,1.824 1.536,3.264 3.36,3.264 z m 62.87996,-60.768 c -1.824,0 -3.264,1.344 -3.36,3.168 -0.192,2.688 -0.192,6.24 -0.192,10.464 0,6.432 0.096,14.112 0.096,21.6 0,1.632 0,3.36 0,4.896 -5.472,-13.824 -12.192,-29.76 -16.032,-37.632 -0.576,-1.152 -1.632,-1.824 -2.976,-1.824 -1.728,0 -3.168,1.344 -3.36,2.976 -0.768,6.048 -0.864,12 -0.864,18.048 0,6.24 0.192,12.672 0.192,19.296 0,5.088 -0.192,10.368 -0.48,15.84 v 0.192 c 0,1.824 1.536,3.36 3.36,3.36 1.824,0 3.264,-1.344 3.36,-3.072 0.384,-5.952 0.48,-11.616 0.48,-16.992 0,-6.336 -0.192,-12.288 -0.192,-18.048 0,-1.536 0,-2.976 0.096,-4.416 5.472,12.768 12.48,29.952 16.032,40.224 0.48,1.344 1.728,2.208 3.168,2.208 1.728,0 3.072,-1.248 3.264,-2.976 0.576,-6.624 0.672,-15.84 0.672,-24.864 0,-7.296 -0.096,-14.4 -0.096,-20.16 0,-3.552 0,-6.528 0.192,-8.736 v -0.192 c 0,-1.824 -1.536,-3.36 -3.36,-3.36 z m 8.15996,37.632 c 0,16.416 10.656,23.328 18.816,23.328 13.056,0 18.048,-18.432 18.048,-29.184 0,-16.128 -4.608,-32.544 -16.128,-32.544 -12.768,0 -20.736,19.68 -20.736,38.4 z m 30.144,-5.856 c 0,6.912 -3.264,22.464 -11.328,22.464 -2.592,0 -12.096,-2.112 -12.096,-16.608 0,-15.936 6.528,-31.68 14.016,-31.68 6.432,0 9.408,14.304 9.408,25.824 z m -571.77545,102.72 c 0,-5.568 -3.264,-10.656 -8.256,-12.768 -2.976,-1.152 -6.24,-1.632 -9.984,-1.632 -2.688,0 -5.568,0.288 -8.544,0.672 -1.536,0.192 -2.784,1.536 -2.88,3.072 -0.48,5.76 -0.672,10.752 -0.672,15.264 0,5.184 0.192,9.888 0.192,14.688 0,6.72 -0.288,13.632 -1.728,22.56 v 0.48 c 0,1.824 1.536,3.36 3.36,3.36 1.632,0 2.976,-1.152 3.264,-2.784 1.632,-9.6 1.92,-17.088 1.92,-24.096 19.68,-4.032 23.328,-12.96 23.328,-18.816 z m -6.72,0.192 c 0,6.144 -8.064,9.696 -16.704,11.712 -0.096,-2.976 -0.192,-5.952 -0.192,-9.12 0,-3.168 0.096,-6.528 0.384,-10.176 1.824,-0.096 3.456,-0.192 4.896,-0.192 11.616,0 11.616,4.992 11.616,7.776 z m 35.71197,51.552 c -1.344,0 -2.88,-1.152 -3.648,-5.568 11.904,-2.496 15.552,-20.16 15.552,-28.896 0,-16.128 -4.608,-32.544 -16.128,-32.544 -12.768,0 -20.736,19.68 -20.736,38.4 0,17.376 11.52,21.792 14.304,22.656 1.152,9.6 6.048,12.672 10.656,12.672 4.512,0 8.736,-2.976 8.736,-5.664 0,-1.824 -1.536,-3.36 -3.36,-3.36 -2.496,0 -2.976,2.304 -5.376,2.304 z m -6.816,-24.384 c -1.728,0 -3.168,1.248 -3.36,2.88 -0.384,2.976 -0.576,5.76 -0.672,8.16 -6.144,-3.264 -7.392,-10.176 -7.392,-15.264 0,-15.936 6.528,-31.68 14.016,-31.68 6.432,0 9.408,14.304 9.408,25.824 0,7.296 -3.168,20.064 -9.312,22.176 0,-3.936 0.672,-8.64 0.672,-8.736 0,-1.824 -1.536,-3.36 -3.36,-3.36 z m 35.23196,-9.312 c 9.696,0 10.176,19.968 10.176,24.672 0,1.824 1.44,3.36 3.264,3.36 h 0.096 c 1.824,0 3.36,-1.44 3.36,-3.264 0,-0.096 0,-0.288 0,-0.48 0,-18.24 -4.896,-25.248 -9.12,-28.416 7.008,-4.416 8.832,-9.408 8.832,-13.536 0,-7.584 -7.2,-15.36 -16.128,-15.36 -5.184,0 -9.408,2.592 -9.504,5.184 -0.96,18.624 -0.192,42.336 -0.864,52.32 v 0.288 c 0,1.824 1.536,3.264 3.36,3.264 1.728,0 3.168,-1.344 3.264,-3.072 0.384,-5.568 0.48,-14.4 0.48,-24.096 2.304,-0.864 2.304,-0.864 2.784,-0.864 z m 9.888,-17.664 c 0,2.976 -1.536,4.992 -4.704,7.2 -3.072,2.208 -7.872,4.128 -7.968,4.128 0,-6.528 0.192,-13.248 0.48,-19.392 0.96,-0.48 2.016,-0.672 2.976,-0.672 4.896,0 9.216,5.088 9.216,8.736 z m 17.56796,-0.192 c 0,8.832 7.2,12.384 14.496,16.032 7.584,3.744 10.656,6.336 10.656,12 0,5.28 -6.144,11.04 -12,11.04 -4.704,0 -7.68,-2.88 -9.696,-8.256 -0.48,-1.248 -1.728,-2.208 -3.168,-2.208 -1.824,0 -3.36,1.44 -3.36,3.36 0,1.728 4.8,13.824 16.224,13.824 9.504,0 18.72,-8.544 18.72,-17.76 0,-19.008 -25.152,-17.184 -25.152,-28.032 0,-3.936 5.856,-8.256 10.272,-8.256 6.336,0 5.184,4.128 8.832,4.128 1.824,0 3.36,-1.536 3.36,-3.36 0,-0.864 -0.288,-1.728 -0.864,-2.304 -3.264,-3.456 -7.104,-5.184 -11.328,-5.184 -7.968,0 -16.992,6.912 -16.992,14.976 z m 36.09597,-10.464 c 0,1.728 1.344,3.072 3.072,3.264 2.208,0.192 4.416,0.288 6.528,0.288 1.248,0 2.496,0 3.744,-0.096 -0.192,10.368 -0.864,20.832 -0.864,31.584 0,5.856 0.192,11.904 0.864,17.952 0.192,1.728 1.536,2.976 3.264,2.976 1.92,0 3.36,-1.536 3.36,-3.36 v -0.288 c -0.672,-5.664 -0.864,-11.232 -0.864,-16.8 0,-10.848 0.768,-21.6 0.96,-32.448 1.536,0 2.88,0 3.936,0 3.552,0 4.608,0.192 5.376,0.192 1.824,0 3.36,-1.536 3.36,-3.36 0,-1.728 -1.344,-3.168 -3.072,-3.36 -2.016,-0.192 -4.032,-0.192 -5.952,-0.192 -5.184,0 -10.272,0.576 -15.36,0.576 -1.536,0 -3.072,-0.096 -4.608,-0.288 -0.096,0 -0.288,-0.096 -0.384,-0.096 -1.824,0 -3.36,1.632 -3.36,3.456 z m 55.58396,49.248 c 0,0 0,0 0,0 -9.12,-0.096 -11.136,-12.192 -11.136,-28.704 0,-6.336 0.288,-13.344 0.672,-20.64 v -0.192 c 0,-1.824 -1.44,-3.264 -3.264,-3.36 h -0.096 c -1.824,0 -3.264,1.44 -3.36,3.264 -0.384,7.68 -0.672,14.688 -0.672,21.024 0,12.576 1.152,22.368 5.664,28.8 2.88,4.224 7.488,6.528 12.096,6.528 16.608,0 16.896,-24.48 16.896,-36.48 0,-7.104 -0.288,-14.112 -0.384,-19.776 0,-1.824 -1.536,-3.36 -3.36,-3.36 -1.92,0 -3.36,1.536 -3.36,3.36 v 0.096 c 0.096,5.952 0.48,13.248 0.48,20.448 0,22.08 -4.032,28.992 -10.176,28.992 z m 21.59996,-49.632 c 0,0.288 0,0.48 0.096,0.768 4.416,18.72 7.392,37.728 11.904,53.472 0.384,1.44 1.728,2.4 3.264,2.4 1.536,0 2.784,-0.96 3.168,-2.304 5.184,-16.608 8.448,-37.44 14.016,-53.568 0.096,-0.384 0.192,-0.768 0.192,-1.152 0,-1.824 -1.536,-3.36 -3.36,-3.36 -2.4,0 -3.072,2.112 -3.168,2.304 -4.416,12.96 -7.392,28.224 -10.752,41.664 -2.88,-12.576 -5.376,-26.784 -8.736,-40.992 -0.384,-1.44 -1.632,-2.592 -3.264,-2.592 -1.92,0 -3.36,1.536 -3.36,3.36 z m 68.73597,-3.648 c -1.824,0 -3.264,1.44 -3.36,3.264 -0.384,11.904 -1.92,24.48 -3.84,35.52 -1.056,-7.008 -2.016,-14.208 -3.168,-21.984 -0.288,-1.632 -1.632,-2.784 -3.36,-2.784 -1.632,0 -2.976,1.056 -3.264,2.592 -1.824,8.448 -3.072,15.36 -4.512,22.56 -1.824,-10.944 -3.072,-22.848 -3.168,-36.096 0,-1.824 -1.536,-3.36 -3.36,-3.36 -1.824,0 -3.36,1.536 -3.36,3.36 0.096,20.928 3.264,38.688 6.432,54.336 0.288,1.536 1.632,2.688 3.264,2.688 1.632,0 3.072,-1.152 3.36,-2.688 1.728,-7.776 2.976,-14.016 4.128,-20.256 0.96,6.72 1.92,13.248 3.168,20.064 0.288,1.536 1.728,2.784 3.36,2.784 1.536,0 2.784,-0.96 3.168,-2.4 6.336,-22.368 7.872,-50.304 7.872,-54.24 0,-1.824 -1.536,-3.36 -3.36,-3.36 z m 8.06396,2.88 c 0,0.288 2.784,12 12.192,27.072 -9.408,14.496 -11.904,26.976 -11.904,27.264 0,1.824 1.536,3.36 3.36,3.36 1.536,0 2.784,-0.96 3.168,-2.4 3.168,-10.944 6.144,-16.8 9.312,-21.888 3.168,5.184 6.24,11.136 9.6,21.6 0.48,1.344 1.632,2.304 3.168,2.304 1.824,0 3.36,-1.536 3.36,-3.36 0,-0.288 -2.592,-11.616 -12.096,-26.784 9.792,-14.976 12.48,-26.88 12.48,-27.168 0,-1.824 -1.536,-3.36 -3.36,-3.36 -1.536,0 -2.88,1.056 -3.264,2.4 -3.456,10.752 -6.624,16.704 -9.792,21.792 -3.072,-5.184 -6.144,-11.232 -9.6,-21.888 -0.48,-1.344 -1.728,-2.304 -3.264,-2.304 -1.824,0 -3.36,1.536 -3.36,3.36 z m 39.35996,0.192 c 0,0.288 0,0.672 0.096,0.96 2.208,7.488 8.16,18.048 12.192,26.4 0,5.184 0.192,14.304 0.192,21.12 0,2.016 0,3.84 0,5.28 v 0.192 c 0,1.824 1.536,3.36 3.36,3.36 1.824,0 3.264,-1.536 3.36,-3.264 0.096,-1.728 0.096,-3.84 0.096,-6.24 0,-6.912 -0.288,-15.456 -0.288,-20.352 5.376,-9.888 9.12,-21.12 11.424,-26.496 0.192,-0.384 0.288,-0.864 0.288,-1.344 0,-1.824 -1.44,-3.36 -3.264,-3.36 h -0.096 c -1.344,0 -2.592,0.768 -3.072,2.016 -2.112,4.896 -4.992,12.96 -8.64,20.736 -3.744,-7.488 -7.776,-15.36 -9.12,-19.968 -0.384,-1.44 -1.632,-2.4 -3.168,-2.4 -1.824,0 -3.36,1.536 -3.36,3.36 z m 41.47197,4.128 c 0.384,0 0.384,0 20.256,-0.48 -6.816,14.016 -15.072,31.2 -24.384,48.864 -0.288,0.48 -0.384,1.056 -0.384,1.632 0,1.824 1.536,3.36 3.36,3.36 5.664,0 12,-0.768 18.336,-0.768 2.688,0 5.376,0.096 8.064,0.48 0.192,0 0.288,0.096 0.48,0.096 1.824,0 3.36,-1.536 3.36,-3.36 0,-1.728 -1.248,-3.072 -2.88,-3.36 -3.36,-0.384 -6.528,-0.576 -9.6,-0.576 -4.224,0 -8.256,0.288 -12.096,0.48 9.312,-18.048 17.664,-35.712 24.192,-48.864 0.192,-0.48 0.384,-0.96 0.384,-1.536 0,-1.824 -1.536,-3.36 -3.36,-3.36 h -0.096 c -7.872,0.096 -18.912,0.672 -25.632,0.672 -1.824,0 -3.36,1.536 -3.36,3.36 0,1.824 1.536,3.36 3.36,3.36 z m 59.42396,46.272 h -0.288 c -1.44,0.096 -2.88,0.192 -4.32,0.192 -2.88,0 -5.76,-0.192 -8.448,-0.192 -0.192,-11.904 -1.056,-23.232 -1.056,-34.176 0,-4.128 0.096,-8.16 0.48,-12.288 5.28,-0.384 6.528,-0.384 13.344,-0.384 1.824,0 3.36,-1.536 3.36,-3.36 0,-1.824 -1.44,-3.36 -3.264,-3.36 -0.672,0 -1.44,0 -2.208,0 -4.032,0 -9.6,0.192 -14.688,0.672 -1.536,0.192 -2.784,1.44 -2.976,2.976 -0.576,5.28 -0.768,10.56 -0.768,15.744 0,12.48 1.152,24.768 1.152,37.632 0,1.824 1.536,3.36 3.36,3.36 h 0.192 c 0.672,0 1.536,0 2.496,0 2.496,0 5.472,0.096 8.64,0.096 1.728,0 3.456,0 5.28,-0.192 1.728,-0.096 3.072,-1.632 3.072,-3.36 0,-1.92 -1.536,-3.36 -3.36,-3.36 z m 17.56796,-49.728 c 0,0.48 0.096,0.96 0.288,1.344 8.064,18.72 11.328,36.768 17.376,52.416 0.48,1.248 1.632,2.112 3.072,2.112 1.824,0 3.36,-1.44 3.36,-3.36 0,-0.384 0,-0.768 -0.192,-1.152 -5.664,-14.688 -9.024,-33.12 -17.472,-52.704 -0.48,-1.152 -1.728,-2.016 -3.072,-2.016 -1.824,0 -3.36,1.536 -3.36,3.36 z m 45.59997,3.168 c 3.456,0 6.432,-0.48 9.888,-0.48 0.288,0 0.576,0 0.864,0 -0.096,1.824 -0.096,3.552 -0.096,5.376 0,9.312 0.48,18.24 0.48,27.456 0,4.8 -0.096,9.6 -0.48,14.496 -0.192,0 -13.728,-0.576 -15.456,-0.576 -1.824,0 -3.36,1.536 -3.36,3.36 0,1.824 1.44,3.36 3.264,3.36 0.192,0 18.24,0.672 18.624,0.672 1.728,0 3.168,-1.344 3.36,-3.072 0.672,-6.336 0.864,-12.384 0.864,-18.24 0,-9.6 -0.576,-18.72 -0.576,-28.032 0,-2.592 0,-5.184 0.192,-7.872 v -0.096 c 0,-3.552 -3.936,-3.552 -8.16,-3.552 -3.744,0 -6.624,0.384 -9.6,0.384 -1.248,0 -2.496,-0.096 -3.84,-0.288 h -0.48 c -1.824,0 -3.36,1.536 -3.36,3.36 0,3.552 3.648,3.744 7.872,3.744 z m 33.59996,16.608 c 1.344,0 2.496,-0.864 3.072,-2.016 1.632,-3.456 4.128,-7.488 6.72,-11.52 6.912,13.056 7.296,13.824 9.6,13.824 1.824,0 3.36,-1.44 3.36,-3.36 0,-0.672 -0.192,-1.344 -0.48,-1.824 -2.784,-4.416 -6.24,-11.424 -9.312,-16.8 -0.576,-1.056 -1.728,-1.728 -2.976,-1.728 -1.728,0 -2.592,1.248 -2.784,1.536 -6.528,9.984 -10.56,16.32 -10.56,18.528 0,1.824 1.536,3.36 3.36,3.36 z m 35.99996,38.304 h 0.096 c 5.28,-0.096 9.504,-0.192 12.672,-0.192 9.792,0 11.136,0.48 11.424,0.48 1.824,0 3.36,-1.536 3.36,-3.36 0,-1.728 -1.248,-3.168 -2.976,-3.36 -4.032,-0.384 -7.776,-0.48 -12,-0.48 -3.744,0 -7.872,0.096 -12.672,0.192 -1.824,0.096 -3.264,1.536 -3.264,3.36 0,1.92 1.536,3.36 3.36,3.36 z m -572.25545,60.96 c 0,4.128 11.04,10.464 13.344,10.464 1.824,0 3.36,-1.536 3.36,-3.36 0,-1.344 -0.864,-2.592 -2.016,-3.072 -8.544,-3.744 -8.352,-7.392 -11.328,-7.392 -1.824,0 -3.36,1.536 -3.36,3.36 z m 48.09597,18.624 c -3.936,0 -8.352,2.016 -12.768,6.624 -0.576,0.576 -0.96,1.44 -0.96,2.304 0,1.824 1.536,3.36 3.36,3.36 0.96,0 1.824,-0.288 2.4,-0.96 3.264,-3.36 5.856,-4.704 7.872,-4.704 4.896,0 6.72,7.488 7.296,11.136 -2.88,-1.728 -6.144,-2.592 -9.312,-2.592 -7.872,0 -15.264,5.088 -15.264,13.248 0,6.432 4.512,11.616 13.536,11.616 8.64,0 16.704,-4.416 17.568,-5.568 0.576,-0.864 0.96,-3.744 0.96,-7.392 0,-13.632 -3.84,-27.072 -14.688,-27.072 z m -2.112,21.984 c 4.512,0 9.216,2.496 9.792,8.352 -2.688,1.344 -6.528,2.976 -11.52,2.976 -1.824,0 -6.816,-0.096 -6.816,-4.896 0,-4.896 5.184,-6.432 8.544,-6.432 z m 42.43196,-20.448 c -4.608,0 -9.024,1.632 -12.192,5.376 0,-0.288 -0.288,-7.488 -0.288,-27.072 0,-1.824 -1.536,-3.36 -3.36,-3.36 -1.824,0 -3.36,1.44 -3.36,3.264 -0.096,1.728 -0.096,3.36 -0.096,4.896 0,8.736 0.384,16.8 0.384,26.4 0,6.912 -0.192,14.688 -0.768,24.096 0.096,1.248 0.384,2.784 2.88,3.552 2.496,0.48 4.896,0.672 7.2,0.672 16.128,0 22.752,-9.888 22.752,-21.792 0,-10.656 -6.24,-16.032 -13.152,-16.032 z m 6.432,16.032 c 0,12.096 -7.968,14.976 -15.936,14.976 -1.056,0 -2.112,-0.096 -3.168,-0.192 2.4,-24.096 7.872,-24.096 12.672,-24.096 5.856,0 6.432,6.72 6.432,9.312 z m 12.28796,6.72 c 0,8.064 5.664,14.784 16.704,14.784 11.136,0 15.84,-7.584 15.84,-9.792 0,-1.824 -1.536,-3.36 -3.36,-3.36 -4.608,0 -1.728,6.432 -12.48,6.432 -8.736,0 -9.984,-5.184 -9.984,-8.064 0,-8.736 5.664,-16.416 11.808,-16.416 7.776,0 7.2,5.472 10.944,5.472 1.824,0 3.36,-1.44 3.36,-3.36 0,-2.592 -5.952,-8.832 -14.304,-8.832 -9.984,0 -18.528,10.56 -18.528,23.136 z m 63.07197,-43.776 c 0,0.192 1.632,7.584 1.824,23.232 -2.496,-1.728 -5.472,-2.88 -8.832,-2.88 -10.176,0 -18.528,9.12 -18.528,21.6 0,15.456 10.56,17.184 15.168,17.184 3.456,0 8.544,-1.152 12.48,-5.76 3.936,-4.608 6.528,-12.288 6.528,-24.864 0,-10.656 -0.288,-19.776 -2.016,-29.088 -0.288,-1.536 -1.728,-2.688 -3.36,-2.688 -1.92,0 -3.264,1.44 -3.264,3.264 z m -18.816,41.952 c 0,-9.6 5.664,-14.88 11.808,-14.88 4.032,0 6.624,2.208 8.736,5.76 -0.96,15.456 -6.528,19.584 -12.096,19.584 -2.688,0 -8.448,-0.288 -8.448,-10.464 z m 33.21596,-0.768 c 0,11.424 7.584,17.376 16.128,17.376 9.504,0 15.84,-8.064 15.84,-10.752 0,-1.824 -1.536,-3.36 -3.36,-3.36 -1.248,0 -2.304,0.672 -2.88,1.632 -2.208,3.648 -6.144,5.76 -9.6,5.76 -2.496,0 -8.928,-0.96 -9.408,-9.6 1.92,0.864 3.936,1.248 5.952,1.248 8.16,0 15.456,-6.432 15.456,-14.016 0,-4.896 -3.648,-8.928 -9.12,-8.928 -11.424,0 -19.008,11.424 -19.008,20.64 z m 21.408,-11.712 c 0,2.88 -3.84,7.296 -8.832,7.296 -1.44,0 -2.976,-0.384 -4.512,-1.344 1.44,-3.264 4.896,-8.16 10.944,-8.16 2.016,0 2.4,1.248 2.4,2.208 z m 36.19196,-4.704 c -1.344,0 -3.072,0.096 -7.488,0.192 0,-5.856 0.48,-21.888 4.608,-21.888 4.416,0 6.912,8.448 7.776,11.808 0.384,1.44 1.728,2.496 3.264,2.496 1.824,0 3.36,-1.536 3.36,-3.36 0,-0.768 -3.36,-17.664 -14.4,-17.664 -10.848,0 -11.232,17.664 -11.328,28.704 0,0 -0.768,-0.096 -0.864,-0.096 -1.824,0 -3.36,1.536 -3.36,3.36 0,3.264 3.264,3.456 4.224,3.456 0.288,16.32 0.288,16.32 0.288,23.52 0,1.824 1.536,3.36 3.36,3.36 1.824,0 3.264,-1.344 3.36,-3.168 0,-1.728 0.096,-3.552 0.096,-5.568 0,-5.568 -0.288,-12 -0.384,-18.24 4.224,-0.192 4.32,-0.192 8.736,-0.192 1.824,0 3.36,-1.536 3.36,-3.36 0,-3.36 -3.552,-3.36 -4.608,-3.36 z m 19.48797,18.528 c 0,14.688 11.232,15.264 13.056,15.264 4.992,0 9.696,-2.112 13.152,-5.856 v 3.072 c 0,18.528 -9.792,18.72 -13.632,18.72 -6.048,0 -7.584,-2.112 -7.872,-6.24 -0.096,-1.728 -1.632,-3.168 -3.36,-3.168 -1.92,0 -3.36,1.536 -3.36,3.36 0,2.112 0.768,12.768 14.592,12.768 17.472,0 20.352,-15.36 20.352,-25.44 0,-3.264 -0.288,-20.928 -1.44,-27.168 -0.384,-2.304 -5.76,-7.2 -12.864,-7.2 -10.176,0 -18.624,11.904 -18.624,21.888 z m 6.72,0 c 0,-6.528 5.952,-15.168 11.904,-15.168 2.688,0 4.8,1.056 6.336,2.496 0.192,1.728 0.288,3.264 0.288,4.8 0,9.984 -4.8,16.416 -12.192,16.416 -4.992,0 -6.336,-4.128 -6.336,-8.544 z m 50.49596,-21.504 c -5.952,0 -9.6,3.456 -11.52,5.952 -0.096,-11.136 -0.192,-22.176 -0.288,-26.4 -0.096,-1.824 -1.536,-3.264 -3.36,-3.264 h -0.096 c -1.824,0.096 -3.264,1.536 -3.264,3.36 0,0.48 0.288,22.656 0.288,39.168 0,5.952 0,11.136 -0.096,14.304 v 0.096 c 0,1.824 1.536,3.36 3.36,3.36 1.824,0 3.264,-1.44 3.36,-3.264 0.672,-16.896 4.224,-26.592 11.52,-26.592 0,0 0,0 0.096,0 1.056,0 1.632,0.288 2.496,2.016 2.112,4.128 2.496,10.176 2.496,18.432 0,1.92 0,3.936 0,5.952 0,1.824 1.536,3.36 3.36,3.36 1.824,0 3.36,-1.44 3.36,-3.264 0,-1.344 0.096,-4.032 0.096,-7.2 0,-17.856 -4.224,-26.016 -11.808,-26.016 z m 29.85596,19.392 c 0,-7.392 1.632,-16.032 1.632,-16.224 0,-1.824 -1.536,-3.36 -3.36,-3.36 -1.632,0 -2.976,1.248 -3.264,2.784 -0.576,3.36 -1.728,9.888 -1.728,16.416 0,9.024 2.208,17.856 11.232,17.856 8.64,0 12.48,-8.256 12.48,-11.232 0,-1.824 -1.536,-3.36 -3.36,-3.36 -1.632,0 -2.976,1.248 -3.264,2.784 -0.384,2.208 -2.976,5.088 -5.856,5.088 -1.248,0 -4.512,-0.096 -4.512,-10.752 z m -4.224,-30.24 c 0,3.168 2.784,6.048 6.048,6.048 3.168,0 5.76,-2.592 5.76,-5.76 0,-3.168 -2.688,-6.048 -6.048,-6.048 -3.072,0 -5.76,2.496 -5.76,5.76 z m 52.03197,15.456 c 0,0.192 0.096,0.384 0.096,0.576 1.344,8.832 1.92,16.32 1.92,22.656 0,16.896 -4.32,24.768 -8.736,24.768 -2.112,0 -7.488,-0.288 -9.504,-11.904 -0.288,-1.536 -1.632,-2.784 -3.264,-2.784 -1.92,0 -3.36,1.536 -3.36,3.36 0,0.288 1.728,18.048 16.128,18.048 3.264,0 6.432,-1.632 8.736,-4.224 5.088,-5.856 6.72,-16.32 6.72,-26.976 0,-8.64 -1.056,-17.28 -2.016,-24 -0.288,-1.632 -1.728,-2.88 -3.36,-2.88 -1.92,0 -3.36,1.536 -3.36,3.36 z m -5.184,-15.456 c 0,3.168 2.784,6.048 6.048,6.048 3.168,0 5.76,-2.592 5.76,-5.76 0,-3.168 -2.688,-6.048 -6.048,-6.048 -3.072,0 -5.76,2.496 -5.76,5.76 z m 24.95996,-10.752 c 0,0.096 0.096,0.096 0.096,0.192 0.192,3.36 0.288,6.72 0.288,10.08 0,10.752 -0.96,21.312 -0.96,32.448 0,3.84 0.096,7.68 0.48,11.616 0.096,1.728 1.632,3.168 3.36,3.168 1.92,0 3.36,-1.536 3.36,-3.36 0,-0.384 -0.288,-3.648 -0.384,-8.928 2.112,-0.672 3.552,-0.96 4.608,-0.96 1.44,0 2.112,0.48 2.784,0.864 2.016,1.44 4.704,5.568 9.696,11.52 0.576,0.768 1.536,1.248 2.592,1.248 1.824,0 3.36,-1.536 3.36,-3.36 0,-0.864 -0.288,-1.632 -0.768,-2.208 -4.704,-5.664 -7.104,-9.888 -11.04,-12.672 -0.768,-0.576 -1.632,-0.96 -2.592,-1.344 5.28,-4.8 8.832,-9.6 11.52,-12.576 0.576,-0.576 0.864,-1.344 0.864,-2.208 0,-1.824 -1.536,-3.36 -3.36,-3.36 -1.344,0 -2.208,0.672 -2.496,1.056 -3.84,4.224 -8.16,10.176 -15.072,15.36 0.192,-8.352 0.672,-16.896 0.672,-25.632 0,-3.648 -0.096,-7.392 -0.288,-11.232 -0.096,-1.728 -1.632,-3.072 -3.36,-3.072 -1.92,0 -3.36,1.536 -3.36,3.36 z m 48.67196,57.792 c 9.504,0 17.568,-9.792 17.568,-15.168 0,-1.824 -1.536,-3.36 -3.36,-3.36 -1.728,0 -2.976,1.248 -3.264,2.88 -0.576,3.648 -6.24,8.928 -10.944,8.928 -2.304,0 -2.592,-9.216 -2.592,-13.152 0,-9.696 3.744,-26.496 3.744,-39.072 0,-1.824 -1.536,-3.36 -3.36,-3.36 -1.824,0 -3.36,1.536 -3.36,3.36 0,11.232 -3.744,27.744 -3.744,39.072 0,6.624 0,19.872 9.312,19.872 z m 50.78397,-30.528 c 1.536,3.552 1.92,11.136 1.92,18.144 0,3.744 -0.096,7.296 -0.192,9.792 v 0.192 c 0,1.824 1.536,3.36 3.36,3.36 1.824,0 3.264,-1.44 3.36,-3.264 0.096,-3.84 0.192,-7.392 0.192,-10.656 0,-17.376 -2.592,-24.768 -8.256,-24.768 -3.552,0 -5.856,2.88 -6.912,4.896 -1.632,-4.608 -4.8,-4.992 -5.856,-4.992 -2.976,0 -4.992,1.824 -5.952,3.168 -0.096,-3.456 -3.168,-3.456 -3.36,-3.456 h -0.096 c -1.824,0.096 -3.264,1.536 -3.264,3.36 v 0.096 c 0.096,3.84 0.096,7.584 0.096,11.04 0,9.6 -0.288,17.376 -0.288,21.12 0,1.824 1.536,3.36 3.36,3.36 1.632,0 3.072,-1.152 3.36,-2.688 1.728,-8.448 2.208,-24.864 5.664,-28.896 1.536,4.704 1.536,10.08 1.536,15.744 0,3.264 -0.096,6.432 -0.096,9.024 0,1.344 0,2.496 0.096,3.36 0,1.728 1.536,3.36 3.36,3.36 1.824,0 3.36,-1.536 3.36,-3.36 0,-0.192 0,-21.984 4.608,-27.936 z m 41.75996,31.488 c 1.824,0 3.264,-1.44 3.36,-3.264 0,-2.208 0.096,-4.704 0.096,-7.2 0,-13.248 -1.728,-28.416 -12.192,-28.416 -5.568,0 -9.12,3.456 -10.944,6.048 0,-0.96 -0.096,-2.016 -0.096,-3.072 -0.096,-1.824 -1.536,-3.168 -3.36,-3.168 h -0.096 c -1.824,0.096 -3.264,1.536 -3.264,3.36 v 0.096 c 0.096,3.84 0.096,7.584 0.096,11.04 0,9.6 -0.288,17.376 -0.288,21.12 0,1.824 1.536,3.36 3.36,3.36 1.824,0 3.264,-1.344 3.36,-3.168 0.384,-9.888 2.304,-28.896 11.232,-28.896 4.608,0 5.472,12.864 5.472,22.272 0,2.496 -0.096,4.704 -0.096,6.336 v 0.192 c 0,1.824 1.536,3.36 3.36,3.36 z m 26.11196,-0.48 c 9.12,0 17.856,-9.024 17.856,-17.568 0,-13.728 -8.16,-20.16 -16.608,-20.16 -5.184,0 -9.888,2.016 -13.056,5.664 -3.168,3.648 -4.704,8.736 -4.704,14.784 0,10.56 7.2,17.28 16.512,17.28 z m 11.136,-17.568 c 0,4.608 -5.664,10.848 -11.136,10.848 -9.216,0 -9.792,-8.448 -9.792,-10.56 0,-12.192 7.104,-13.728 11.04,-13.728 9.216,0 9.888,10.464 9.888,13.44 z m -601.53545,118.944 c 0,7.68 -0.864,17.088 -0.864,26.784 0,3.648 0.096,7.2 0.48,10.752 0.192,1.728 1.632,3.072 3.36,3.072 1.92,0 3.36,-1.536 3.36,-3.36 0,-0.096 -0.384,-2.496 -0.384,-8.16 0,-2.784 0.096,-6.432 0.384,-11.04 17.472,-1.056 24.864,-10.752 24.864,-19.2 0,-11.808 -6.72,-18.24 -13.92,-18.24 -4.32,0 -8.928,2.016 -12,6.432 -0.576,-1.152 -1.632,-1.824 -2.976,-1.824 -1.824,0 -3.36,1.536 -3.36,3.36 0,0.192 1.056,4.224 1.056,11.424 z m 6.624,11.232 c 0.096,-2.208 0.192,-4.32 0.288,-6.432 2.016,-17.472 7.68,-17.472 10.368,-17.472 5.088,0 7.2,6.144 7.2,11.52 0,5.76 -6.048,11.52 -17.856,12.384 z m 31.67997,-7.968 c 0,14.592 7.872,15.84 10.464,15.84 4.704,0 9.024,-2.784 12.384,-7.2 -0.384,23.712 -0.96,24.192 -0.96,25.632 0,1.824 1.536,3.36 3.36,3.36 1.728,0 3.168,-1.344 3.36,-3.072 1.248,-14.016 0.768,-32.16 1.632,-48.576 v -0.192 c 0,-2.688 -5.088,-7.872 -11.904,-7.872 -10.368,0 -18.336,12.192 -18.336,22.08 z m 6.72,0 c 0,-6.336 5.472,-15.36 11.616,-15.36 1.536,0 3.552,0.576 5.088,2.208 -1.152,14.496 -8.064,22.272 -12.96,22.272 -3.36,0 -3.744,-6.432 -3.744,-9.12 z m 61.53596,-10.464 c 0,-2.208 -3.264,-12.576 -11.808,-12.576 -5.568,0 -9.024,3.552 -10.656,5.664 v -2.688 c -0.096,-1.824 -1.536,-3.168 -3.36,-3.168 h -0.192 c -1.824,0.096 -3.168,1.536 -3.168,3.36 v 0.096 c 0.096,3.84 0.096,7.584 0.096,11.04 0,9.6 -0.288,17.376 -0.288,21.12 0,1.824 1.536,3.36 3.36,3.36 1.824,0 3.264,-1.344 3.36,-3.168 0.576,-14.688 3.168,-28.896 10.848,-28.896 1.92,0 4.032,1.536 5.184,6.528 0.384,1.536 1.632,2.592 3.264,2.592 1.92,0 3.36,-1.44 3.36,-3.264 z m 38.30396,12.96 c 0,-2.016 -0.48,-3.936 -1.632,-5.76 -5.952,-8.832 -20.16,-5.472 -20.16,-8.928 0,-1.344 2.976,-4.512 7.104,-4.512 5.856,0 6.912,4.992 9.984,4.992 1.824,0 3.36,-1.536 3.36,-3.36 0,-0.864 -0.288,-1.632 -0.864,-2.208 -3.936,-4.32 -8.448,-6.048 -12.576,-6.048 -7.392,0 -13.728,5.568 -13.728,11.232 0,0.864 0.192,1.728 0.576,2.592 3.264,8.544 16.8,4.128 20.736,9.984 0.384,0.672 0.576,1.344 0.576,2.016 0,3.072 -3.264,6.72 -7.968,6.72 -2.592,0 -5.76,-1.152 -8.928,-4.224 -0.576,-0.576 -1.44,-0.864 -2.304,-0.864 -1.824,0 -3.36,1.536 -3.36,3.36 0,0.96 0.384,1.92 1.056,2.496 4.224,4.032 8.928,5.664 13.248,5.664 8.16,0 14.88,-5.856 14.88,-13.152 z m 10.75197,-6.528 c 0,18.048 6.912,20.832 11.328,20.832 7.488,0 14.688,-7.296 14.688,-15.168 0,-3.36 -1.44,-6.048 -3.84,-6.048 -1.824,0 -3.36,1.536 -3.36,3.36 0,1.056 0.48,1.632 0.48,3.072 0,4.608 -5.472,8.064 -7.968,8.064 -4.128,0 -4.512,-10.272 -4.512,-14.304 0,-3.36 0.192,-6.336 0.384,-8.064 1.056,0.096 1.056,0.096 12,0.096 1.824,0 3.36,-1.536 3.36,-3.36 0,-1.824 -1.536,-3.36 -3.36,-3.36 -1.632,0 -3.552,0.096 -5.472,0.096 -2.016,0 -4.032,-0.096 -5.76,-0.192 0.96,-7.872 1.248,-10.368 1.248,-11.904 0,-4.032 -1.824,-4.992 -3.456,-4.992 -1.92,0 -3.36,1.536 -3.36,3.36 0,9.792 -2.4,16.704 -2.4,28.512 z m 52.60796,20.16 c 4.128,0 7.68,-2.112 9.792,-4.992 3.168,-4.416 4.32,-9.792 4.32,-29.952 0,-1.824 -1.536,-3.36 -3.36,-3.36 -1.824,0 -3.264,1.344 -3.36,3.072 -0.384,5.472 0.192,13.248 -0.672,19.296 -1.344,9.216 -4.992,9.216 -6.72,9.216 -6.24,0 -9.696,-5.856 -9.696,-20.064 0,-2.304 0.096,-4.896 0.288,-7.68 v -0.192 c 0,-1.824 -1.536,-3.36 -3.36,-3.36 -1.824,0 -3.264,1.344 -3.36,3.072 -0.192,1.92 -0.384,4.896 -0.384,8.16 0,22.944 9.792,26.784 16.512,26.784 z m 21.69596,-35.424 c 0,0.672 0.192,1.344 0.576,1.92 4.608,6.624 4.704,18.432 11.616,31.776 0.576,1.056 1.728,1.824 2.976,1.824 1.344,0 2.4,-0.864 2.976,-2.016 10.848,-23.136 12.96,-32.928 12.96,-33.12 0,-1.824 -1.536,-3.36 -3.36,-3.36 -1.536,0 -2.784,0.96 -3.168,2.304 -2.4,7.776 -5.28,15.456 -9.312,24.48 -3.264,-9.408 -3.936,-18.336 -9.216,-25.824 -0.96,-1.344 -2.208,-1.344 -2.688,-1.344 -1.824,0 -3.36,1.536 -3.36,3.36 z m 36.76797,-0.384 c 0,0.288 0,0.48 0.096,0.672 1.728,8.064 0.288,19.488 6.624,33.024 0.576,1.152 1.728,1.92 3.072,1.92 1.44,0 2.592,-0.864 3.072,-2.112 1.824,-4.416 2.976,-7.68 3.936,-11.232 1.152,3.168 2.592,6.528 4.704,11.04 0.576,1.152 1.728,1.92 3.072,1.92 1.536,0 2.784,-1.056 3.168,-2.4 5.088,-16.512 6.624,-31.584 6.624,-31.872 0,-1.824 -1.536,-3.36 -3.36,-3.36 -1.728,0 -3.168,1.248 -3.36,2.88 -0.96,7.104 -1.92,13.632 -3.84,21.408 -1.536,-4.032 -2.496,-7.392 -4.032,-13.248 -0.384,-1.44 -1.728,-2.496 -3.264,-2.496 -1.632,0 -2.88,1.152 -3.264,2.592 -1.44,6.048 -2.208,9.792 -3.36,13.536 -2.016,-8.256 -1.632,-15.648 -3.264,-23.04 -0.288,-1.536 -1.632,-2.592 -3.264,-2.592 -1.824,0 -3.36,1.536 -3.36,3.36 z m 66.14396,-2.208 c -1.344,0 -2.4,0.768 -2.976,1.92 -2.112,4.32 -4.8,7.584 -7.776,10.944 -8.256,-9.216 -6.048,-13.44 -10.176,-13.44 -1.824,0 -3.36,1.536 -3.36,3.36 0,0.672 1.728,7.008 9.024,15.072 -7.392,8.352 -9.888,14.688 -9.888,15.84 0,1.824 1.536,3.36 3.36,3.36 4.032,0 1.824,-3.552 11.136,-14.304 10.848,11.424 8.736,13.824 12.384,13.824 1.824,0 3.36,-1.44 3.36,-3.36 0,-0.672 -0.192,-1.248 -0.48,-1.728 -3.648,-6.144 -7.392,-10.272 -10.752,-13.728 9.216,-10.176 9.504,-14.208 9.504,-14.4 0,-1.824 -1.536,-3.36 -3.36,-3.36 z m 16.99196,-1.248 c -1.632,0 -3.072,1.152 -3.36,2.784 -0.768,4.032 -1.056,7.68 -1.056,11.04 0,14.592 6.144,22.464 14.496,22.464 3.744,0 6.912,-2.016 9.312,-4.992 -0.864,17.76 -4.896,23.04 -8.352,23.04 -3.744,0 -7.68,-2.304 -9.6,-5.088 -0.576,-0.864 -1.632,-1.44 -2.784,-1.44 -1.824,0 -3.36,1.44 -3.36,3.36 0,2.784 6.624,9.888 15.744,9.888 12.576,0 15.264,-19.488 15.264,-37.056 0,-7.68 -0.48,-14.976 -0.864,-20.16 -0.192,-1.728 -1.632,-2.976 -3.36,-2.976 -1.824,0 -3.36,1.536 -3.36,3.36 v 0.096 c 0,1.248 0,2.4 0,3.552 0,12.384 -3.648,21.696 -8.64,21.696 -1.44,0 -2.4,-0.384 -3.456,-1.344 -3.36,-2.976 -4.224,-9.024 -4.224,-14.4 0,-4.704 0.672,-8.832 0.864,-9.888 0,-0.192 0.096,-0.384 0.096,-0.576 0,-1.824 -1.536,-3.36 -3.36,-3.36 z m 34.94397,3.072 c 0,1.824 1.44,3.264 3.168,3.36 6.432,0.384 12.096,0.384 17.184,0.768 -1.344,2.112 -3.168,4.8 -5.28,7.584 -11.904,15.84 -16.416,17.76 -16.416,20.544 0,1.824 1.536,3.36 3.36,3.36 h 0.384 c 2.976,-0.288 5.856,-0.384 8.64,-0.384 4.608,0 8.928,0.288 13.056,0.288 0.864,0 1.728,0 2.592,-0.096 1.824,-0.096 3.264,-1.536 3.264,-3.36 0,-1.92 -1.536,-3.36 -3.36,-3.36 -1.344,0 -16.32,-0.288 -16.512,-0.288 7.488,-8.544 19.2,-23.712 19.2,-26.976 0,-1.632 -1.248,-3.072 -2.88,-3.36 -5.76,-0.96 -22.848,-1.44 -23.04,-1.44 -1.824,0 -3.36,1.536 -3.36,3.36 z m 65.18396,33.792 c 0,-1.824 -1.44,-3.36 -3.36,-3.36 -1.056,0 -2.496,0.96 -4.32,0.96 -2.112,0 -4.224,-1.344 -4.224,-7.392 0,-2.784 1.248,-5.952 1.248,-10.944 0,-4.416 -1.728,-7.008 -3.36,-8.544 2.496,-2.4 3.84,-5.856 3.84,-10.464 0,-3.552 -0.768,-5.952 -0.768,-8.352 0,-5.28 2.112,-6.432 4.32,-6.432 1.632,0 2.592,0.48 3.648,0.48 1.824,0 3.36,-1.536 3.36,-3.36 0,-3.072 -3.552,-3.84 -7.104,-3.84 -10.176,0 -10.944,10.848 -10.944,13.056 -0.096,0.192 -0.096,0.384 -0.096,0.576 0,3.264 0.864,5.568 0.864,7.872 0,6.624 -3.744,6.912 -5.376,7.008 -1.728,0.096 -3.072,1.632 -3.072,3.36 0,5.376 7.968,1.344 7.968,8.64 0,3.552 -1.248,6.528 -1.248,10.944 0,9.984 5.088,13.92 11.04,13.92 2.016,0 7.584,-0.288 7.584,-4.128 z m 21.98396,-57.6 c 0,0.192 0.096,0.384 0.096,0.576 0.768,4.416 1.056,9.12 1.056,14.208 0,10.656 -1.248,22.848 -1.248,36.096 0,2.592 0,5.184 0.192,7.776 0.096,1.824 1.536,3.168 3.36,3.168 1.92,0 3.36,-1.536 3.36,-3.36 v -0.096 c -0.192,-2.304 -0.192,-4.704 -0.192,-7.008 0,-12.672 1.344,-24.768 1.344,-36 0,-5.568 -0.384,-10.848 -1.248,-16.032 -0.288,-1.536 -1.728,-2.688 -3.36,-2.688 -1.92,0 -3.36,1.536 -3.36,3.36 z m 37.05597,2.784 c 0.864,0 3.744,0 3.744,5.856 0,2.208 -0.672,4.992 -0.672,8.256 0,4.32 1.92,8.064 4.896,10.56 -2.688,2.88 -4.416,7.2 -4.416,12.192 0,4.128 1.248,6.624 1.248,8.448 0,2.688 -2.208,7.392 -4.704,7.392 -1.44,0 -2.112,-0.96 -3.648,-0.96 -1.824,0 -3.36,1.536 -3.36,3.36 0,4.032 6.528,4.128 6.624,4.128 6.432,0 11.808,-6.144 11.808,-13.92 0,-3.744 -1.248,-5.952 -1.248,-8.448 0,-5.376 3.84,-9.024 5.568,-9.504 1.44,-0.384 2.496,-1.728 2.496,-3.264 0,-1.728 -1.344,-3.072 -2.976,-3.264 -3.648,-0.384 -5.568,-2.4 -5.568,-6.72 0,-2.304 0.672,-5.088 0.672,-8.256 0,-10.944 -7.008,-12.576 -11.136,-12.576 -3.744,0 -7.008,1.44 -7.008,4.032 0,1.824 1.536,3.36 3.36,3.36 1.44,0 2.4,-0.672 4.32,-0.672 z m 38.97596,26.496 c 0.48,0 0.96,0.48 1.536,1.44 1.92,4.224 4.992,5.856 7.776,5.856 5.088,0 8.64,-4.992 8.64,-9.216 0,-2.304 -1.056,-4.128 -3.264,-4.128 -1.92,0 -3.36,1.536 -3.36,3.36 0,1.728 -0.864,3.264 -1.92,3.264 -0.576,0 -1.248,-0.576 -1.824,-1.92 -1.536,-3.264 -4.704,-5.28 -7.776,-5.28 -5.76,0 -8.448,6.528 -8.448,9.216 0,1.824 1.536,3.36 3.36,3.36 4.128,0 2.976,-5.952 5.28,-5.952 z"
       id="text1"
       style="font-size:96px;font-family:honchokomono;-inkscape-font-specification:'honchokomono, Normal';white-space:pre;fill:#dddddd;stroke-width:70;stroke-linecap:round;stroke-linejoin:round"
       transform="matrix(0.26458333,0,0,0.26458333,-27.862406,13.203252)"
       aria-label=" !&quot;#$%&amp;'()*+,-./&#10;0123456789:;&lt;=&gt;?&#10;@ABCDEFGHIJKLMNO&#10;PQRSTUVWXYZ[\]^_&#10;`abcdefghijklmno&#10;pqrstuvwxyz{|}~" />
  </g>
</svg>
