<?xml version="1.0" encoding="UTF-8" standalone="no"?>
<!-- Created with Inkscape (http://www.inkscape.org/) -->

<svg
   width="408.67865mm"
   height="198.84927mm"
   viewBox="0 0 408.67865 198.84927"
   version="1.1"
   id="svg1"
   inkscape:version="1.3.2 (091e20ef0f, 2023-11-25)"
   sodipodi:docname="ascii.svg"
   xmlns:inkscape="http://www.inkscape.org/namespaces/inkscape"
   xmlns:sodipodi="http://sodipodi.sourceforge.net/DTD/sodipodi-0.dtd"
   xmlns="http://www.w3.org/2000/svg"
   xmlns:svg="http://www.w3.org/2000/svg">
  <sodipodi:namedview
     id="namedview1"
     pagecolor="#ffffff"
     bordercolor="#000000"
     borderopacity="0.25"
     inkscape:showpageshadow="2"
     inkscape:pageopacity="0.0"
     inkscape:pagecheckerboard="0"
     inkscape:deskcolor="#d1d1d1"
     inkscape:document-units="mm"
     inkscape:zoom="0.60466357"
     inkscape:cx="926.96175"
     inkscape:cy="512.68179"
     inkscape:window-width="1904"
     inkscape:window-height="1032"
     inkscape:window-x="8"
     inkscape:window-y="40"
     inkscape:window-maximized="0"
     inkscape:current-layer="layer1" />
  <defs
     id="defs1">
    <rect
       x="140.21065"
       y="176.54231"
       width="1630.3799"
       height="1074.2194"
       id="rect4" />
    <rect
       x="168.50119"
       y="198.53493"
       width="633.50897"
       height="733.55774"
       id="rect3" />
    <rect
       x="144.6705"
       y="368.2973"
       width="622.01013"
       height="714.67761"
       id="rect1" />
  </defs>
  <g
     inkscape:label="Layer 1"
     inkscape:groupmode="layer"
     id="layer1"
     transform="translate(-18.238966,-65.264602)">
    <rect
       style="fill:#001122;stroke-width:24.3471;stroke-linecap:round;stroke-linejoin:round"
       id="rect2"
       width="408.67865"
       height="198.84927"
       x="18.238968"
       y="65.264603" />
    <path
       d="m 254.25894,258.39257 c 0,-3.552 2.784,-5.76 5.76,-5.76 1.536,0 3.072,0.576 4.32,1.92 1.152,1.152 1.632,2.688 1.632,4.128 0,2.976 -2.208,5.76 -5.664,5.76 -3.264,0 -6.048,-2.88 -6.048,-6.048 z m 9.216,-19.008 c 0,2.112 -1.728,3.84 -3.84,3.84 -2.112,0 -3.84,-1.632 -3.84,-3.744 0,-0.96 0,-2.016 0,-2.976 0,-8.352 0.576,-17.472 0.576,-25.632 0,-7.68 -0.672,-12 -0.672,-12.096 0,-2.112 1.728,-3.84 3.84,-3.84 2.016,0 3.648,1.536 3.84,3.36 0.48,3.936 0.672,8.16 0.672,12.576 0,4.224 -0.192,8.64 -0.288,13.056 -0.192,4.32 -0.288,8.544 -0.288,12.48 0,1.728 0,2.976 0,2.976 z m 84.576,-47.136 c 2.112,0 3.84,1.728 3.84,3.84 0,0.192 0,13.536 0.096,15.36 0,0 0,0.096 0,0.096 0,2.112 -1.728,3.84 -3.84,3.84 -2.112,0 -3.84,-1.728 -3.84,-3.84 -0.096,-1.92 -0.096,-15.264 -0.096,-15.36 0,-0.096 0,-0.096 0,-0.096 0,-2.112 1.728,-3.84 3.84,-3.84 z m 16.128,0 c 2.112,0 3.84,1.728 3.84,3.84 0,0.192 0,13.536 0.096,15.36 0,0 0,0.096 0,0.096 0,2.112 -1.728,3.84 -3.84,3.84 -2.112,0 -3.84,-1.728 -3.84,-3.84 -0.096,-1.92 -0.096,-15.264 -0.096,-15.36 0,-0.096 0,-0.096 0,-0.096 0,-2.112 1.728,-3.84 3.84,-3.84 z m 88.608,6.528 c -0.384,4.416 -1.056,9.408 -1.824,14.592 2.88,0 5.664,0 8.064,-0.096 0.864,-5.568 1.632,-10.848 2.208,-15.744 0.192,-1.92 1.824,-3.36 3.84,-3.36 2.112,0 3.84,1.728 3.84,3.84 0,0.096 0,0.288 -0.096,0.48 -0.48,4.512 -1.152,9.504 -1.92,14.592 2.016,0 3.264,-0.096 3.36,-0.096 2.112,0 3.84,1.728 3.84,3.84 0,2.112 -1.632,3.744 -3.744,3.84 -1.632,0.096 -3.168,0.096 -4.704,0.192 -0.672,4.608 -1.44,9.312 -2.208,13.92 3.36,0 4.992,-0.096 5.184,-0.096 2.112,0 3.84,1.728 3.84,3.84 0,2.112 -1.632,3.84 -3.744,3.84 -1.632,0.096 -3.936,0.096 -6.528,0.096 -0.96,5.76 -1.824,11.424 -2.592,16.512 -0.288,1.824 -1.92,3.264 -3.84,3.264 -2.112,0 -3.84,-1.728 -3.84,-3.84 0,-0.576 0.864,-5.856 2.496,-15.936 -3.072,0 -5.952,0 -8.352,-0.096 -0.96,6.048 -1.92,11.808 -2.592,16.8 -0.192,1.92 -1.824,3.36 -3.744,3.36 -2.208,0 -3.84,-1.728 -3.84,-3.84 0,-0.192 0,-0.288 0,-0.48 0.576,-4.704 1.44,-10.176 2.4,-15.84 -1.632,0 -2.4,0.096 -2.496,0.096 -2.208,0 -3.84,-1.728 -3.84,-3.84 0,-2.112 1.632,-3.84 3.744,-3.84 0.864,-0.096 2.208,-0.096 3.936,-0.096 0.768,-4.512 1.632,-9.216 2.4,-13.728 -2.784,0 -4.992,-0.096 -6.72,-0.288 -2.016,-0.096 -3.648,-1.728 -3.648,-3.744 0,-2.208 1.728,-3.84 3.84,-3.84 0.096,0 2.592,0.096 7.68,0.192 0.864,-5.472 1.536,-10.656 2.016,-15.168 0.096,-1.92 1.824,-3.456 3.744,-3.456 2.208,0 3.84,1.728 3.84,3.84 0,0.096 0,0.192 0,0.288 z m -2.976,22.272 c -0.768,4.512 -1.632,9.12 -2.4,13.632 2.976,0.096 5.952,0.096 8.256,0.096 0.768,-4.608 1.44,-9.216 2.208,-13.824 -2.688,0.096 -5.28,0.096 -7.584,0.096 -0.192,0 -0.384,0 -0.48,0 z m 78.72,23.712 c 0,-2.304 1.92,-3.84 3.84,-3.84 1.056,0 2.208,0.48 2.976,1.44 1.344,1.728 2.784,3.072 4.224,4.128 1.44,-6.144 2.688,-11.904 3.936,-17.472 -8.544,-3.264 -12.192,-9.6 -12.192,-15.264 0,-7.392 6.048,-14.208 15.936,-14.208 0.672,0 1.44,0.096 2.208,0.192 0.192,-0.96 0.384,-1.92 0.576,-2.88 0.384,-1.728 1.92,-3.072 3.744,-3.072 2.208,0 3.84,1.728 3.84,3.84 0,0.192 0,0.48 0,0.768 -0.288,1.056 -0.48,2.112 -0.672,3.168 2.688,1.056 5.568,2.496 8.544,4.512 1.056,0.768 1.728,1.92 1.728,3.264 0,2.208 -1.92,3.84 -3.936,3.84 -0.672,0 -1.44,-0.192 -2.112,-0.672 -2.016,-1.44 -3.936,-2.496 -5.76,-3.264 -0.96,4.896 -1.92,9.6 -2.88,14.208 15.168,3.648 15.264,13.824 15.264,15.456 0,9.408 -9.312,18.144 -20.064,18.144 -0.864,0 -1.824,0 -2.688,-0.192 -0.288,1.248 -0.672,2.592 -0.96,3.84 -0.384,1.728 -1.92,2.976 -3.744,2.976 -2.112,0 -3.84,-1.824 -3.84,-3.84 0,-0.288 0.096,-0.576 0.096,-0.96 0.384,-1.536 0.768,-2.976 1.056,-4.416 -2.976,-1.632 -9.12,-6.528 -9.12,-9.696 z m 18.24,4.608 c 0.288,0 0.672,0.096 0.96,0.096 6.912,0 12.384,-5.856 12.384,-10.56 0,-4.704 -5.28,-6.912 -9.216,-7.872 -1.248,5.76 -2.592,11.808 -4.128,18.336 z m 1.152,-42.048 c -0.192,0 -0.48,-0.096 -0.672,-0.096 -5.184,0 -8.256,3.072 -8.256,6.528 0,2.688 1.92,5.664 6.048,7.584 1.056,-4.608 1.92,-9.216 2.88,-14.016 z m 112.992,-7.008 c -2.688,5.952 -5.664,12.096 -8.64,18.24 -6.528,13.632 -13.248,27.552 -18.24,40.896 -0.576,1.44 -1.92,2.496 -3.552,2.496 -2.208,0 -3.84,-1.824 -3.84,-3.84 0,-0.384 0,-0.864 0.192,-1.344 5.184,-13.824 12,-27.936 18.528,-41.472 2.976,-6.24 5.952,-12.288 8.64,-18.144 0.576,-1.344 1.92,-2.304 3.456,-2.304 2.208,0 3.84,1.824 3.84,3.84 0,0.576 -0.096,1.056 -0.384,1.632 z m -5.184,49.344 c 0.864,-1.536 1.344,-4.032 1.344,-6.432 0,-2.88 -0.672,-5.76 -1.728,-6.72 -0.96,1.344 -1.44,3.744 -1.44,6.24 0,2.88 0.576,5.664 1.824,6.912 z m 9.024,-6.528 c 0,8.064 -3.264,14.304 -8.64,14.304 -6.72,0 -9.984,-7.392 -9.984,-14.688 0,-7.008 3.072,-14.016 8.832,-14.016 5.568,0 9.792,5.376 9.792,14.4 z m -32.352,-25.152 c 1.248,-2.304 1.824,-6.048 1.824,-9.12 0,-1.92 -0.192,-3.552 -0.576,-4.608 -1.536,1.536 -2.4,5.28 -2.4,8.544 0,2.112 0.384,4.128 1.152,5.184 z m 0.576,8.064 c -6.528,0 -9.408,-6.528 -9.408,-13.536 0,-7.872 3.744,-16.32 10.464,-16.32 2.304,0 4.224,1.248 5.376,2.688 1.728,2.304 2.592,6.24 2.592,10.368 0,7.968 -3.072,16.8 -9.024,16.8 z m 111.264,19.968 c -5.184,-4.896 -9.216,-9.888 -12.192,-15.168 -3.456,4.32 -4.992,9.312 -4.992,13.632 0,3.744 1.344,9.024 5.472,9.024 4.224,0 9.312,-4.896 11.712,-7.488 z m -6.432,-20.736 c 2.496,4.992 6.144,9.792 11.328,14.688 0.48,-0.672 0.96,-1.44 1.536,-2.112 0.672,-1.056 1.824,-1.728 3.168,-1.728 2.208,0 3.84,1.824 3.84,3.84 0,0.768 -0.192,1.536 -0.672,2.208 -0.768,0.96 -1.44,1.92 -2.112,2.88 1.44,1.152 2.88,2.304 4.416,3.456 0.96,0.672 1.632,1.824 1.632,3.072 0,2.304 -1.92,3.84 -3.84,3.84 -0.768,0 -1.536,-0.192 -2.304,-0.768 -1.632,-1.152 -3.264,-2.4 -4.704,-3.648 -8.448,9.216 -14.688,10.176 -17.568,10.176 -7.584,0 -13.152,-6.72 -13.152,-16.704 0,-7.008 2.88,-15.072 9.216,-21.216 -1.92,-5.184 -2.784,-10.752 -2.784,-13.44 0,-9.216 7.392,-13.728 14.112,-13.728 5.664,0 10.944,3.264 10.944,9.408 0,3.552 -1.632,9.216 -13.056,19.776 z m -2.976,-7.776 c 2.112,-2.112 8.352,-8.544 8.352,-12 0,-0.288 0,-0.768 -0.96,-1.344 -0.288,-0.192 -1.152,-0.288 -2.208,-0.288 -2.592,0 -6.528,1.056 -6.528,5.952 0,2.688 1.344,7.584 1.344,7.68 z m 105.12,-9.792 c 0,2.784 0.096,3.456 0.096,3.744 0,2.112 -1.728,3.84 -3.84,3.84 -2.016,0 -3.744,-1.536 -3.84,-3.552 -0.096,-1.056 -0.096,-2.4 -0.096,-4.032 0,-0.384 0.096,-9.12 0.096,-9.216 0,-1.536 -0.096,-2.4 -0.096,-2.4 0,-2.112 1.728,-3.84 3.84,-3.84 2.112,0 3.744,1.632 3.84,3.648 0.096,0.576 0.096,1.536 0.096,2.688 0,2.976 -0.096,7.008 -0.096,9.12 z m 107.136,-13.056 c 0,1.824 -1.344,3.36 -3.072,3.744 -10.56,2.208 -19.104,17.664 -19.104,32.64 0,11.808 5.376,23.328 19.392,27.552 1.632,0.48 2.784,1.92 2.784,3.648 0,2.208 -1.824,3.84 -3.84,3.84 -0.384,0 -0.768,-0.096 -1.152,-0.192 -17.664,-5.28 -24.864,-19.968 -24.864,-35.04 0,-18.24 10.464,-36.864 25.248,-39.936 0.192,-0.096 0.48,-0.096 0.768,-0.096 2.016,0 3.84,1.632 3.84,3.84 z m 77.08796,-3.648 c 12.096,9.12 17.28,22.176 17.28,35.136 0,15.936 -7.968,31.68 -20.736,39.456 -0.576,0.288 -1.344,0.48 -2.016,0.48 -2.4,0 -3.84,-1.92 -3.84,-3.84 0,-1.248 0.576,-2.496 1.824,-3.264 10.176,-6.144 17.088,-19.488 17.088,-33.024 0,-10.56 -4.128,-21.216 -14.208,-28.8 -0.96,-0.768 -1.536,-1.824 -1.536,-3.072 0,-2.304 1.824,-3.84 3.84,-3.84 0.768,0 1.632,0.192 2.304,0.768 z m 111.552,25.056 c 2.304,0 3.936,1.92 3.936,3.936 0,0.864 -0.384,1.728 -1.056,2.496 -2.304,2.496 -4.512,4.32 -6.624,5.856 2.016,1.536 4.032,3.36 6.336,5.952 0.576,0.672 0.96,1.536 0.96,2.592 0,2.304 -1.92,3.84 -3.84,3.84 -1.056,0 -2.112,-0.48 -2.88,-1.344 -1.632,-1.824 -3.168,-3.264 -4.512,-4.416 0,3.168 -0.096,6.24 -0.192,9.216 -0.192,2.016 -1.824,3.648 -3.84,3.648 -2.208,0 -3.84,-1.728 -3.84,-3.84 0,-0.192 0.096,-1.536 0.192,-8.352 -1.536,1.056 -3.168,2.4 -4.704,4.032 -0.768,0.768 -1.728,1.152 -2.784,1.152 -2.304,0 -3.84,-1.824 -3.84,-3.84 0,-0.96 0.384,-1.92 1.056,-2.688 2.592,-2.592 4.992,-4.416 7.296,-5.952 -2.112,-1.344 -4.32,-2.976 -6.816,-5.184 -0.672,-0.672 -1.152,-1.728 -1.152,-2.784 0,-2.304 1.824,-3.84 3.84,-3.84 0.864,0 1.824,0.288 2.592,0.96 1.536,1.44 2.976,2.592 4.416,3.552 0,-2.208 0,-4.128 0,-5.952 0,-0.672 0,-1.344 0,-2.016 0,-2.112 1.728,-3.744 3.84,-3.744 2.016,0 3.84,1.632 3.84,3.84 0,0.576 0,1.152 0,1.92 0,1.344 0,3.264 0,6.72 5.184,-3.744 5.088,-5.76 7.776,-5.76 z m 84.192,-6.912 c 2.016,0 3.744,1.632 3.84,3.648 0.192,3.936 0.288,7.296 0.384,10.464 2.592,0 5.28,0 8.352,-0.096 0.096,0 0.096,0 0.096,0 2.112,0 3.84,1.728 3.84,3.84 0,2.112 -1.632,3.84 -3.744,3.84 -3.168,0.096 -5.856,0.096 -8.448,0.096 0,3.264 0,6.624 0.096,10.464 0,0 0,0.096 0,0.096 0,2.112 -1.728,3.84 -3.84,3.84 -2.112,0 -3.84,-1.728 -3.84,-3.744 -0.096,-4.032 -0.096,-7.392 -0.096,-10.56 -2.592,0 -5.376,0.096 -8.736,0.192 0,0 -0.096,0 -0.096,0 -2.112,0 -3.84,-1.728 -3.84,-3.84 0,-2.016 1.632,-3.744 3.648,-3.84 3.36,-0.096 6.24,-0.192 8.928,-0.192 -0.096,-3.168 -0.192,-6.336 -0.384,-10.08 0,-0.096 0,-0.192 0,-0.288 0,-2.112 1.728,-3.84 3.84,-3.84 z m 96.768,42.72 c 0,-2.112 1.728,-3.84 3.84,-3.84 1.92,0 3.456,1.344 3.744,3.168 0.192,1.152 0.288,2.208 0.288,3.36 0,8.256 -4.992,15.936 -11.52,18.72 -0.48,0.192 -0.96,0.288 -1.44,0.288 -2.016,0 -3.84,-1.632 -3.84,-3.84 0,-1.632 0.96,-2.976 2.304,-3.552 3.552,-1.536 6.816,-6.432 6.816,-11.616 0,-1.536 -0.192,-2.016 -0.192,-2.688 z m 79.2,-22.656 c 0,-2.016 1.632,-3.744 3.648,-3.84 10.368,-0.384 16.128,-0.096 24.96,-0.288 0.096,0 0.096,0 0.096,0 2.112,0 3.84,1.632 3.84,3.84 0,2.016 -1.632,3.744 -3.744,3.744 -0.192,0.096 -19.296,0.192 -24.864,0.384 0,0 -0.096,0 -0.096,0 -2.112,0 -3.84,-1.728 -3.84,-3.84 z m 106.368,29.184 c 0,-3.552 2.784,-5.76 5.76,-5.76 1.536,0 3.072,0.576 4.32,1.92 1.152,1.152 1.632,2.688 1.632,4.128 0,2.976 -2.208,5.76 -5.664,5.76 -3.264,0 -6.048,-2.88 -6.048,-6.048 z m 119.424,-59.136 c -1.632,3.648 -4.128,8.736 -7.104,14.592 -6.912,13.92 -16.128,32.544 -20.832,46.272 -0.48,1.536 -1.92,2.592 -3.552,2.592 -2.208,0 -3.936,-1.824 -3.936,-3.84 0,-0.384 0.096,-0.864 0.288,-1.248 7.008,-20.64 22.848,-49.632 28.128,-61.44 0.576,-1.344 1.92,-2.304 3.456,-2.304 2.304,0 3.936,1.824 3.936,3.84 0,0.48 -0.192,1.056 -0.384,1.536 z m -1457.08796,185.28 c -2.976,0 -6.144,-0.672 -9.216,-2.304 -0.768,1.92 -1.536,3.744 -4.128,3.744 -2.208,0 -3.84,-1.824 -3.84,-3.84 0,-0.48 0.096,-1.056 0.288,-1.536 0.384,-0.96 0.864,-2.112 1.344,-3.264 -3.936,-4.416 -6.72,-11.04 -6.72,-20.16 0,-21.696 9.216,-45.12 24.576,-45.12 3.264,0 6.048,1.152 8.352,2.976 0.48,-0.96 1.44,-2.592 3.648,-2.592 2.304,0 3.84,1.824 3.84,3.84 0,0.576 -0.096,1.248 -0.48,1.824 -0.576,0.96 -1.152,2.112 -1.824,3.456 4.512,8.544 5.568,20.832 5.568,28.8 0,12.192 -5.76,34.176 -21.408,34.176 z m -14.592,-27.36 c 0,5.088 0.96,8.832 2.4,11.712 14.592,-36.576 15.456,-38.496 19.296,-46.752 -1.536,-1.728 -3.072,-2.4 -4.8,-2.4 -9.024,0 -16.896,18.432 -16.896,37.44 z m 28.32,-6.816 c 0,-6.624 -0.768,-13.44 -2.304,-19.008 -3.36,7.68 -3.36,7.68 -17.76,43.68 2.496,1.44 4.896,1.824 6.336,1.824 9.792,0 13.728,-18.048 13.728,-26.496 z m 71.424,-15.552 c -2.304,0 -3.84,-1.92 -3.84,-3.936 0,-0.864 0.288,-1.728 0.96,-2.496 4.224,-4.704 6.048,-9.984 11.328,-16.032 0.864,-0.864 1.824,-1.344 2.88,-1.344 1.92,0 3.744,1.44 3.84,3.744 0.768,15.456 0.96,28.608 0.96,39.168 0,10.272 -0.192,18.048 -0.576,23.04 0.288,0 0.48,0 0.576,0 7.392,0 9.12,-0.576 9.984,-0.576 2.112,0 3.84,1.728 3.84,3.84 0,1.92 -1.44,3.456 -3.264,3.744 -3.168,0.48 -6.816,0.672 -10.56,0.672 -4.896,0 -10.176,-0.288 -14.592,-0.288 -4.416,0 -6.72,0.384 -6.816,0.384 -2.112,0 -3.84,-1.728 -3.84,-3.84 0,-2.016 1.536,-3.648 3.456,-3.84 2.112,-0.288 4.608,-0.384 7.2,-0.384 0.096,0 3.072,0.096 6.336,0.096 0.288,-3.648 0.576,-10.848 0.576,-22.656 0,-7.296 -0.096,-16.512 -0.48,-27.648 -5.184,8.352 -6.624,8.352 -7.968,8.352 z m 119.424,5.088 c -3.456,10.272 -10.464,20.064 -16.512,28.608 -2.016,2.88 -3.84,5.568 -5.568,8.064 1.152,0 2.976,0 4.8,0 3.84,0 7.968,0 8.064,0 10.752,0 12,-0.672 13.056,-0.672 2.208,0 3.84,1.728 3.84,3.84 0,2.016 -1.344,3.552 -3.264,3.84 -3.936,0.576 -8.64,0.672 -13.632,0.672 -2.784,0 -5.76,-0.096 -8.544,-0.096 -8.064,0 -11.136,0.384 -11.232,0.384 -2.304,0 -3.84,-1.824 -3.84,-3.84 0,-0.576 0.096,-1.248 0.384,-1.824 6.24,-11.712 20.256,-26.976 25.152,-41.472 0.96,-2.784 1.344,-5.28 1.344,-7.488 0,-6.72 -3.936,-10.272 -8.544,-10.272 -4.128,0 -9.312,2.976 -11.712,11.136 -0.48,1.536 -1.92,2.688 -3.648,2.688 -2.208,0 -3.84,-1.728 -3.84,-3.84 0,-0.288 0,-0.672 0.096,-1.056 3.168,-10.752 11.136,-16.608 19.104,-16.608 8.448,0 16.224,6.624 16.224,17.952 0,2.976 -0.48,6.336 -1.728,9.984 z m 101.856,-10.08 c 0,8.064 -5.568,13.056 -8.736,15.168 7.296,4.128 11.136,12.48 11.136,20.832 0,0.48 0,0.96 -0.096,1.344 -0.48,10.368 -11.616,17.568 -22.752,17.568 -7.2,0 -14.496,-2.976 -19.008,-9.984 -0.384,-0.576 -0.672,-1.344 -0.672,-2.112 0,-2.304 1.92,-3.84 3.936,-3.84 1.152,0 2.4,0.576 3.168,1.824 2.976,4.608 7.776,6.432 12.48,6.432 7.488,0 14.976,-4.608 15.168,-10.272 0.096,-0.288 0.096,-0.576 0.096,-0.864 0,-7.008 -3.84,-15.744 -13.632,-15.744 -1.536,0 -2.4,0.192 -2.88,0.192 -2.112,0 -3.84,-1.728 -3.84,-3.84 0,-1.824 1.248,-3.36 2.88,-3.744 13.536,-3.456 15.072,-10.176 15.072,-12.96 0,-5.28 -4.704,-10.368 -10.368,-10.368 -3.36,0 -7.584,1.728 -11.712,7.968 -0.672,1.056 -1.92,1.728 -3.264,1.728 -2.208,0 -3.84,-1.92 -3.84,-3.936 0,-0.672 0.192,-1.44 0.672,-2.112 5.472,-8.064 12.096,-11.328 18.144,-11.328 9.696,0 18.048,8.256 18.048,18.048 z m 95.904,-13.728 c -1.248,14.016 -3.936,64.704 -4.032,65.28 -0.096,2.016 -1.824,3.648 -3.84,3.648 -2.112,0 -3.84,-1.728 -3.84,-3.84 0,-0.288 0.288,-3.168 1.44,-24.864 0.096,-2.016 0.192,-4.128 0.288,-6.144 -8.448,1.152 -17.28,0.768 -23.328,1.44 -0.096,0 -0.288,0 -0.384,0 -2.112,0 -3.84,-1.728 -3.84,-3.84 0,0 0,-0.096 0,-0.192 0.384,-10.56 1.344,-14.688 4.512,-29.088 0.384,-1.728 1.92,-2.976 3.744,-2.976 2.208,0 3.84,1.728 3.84,3.84 0,0.288 0,0.576 -0.096,0.768 -3.168,14.208 -3.552,16.128 -4.128,23.52 1.728,-0.096 3.456,-0.192 5.184,-0.192 4.992,-0.192 10.272,-0.384 14.976,-1.152 0.576,-9.504 1.152,-18.72 1.824,-26.976 0.192,-1.92 1.824,-3.456 3.84,-3.456 2.112,0 3.84,1.728 3.84,3.84 0,0.096 0,0.192 0,0.384 z m 96.384,42.72 c 0,13.152 -8.736,25.824 -22.944,25.824 -4.416,0 -9.312,-1.248 -14.592,-3.936 -1.248,-0.672 -2.112,-1.92 -2.112,-3.456 0,-2.208 1.92,-3.84 3.936,-3.84 0.576,0 1.152,0.096 1.728,0.48 4.128,2.112 7.776,3.072 10.944,3.072 10.464,0 15.36,-10.176 15.36,-18.144 0,-5.856 -2.592,-14.016 -12.672,-14.016 -3.168,0 -7.104,0.768 -12,2.88 -0.48,0.192 -0.96,0.288 -1.44,0.288 -2.112,0 -3.84,-1.632 -3.84,-3.84 0,-0.096 0,-0.288 0,-0.48 0.864,-7.488 1.056,-21.024 1.728,-26.688 0.192,-1.824 1.728,-3.264 3.648,-3.36 22.944,-0.864 22.944,-0.864 29.376,-1.536 0.096,0 0.192,0 0.384,0 2.112,0 3.84,1.728 3.84,3.84 0,2.016 -1.536,3.648 -3.456,3.84 -8.256,0.768 -14.112,0.96 -26.496,1.44 -0.096,2.304 -0.672,13.92 -0.864,17.28 3.264,-0.864 6.336,-1.344 9.024,-1.344 13.344,0 20.448,10.08 20.448,21.696 z m 86.88,22.752 c -2.976,1.824 -6.528,2.976 -10.08,2.976 -9.888,0 -19.968,-8.448 -19.968,-32.064 0,-15.456 4.416,-26.784 23.136,-40.032 0.672,-0.48 1.44,-0.672 2.208,-0.672 2.4,0 3.84,1.92 3.84,3.84 0,1.152 -0.48,2.304 -1.632,3.072 -13.536,9.6 -18.144,17.376 -19.392,26.4 4.032,-3.936 8.448,-5.952 12.864,-5.952 10.944,0 19.008,12 19.008,23.904 0,7.104 -2.88,14.208 -9.984,18.528 z m -9.024,-34.752 c -3.072,0 -7.872,2.304 -13.152,11.04 1.152,14.112 6.72,19.008 12.288,19.008 4.704,0 9.408,-3.648 11.136,-8.064 0.768,-1.728 1.056,-3.744 1.056,-5.76 0,-7.872 -5.088,-16.224 -11.328,-16.224 z m 86.4,-33.696 c 6.048,0 21.408,-0.768 25.056,-0.768 2.208,0 3.84,1.92 3.84,3.936 0,0.48 -0.096,1.056 -0.384,1.536 -5.664,12.48 -19.584,48.48 -23.328,63.744 -0.384,1.632 -1.92,2.88 -3.744,2.88 -2.112,0 -3.84,-1.728 -3.84,-3.84 0,-0.288 0.096,-0.576 0.192,-0.864 3.456,-14.496 14.592,-43.776 21.312,-59.52 -12.288,0.384 -17.664,0.576 -21.024,0.576 -2.592,0 -3.84,-0.096 -6.24,-0.288 -2.016,-0.192 -3.552,-1.824 -3.552,-3.84 0,-2.112 1.728,-3.84 3.84,-3.84 0.096,0 3.456,0.288 7.872,0.288 z m 99.36,25.536 c 3.456,-4.704 7.584,-9.792 12.48,-15.36 -3.84,-2.592 -7.008,-3.552 -9.696,-3.552 -2.592,0 -4.608,0.96 -6.24,2.304 -2.688,2.304 -3.36,4.224 -3.36,5.952 0,4.128 4.224,8.448 6.816,10.656 z m 21.216,-23.04 c 2.304,0 3.84,1.824 3.84,3.84 0,0.864 -0.288,1.824 -0.96,2.592 -7.488,7.968 -13.344,14.976 -17.856,21.216 0.48,0.288 0.96,0.576 1.44,0.864 10.368,6.144 15.168,13.824 15.168,20.928 0,6.624 -4.032,12.768 -11.712,16.896 -3.744,1.92 -7.776,3.072 -11.616,3.072 -8.736,0 -14.112,-5.664 -14.112,-14.016 0,-6.816 3.36,-15.456 10.272,-26.016 -7.296,-5.952 -10.176,-11.808 -10.176,-16.992 0,-4.512 2.304,-8.544 6.048,-11.808 3.264,-2.688 7.104,-4.128 11.232,-4.128 5.088,0 10.08,2.016 14.976,5.472 1.056,-1.152 1.824,-1.92 3.456,-1.92 z m -17.472,35.136 c -0.576,-0.384 -1.248,-0.768 -1.92,-1.248 -3.552,5.568 -8.736,14.784 -8.736,21.504 0,4.896 2.88,6.432 6.144,6.432 2.976,0 6.24,-1.248 8.256,-2.304 5.376,-2.88 7.68,-6.432 7.68,-9.984 0,-5.088 -4.608,-10.368 -11.424,-14.4 z m 86.49596,-19.968 c 0,5.568 4.512,11.52 9.312,11.52 0.864,0 1.632,-0.192 2.496,-0.48 5.664,-2.688 8.544,-12.768 9.6,-17.856 -4.128,-3.072 -8.064,-4.416 -11.328,-4.416 -6.048,0 -10.08,4.704 -10.08,11.232 z m -7.68,0 c 0,-10.848 7.488,-18.912 17.76,-18.912 5.472,0 11.808,2.304 18.24,7.776 1.056,0.96 1.248,2.112 1.248,2.88 0,0.48 0,0.864 -0.096,0.96 -1.824,7.296 -7.776,41.088 -9.792,57.6 -0.192,1.92 -1.824,3.36 -3.744,3.36 -2.208,0 -3.84,-1.728 -3.84,-3.84 0,-0.096 0,-0.288 0,-0.48 1.056,-8.448 2.976,-21.024 4.896,-32.448 -2.496,1.632 -5.088,2.304 -7.584,2.304 -8.928,0 -17.088,-8.832 -17.088,-19.2 z m 108.768,-2.976 c 0,-3.456 2.784,-5.664 5.76,-5.664 1.536,0 3.072,0.576 4.32,1.92 1.152,1.152 1.632,2.688 1.632,4.128 0,2.976 -2.208,5.76 -5.664,5.76 -3.264,0 -6.048,-2.88 -6.048,-6.144 z m 0,40.32 c 0,-3.456 2.784,-5.664 5.76,-5.664 1.536,0 3.072,0.576 4.32,1.92 1.152,1.152 1.632,2.688 1.632,4.128 0,2.976 -2.208,5.76 -5.664,5.76 -3.264,0 -6.048,-2.88 -6.048,-6.144 z m 98.976,2.304 c 0,-2.112 1.728,-3.84 3.84,-3.84 1.92,0 3.552,1.344 3.84,3.168 0.192,1.152 0.288,2.208 0.288,3.36 0,8.256 -5.088,15.936 -11.616,18.72 -0.48,0.192 -0.96,0.288 -1.44,0.288 -2.016,0 -3.84,-1.632 -3.84,-3.84 0,-1.632 0.96,-2.976 2.4,-3.552 3.456,-1.536 6.816,-6.432 6.816,-11.616 0,-1.536 -0.288,-2.016 -0.288,-2.688 z m -2.976,-42.624 c 0,-3.456 2.784,-5.664 5.76,-5.664 1.536,0 3.072,0.576 4.32,1.92 1.152,1.152 1.632,2.688 1.632,4.128 0,2.976 -2.208,5.76 -5.664,5.76 -3.264,0 -6.048,-2.88 -6.048,-6.144 z m 111.168,38.976 c -7.584,-3.072 -14.976,-9.408 -22.752,-16.128 -0.96,-0.768 -1.344,-1.92 -1.344,-2.976 0,-1.152 0.48,-2.304 1.536,-3.072 9.6,-7.2 16.8,-12.48 22.464,-15.552 0.576,-0.288 1.248,-0.384 1.824,-0.384 2.016,0 3.84,1.536 3.84,3.84 0,1.44 -0.768,2.688 -2.016,3.36 -4.512,2.4 -11.712,7.68 -17.664,12.096 6.912,5.856 12.288,9.792 16.992,11.808 1.44,0.576 2.4,1.92 2.4,3.552 0,2.208 -1.824,3.84 -3.84,3.84 -0.48,0 -0.96,-0.096 -1.44,-0.384 z m 70.464,-11.52 c 0,-2.016 1.632,-3.744 3.648,-3.84 10.368,-0.384 16.128,-0.096 24.96,-0.288 0.096,0 0.096,0 0.096,0 2.112,0 3.84,1.632 3.84,3.84 0,2.016 -1.632,3.744 -3.744,3.84 -0.192,0 -19.296,0.096 -24.864,0.288 0,0 -0.096,0 -0.096,0 -2.112,0 -3.84,-1.728 -3.84,-3.84 z m 0,-13.632 c 0,-2.016 1.632,-3.744 3.648,-3.84 10.368,-0.384 16.128,-0.096 24.96,-0.288 0.096,0 0.096,0 0.096,0 2.112,0 3.84,1.632 3.84,3.84 0,2.016 -1.632,3.744 -3.744,3.84 -0.192,0 -19.296,0.096 -24.864,0.288 0,0 -0.096,0 -0.096,0 -2.112,0 -3.84,-1.728 -3.84,-3.84 z m 97.536,23.328 c 0,-1.44 0.768,-2.688 1.92,-3.36 4.416,-2.496 10.656,-8.256 17.088,-12.768 -5.568,-4.032 -12.384,-8.832 -17.28,-11.808 -1.056,-0.672 -1.824,-1.92 -1.824,-3.264 0,-2.304 1.824,-3.84 3.84,-3.84 0.672,0 1.344,0.096 2.016,0.48 4.992,3.072 5.952,3.744 22.176,15.456 1.152,0.768 1.632,1.92 1.632,3.072 0,1.344 -0.576,2.592 -1.824,3.36 -8.16,4.8 -15.552,12.288 -21.984,15.936 -0.576,0.384 -1.248,0.576 -1.92,0.576 -2.016,0 -3.84,-1.632 -3.84,-3.84 z m 114.336,9.792 c 1.152,1.056 1.824,2.496 1.824,4.224 0,3.36 -2.784,5.76 -5.76,5.76 -1.248,0 -2.496,-0.384 -3.552,-1.344 -1.92,-1.536 -2.496,-3.264 -2.496,-4.8 0,-3.552 2.784,-5.76 5.76,-5.76 1.536,0 3.072,0.576 4.224,1.92 z m 11.424,-30.912 c -0.96,1.056 -2.016,2.112 -3.168,3.168 -3.84,3.552 -8.16,7.776 -8.16,13.248 0,0.768 0.096,1.152 0.096,1.536 0,2.112 -1.728,3.84 -3.84,3.84 -2.016,0 -3.648,-1.536 -3.84,-3.456 -0.096,-0.672 -0.096,-1.248 -0.096,-1.92 0,-5.28 2.4,-9.504 4.608,-12.576 3.168,-4.032 7.008,-7.008 8.448,-8.736 2.112,-2.592 2.976,-4.992 2.976,-7.104 0,-5.856 -6.432,-9.888 -11.904,-9.888 -7.968,0 -11.136,7.296 -12.288,11.328 -0.48,1.632 -1.92,2.784 -3.648,2.784 -2.208,0 -3.84,-1.824 -3.84,-3.84 0,-0.384 0,-0.672 0.096,-1.056 4.416,-15.648 16.128,-16.896 19.68,-16.896 10.464,0 19.584,7.968 19.584,17.664 0,3.744 -1.44,7.872 -4.704,11.904 z m -1450.17596,134.688 c -1.344,1.92 -3.456,3.84 -6.624,3.84 -3.36,0 -7.104,-3.744 -7.104,-10.56 0,-9.312 5.472,-17.184 11.424,-17.184 4.512,0 5.76,3.36 6.432,5.088 0.672,1.536 0.192,6.912 1.248,11.712 1.248,-3.168 1.728,-6.816 1.728,-10.464 0,-9.216 -3.456,-17.952 -7.104,-17.952 -9.312,0 -16.896,17.568 -16.896,30.528 0,8.16 1.824,14.688 4.32,17.856 1.248,1.44 2.496,2.016 3.744,2.016 2.688,0 5.28,-2.496 7.2,-2.496 2.4,0 3.84,1.92 3.84,3.84 0,1.248 -0.576,2.4 -1.824,3.168 -3.264,2.112 -6.432,3.072 -9.216,3.072 -9.216,0 -15.744,-10.176 -15.744,-27.456 0,-15.84 9.312,-38.208 24.576,-38.208 9.888,0 14.88,13.632 14.88,25.632 0,6.432 -1.632,11.424 -2.496,13.632 -2.016,4.992 -4.704,6.624 -7.2,6.624 -2.112,0 -4.032,-1.248 -5.184,-2.688 z m -5.952,-5.088 c 1.824,-3.168 2.4,-7.968 2.592,-10.08 -1.824,2.208 -2.688,5.76 -2.688,8.352 0,0.672 0,1.248 0.096,1.728 z m 74.976,26.88 c 1.152,-7.296 6.816,-26.304 6.912,-26.592 5.28,-17.568 10.464,-32.928 12.672,-39.168 0.576,-1.728 2.112,-2.592 3.648,-2.592 1.44,0 2.88,0.864 3.552,2.4 4.896,12 9.696,32.544 13.44,48.384 1.536,6.72 2.976,12.576 4.032,16.416 0.096,0.384 0.096,0.768 0.096,1.056 0,2.016 -1.632,3.84 -3.84,3.84 -1.728,0 -3.264,-1.152 -3.648,-2.784 -1.152,-4.128 -3.072,-12.384 -5.28,-21.6 -1.728,0.096 -3.648,0.096 -5.664,0.096 -4.416,0 -9.12,-0.096 -12.672,-0.288 -2.88,9.888 -5.088,18.144 -5.664,21.984 -0.192,1.824 -1.824,3.264 -3.744,3.264 -2.208,0 -3.84,-1.728 -3.84,-3.84 0,-0.192 0,-0.384 0,-0.576 z m 29.76,-28.32 c -2.112,-8.544 -4.416,-17.472 -6.528,-24.384 -2.592,7.776 -5.28,16.32 -7.68,24.288 2.496,0.096 6.048,0.192 10.56,0.192 1.44,0 2.592,0 3.648,-0.096 z m 86.208,-2.304 c -1.344,0 -2.88,0.096 -4.608,0.384 -1.056,0.384 -2.208,0.672 -3.456,0.96 0,1.152 0,2.304 0,3.36 0,10.368 -0.192,17.28 -0.672,22.464 0.768,0.096 1.536,0.096 2.304,0.096 13.44,0 19.872,-8.832 19.872,-16.128 0,-6.048 -4.128,-11.136 -13.44,-11.136 z m -8.352,-28.992 c 0.096,10.368 0.192,16.128 0.192,22.272 9.888,-2.112 15.84,-7.776 15.84,-13.632 0,-4.992 -4.32,-9.792 -10.752,-9.792 -1.632,0 -3.456,0.384 -5.28,1.152 z m -5.28,63.36 c -1.824,-0.384 -3.168,-1.92 -3.168,-3.84 0,-0.192 0,-0.384 0,-0.48 0.768,-5.472 1.056,-13.056 1.056,-25.056 0,-9.216 -0.192,-21.024 -0.384,-36.384 0,0 0,-0.096 0,-0.096 0,-2.208 1.728,-3.168 2.016,-3.36 3.744,-2.016 7.488,-2.88 11.04,-2.88 10.752,0 18.432,8.256 18.432,17.376 0,4.8 -2.016,9.792 -6.816,14.016 8.544,2.88 12.576,9.888 12.576,17.376 0,11.424 -9.696,23.904 -27.552,23.904 -2.304,0 -4.704,-0.192 -7.2,-0.576 z m 98.304,-28.992 c 0,13.632 6.528,21.696 13.344,21.696 4.224,0 9.888,-3.264 13.92,-13.632 0.576,-1.44 1.92,-2.4 3.552,-2.4 2.208,0 3.84,1.824 3.84,3.84 0,0.48 -0.096,0.96 -0.192,1.344 -4.992,12.768 -13.248,18.624 -21.216,18.624 -10.752,0 -20.928,-10.944 -20.928,-29.472 0,-22.56 12.864,-42.912 27.072,-42.912 4.416,0 8.736,2.112 12.192,6.048 0.672,0.672 0.96,1.536 0.96,2.496 0,2.304 -1.92,3.84 -3.84,3.84 -1.056,0 -2.016,-0.384 -2.88,-1.248 -2.304,-2.688 -4.416,-3.456 -6.432,-3.456 -8.544,0 -19.392,15.744 -19.392,35.232 z m 114.144,-32.736 c -1.248,-1.152 -3.36,-2.88 -6.912,-2.88 -1.728,0 -3.936,0.384 -6.432,1.536 -0.48,10.56 -0.96,19.488 -1.44,27.168 -0.864,15.936 -1.056,21.696 -1.056,25.536 0,1.152 0,2.112 0.096,3.168 0.288,0 0.672,0 0.96,0 14.304,0 21.312,-17.472 21.312,-33.216 0,-8.832 -2.208,-16.992 -6.528,-21.312 z m 14.208,21.312 c 0,20.736 -10.368,40.896 -28.896,40.896 -1.824,0 -3.648,-0.192 -5.568,-0.576 -1.728,-0.288 -2.976,-1.728 -3.072,-3.552 -0.096,-1.92 -0.192,-4.032 -0.192,-6.336 0,-6.72 0.48,-15.168 1.056,-26.4 0.48,-8.16 1.056,-17.76 1.536,-29.28 0,-1.344 0.864,-2.592 2.016,-3.168 4.32,-2.4 8.352,-3.456 12,-3.456 12.96,0 21.12,13.536 21.12,31.872 z m 75.744,6.816 c -3.072,0 -6.816,0.192 -9.504,0.288 0.192,9.312 0.576,18.24 0.576,25.056 0,0.288 0,0.576 0,0.864 1.824,-0.096 3.456,-0.096 4.896,-0.096 3.744,0 6.72,0.192 9.696,0.192 6.528,0 9.408,-1.344 10.848,-1.344 2.112,0 3.84,1.728 3.84,3.84 0,1.728 -1.248,3.264 -2.88,3.744 -4.704,1.152 -8.448,1.44 -11.808,1.44 -3.264,0 -6.144,-0.192 -9.696,-0.192 -4.992,0 -8.064,0.48 -8.832,0.48 -2.112,0 -3.84,-1.728 -3.84,-3.84 0,0 0.096,-1.92 0.096,-5.088 0,-4.704 -0.192,-10.656 -0.384,-16.896 -0.288,-8.736 -0.48,-16.32 -0.48,-23.04 0,-7.968 0.288,-14.688 1.152,-20.16 0.192,-1.728 1.632,-3.072 3.36,-3.264 2.304,-0.288 4.416,-0.384 6.432,-0.384 5.28,0 9.408,0.672 13.728,0.672 4.32,0 6.24,-0.672 7.2,-0.672 2.112,0 3.84,1.728 3.84,3.84 0,1.92 -1.344,3.456 -3.072,3.84 -2.976,0.48 -5.472,0.672 -7.968,0.672 -4.704,0 -8.832,-0.672 -13.824,-0.672 -0.768,0 -1.632,0 -2.496,0.096 -0.48,4.704 -0.672,10.464 -0.672,16.416 0,2.304 0.096,4.512 0.096,6.816 3.84,-0.192 7.008,-0.288 9.696,-0.288 1.44,0 2.688,0 3.84,0.096 2.016,0.096 3.648,1.824 3.648,3.84 0,2.112 -1.728,3.84 -3.84,3.84 -0.096,0 -1.536,-0.096 -3.648,-0.096 z m 96,0 c -3.072,0 -6.816,0.192 -9.504,0.288 0.288,9.216 0.576,18.144 0.576,24.96 0,2.016 0,3.84 -0.096,5.376 -0.096,2.016 -1.728,3.648 -3.84,3.648 -2.112,0 -3.84,-1.728 -3.84,-3.84 0,0 0.096,-1.92 0.096,-5.088 0,-4.704 -0.192,-10.656 -0.384,-16.896 -0.288,-8.736 -0.48,-16.32 -0.48,-23.04 0,-7.968 0.288,-14.688 1.152,-20.16 0.192,-1.728 1.632,-3.072 3.36,-3.264 2.304,-0.288 4.416,-0.384 6.432,-0.384 5.28,0 9.408,0.672 13.728,0.672 4.32,0 6.24,-0.672 7.2,-0.672 2.112,0 3.84,1.728 3.84,3.84 0,1.92 -1.344,3.456 -3.072,3.84 -2.976,0.48 -5.472,0.672 -7.968,0.672 -4.704,0 -8.832,-0.672 -13.824,-0.672 -0.768,0 -1.632,0 -2.496,0.096 -0.48,4.8 -0.672,10.464 -0.672,16.416 0,2.208 0.096,4.512 0.096,6.816 3.84,-0.192 7.008,-0.288 9.696,-0.288 1.44,0 2.688,0 3.84,0.096 2.016,0.096 3.648,1.824 3.648,3.84 0,2.112 -1.728,3.84 -3.84,3.84 -0.096,0 -1.536,-0.096 -3.648,-0.096 z m 93.408,-1.536 c 0,-2.112 1.728,-3.84 3.84,-3.84 0,0 1.056,0.096 1.92,0.096 3.36,0 10.176,-0.768 14.016,-0.768 1.824,0 3.264,1.344 3.744,2.976 0.576,2.88 0.96,5.856 0.96,8.928 0,13.824 -6.624,28.416 -19.872,28.416 -11.04,0 -21.12,-11.04 -21.12,-29.472 0,-22.752 12.96,-43.2 27.264,-43.2 4.512,0 8.832,2.208 12.288,6.144 0.576,0.672 0.96,1.536 0.96,2.496 0,2.304 -1.92,3.84 -3.84,3.84 -1.056,0 -2.112,-0.384 -2.88,-1.248 -2.4,-2.688 -4.512,-3.552 -6.528,-3.552 -8.64,0 -19.584,15.936 -19.584,35.52 0,13.632 6.624,21.792 13.44,21.792 8.16,0 12.096,-11.04 12.096,-20.832 0,-1.344 0,-2.688 -0.192,-3.936 -4.512,0.192 -7.296,0.576 -10.752,0.576 -1.824,0 -5.76,0 -5.76,-3.936 z m 111.936,-30.048 c 0,-1.248 0,-2.016 0,-2.016 0,-2.112 1.728,-3.84 3.84,-3.84 2.016,0 3.744,1.632 3.84,3.744 0,0 0,0 0,0 0,1.44 -0.96,46.944 -0.96,51.648 0,8.256 0.192,12.288 0.192,12.384 0,2.112 -1.728,3.84 -3.84,3.84 -2.016,0 -3.744,-1.632 -3.84,-3.648 -0.096,-3.552 -0.192,-7.68 -0.192,-12.48 0,-4.992 0.096,-10.848 0.192,-17.568 -1.152,-0.096 -2.688,-0.192 -4.416,-0.192 -5.664,0 -10.272,0.768 -16.512,0.768 -0.576,0 -1.152,0 -1.824,0 -0.096,5.664 -0.384,28.32 -0.384,28.608 0,2.112 -1.728,3.84 -3.84,3.84 -2.112,0 -3.84,-1.728 -3.84,-3.84 0,-25.92 1.344,-63.552 1.344,-64.224 0.192,-2.016 1.824,-3.648 3.84,-3.648 2.112,0 3.84,1.728 3.84,3.84 0,0.096 0,0.192 0,0.192 -0.384,7.2 -0.672,17.28 -0.864,27.552 0.576,0 1.152,0 1.728,0 5.664,0 10.464,-0.768 16.512,-0.768 1.44,0 2.976,0 4.608,0.192 0.576,-22.56 0.576,-22.56 0.576,-24.384 z m 80.63996,2.976 c 0,-0.48 0,-0.864 0,-1.248 -2.304,0.096 -4.608,0.192 -6.72,0.192 -1.824,0 -3.552,-0.096 -5.088,-0.192 -1.92,-0.192 -3.456,-1.824 -3.456,-3.84 0,-2.112 1.728,-3.84 3.84,-3.84 0.48,0 1.536,0.192 4.704,0.192 5.76,0 13.056,-0.672 19.584,-0.672 2.4,0 4.608,0.096 6.72,0.288 1.92,0.192 3.456,1.824 3.456,3.84 0,2.112 -1.728,3.84 -3.84,3.84 -0.096,0 -2.688,-0.288 -6.24,-0.288 -1.728,0 -3.456,0 -5.28,0.096 0,0.48 0,0.96 0,1.536 0,9.888 -0.96,26.592 -0.96,39.84 0,5.376 0.192,10.272 0.576,13.824 3.744,0 7.776,0.288 12.096,0.96 1.92,0.192 3.36,1.824 3.36,3.744 0,2.208 -1.824,3.84 -3.84,3.84 -0.192,0 -0.384,0 -0.576,0 -4.032,-0.576 -7.68,-0.864 -11.04,-0.864 -7.488,0 -13.632,1.056 -19.584,1.056 -2.208,0 -3.936,-1.728 -3.936,-3.84 0,-2.112 1.728,-3.84 3.84,-3.84 3.552,0 7.488,-0.384 12,-0.768 -0.48,-4.032 -0.576,-9.024 -0.576,-14.4 0,-13.344 0.96,-29.472 0.96,-39.456 z m 87.936,44.16 c 0,11.136 10.272,11.52 11.52,11.52 5.28,0 8.064,-7.776 9.12,-11.328 1.44,-4.8 2.304,-11.136 2.304,-18.72 0,-15.84 -1.344,-22.656 -3.264,-30.816 -0.096,-0.288 -0.192,-0.672 -0.192,-0.96 0,-2.016 1.728,-3.84 3.84,-3.84 1.824,0 3.36,1.248 3.744,2.976 2.112,8.448 3.552,16.416 3.552,32.64 0,25.248 -8.448,37.728 -19.104,37.728 -8.928,0 -19.2,-5.952 -19.2,-19.2 0,-1.248 0.096,-2.496 0.288,-3.84 0.288,-1.824 1.824,-3.36 3.84,-3.36 2.112,0 3.84,1.728 3.84,3.84 0,0.096 -0.288,2.112 -0.288,3.36 z m 99.936,-14.112 c -0.096,11.808 -0.192,22.464 -0.672,29.184 -0.096,1.92 -1.824,3.552 -3.84,3.552 -2.112,0 -3.84,-1.728 -3.84,-3.84 0,-0.096 0,-0.192 0,-0.288 0.48,-6.24 0.576,-17.856 0.672,-30.624 -0.096,-0.384 -0.096,-1.152 -0.096,-2.304 0,-7.872 0.864,-31.296 0.864,-31.584 0.096,-2.016 1.728,-3.648 3.84,-3.648 2.112,0 3.84,1.728 3.84,3.84 0,0.096 0,0.096 0,0.192 -0.384,7.776 -0.576,16.224 -0.672,24.48 5.664,-7.296 11.808,-19.776 14.4,-25.152 0.96,-1.824 1.728,-3.36 4.128,-3.36 2.208,0 3.84,1.824 3.84,3.84 0,0.576 -0.192,1.152 -0.384,1.632 -5.376,10.752 -9.6,19.104 -14.784,26.208 13.44,3.552 16.128,21.984 16.128,36.096 0,0.192 0,0.48 0,0.672 0,2.112 -1.728,3.84 -3.84,3.84 -2.112,0 -3.84,-1.728 -3.84,-3.84 0,-24.384 -7.008,-29.568 -12.384,-29.568 -1.248,0 -2.4,0.288 -3.36,0.672 z m 114.624,31.2 c -8.64,0 -21.312,1.344 -25.536,1.344 -2.016,0 -3.648,-1.536 -3.84,-3.552 -0.384,-5.568 -0.576,-16.128 -0.576,-27.456 0,-14.592 0.384,-30.24 1.44,-37.92 0.288,-1.824 1.92,-3.264 3.84,-3.264 2.112,0 3.84,1.728 3.84,3.84 0,0.384 -1.44,8.928 -1.44,37.344 0,8.928 0.096,17.472 0.384,23.232 1.824,-0.192 3.744,-0.288 5.76,-0.48 6.144,-0.384 11.328,-0.768 16.032,-0.768 1.536,0 2.88,0 4.32,0.096 2.016,0.096 3.648,1.824 3.648,3.84 0,2.112 -1.728,3.84 -3.84,3.84 -0.288,0 -1.536,-0.096 -4.032,-0.096 z m 103.488,-2.4 c 0,2.112 -1.632,3.84 -3.84,3.84 -2.112,0 -3.84,-1.728 -3.84,-3.84 0,-0.48 0,-0.96 0,-1.44 0,-13.92 0.288,-36.96 0.288,-37.248 -7.776,25.92 -7.776,25.92 -7.776,26.016 -0.576,1.728 -2.112,2.592 -3.648,2.592 -1.44,0 -2.88,-0.768 -3.552,-2.4 -2.4,-5.952 -2.4,-5.952 -7.296,-29.952 0,0.384 -0.096,34.08 -0.576,42.72 -0.096,2.112 -1.728,3.648 -3.84,3.648 -2.112,0 -3.84,-1.728 -3.84,-3.84 0,0 0,-0.096 0.096,-0.192 0.864,-16.608 -0.192,-46.464 1.44,-65.28 0.192,-2.208 2.016,-3.552 3.84,-3.552 1.344,0 2.592,0.672 3.36,2.016 1.92,3.552 3.36,7.584 4.512,11.904 2.4,8.832 3.84,18.336 5.952,27.744 6.336,-21.6 8.928,-30.24 12.096,-37.824 0.576,-1.344 1.92,-2.304 3.552,-2.304 2.112,0 3.84,1.728 3.84,3.84 0,0.576 -0.768,34.272 -0.768,61.344 0,0.768 0,1.44 0,2.208 z m 59.424,-19.68 c 0,-0.768 -0.192,-23.328 -0.192,-23.52 0,-7.392 0.192,-14.592 1.056,-21.792 0.192,-1.92 1.824,-3.36 3.84,-3.36 1.44,0 2.784,0.864 3.36,2.112 4.992,9.792 13.824,30.24 20.736,47.616 0,-2.208 0,-5.184 0,-8.64 0,-11.52 -0.096,-27.264 -0.096,-27.456 0,-4.32 0.096,-7.968 0.192,-10.752 0.096,-2.016 1.824,-3.648 3.84,-3.648 2.112,0 3.84,1.728 3.84,3.84 0,0.48 -0.192,2.304 -0.192,10.56 0,7.584 0.192,17.28 0.192,26.88 0,10.368 -0.192,20.64 -0.864,28.32 -0.192,1.92 -1.824,3.456 -3.84,3.456 -1.632,0 -3.072,-1.056 -3.648,-2.496 -4.608,-13.056 -13.632,-34.944 -20.64,-50.688 -0.096,1.632 -0.096,3.552 -0.096,5.664 0,7.968 0.192,17.856 0.192,23.904 0,6.432 -0.096,13.056 -0.576,20.16 -0.192,2.016 -1.824,3.552 -3.84,3.552 -2.112,0 -3.84,-1.728 -3.84,-3.84 0,-0.768 0.576,-6.912 0.576,-19.872 z m 114.432,23.52 c -9.408,0 -22.272,-7.776 -22.272,-27.36 0,-21.696 9.216,-45.12 24.576,-45.12 5.472,0 9.6,3.264 12.288,7.392 5.568,8.448 6.816,22.176 6.816,30.912 0,12.192 -5.76,34.176 -21.408,34.176 z m 13.728,-34.176 c 0,-13.92 -3.648,-30.624 -11.424,-30.624 -9.024,0 -16.896,18.432 -16.896,37.44 0,16.8 10.848,19.68 14.592,19.68 9.792,0 13.728,-18.048 13.728,-26.496 z m -1471.67996,103.296 c 0,-5.376 0.096,-11.136 0.672,-17.76 0.096,-1.728 1.536,-3.264 3.264,-3.456 4.224,-0.576 7.776,-0.864 10.752,-0.864 7.104,0 11.424,1.344 14.4,2.976 5.28,2.976 8.064,8.544 8.064,14.112 0,4.032 -1.344,7.968 -4.128,11.232 -4.512,5.376 -12.96,9.312 -25.152,11.808 0,0.384 0,0.672 0,0.96 0,9.408 -0.576,18.144 -2.304,28.704 -0.288,1.824 -1.92,3.264 -3.84,3.264 -2.112,0 -3.84,-1.824 -3.84,-3.84 0,-0.192 0.096,-0.48 0.096,-0.672 1.824,-10.848 2.208,-19.296 2.208,-27.36 0,-0.192 -0.192,-18.432 -0.192,-19.104 z m 7.776,10.272 c 9.6,-2.208 21.696,-6.528 21.696,-14.688 0,-3.456 -0.384,-9.984 -14.784,-9.984 -1.92,0 -4.128,0.192 -6.624,0.384 -0.288,4.896 -0.384,9.12 -0.384,13.728 0,3.168 0,6.624 0.096,10.56 z m 108.48,-24.192 c -9.024,0 -16.896,18.432 -16.896,37.44 0,10.752 4.416,15.84 8.64,18.048 0,-4.128 0.48,-8.064 0.864,-11.136 0.288,-1.824 1.824,-3.264 3.84,-3.264 2.112,0 3.84,1.728 3.84,3.84 0,0.672 -0.864,5.856 -0.864,11.712 0,0.096 0,0.192 0,0.384 8.064,-1.824 12,-17.664 12,-26.4 0,-13.92 -3.648,-30.624 -11.424,-30.624 z m 11.808,68.064 c 2.4,0 3.84,1.824 3.84,3.84 0,0.96 -0.384,2.016 -1.248,2.784 -2.496,2.304 -6.048,3.84 -9.504,3.84 -5.472,0 -11.04,-3.84 -12.672,-14.496 -8.256,-2.496 -16.8,-10.656 -16.8,-26.592 0,-21.696 9.216,-45.12 24.576,-45.12 5.472,0 9.6,3.264 12.288,7.392 5.568,8.448 6.816,22.176 6.816,30.912 0,10.848 -4.704,31.68 -19.008,33.984 0.864,3.552 2.304,6.24 4.896,6.24 3.168,0 4.32,-2.784 6.816,-2.784 z m 97.248,-57.408 c 0,9.12 -7.392,14.112 -10.752,16.128 10.176,7.296 11.136,24.672 11.136,33.504 0,0.288 0,0.576 0,0.864 0,2.112 -1.728,3.84 -3.84,3.84 -2.112,0 -3.84,-1.728 -3.84,-3.84 0,-0.096 0,-0.288 0,-0.768 0,-18.336 -4.8,-28.8 -12.672,-28.8 -0.672,0 -0.672,0 -3.84,1.152 0,14.976 0,22.656 -0.48,28.704 -0.096,2.016 -1.824,3.552 -3.84,3.552 -2.112,0 -3.84,-1.728 -3.84,-3.84 0,-0.096 0,-0.192 0,-0.288 0.96,-12.384 0,-40.224 1.152,-62.304 0.096,-1.248 0.768,-2.304 1.632,-2.976 3.168,-2.208 6.624,-3.168 9.888,-3.168 9.984,0 19.296,8.832 19.296,18.24 z m -23.232,-9.696 c -0.288,7.392 -0.48,15.456 -0.48,23.328 0.192,0 16.032,-4.704 16.032,-13.632 0,-4.8 -5.568,-10.56 -11.616,-10.56 -1.248,0 -2.592,0.288 -3.936,0.864 z m 86.304,9.216 c 0,-9.504 10.752,-17.76 20.256,-17.76 5.568,0 9.504,2.016 13.536,6.24 0.672,0.672 1.056,1.632 1.056,2.688 0,2.304 -1.92,3.84 -3.84,3.84 -0.96,0 -2.016,-0.384 -2.784,-1.248 -1.728,-1.824 -3.072,-2.688 -4.32,-3.168 -1.056,-0.48 -2.208,-0.672 -3.36,-0.672 -6.048,0 -12.864,5.376 -12.864,10.08 0,13.056 30.432,10.848 30.432,33.408 0,10.752 -11.04,21.024 -22.56,21.024 -11.808,0 -17.088,-9.888 -19.104,-14.976 -0.192,-0.48 -0.288,-0.96 -0.288,-1.344 0,-2.016 1.632,-3.84 3.84,-3.84 1.632,0 3.072,0.96 3.648,2.4 2.784,7.392 7.392,10.08 12,10.08 7.392,0 14.784,-7.2 14.784,-13.344 0,-17.184 -30.432,-13.344 -30.432,-33.408 z m 109.728,-8.352 c 0,-0.48 0,-0.96 0,-1.344 -2.4,0.192 -4.704,0.192 -6.912,0.192 -1.824,0 -3.552,0 -5.088,-0.192 -1.92,-0.192 -3.456,-1.824 -3.456,-3.84 0,-2.112 1.728,-3.84 3.84,-3.84 0.48,0 1.536,0.192 4.704,0.192 5.856,0 13.248,-0.672 19.968,-0.672 2.4,0 4.704,0.096 6.72,0.384 1.92,0.192 3.456,1.824 3.456,3.744 0,2.112 -1.728,3.84 -3.84,3.84 -0.096,0 -2.688,-0.288 -6.336,-0.288 -1.728,0 -3.552,0.096 -5.376,0.192 0,0.48 0,0.96 0,1.536 0,9.984 -0.96,26.688 -0.96,40.128 0,7.104 0.288,13.344 1.056,17.184 0.096,0.288 0.096,0.576 0.096,0.768 0,2.112 -1.728,3.84 -3.84,3.84 -1.824,0 -3.456,-1.248 -3.744,-3.072 -0.96,-4.704 -1.248,-11.328 -1.248,-18.72 0,-13.536 0.96,-29.952 0.96,-40.032 z m 113.376,19.584 c 0,-9.216 -0.48,-16.992 -0.672,-25.152 0,0 0,0 0,0 0,-2.112 1.728,-3.84 3.84,-3.84 2.112,0 3.744,1.632 3.84,3.744 0,2.592 0.096,5.472 0.288,8.544 0.192,5.568 0.288,11.232 0.288,16.8 0,17.184 -1.728,33.024 -10.272,40.128 -3.072,2.592 -6.816,3.648 -10.464,3.648 -4.032,0 -7.872,-1.248 -10.848,-3.456 -9.216,-6.912 -11.328,-22.464 -11.328,-40.416 0,-6.432 0.096,-7.776 0.864,-25.344 0.096,-2.016 1.728,-3.648 3.84,-3.648 1.44,0 3.84,0.96 3.84,3.936 -0.768,18.048 -0.864,19.008 -0.864,25.056 0,28.704 6.048,36.096 14.4,36.192 0.096,0 0.096,0 0.192,0 7.392,0 13.056,-7.68 13.056,-36.192 z m 65.76,-28.896 c 1.824,0 3.36,1.248 3.744,2.976 0.864,3.648 11.232,51.456 11.328,52.032 1.44,-5.376 2.688,-10.944 4.032,-16.512 2.88,-12.384 5.856,-24.96 9.792,-36.288 0.576,-1.536 2.016,-2.592 3.648,-2.592 2.208,0 3.84,1.824 3.84,3.84 0,0.48 -0.096,0.864 -0.192,1.344 -7.104,20.064 -11.136,45.792 -17.568,65.856 -0.576,1.824 -2.112,2.688 -3.648,2.688 -1.632,0 -3.168,-0.96 -3.744,-2.784 -5.568,-19.104 -9.408,-42.816 -14.976,-65.76 -0.096,-0.384 -0.096,-0.672 -0.096,-0.96 0,-2.016 1.632,-3.84 3.84,-3.84 z m 120.096,72.48 c -1.92,0 -3.456,-1.44 -3.84,-3.168 -1.536,-8.832 -2.88,-17.472 -4.224,-26.208 -1.536,8.064 -3.168,16.224 -5.472,26.4 -0.384,1.728 -1.92,2.976 -3.744,2.976 -1.824,0 -3.36,-1.248 -3.744,-2.976 -3.936,-19.104 -7.872,-40.512 -7.968,-65.952 0,0 0,0 0,0 0,-2.112 1.728,-3.84 3.84,-3.84 2.112,0 3.84,1.728 3.84,3.84 0.096,16.8 1.824,31.872 4.224,45.696 4.896,-24.96 4.896,-24.96 5.856,-29.184 0.384,-1.728 1.92,-3.072 3.744,-3.072 1.92,0 3.552,1.44 3.744,3.264 0.096,0.288 3.36,22.368 4.32,28.608 2.592,-13.824 4.512,-29.952 5.088,-45.12 0.096,-2.112 1.728,-3.744 3.84,-3.744 2.112,0 3.84,1.728 3.84,3.84 0,0.096 0,0.096 0,0.192 -0.864,23.424 -4.8,48.768 -9.696,65.664 -0.48,1.536 -1.92,2.784 -3.648,2.784 z m 72.576,-72.48 c 1.728,0 3.168,1.152 3.648,2.592 4.224,12.96 8.064,20.16 11.904,26.496 3.936,-6.144 7.872,-13.344 12.192,-26.4 0.48,-1.536 1.92,-2.688 3.648,-2.688 2.208,0 3.84,1.824 3.84,3.84 0,0.48 -0.096,0.864 -0.192,1.248 -5.184,15.744 -10.272,24 -14.976,31.104 4.608,7.2 9.504,15.456 14.496,30.72 0.192,0.384 0.192,0.768 0.192,1.152 0,2.112 -1.632,3.84 -3.84,3.84 -1.632,0 -3.072,-1.056 -3.648,-2.592 -4.224,-12.768 -7.968,-19.872 -11.808,-26.112 -3.936,6.144 -7.584,13.248 -11.52,26.496 -0.48,1.536 -1.92,2.688 -3.648,2.688 -2.208,0 -3.936,-1.728 -3.936,-3.84 0,-0.288 0.096,-0.672 0.192,-1.056 4.704,-15.936 9.6,-24.192 14.4,-31.392 -4.608,-7.2 -9.504,-15.552 -14.592,-31.008 -0.192,-0.48 -0.192,-0.864 -0.192,-1.248 0,-2.016 1.632,-3.84 3.84,-3.84 z m 108.67196,61.728 c 0,-8.256 -0.384,-18.816 -0.384,-24.864 -1.44,-2.784 -3.072,-5.952 -4.704,-9.12 -4.128,-8.064 -8.448,-16.32 -10.272,-22.656 -0.192,-0.288 -0.192,-0.672 -0.192,-1.056 0,-2.016 1.632,-3.84 3.84,-3.84 1.728,0 3.168,1.152 3.648,2.784 1.536,5.088 4.512,10.944 11.52,24.576 4.704,-9.6 8.544,-20.064 10.848,-25.536 0.576,-1.344 1.92,-2.304 3.552,-2.304 2.208,0 3.84,1.824 3.84,3.84 0,0.576 -0.096,1.056 -0.288,1.536 -0.864,1.824 -1.728,4.128 -2.784,6.816 -2.88,7.104 -6.624,16.512 -11.328,25.152 0,0.192 0.288,14.976 0.288,24.96 0,2.88 0,5.472 -0.096,7.008 -0.096,2.016 -1.728,3.648 -3.84,3.648 -2.112,0 -3.84,-1.728 -3.84,-3.84 0,-0.096 0.192,-2.4 0.192,-7.104 z m 82.656,10.272 c -2.208,0 -3.84,-1.824 -3.84,-3.84 0,-0.576 0.096,-1.248 0.48,-1.824 8.256,-15.456 9.216,-17.472 29.568,-58.464 -0.192,0 -19.296,0.576 -24.768,0.672 0,0 0,0 0,0 -2.112,0 -3.84,-1.728 -3.84,-3.84 0,-2.112 1.632,-3.84 3.744,-3.84 8.352,-0.096 21.504,-0.672 31.104,-0.768 0,0 0.096,0 0.096,0 2.208,0 3.84,1.824 3.84,3.84 0,0.576 -0.192,1.152 -0.48,1.728 -2.112,4.32 -4.512,9.12 -7.008,14.112 -6.528,13.344 -14.112,28.704 -22.368,44.256 8.352,-0.384 13.056,-0.672 16.8,-0.672 3.552,0 6.048,0.192 9.792,0.768 1.824,0.288 3.264,1.824 3.264,3.744 0,2.208 -1.728,3.84 -3.84,3.84 -0.192,0 -0.384,0 -0.576,0 -3.36,-0.48 -6.816,-0.672 -10.08,-0.672 -7.776,0 -15.168,0.96 -21.888,0.96 z m 123.744,-6.144 c 2.112,0 3.84,1.728 3.84,3.84 0,2.016 -1.536,3.648 -3.552,3.84 -2.112,0.192 -4.224,0.192 -6.336,0.192 -4.224,0 -8.16,-0.192 -11.712,-0.192 -2.112,0 -3.744,0.096 -3.744,0.096 -2.112,0 -3.84,-1.728 -3.84,-3.84 0,-18.24 -1.536,-32.832 -1.536,-47.712 0,-6.24 0.288,-12.576 1.056,-19.296 0.192,-1.728 1.632,-3.168 3.456,-3.36 7.776,-0.672 15.072,-0.864 19.008,-0.864 1.92,0 3.072,0.096 3.168,0.096 2.112,0 3.744,1.728 3.744,3.84 0,1.728 -1.344,3.84 -3.936,3.84 -0.864,-0.096 -1.824,-0.096 -2.976,-0.096 -4.128,0 -9.792,0.192 -15.168,0.576 -0.48,5.184 -0.576,10.272 -0.576,15.456 0,14.112 1.248,28.32 1.44,43.584 1.728,0 3.552,0.096 5.472,0.096 2.976,0.096 5.184,0.096 6.72,0.096 4.032,0 4.224,-0.192 5.472,-0.192 z m 73.92,-64.224 c 1.536,0 2.88,0.96 3.456,2.304 10.272,22.848 14.304,44.64 21.312,62.208 0.192,0.48 0.288,0.96 0.288,1.44 0,2.016 -1.632,3.84 -3.84,3.84 -1.632,0 -2.976,-1.056 -3.552,-2.4 -7.296,-18.24 -11.232,-39.648 -21.216,-62.016 -0.192,-0.48 -0.288,-1.056 -0.288,-1.536 0,-2.016 1.632,-3.84 3.84,-3.84 z m 100.128,-2.688 c 4.224,0 7.968,-0.48 12.864,-0.48 1.824,0 3.84,0.096 6.144,0.288 2.016,0.192 3.552,1.824 3.552,3.84 0,0.096 -0.288,4.128 -0.288,10.08 0,11.712 0.768,23.136 0.768,35.136 0,7.392 -0.288,14.976 -1.152,22.944 -0.192,1.92 -1.824,3.456 -3.84,3.456 -3.648,0 -16.896,-0.672 -24.384,-0.864 -2.016,0 -3.744,-1.728 -3.744,-3.84 0,-2.112 1.728,-3.84 3.84,-3.84 2.016,0 20.64,0.768 20.832,0.768 0.576,-6.432 0.768,-12.576 0.768,-18.624 0,-11.808 -0.768,-23.328 -0.768,-35.136 0,-2.112 0.096,-4.32 0.096,-6.528 -0.576,0 -1.152,0 -1.824,0 -4.608,0 -8.544,0.48 -12.864,0.48 -2.016,0 -4.032,-0.096 -6.24,-0.384 -1.92,-0.192 -3.36,-1.824 -3.36,-3.744 0,-2.112 1.632,-3.84 3.84,-3.84 0,0 2.88,0.288 5.76,0.288 z m 89.28,18.72 c 2.208,-4.896 4.896,-8.928 10.368,-17.184 0.672,-1.152 1.92,-1.728 3.168,-1.728 1.248,0 2.592,0.672 3.36,1.92 2.688,4.704 6.528,12.576 9.216,16.8 0.384,0.576 0.672,1.344 0.672,2.112 0,2.304 -1.92,3.84 -3.936,3.84 -1.152,0 -2.4,-0.576 -3.168,-1.824 -1.824,-2.784 -3.072,-5.184 -6.432,-11.52 -2.496,3.744 -4.8,7.488 -6.24,10.752 -0.672,1.344 -2.016,2.304 -3.552,2.304 -2.208,0 -3.84,-1.824 -3.84,-3.84 0,-0.576 0.096,-1.056 0.384,-1.632 z m 109.056,57.024 c -6.72,0 -16.32,0.192 -16.416,0.192 -2.208,0 -3.84,-1.728 -3.84,-3.84 0,-2.112 1.632,-3.744 3.744,-3.84 6.432,-0.096 12,-0.192 17.184,-0.192 5.76,0 10.944,0.096 16.416,0.48 1.92,0.192 3.456,1.824 3.456,3.84 0,2.112 -1.632,3.84 -3.84,3.84 -0.096,0 -6.048,-0.48 -16.704,-0.48 z m -1434.23996,64.32 c -4.8,-1.728 -9.888,-5.376 -15.648,-13.344 -0.48,-0.576 -0.768,-1.44 -0.768,-2.208 0,-2.4 1.92,-3.84 3.84,-3.84 1.152,0 2.304,0.48 3.072,1.536 5.28,7.2 8.928,9.408 12.192,10.656 1.44,0.48 2.496,1.92 2.496,3.552 0,2.208 -1.824,3.84 -3.84,3.84 -0.384,0 -0.864,-0.096 -1.344,-0.192 z m 72.96,41.568 c 0,-9.12 8.16,-14.496 16.608,-14.496 3.36,0 6.72,0.864 9.696,2.592 -1.632,-9.504 -5.088,-11.232 -7.392,-11.232 -1.728,0 -4.608,0.96 -8.352,4.896 -0.672,0.768 -1.632,1.248 -2.784,1.248 -2.304,0 -3.84,-1.92 -3.84,-3.936 0,-0.864 0.384,-1.824 1.056,-2.592 4.992,-5.184 9.792,-7.296 13.92,-7.296 6.048,0 10.848,4.512 13.152,10.56 2.112,5.76 2.688,13.056 2.688,18.624 0,2.592 -0.096,4.896 -0.288,6.336 -0.096,1.536 -1.152,2.784 -2.496,3.264 -4.992,2.4 -9.792,4.704 -17.184,4.704 -10.752,0 -14.784,-6.624 -14.784,-12.672 z m 7.68,0 c 0,4.128 3.648,4.992 7.104,4.992 5.088,0 9.216,-1.728 12,-3.072 -0.576,-6.048 -5.472,-8.736 -10.176,-8.736 -4.512,0 -8.928,2.496 -8.928,6.816 z m 95.232,-25.44 c 3.84,-4.8 8.832,-6.336 14.304,-6.336 9.504,0 15.36,7.776 15.36,18.624 0,4.416 -0.864,9.792 -3.84,14.592 -5.568,8.832 -15.264,10.656 -22.656,10.656 -3.648,0 -6.816,-0.48 -8.544,-0.768 -1.824,-0.288 -3.264,-1.824 -3.264,-3.744 0,-0.288 0.96,-12.384 0.96,-27.744 0,-11.616 -0.48,-21.12 -0.48,-31.392 0,-1.92 0,-3.84 0.096,-5.856 0,-2.016 1.728,-3.744 3.84,-3.744 1.92,0 3.84,1.536 3.84,3.936 -0.096,1.344 -0.096,2.88 -0.096,4.608 0,9.696 0.384,23.328 0.48,27.168 z m -0.576,29.664 c 1.344,0.096 2.688,0.192 3.84,0.192 10.752,0 14.496,-4.608 16.032,-7.008 1.632,-2.688 2.688,-6.72 2.688,-10.656 0,-5.568 -2.112,-10.848 -7.68,-10.848 -6.624,0 -12.288,1.92 -14.88,28.32 z m 96.096,-9.024 c 0,8.064 7.296,9.216 11.328,9.216 6.912,0 9.408,-2.88 10.848,-5.376 0.672,-1.152 1.92,-1.92 3.36,-1.92 2.208,0 3.84,1.824 3.84,3.84 0,0.672 -0.192,1.248 -0.48,1.92 -1.824,3.072 -4.416,5.664 -7.872,7.296 -2.784,1.248 -6.144,1.92 -9.6,1.92 -9.216,0 -19.104,-4.896 -19.104,-16.896 0,-14.304 9.696,-26.208 21.12,-26.208 7.296,0 12.192,3.456 15.456,7.68 0.48,0.672 0.768,1.44 0.768,2.4 0,2.304 -1.92,3.84 -3.84,3.84 -1.152,0 -2.208,-0.48 -2.976,-1.536 -2.208,-2.784 -4.992,-4.704 -9.408,-4.704 -7.104,0 -13.44,8.736 -13.44,18.528 z m 108.768,-28.416 c 4.128,0 7.584,1.344 10.464,3.36 -0.096,-9.6 -0.576,-17.856 -2.208,-26.208 0,-0.192 0,-0.48 0,-0.672 0,-2.112 1.632,-3.84 3.84,-3.84 1.824,0 3.36,1.344 3.744,3.072 2.016,10.848 2.304,21.312 2.304,33.696 0,22.56 -7.392,31.2 -15.264,34.08 -1.824,0.768 -4.416,1.248 -7.104,1.248 -7.968,0 -17.472,-4.224 -17.472,-19.776 0,-14.976 10.176,-24.96 21.696,-24.96 z m -4.032,37.056 c 10.464,0 13.728,-11.328 14.4,-22.656 -2.592,-4.224 -5.856,-6.72 -10.368,-6.72 -7.68,0 -14.016,6.912 -14.016,17.28 0,10.848 5.568,12.096 9.984,12.096 z m 80.16,-11.52 c 0,-10.08 8.352,-23.52 21.888,-23.52 6.048,0 10.464,4.32 10.464,10.176 0,8.256 -8.16,16.032 -17.76,16.032 -2.304,0 -4.608,-0.48 -6.912,-1.344 0.576,9.984 8.16,10.848 10.848,10.848 4.032,0 8.544,-2.4 11.04,-6.528 0.672,-1.152 1.824,-1.92 3.264,-1.92 2.208,0 3.84,1.92 3.84,3.936 0,0.672 -0.192,1.344 -0.576,1.92 -3.84,6.432 -10.656,10.272 -17.568,10.272 -7.68,0 -18.528,-4.704 -18.528,-19.872 z m 9.216,-6.432 c 1.824,0.96 3.648,1.44 5.28,1.44 5.664,0 10.176,-4.608 10.176,-8.352 0,-2.208 -1.728,-2.496 -2.784,-2.496 -7.872,0 -11.712,7.296 -12.672,9.408 z m 99.84,-13.344 c 3.072,-0.096 6.24,-0.192 8.736,-0.192 0.864,0 1.536,0 2.208,0 2.016,0.192 3.648,1.824 3.648,3.84 0,2.112 -1.728,3.84 -3.84,3.84 0,0 -0.96,0 -2.112,0 -2.4,0 -5.568,0.096 -8.544,0.192 0.096,7.776 0.384,15.648 0.384,22.272 0,2.112 0,4.032 -0.096,5.856 -0.096,2.016 -1.824,3.648 -3.84,3.648 -2.112,0 -3.84,-1.632 -3.84,-3.84 0,-0.192 0.096,-2.112 0.096,-5.952 0,-6.624 -0.288,-14.208 -0.384,-21.792 -1.344,-0.096 -5.184,-0.192 -5.184,-3.936 0,-2.112 1.728,-3.84 3.84,-3.84 0.096,0 0.48,0 1.248,0.096 0.096,-16.32 1.632,-26.88 7.104,-31.488 1.536,-1.248 3.936,-2.304 6.72,-2.304 5.664,0 12.672,4.224 16.608,19.68 0.096,0.384 0.192,0.672 0.192,0.96 0,2.112 -1.728,3.84 -3.84,3.84 -1.824,0 -3.36,-1.152 -3.744,-2.88 -3.264,-12.672 -7.872,-13.92 -9.6,-13.92 -4.8,0 -5.664,15.552 -5.76,25.92 z m 102.816,-3.936 c 8.448,0 14.304,6.048 14.784,8.352 1.248,6.528 1.92,20.928 1.92,27.84 0,20.352 -10.176,23.328 -16.128,23.328 -11.04,0 -20.256,-6.912 -20.832,-14.688 0,-0.096 0,-0.192 0,-0.288 0,-2.112 1.728,-3.84 3.84,-3.84 2.016,0 3.648,1.536 3.84,3.552 0.192,3.36 6.144,7.584 13.152,7.584 7.2,0 8.352,-8.16 8.352,-16.416 0,-1.728 0,-3.456 -0.096,-5.184 -4.608,7.872 -10.176,9.12 -13.152,9.12 -9.504,0 -15.36,-7.776 -15.36,-16.416 0,-11.808 10.176,-22.944 19.68,-22.944 z m -12,22.944 c 0,3.168 1.632,8.736 7.68,8.736 1.248,0 2.592,-0.48 4.128,-2.016 4.8,-4.896 6.624,-14.976 7.2,-19.296 -1.824,-1.632 -4.128,-2.688 -7.008,-2.688 -4.704,0 -12,7.296 -12,15.264 z m 110.496,-15.84 c -13.44,0 -14.688,24.768 -14.976,32.64 0,2.016 -1.728,3.648 -3.84,3.648 -2.112,0 -3.84,-1.728 -3.84,-3.84 0,-0.192 0.192,-3.552 0.192,-19.392 0,-28.608 -0.384,-45.312 -0.384,-45.696 0,-2.112 1.728,-3.84 3.84,-3.84 2.112,0 3.744,1.632 3.84,3.744 0.192,5.184 0.288,19.104 0.384,33.024 4.608,-6.528 10.368,-7.968 14.784,-7.968 14.112,0 14.304,23.52 14.304,31.776 0,2.88 -0.192,8.256 -0.192,8.352 0,2.016 -1.728,3.744 -3.84,3.744 -2.112,0 -3.84,-1.728 -3.84,-3.84 0,-0.096 0.192,-5.568 0.192,-8.256 0,-12.672 -1.92,-24.096 -6.624,-24.096 z m 94.46396,-24.288 c 1.152,1.056 1.92,2.592 1.92,4.224 0,3.456 -2.88,5.76 -5.856,5.76 -1.152,0 -2.4,-0.384 -3.552,-1.248 -1.92,-1.536 -2.496,-3.36 -2.496,-4.896 0,-3.456 2.784,-5.76 5.76,-5.76 1.536,0 2.976,0.576 4.224,1.92 z m 14.784,48.576 c -1.536,7.392 -8.544,12.48 -15.36,12.48 -2.016,0 -3.936,-0.384 -5.76,-1.344 -5.664,-2.976 -7.872,-9.984 -7.872,-19.68 0,-5.76 0.768,-12.576 2.112,-19.968 0.288,-1.824 1.92,-3.168 3.744,-3.168 2.208,0 3.84,1.824 3.84,3.84 0,0.288 0,0.48 0,0.672 -1.536,8.16 -2.016,14.208 -2.016,18.72 0,5.376 0.768,8.64 1.728,10.464 0.864,1.728 2.016,2.784 4.224,2.784 4.224,0 7.296,-3.648 7.776,-6.336 0.384,-1.728 1.92,-3.072 3.744,-3.072 2.208,0 3.84,1.728 3.84,3.84 0,0.288 0,0.48 0,0.768 z m 76.896,-43.488 c 0,-3.552 2.784,-5.76 5.76,-5.76 1.44,0 3.072,0.576 4.224,1.92 1.248,1.152 1.824,2.688 1.824,4.128 0,2.976 -2.208,5.76 -5.76,5.76 -3.264,0 -6.048,-2.88 -6.048,-6.048 z m -16.608,47.52 c 1.92,0 3.456,1.344 3.744,3.168 2.304,12.672 8.256,12.864 10.464,12.864 7.584,0 9.696,-10.464 9.696,-21.888 0,-8.928 -1.344,-18.528 -2.208,-24.096 0,-0.192 0,-0.48 0,-0.672 0,-2.016 1.632,-3.84 3.84,-3.84 1.92,0 3.456,1.44 3.744,3.264 1.632,9.984 2.304,18.24 2.304,25.056 0,14.976 -3.456,23.04 -8.64,26.976 -2.112,1.632 -5.472,2.88 -9.12,2.88 -7.008,0 -14.976,-4.512 -17.664,-19.2 0,-0.288 0,-0.48 0,-0.768 0,-2.016 1.632,-3.744 3.84,-3.744 z m 128.928,-30.528 c -0.864,0.96 -1.92,2.112 -2.976,3.456 -2.88,3.264 -6.528,7.392 -11.136,11.52 4.8,1.632 7.968,5.952 11.616,10.56 1.536,1.92 3.168,3.936 5.088,6.144 0.576,0.672 0.864,1.536 0.864,2.496 0,2.4 -1.92,3.84 -3.84,3.84 -1.056,0 -2.112,-0.384 -2.88,-1.344 -2.016,-2.304 -3.744,-4.512 -5.184,-6.336 -5.28,-6.624 -7.008,-8.448 -10.272,-8.448 -1.248,0 -3.168,0.288 -5.76,1.248 0.096,6.528 0.48,10.08 0.48,10.656 0,2.112 -1.728,3.84 -3.84,3.84 -2.016,0 -3.648,-1.632 -3.84,-3.552 -0.384,-4.704 -0.48,-9.312 -0.48,-13.92 0,-12.864 1.056,-25.248 1.056,-38.016 0,-7.872 -0.384,-12.096 -0.384,-12.672 0,-2.112 1.728,-3.84 3.84,-3.84 2.016,0 3.648,1.536 3.84,3.552 0.288,4.416 0.384,8.736 0.384,12.96 0,10.56 -0.672,20.928 -0.96,31.2 6.816,-4.896 11.616,-10.368 15.552,-14.976 3.936,-4.416 4.224,-4.8 6.048,-4.8 2.304,0 3.84,1.92 3.84,3.84 0,0.96 -0.288,1.824 -1.056,2.592 z m 79.776,31.296 c 5.952,0 13.056,-6.528 13.728,-10.944 0.288,-1.824 1.92,-3.264 3.84,-3.264 2.112,0 3.84,1.824 3.84,3.84 0,0.192 0,0.384 -0.096,0.672 -1.344,8.928 -12.384,17.376 -21.024,17.376 -2.304,0 -4.512,-0.672 -6.24,-2.112 -4.224,-3.648 -5.28,-10.752 -5.28,-21.6 0,-12.96 4.608,-32.928 4.608,-46.752 0,-2.112 1.728,-3.84 3.84,-3.84 2.208,0 3.84,1.728 3.84,3.84 0,14.592 -4.608,34.656 -4.608,46.752 0,8.448 0.768,16.032 3.552,16.032 z m 99.456,-31.2 c 2.208,-3.936 5.088,-5.472 7.68,-5.472 1.44,0 2.88,0.576 3.936,1.344 2.496,2.016 5.568,6.816 5.568,26.592 0,3.552 -0.096,7.488 -0.288,12 -0.096,2.016 -1.728,3.648 -3.84,3.648 -2.112,0 -3.84,-1.728 -3.84,-3.84 0,-0.288 0.288,-5.568 0.288,-11.616 0,-12.096 -1.152,-17.664 -2.208,-19.872 -4.8,6.336 -5.088,29.472 -5.088,29.856 0,0.864 0,1.344 0,1.44 0,2.112 -1.728,3.84 -3.84,3.84 -2.016,0 -3.744,-1.632 -3.84,-3.648 0,-1.248 0,-2.688 0,-4.32 0,0 0,-7.68 0,-8.256 0,-5.952 -0.096,-15.072 -1.728,-19.008 -3.744,4.608 -4.416,23.136 -6.336,32.352 -0.384,1.728 -1.92,3.072 -3.744,3.072 -2.112,0 -3.84,-1.728 -3.84,-3.84 0,-3.456 0.384,-15.072 0.384,-23.808 0,-7.104 -0.192,-12.192 -0.192,-12.576 0,-2.112 1.632,-3.84 3.84,-3.84 1.536,0 3.744,1.152 3.84,3.936 1.632,-2.208 4.128,-3.552 6.528,-3.552 2.592,0 5.184,1.632 6.72,5.568 z m 97.248,2.496 c -9.984,0 -12.096,21.12 -12.48,31.968 -0.096,2.016 -1.824,3.648 -3.84,3.648 -2.112,0 -3.84,-1.728 -3.84,-3.84 0,-3.36 0.384,-14.784 0.384,-23.52 0,-7.008 -0.192,-12 -0.192,-12.384 0,-2.112 1.728,-3.84 3.84,-3.84 2.016,0 3.744,1.632 3.84,3.648 0,1.056 0,2.112 0.096,3.168 3.936,-5.376 8.736,-6.528 12.192,-6.528 11.52,0 13.728,15.648 13.728,31.488 0,2.784 0,5.472 -0.096,8.16 -0.096,2.112 -1.824,3.744 -3.84,3.744 -2.208,0 -3.84,-1.728 -3.84,-3.84 0,-0.096 0.096,-3.84 0.096,-7.776 0,-7.104 -0.576,-24.096 -6.048,-24.096 z m 91.968,36 c -10.656,0 -19.104,-7.488 -19.104,-19.968 0,-16.032 9.312,-23.808 20.64,-23.808 9.888,0 19.2,7.488 19.2,23.424 0,9.696 -9.984,20.352 -20.736,20.352 z m 0,-7.68 c 6.336,0 13.056,-7.2 13.056,-12.672 0,-9.312 -4.032,-15.744 -11.52,-15.744 -11.52,0 -12.96,10.56 -12.96,16.128 0,11.616 9.312,12.288 11.424,12.288 z m -1436.54396,92.544 c -3.744,0 -12.192,0.672 -13.44,28.8 15.36,-1.056 22.464,-8.256 22.464,-14.976 0,-7.488 -3.264,-13.824 -9.024,-13.824 z m 16.704,13.824 c 0,10.176 -9.312,21.696 -30.624,22.752 0,0.288 0,0.576 0,0.864 0,5.664 0.48,10.464 0.48,10.656 0,2.112 -1.728,3.84 -3.84,3.84 -2.016,0 -3.648,-1.536 -3.84,-3.552 -0.384,-4.032 -0.48,-7.68 -0.48,-10.944 0,-9.696 1.056,-16.992 1.056,-23.712 0,-7.776 -1.44,-10.656 -1.44,-12.096 0,-2.112 1.728,-3.84 3.84,-3.84 1.632,0 3.072,1.056 3.552,2.592 3.168,-4.896 7.872,-8.064 14.592,-8.064 9.312,0 16.704,8.352 16.704,21.504 z m 94.464,-13.248 c 0,0.384 -0.384,4.224 -0.768,21.888 -0.192,9.216 -0.384,17.76 -1.248,27.168 -0.096,2.016 -1.728,3.552 -3.744,3.552 -2.112,0 -3.84,-1.728 -3.84,-3.84 0,-0.288 0.672,-6.528 1.056,-22.464 -5.664,7.488 -11.712,8.544 -14.784,8.544 -5.472,0 -8.352,-3.648 -9.504,-5.568 -1.824,-3.072 -2.784,-7.2 -2.784,-12.768 0,-11.232 9.408,-25.632 21.6,-25.632 7.968,0 14.016,6.048 14.016,9.12 z m -23.328,27.168 c 6.24,0 14.112,-9.6 15.552,-25.92 -1.824,-1.92 -4.32,-2.688 -6.24,-2.688 -7.296,0 -13.92,10.464 -13.92,17.952 0,9.504 3.168,10.656 4.608,10.656 z m 104.928,-37.152 c 6.912,0 11.904,5.856 13.632,13.632 0.096,0.288 0.096,0.576 0.096,0.864 0,2.016 -1.728,3.84 -3.84,3.84 -1.824,0 -3.36,-1.344 -3.744,-3.072 -1.344,-5.952 -4.224,-7.584 -6.144,-7.584 -9.024,0 -12.096,16.32 -12.768,33.408 -0.096,2.016 -1.728,3.648 -3.84,3.648 -2.112,0 -3.84,-1.632 -3.84,-3.84 0,-3.456 0.384,-15.36 0.384,-24.384 0,-7.392 -0.192,-12.576 -0.192,-12.96 0,-2.112 1.728,-3.84 3.84,-3.84 2.112,0 3.744,1.632 3.84,3.744 0,1.056 0.096,2.208 0.096,3.264 4.032,-5.568 8.928,-6.72 12.48,-6.72 z m 84.576,13.92 c 0.96,1.44 5.28,1.824 5.664,1.824 17.856,1.344 19.104,11.616 19.104,14.304 0,7.776 -7.584,14.976 -16.992,14.976 -4.8,0 -10.08,-1.824 -15.168,-6.528 -0.768,-0.768 -1.248,-1.728 -1.248,-2.88 0,-2.304 1.824,-3.84 3.84,-3.84 0.864,0 1.824,0.384 2.592,1.056 3.744,3.456 7.2,4.512 10.08,4.512 4.896,0 9.12,-3.552 9.12,-7.2 0,-3.072 -3.168,-6.048 -11.904,-6.72 -12.576,-0.96 -12.864,-8.544 -12.864,-9.984 0,-6.528 7.2,-12.672 15.648,-12.672 4.704,0 9.792,1.92 14.304,6.816 0.576,0.672 0.96,1.632 0.96,2.592 0,2.304 -1.92,3.84 -3.936,3.84 -0.96,0 -2.016,-0.384 -2.784,-1.248 -2.88,-3.264 -5.856,-4.416 -8.544,-4.416 -4.512,0 -7.968,3.456 -7.968,5.088 0,0.192 0,0.288 0.096,0.48 z m 103.104,-3.552 c -2.112,0 -4.32,0 -6.336,-0.096 -0.384,3.744 -0.576,7.008 -0.576,9.888 0,12.864 3.36,15.744 4.224,16.224 0.384,0.288 0.96,0.48 1.632,0.48 3.648,0 9.792,-4.704 9.792,-9.792 0,-1.728 -0.576,-2.208 -0.576,-3.456 0,-2.112 1.728,-3.84 3.84,-3.84 1.632,0 3.072,1.056 3.552,2.592 0.576,1.536 0.864,3.168 0.864,4.704 0,9.312 -9.408,17.376 -17.568,17.376 -2.016,0 -3.936,-0.48 -5.664,-1.536 -4.512,-2.784 -6.048,-8.544 -6.624,-11.136 -0.768,-3.648 -1.152,-7.68 -1.152,-11.808 0,-12.576 2.976,-26.112 2.976,-31.68 0,-1.056 -0.096,-1.248 -0.096,-1.728 0,-2.112 1.728,-3.84 3.84,-3.84 1.92,0 3.552,1.44 3.84,3.36 0,0.576 0.096,1.248 0.096,2.016 0,3.552 -0.768,8.736 -1.536,14.496 1.728,0.096 3.552,0.096 5.472,0.096 0,0 5.952,0 7.872,0 0.288,0 0.384,0 0.48,0 2.112,0 3.84,1.728 3.84,3.84 0,2.112 -1.728,3.84 -3.84,3.84 -2.976,0 -8.352,0 -8.352,0 z m 98.304,26.112 c 5.76,0 6.912,-6.432 7.488,-9.12 1.344,-7.392 0.672,-17.28 1.056,-23.424 0.096,-2.016 1.824,-3.648 3.84,-3.648 2.112,0 3.84,1.728 3.84,3.84 0,0.096 -0.096,1.056 -0.096,7.296 -0.096,11.04 -0.192,23.52 -7.2,29.568 -2.592,2.208 -5.856,3.168 -9.12,3.168 -3.264,0 -6.624,-0.96 -9.12,-2.784 -8.064,-5.472 -9.696,-17.76 -9.696,-27.744 0,-3.552 0.192,-6.816 0.384,-9.408 0.192,-2.016 1.824,-3.552 3.84,-3.552 2.112,0 3.84,1.728 3.84,3.84 0,0.48 -0.384,4.416 -0.384,9.024 0,17.088 4.8,22.944 11.328,22.944 z m 83.808,-34.368 c 5.76,8.16 6.336,18.24 10.464,29.568 4.704,-10.464 8.064,-19.104 10.752,-28.032 0.48,-1.536 1.92,-2.688 3.648,-2.688 2.208,0 3.84,1.728 3.84,3.84 0,0.288 0,0.672 -0.192,1.056 -3.456,11.52 -7.968,22.56 -14.688,36.768 -0.672,1.44 -2.016,2.208 -3.456,2.208 -1.344,0 -2.688,-0.672 -3.36,-2.016 -7.584,-14.592 -7.584,-28.224 -13.248,-36.288 -0.48,-0.576 -0.768,-1.344 -0.768,-2.208 0,-2.304 1.92,-3.84 3.936,-3.84 1.152,0 2.304,0.48 3.072,1.632 z m 90.816,-2.304 c 1.824,0 3.36,1.344 3.744,3.072 1.824,8.256 1.248,16.992 3.744,26.976 1.152,-3.84 1.632,-5.952 4.032,-16.032 0.384,-1.728 1.92,-2.976 3.744,-2.976 1.824,0 3.264,1.248 3.744,2.88 1.728,6.912 2.88,10.848 4.704,15.552 2.208,-9.12 3.36,-16.704 4.512,-25.056 0.288,-1.824 1.824,-3.264 3.84,-3.264 2.112,0 3.84,1.728 3.84,3.84 0,0.192 0,0.384 -0.096,0.48 -1.536,11.328 -3.168,21.888 -7.584,36.48 -0.576,1.728 -2.112,2.688 -3.744,2.688 -1.344,0 -2.688,-0.672 -3.456,-2.208 -2.496,-5.28 -4.128,-9.12 -5.472,-12.864 -1.152,4.128 -2.496,8.064 -4.608,13.248 -0.672,1.536 -2.112,2.304 -3.552,2.304 -1.344,0 -2.784,-0.672 -3.456,-2.208 -7.2,-15.36 -5.568,-28.32 -7.68,-38.208 -0.096,-0.288 -0.096,-0.576 -0.096,-0.864 0,-2.016 1.632,-3.84 3.84,-3.84 z m 98.016,44.544 c -2.208,0 -3.84,-1.92 -3.84,-3.936 0,-0.48 0.096,-1.056 0.384,-1.536 3.36,-7.488 7.488,-12.768 11.616,-17.376 -4.032,-4.416 -7.68,-9.12 -10.752,-16.608 -0.192,-0.48 -0.288,-0.96 -0.288,-1.44 0,-2.016 1.632,-3.84 3.84,-3.84 4.896,0 2.208,4.896 12.384,16.224 3.648,-4.032 7.104,-8.064 9.6,-13.344 0.672,-1.248 1.92,-2.208 3.456,-2.208 2.208,0 3.84,1.824 3.84,3.84 0,0.576 -0.096,1.152 -0.384,1.728 -3.072,6.432 -7.104,11.04 -11.232,15.552 4.032,4.224 8.64,9.12 13.056,16.512 0.384,0.576 0.576,1.248 0.576,2.016 0,2.304 -1.92,3.744 -3.936,3.744 -1.152,0 -2.4,-0.48 -3.168,-1.824 -3.936,-6.432 -7.872,-10.752 -11.616,-14.784 -11.424,13.056 -8.928,17.28 -13.536,17.28 z m 109.05596,-11.328 c 10.656,0 11.232,-18.144 11.232,-22.56 0,-2.592 -0.096,-4.416 -0.096,-4.704 0,-2.112 1.728,-3.84 3.84,-3.84 2.016,0 3.648,1.536 3.84,3.456 0.768,9.024 1.152,16.704 1.152,23.232 0,24.768 -5.664,32.736 -18.816,32.736 -10.848,0 -19.296,-8.448 -19.296,-11.808 0,-2.4 1.92,-3.84 3.936,-3.84 1.152,0 2.304,0.48 3.072,1.536 2.496,3.552 7.488,6.432 12.288,6.432 4.992,0 9.888,-0.192 10.944,-18.624 -4.032,4.704 -8.832,5.664 -12.096,5.664 -8.928,0 -12.864,-5.76 -14.208,-8.16 -2.496,-4.32 -3.36,-9.696 -3.36,-15.552 0,-4.224 0.384,-8.544 1.152,-12.864 0.384,-1.824 1.92,-3.168 3.84,-3.168 2.112,0 3.84,1.728 3.84,3.84 0,0.864 -1.152,5.952 -1.152,12.096 0,12.576 4.608,16.128 9.888,16.128 z m 108.288,3.456 c 1.344,0 2.112,-0.096 2.304,-0.096 2.112,0 3.84,1.728 3.84,3.84 0,2.112 -1.728,3.744 -3.744,3.84 -0.768,0.096 -1.632,0.096 -2.4,0.096 -4.512,0 -9.216,-0.384 -14.592,-0.384 -6.528,0 -9.696,0.576 -10.464,0.576 -2.304,0 -3.84,-1.92 -3.84,-3.936 0,-0.864 0.384,-1.824 1.152,-2.592 12.96,-13.44 21.888,-26.784 22.944,-28.224 -5.088,-0.48 -12.96,-0.48 -18.912,-0.864 -2.016,-0.192 -3.648,-1.824 -3.648,-3.84 0,-2.208 1.728,-3.84 3.84,-3.84 0.096,0 0.192,0 0.288,0 8.256,0.48 17.664,0.288 25.344,1.632 1.92,0.288 3.264,1.92 3.264,3.744 0,0.576 -0.096,1.056 -0.384,1.632 -3.936,8.64 -20.544,27.744 -20.736,28.032 0.384,0 0.768,0 1.152,0 5.472,0 10.464,0.384 14.592,0.384 z m 99.936,-61.728 c 0,2.112 -1.728,3.84 -3.84,3.84 -0.768,0 -2.592,-0.576 -4.416,-0.576 -0.864,0 -1.728,0.192 -2.496,0.48 -2.304,1.152 -2.784,4.608 -2.784,7.104 0,0.096 0,0.192 0,0.288 0,2.88 0.864,5.76 0.864,9.504 0,5.856 -1.92,9.696 -4.512,12.096 2.688,2.496 4.032,6.048 4.032,9.984 0,5.376 -1.632,9.12 -1.632,12.672 0,5.952 2.112,7.68 2.976,8.064 0.672,0.384 1.44,0.48 2.208,0.48 2.112,0 4.32,-0.96 5.28,-0.96 2.112,0 3.84,1.728 3.84,3.84 0,1.728 -1.056,3.168 -2.592,3.648 -2.304,0.768 -4.512,1.152 -6.432,1.152 -8.064,0 -12.96,-6.24 -12.96,-16.224 0,-4.704 1.632,-8.256 1.632,-12.672 0,-2.496 -0.48,-5.184 -6.528,-6.336 -1.728,-0.288 -3.168,-1.92 -3.168,-3.744 0,-2.016 1.632,-3.744 3.648,-3.84 3.264,-0.192 6.528,-1.536 6.528,-8.16 0,-3.072 -0.864,-5.856 -0.864,-9.504 0,-10.464 5.472,-15.552 13.056,-15.552 4.608,0 8.16,1.152 8.16,4.416 z m 83.904,57.792 c 0,4.416 0.096,7.584 0.096,7.584 0,2.112 -1.632,3.84 -3.84,3.84 -2.016,0 -3.744,-1.632 -3.84,-3.648 -0.096,-2.496 -0.096,-5.088 -0.096,-7.776 0,-13.536 1.248,-27.84 1.248,-39.936 0,-5.76 -0.288,-11.136 -1.152,-15.648 -0.096,-0.192 -0.096,-0.48 -0.096,-0.672 0,-2.112 1.728,-3.84 3.84,-3.84 1.92,0 3.456,1.344 3.84,3.072 0.96,5.184 1.248,10.944 1.248,17.088 0,12.384 -1.248,26.496 -1.248,39.936 z m 100.128,-47.904 c 0,3.552 -0.864,6.816 -0.864,9.888 0,4.128 2.112,7.488 6.816,7.968 1.92,0.192 3.456,1.824 3.456,3.84 0,1.728 -1.248,3.264 -2.88,3.648 -2.688,0.768 -6.816,4.896 -6.816,11.232 0,3.36 1.44,5.952 1.44,9.888 0,7.68 -5.376,16.32 -13.632,16.32 -1.824,0 -3.744,-0.384 -5.856,-1.344 -1.344,-0.576 -2.208,-1.92 -2.208,-3.456 0,-2.112 1.632,-3.84 3.84,-3.84 1.536,0 2.304,0.96 4.224,0.96 3.936,0 5.952,-5.568 5.952,-8.64 0,-2.592 -1.44,-5.472 -1.44,-9.888 0,-8.256 4.512,-13.152 5.376,-14.016 -5.184,-3.936 -5.952,-9.696 -5.952,-12.672 0,-3.648 0.864,-7.008 0.864,-9.888 0,-1.536 -0.288,-5.184 -2.4,-6.336 -0.768,-0.384 -1.536,-0.48 -2.304,-0.48 -2.208,0 -4.416,0.864 -5.376,0.864 -2.112,0 -3.84,-1.728 -3.84,-3.84 0,-1.728 1.152,-3.168 2.784,-3.648 2.304,-0.672 4.416,-1.056 6.336,-1.056 8.352,0 12.48,6.24 12.48,14.496 z m 96.864,21.12 c 0,-0.096 0,-0.192 0,-0.192 0,-2.112 1.728,-3.84 3.84,-3.84 2.688,0 3.84,2.016 3.84,4.8 0,4.8 -3.84,11.424 -10.176,11.424 -4.128,0 -7.584,-2.976 -9.408,-7.296 -0.864,-2.016 -1.728,-2.112 -1.92,-2.112 -0.192,0 -2.016,0.48 -2.688,4.416 -0.192,1.824 -1.824,3.264 -3.744,3.264 -2.112,0 -3.84,-1.728 -3.84,-3.84 0,-0.192 0,-0.384 0,-0.576 0.96,-5.952 4.8,-10.944 10.272,-10.944 4.032,0 7.296,2.784 8.928,6.72 1.248,2.688 2.208,2.688 2.4,2.688 0.96,0 2.496,-1.728 2.496,-4.512 z"
       id="text1"
       style="font-size:96px;font-family:honchokomono;-inkscape-font-specification:'honchokomono, Normal';white-space:pre;fill:#ffffff;stroke-width:70;stroke-linecap:round;stroke-linejoin:round"
       transform="matrix(0.26458333,0,0,0.26458333,-11.077081,22.713665)"
       aria-label="  ! &quot; # $ % &amp; ' ( ) * + , - . /&#10;0 1 2 3 4 5 6 7 8 9 : ; &lt; = &gt; ?&#10;@ A B C D E F G H I J K L M N O&#10;P Q R S T U V W X Y Z [ \ ] ^ _&#10;` a b c d e f g h i j k l m n o&#10;p q r s t u v w x y z { | } ~" />
  </g>
</svg>
