<?xml version="1.0" encoding="UTF-8" standalone="no"?>
<!-- Created with Inkscape (http://www.inkscape.org/) -->

<svg
   width="182.36975mm"
   height="51.788361mm"
   viewBox="0 0 182.36975 51.788361"
   version="1.1"
   id="svg1"
   inkscape:export-filename="bitmap.png"
   inkscape:export-xdpi="192"
   inkscape:export-ydpi="192"
   inkscape:version="1.3.2 (091e20ef0f, 2023-11-25)"
   sodipodi:docname="big.svg"
   xmlns:inkscape="http://www.inkscape.org/namespaces/inkscape"
   xmlns:sodipodi="http://sodipodi.sourceforge.net/DTD/sodipodi-0.dtd"
   xmlns="http://www.w3.org/2000/svg"
   xmlns:svg="http://www.w3.org/2000/svg">
  <sodipodi:namedview
     id="namedview1"
     pagecolor="#ffffff"
     bordercolor="#000000"
     borderopacity="0.25"
     inkscape:showpageshadow="2"
     inkscape:pageopacity="0.0"
     inkscape:pagecheckerboard="0"
     inkscape:deskcolor="#d1d1d1"
     inkscape:document-units="mm"
     inkscape:export-bgcolor="#001122ff"
     inkscape:zoom="1.4901048"
     inkscape:cx="347.29101"
     inkscape:cy="199.31484"
     inkscape:window-width="1904"
     inkscape:window-height="1032"
     inkscape:window-x="8"
     inkscape:window-y="40"
     inkscape:window-maximized="0"
     inkscape:current-layer="layer1" />
  <defs
     id="defs1">
    <rect
       x="102.26635"
       y="29.470894"
       width="598.88177"
       height="205.00055"
       id="rect4" />
    <rect
       x="150.97844"
       y="95.561829"
       width="768.93414"
       height="200.66437"
       id="rect3" />
    <rect
       x="46.930706"
       y="362.35468"
       width="771.78345"
       height="343.57535"
       id="rect1" />
  </defs>
  <g
     inkscape:label="Layer 1"
     inkscape:groupmode="layer"
     id="layer1"
     transform="translate(-41.768815,-111.30334)">
    <rect
       style="fill:#001122;fill-opacity:1;stroke-width:35.4441;stroke-linecap:round;stroke-linejoin:round"
       id="rect2"
       width="182.36975"
       height="51.788361"
       x="41.768814"
       y="111.30333" />
    <path
       d="m 130.48962,81.464303 c -13.44,0 -14.68799,24.767997 -14.97599,32.639997 0,2.016 -1.72801,3.648 -3.84,3.648 -2.11201,0 -3.84001,-1.728 -3.84001,-3.84 0,-0.192 0.19201,-3.552 0.19201,-19.391997 0,-28.608 -0.384,-45.312 -0.384,-45.696 0,-2.112 1.728,-3.84 3.84,-3.84 2.112,0 3.744,1.632 3.83999,3.744 0.19201,5.184 0.288,19.104 0.384,33.024 4.60801,-6.528 10.368,-7.968 14.784,-7.968 14.11201,0 14.304,23.52 14.304,31.775997 0,2.88 -0.19199,8.256 -0.19199,8.352 0,2.016 -1.72801,3.744 -3.84001,3.744 -2.11199,0 -3.84,-1.728 -3.84,-3.84 0,-0.096 0.19201,-5.568 0.19201,-8.256 0,-12.671997 -1.92001,-24.095997 -6.62401,-24.095997 z m 42.912,36.383997 c -10.656,0 -19.104,-7.488 -19.104,-19.967997 0,-16.032 9.312,-23.808 20.64,-23.808 9.888,0 19.20001,7.488 19.20001,23.424 0,9.695997 -9.98401,20.351997 -20.73601,20.351997 z m 0,-7.68 c 6.336,0 13.056,-7.2 13.056,-12.671997 0,-9.312 -4.032,-15.744 -11.52,-15.744 -11.52,0 -12.96,10.56 -12.96,16.128 0,11.615997 9.312,12.287997 11.424,12.287997 z m 52.032,-28.319997 c -9.984,0 -12.096,21.119997 -12.48,31.967997 -0.096,2.016 -1.824,3.648 -3.83999,3.648 -2.11201,0 -3.84001,-1.728 -3.84001,-3.84 0,-3.36 0.384,-14.783997 0.384,-23.519997 0,-7.008 -0.192,-12 -0.192,-12.384 0,-2.112 1.728,-3.84 3.84,-3.84 2.016,0 3.744,1.632 3.84,3.648 0,1.056 0,2.112 0.096,3.168 3.936,-5.376 8.736,-6.528 12.192,-6.528 11.52,0 13.72801,15.648 13.72801,31.487997 0,2.784 0,5.472 -0.096,8.16 -0.096,2.112 -1.824,3.744 -3.84,3.744 -2.208,0 -3.84,-1.728 -3.84,-3.84 0,-0.096 0.096,-3.84 0.096,-7.776 0,-7.103997 -0.576,-24.095997 -6.048,-24.095997 z m 33.792,19.103997 c 0,8.064 7.296,9.216 11.328,9.216 6.912,0 9.40801,-2.88 10.848,-5.376 0.672,-1.152 1.92,-1.92 3.36,-1.92 2.208,0 3.84001,1.824 3.84001,3.84 0,0.672 -0.19201,1.248 -0.48001,1.92 -1.824,3.072 -4.416,5.664 -7.872,7.296 -2.784,1.248 -6.144,1.92 -9.59999,1.92 -9.21601,0 -19.10401,-4.896 -19.10401,-16.896 0,-14.303997 9.696,-26.207997 21.12,-26.207997 7.29601,0 12.192,3.456 15.456,7.68 0.48001,0.672 0.76801,1.44 0.76801,2.4 0,2.304 -1.92001,3.84 -3.84001,3.84 -1.152,0 -2.20799,-0.48 -2.976,-1.536 -2.20799,-2.784 -4.99199,-4.704 -9.408,-4.704 -7.104,0 -13.44,8.736 -13.44,18.527997 z m 63.264,-19.487997 c -13.44,0 -14.688,24.767997 -14.976,32.639997 0,2.016 -1.728,3.648 -3.83999,3.648 -2.11201,0 -3.84001,-1.728 -3.84001,-3.84 0,-0.192 0.192,-3.552 0.192,-19.391997 0,-28.608 -0.384,-45.312 -0.384,-45.696 0,-2.112 1.728,-3.84 3.84,-3.84 2.112,0 3.744,1.632 3.84,3.744 0.192,5.184 0.288,19.104 0.384,33.024 4.608,-6.528 10.368,-7.968 14.784,-7.968 14.11201,0 14.30401,23.52 14.30401,31.775997 0,2.88 -0.192,8.256 -0.192,8.352 0,2.016 -1.72801,3.744 -3.84001,3.744 -2.11199,0 -3.84,-1.728 -3.84,-3.84 0,-0.096 0.19201,-5.568 0.19201,-8.256 0,-12.671997 -1.92001,-24.095997 -6.62401,-24.095997 z m 42.91201,36.383997 c -10.656,0 -19.10401,-7.488 -19.10401,-19.967997 0,-16.032 9.312,-23.808 20.64001,-23.808 9.88799,0 19.2,7.488 19.2,23.424 0,9.695997 -9.98401,20.351997 -20.736,20.351997 z m 0,-7.68 c 6.33599,0 13.05599,-7.2 13.05599,-12.671997 0,-9.312 -4.03199,-15.744 -11.51999,-15.744 -11.52001,0 -12.96001,10.56 -12.96001,16.128 0,11.615997 9.312,12.287997 11.42401,12.287997 z m 63.55199,-30.911997 c -0.864,0.96 -1.91999,2.112 -2.976,3.456 -2.88,3.264 -6.528,7.392 -11.13599,11.52 4.79999,1.632 7.96799,5.951997 11.61599,10.559997 1.536,1.92 3.16801,3.936 5.088,6.144 0.576,0.672 0.864,1.536 0.864,2.496 0,2.4 -1.92,3.84 -3.84,3.84 -1.056,0 -2.112,-0.384 -2.88,-1.344 -2.01599,-2.304 -3.744,-4.512 -5.184,-6.336 -5.28,-6.624 -7.008,-8.448 -10.27199,-8.448 -1.248,0 -3.16801,0.288 -5.76001,1.248 0.096,6.528 0.48,10.08 0.48,10.656 0,2.112 -1.728,3.84 -3.83999,3.84 -2.01601,0 -3.64801,-1.632 -3.84001,-3.552 -0.38399,-4.704 -0.47999,-9.312 -0.47999,-13.919997 0,-12.864 1.05599,-25.248 1.05599,-38.016 0,-7.872 -0.384,-12.096 -0.384,-12.672 0,-2.112 1.728,-3.84 3.84001,-3.84 2.01599,0 3.64799,1.536 3.83999,3.552 0.288,4.416 0.384,8.736 0.384,12.96 0,10.56 -0.672,20.928 -0.96,31.2 6.816,-4.896 11.61601,-10.368 15.552,-14.976 3.93601,-4.416 4.224,-4.8 6.048,-4.8 2.304,0 3.84001,1.92 3.84001,3.84 0,0.96 -0.288,1.824 -1.05601,2.592 z m 32.44801,38.591997 c -10.656,0 -19.10401,-7.488 -19.10401,-19.967997 0,-16.032 9.312,-23.808 20.64001,-23.808 9.88799,0 19.2,7.488 19.2,23.424 0,9.695997 -9.98401,20.351997 -20.736,20.351997 z m 0,-7.68 c 6.33599,0 13.05599,-7.2 13.05599,-12.671997 0,-9.312 -4.03199,-15.744 -11.51999,-15.744 -11.52001,0 -12.96001,10.56 -12.96001,16.128 0,11.615997 9.312,12.287997 11.42401,12.287997 z m 50.78399,-30.815997 c 2.20801,-3.936 5.08801,-5.472 7.68001,-5.472 1.43999,0 2.88,0.576 3.936,1.344 2.496,2.016 5.568,6.816 5.568,26.591997 0,3.552 -0.096,7.488 -0.288,12 -0.096,2.016 -1.72801,3.648 -3.84001,3.648 -2.11199,0 -3.84,-1.728 -3.84,-3.84 0,-0.288 0.288,-5.568 0.288,-11.616 0,-12.095997 -1.15199,-17.663997 -2.208,-19.871997 -4.8,6.336 -5.08799,29.471997 -5.08799,29.855997 0,0.864 0,1.344 0,1.44 0,2.112 -1.72801,3.84 -3.84001,3.84 -2.016,0 -3.744,-1.632 -3.84,-3.648 0,-1.248 0,-2.688 0,-4.32 0,0 0,-7.68 0,-8.256 0,-5.951997 -0.096,-15.071997 -1.72799,-19.007997 -3.74401,4.608 -4.41601,23.135997 -6.336,32.351997 -0.38401,1.728 -1.92001,3.072 -3.74401,3.072 -2.11199,0 -3.84,-1.728 -3.84,-3.84 0,-3.456 0.38401,-15.071997 0.38401,-23.807997 0,-7.104 -0.192,-12.192 -0.192,-12.576 0,-2.112 1.632,-3.84 3.83999,-3.84 1.536,0 3.74401,1.152 3.84001,3.936 1.63199,-2.208 4.12799,-3.552 6.52799,-3.552 2.59201,0 5.18401,1.632 6.72,5.568 z m 45.216,38.495997 c -10.65599,0 -19.10399,-7.488 -19.10399,-19.967997 0,-16.032 9.312,-23.808 20.64,-23.808 9.88799,0 19.19999,7.488 19.19999,23.424 0,9.695997 -9.98399,20.351997 -20.736,20.351997 z m 0,-7.68 c 6.336,0 13.056,-7.2 13.056,-12.671997 0,-9.312 -4.032,-15.744 -11.51999,-15.744 -11.52,0 -12.96001,10.56 -12.96001,16.128 0,11.615997 9.312,12.287997 11.424,12.287997 z m 52.032,-28.319997 c -9.984,0 -12.096,21.119997 -12.48,31.967997 -0.096,2.016 -1.82399,3.648 -3.84,3.648 -2.112,0 -3.83999,-1.728 -3.83999,-3.84 0,-3.36 0.384,-14.783997 0.384,-23.519997 0,-7.008 -0.192,-12 -0.192,-12.384 0,-2.112 1.72799,-3.84 3.83999,-3.84 2.01601,0 3.744,1.632 3.84,3.648 0,1.056 0,2.112 0.096,3.168 3.93601,-5.376 8.736,-6.528 12.192,-6.528 11.52,0 13.728,15.648 13.728,31.487997 0,2.784 0,5.472 -0.096,8.16 -0.096,2.112 -1.824,3.744 -3.83999,3.744 -2.20801,0 -3.84001,-1.728 -3.84001,-3.84 0,-0.096 0.096,-3.84 0.096,-7.776 0,-7.103997 -0.576,-24.095997 -6.048,-24.095997 z m 43.968,35.999997 c -10.65599,0 -19.10399,-7.488 -19.10399,-19.967997 0,-16.032 9.312,-23.808 20.64,-23.808 9.88799,0 19.19999,7.488 19.19999,23.424 0,9.695997 -9.98399,20.351997 -20.736,20.351997 z m 0,-7.68 c 6.336,0 13.056,-7.2 13.056,-12.671997 0,-9.312 -4.032,-15.744 -11.51999,-15.744 -11.52,0 -12.96001,10.56 -12.96001,16.128 0,11.615997 9.312,12.287997 11.424,12.287997 z"
       id="text1"
       style="font-size:96px;font-family:honchokomono;-inkscape-font-specification:'honchokomono, Normal';white-space:pre;fill:#ffffff;stroke-width:70;stroke-linecap:round;stroke-linejoin:round"
       transform="matrix(0.26458333,0,0,0.26458333,29.530817,115.66883)"
       aria-label="honchokomono" />
  </g>
</svg>
