<?xml version="1.0" encoding="UTF-8" standalone="no"?>
<!-- Created with Inkscape (http://www.inkscape.org/) -->

<svg
   width="154.50516mm"
   height="50.568134mm"
   viewBox="0 0 154.50516 50.568135"
   version="1.1"
   id="svg1"
   inkscape:export-filename="bitmap.png"
   inkscape:export-xdpi="192"
   inkscape:export-ydpi="192"
   inkscape:version="1.3.2 (091e20ef0f, 2023-11-25)"
   sodipodi:docname="big.svg"
   xmlns:inkscape="http://www.inkscape.org/namespaces/inkscape"
   xmlns:sodipodi="http://sodipodi.sourceforge.net/DTD/sodipodi-0.dtd"
   xmlns="http://www.w3.org/2000/svg"
   xmlns:svg="http://www.w3.org/2000/svg">
  <sodipodi:namedview
     id="namedview1"
     pagecolor="#ffffff"
     bordercolor="#000000"
     borderopacity="0.25"
     inkscape:showpageshadow="2"
     inkscape:pageopacity="0.0"
     inkscape:pagecheckerboard="0"
     inkscape:deskcolor="#d1d1d1"
     inkscape:document-units="mm"
     inkscape:export-bgcolor="#001122ff"
     inkscape:zoom="1.4901048"
     inkscape:cx="310.71641"
     inkscape:cy="240.25156"
     inkscape:window-width="1904"
     inkscape:window-height="1032"
     inkscape:window-x="8"
     inkscape:window-y="40"
     inkscape:window-maximized="0"
     inkscape:current-layer="layer1" />
  <defs
     id="defs1">
    <rect
       x="46.930706"
       y="362.35468"
       width="771.78345"
       height="343.57535"
       id="rect1" />
  </defs>
  <g
     inkscape:label="Layer 1"
     inkscape:groupmode="layer"
     id="layer1"
     transform="translate(-29.530817,-115.66883)">
    <rect
       style="fill:#001122;fill-opacity:1;stroke-width:35.4441;stroke-linecap:round;stroke-linejoin:round"
       id="rect2"
       width="154.50516"
       height="50.568119"
       x="29.530817"
       y="115.66883" />
    <path
       d="m 47.776291,365.17097 c -0.202716,0.0113 -0.371646,0.19145 -0.371646,0.39417 0,0.0676 0.03379,0.39417 0.03379,3.15336 0,1.30639 -0.01126,2.61278 -0.01126,3.1421 0,0.21397 0.16893,0.39417 0.382908,0.39417 0.213978,0 0.405432,-0.16893 0.405432,-0.38291 0.01126,-0.51805 0.06757,-1.37397 0.292812,-2.04969 0.180192,-0.51805 0.427956,-1.05862 1.058628,-1.08115 0.304074,0 0.45048,0.51805 0.529314,1.02484 0.05631,0.4167 0.06757,0.8897 0.06757,1.31766 v 0.76581 c 0,0.21398 0.180192,0.39417 0.39417,0.39417 0.213978,0 0.39417,-0.16893 0.39417,-0.3829 0,-0.22524 0.01126,-0.52932 0.01126,-0.86718 0,-0.41669 -0.01126,-0.90096 -0.07883,-1.34018 -0.11262,-0.74329 -0.427956,-1.70056 -1.317654,-1.70056 -0.686982,0 -1.114938,0.39417 -1.340178,0.68698 0,-1.2726 -0.01126,-2.53395 -0.03379,-3.08578 -0.01126,-0.20272 -0.191454,-0.38291 -0.39417,-0.38291 z m 6.002641,2.68035 c -1.205034,0 -2.105994,0.86718 -2.105994,2.37629 0,1.37396 0.979794,2.06094 1.892016,2.06094 h 0.11262 c 1.103676,-0.0563 2.02716,-1.1262 2.02716,-2.10599 0,-1.28387 -0.754554,-2.33124 -1.925802,-2.33124 z m 0,0.78834 c 1.114938,0 1.137462,1.4528 1.137462,1.5429 0,0.51805 -0.574362,1.2726 -1.283868,1.31765 h -0.02252 c -0.16893,0 -1.148724,-0.0451 -1.148724,-1.2726 0,-0.49553 0.135144,-1.58795 1.317654,-1.58795 z m 3.029474,-0.99105 c -0.202716,0.0113 -0.371646,0.19145 -0.371646,0.39417 0,0.0451 0.02252,0.36038 0.02252,1.26134 0,0.96853 -0.02252,2.0159 -0.03379,2.45512 0,0.31533 0.16893,0.46174 0.382908,0.46174 0.213978,0 0.405432,-0.15767 0.405432,-0.37165 0.01126,-0.51805 0.06757,-1.44153 0.292812,-2.18482 0.16893,-0.51806 0.416694,-1.17125 1.058628,-1.19378 0.33786,0 0.473004,0.7433 0.529314,1.13747 0.05631,0.45048 0.06757,0.96853 0.06757,1.41901 v 0.7996 c 0,0.21398 0.180192,0.39417 0.39417,0.39417 0.213978,0 0.39417,-0.18019 0.39417,-0.39417 v -0.73203 c 0,-0.48427 -0.01126,-1.04737 -0.07883,-1.58794 -0.11262,-0.85591 -0.427956,-1.82445 -1.306392,-1.82445 -0.777078,0 -1.205034,0.55184 -1.328916,0.72077 0,-0.13514 0,-0.25902 -0.01126,-0.38291 -0.01126,-0.20271 -0.191454,-0.37164 -0.39417,-0.37164 z m 6.149048,0.2365 c -1.340178,0 -2.184828,1.41901 -2.184828,2.70288 0,0.96853 0.709506,1.74561 1.91454,1.74561 0.833388,0 1.52037,-0.31534 1.85823,-0.96853 0.03379,-0.0563 0.04505,-0.12388 0.04505,-0.18019 0,-0.14641 -0.07883,-0.29282 -0.213978,-0.36039 -0.05631,-0.0338 -0.123882,-0.0451 -0.180192,-0.0451 -0.146406,0 -0.28155,0.0788 -0.349122,0.21398 -0.213978,0.39417 -0.495528,0.55184 -1.159986,0.55184 -0.371646,0 -1.1262,-0.12388 -1.1262,-0.95727 0,-0.69824 0.427956,-1.91454 1.396488,-1.91454 0.540576,0 0.630672,0.0676 0.968532,0.49553 0.07883,0.0901 0.191454,0.1464 0.304074,0.1464 0.0901,0 0.16893,-0.0338 0.247764,-0.0901 0.0901,-0.0788 0.146406,-0.19146 0.146406,-0.30408 0,-0.0901 -0.03379,-0.16893 -0.0901,-0.24776 -0.39417,-0.49553 -0.878436,-0.78834 -1.57668,-0.78834 z m 2.838019,-2.71414 c -0.202716,0.0113 -0.371646,0.19145 -0.371646,0.39417 0,0.0676 0.03379,0.39417 0.03379,3.15336 0,1.30639 -0.01126,2.61278 -0.01126,3.1421 0,0.21397 0.16893,0.39417 0.382908,0.39417 0.213978,0 0.405432,-0.16893 0.405432,-0.38291 0.01126,-0.51805 0.06757,-1.37397 0.292812,-2.04969 0.180192,-0.51805 0.427956,-1.05862 1.058628,-1.08115 0.304074,0 0.45048,0.51805 0.529314,1.02484 0.05631,0.4167 0.06757,0.8897 0.06757,1.31766 v 0.76581 c 0,0.21398 0.180192,0.39417 0.39417,0.39417 0.213978,0 0.39417,-0.16893 0.39417,-0.3829 0,-0.22524 0.01126,-0.52932 0.01126,-0.86718 0,-0.41669 -0.01126,-0.90096 -0.07883,-1.34018 -0.11262,-0.74329 -0.427956,-1.70056 -1.317654,-1.70056 -0.686982,0 -1.114938,0.39417 -1.340178,0.68698 0,-1.2726 -0.01126,-2.53395 -0.03379,-3.08578 -0.01126,-0.20272 -0.191454,-0.38291 -0.39417,-0.38291 z m 6.002641,2.68035 c -1.205034,0 -2.105994,0.86718 -2.105994,2.37629 0,1.37396 0.979794,2.06094 1.892016,2.06094 h 0.11262 c 1.103676,-0.0563 2.02716,-1.1262 2.02716,-2.10599 0,-1.28387 -0.754554,-2.33124 -1.925802,-2.33124 z m 0,0.78834 c 1.114938,0 1.137462,1.4528 1.137462,1.5429 0,0.51805 -0.574362,1.2726 -1.283868,1.31765 h -0.02252 c -0.16893,0 -1.148724,-0.0451 -1.148724,-1.2726 0,-0.49553 0.135144,-1.58795 1.317654,-1.58795 z m 3.097047,-3.57005 c -0.202716,0.0113 -0.371646,0.19145 -0.371646,0.39417 0,0.0563 0.04505,0.50679 0.04505,1.30639 0,1.23882 -0.101358,2.38755 -0.101358,3.66015 0,0.45048 0.01126,0.92349 0.04505,1.40775 0.01126,0.20272 0.202716,0.37165 0.405432,0.37165 h 0.02252 c 0.202716,-0.0113 0.360384,-0.20272 0.360384,-0.40543 0,-0.0676 -0.04505,-0.58563 -0.04505,-1.03611 0.22524,-0.0901 0.39417,-0.11262 0.529314,-0.11262 0.05631,0 0.101358,0 0.146406,0.0113 0.146406,0.0338 0.247764,0.0901 0.371646,0.23651 0.247764,0.28155 0.473004,0.86717 1.036104,1.2726 0.06757,0.0451 0.157668,0.0788 0.236502,0.0788 0.123882,0 0.22524,-0.0563 0.304074,-0.16893 0.05631,-0.0788 0.07883,-0.15767 0.07883,-0.24777 0,-0.12388 -0.05631,-0.2365 -0.157668,-0.30407 -0.326598,-0.2365 -0.529314,-0.70951 -0.912222,-1.14873 -0.157668,-0.18019 -0.360384,-0.34912 -0.61941,-0.43921 0.585624,-0.54058 1.024842,-1.10368 1.35144,-1.46406 0.06757,-0.0676 0.101358,-0.15767 0.101358,-0.24777 0,-0.11262 -0.04505,-0.22524 -0.135144,-0.30407 -0.06757,-0.0676 -0.157668,-0.10136 -0.247764,-0.10136 -0.11262,0 -0.22524,0.0451 -0.304074,0.13514 -0.439218,0.49553 -1.01358,1.20504 -1.768134,1.80192 0.02252,-0.97979 0.0901,-1.93706 0.0901,-2.9619 0,-0.43922 -0.01126,-0.90096 -0.04505,-1.37397 -0.01126,-0.20271 -0.191454,-0.36038 -0.39417,-0.36038 z m 5.912545,2.78171 c -1.205034,0 -2.105994,0.86718 -2.105994,2.37629 0,1.37396 0.979794,2.06094 1.892016,2.06094 h 0.11262 c 1.103676,-0.0563 2.02716,-1.1262 2.02716,-2.10599 0,-1.28387 -0.754554,-2.33124 -1.925802,-2.33124 z m 0,0.78834 c 1.114938,0 1.137462,1.4528 1.137462,1.5429 0,0.51805 -0.574362,1.2726 -1.283868,1.31765 h -0.02252 c -0.16893,0 -1.148724,-0.0451 -1.148724,-1.2726 0,-0.49553 0.135144,-1.58795 1.317654,-1.58795 z m 2.815495,-0.99105 c -0.202716,0.0113 -0.371646,0.19145 -0.371646,0.39417 0,0.0451 0.02252,0.3266 0.02252,1.04736 0,0.92349 -0.03379,1.97085 -0.04505,2.73667 0,0.21398 0.180192,0.39417 0.39417,0.39417 0.213978,0 0.382908,-0.15767 0.39417,-0.37165 0.02252,-0.52931 0.06757,-1.45279 0.22524,-2.21861 0.07883,-0.38291 0.180192,-0.72077 0.292812,-0.92348 0.06757,-0.11262 0.11262,-0.1802 0.146406,-0.20272 0.01126,0.0338 0.03379,0.0788 0.04505,0.12388 0.05631,0.21398 0.101358,0.5631 0.123882,0.94601 0.01126,0.27029 0.01126,0.5631 0.01126,0.84465 v 1.11494 0.28155 0.0113 c 0.01126,0.21398 0.191454,0.38291 0.405432,0.38291 0.213978,0 0.382908,-0.18019 0.382908,-0.39417 0,-0.70951 0.05631,-1.62173 0.202716,-2.33124 0.0901,-0.45048 0.22524,-0.78834 0.349122,-0.946 0.135144,0.33786 0.180192,0.97979 0.202716,1.44153 0.01126,0.29281 0.01126,0.5631 0.01126,0.7996 0,0.63068 -0.02252,1.02485 -0.02252,1.04737 0,0.20272 0.16893,0.38291 0.371646,0.39417 h 0.02252 c 0.202716,0 0.382908,-0.15767 0.39417,-0.36038 0.01126,-0.12389 0.02252,-0.51806 0.02252,-1.06989 0,-0.25903 0,-0.54058 -0.01126,-0.84465 -0.02252,-0.48427 -0.05631,-0.96854 -0.157668,-1.36271 -0.101358,-0.42795 -0.315336,-0.88969 -0.777078,-0.88969 -0.382908,0 -0.653196,0.28155 -0.822126,0.57436 -0.05631,-0.14641 -0.247764,-0.57436 -0.686982,-0.57436 -0.292812,0 -0.529314,0.15766 -0.709506,0.36038 v -0.0338 c -0.01126,-0.20271 -0.191454,-0.37164 -0.39417,-0.37164 z m 6.194095,0.20271 c -1.205034,0 -2.105994,0.86718 -2.105994,2.37629 0,1.37396 0.979794,2.06094 1.892016,2.06094 h 0.11262 c 1.103676,-0.0563 2.02716,-1.1262 2.02716,-2.10599 0,-1.28387 -0.754554,-2.33124 -1.925802,-2.33124 z m 0,0.78834 c 1.114938,0 1.137462,1.4528 1.137462,1.5429 0,0.51805 -0.574362,1.2726 -1.283868,1.31765 h -0.02252 c -0.16893,0 -1.148724,-0.0451 -1.148724,-1.2726 0,-0.49553 0.135144,-1.58795 1.317654,-1.58795 z m 3.029473,-0.99105 c -0.202716,0.0113 -0.371646,0.19145 -0.371646,0.39417 0,0.0451 0.02252,0.36038 0.02252,1.26134 0,0.96853 -0.02252,2.0159 -0.03379,2.45512 0,0.31533 0.16893,0.46174 0.382908,0.46174 0.213978,0 0.405432,-0.15767 0.405432,-0.37165 0.01126,-0.51805 0.06757,-1.44153 0.292812,-2.18482 0.16893,-0.51806 0.416694,-1.17125 1.058628,-1.19378 0.33786,0 0.473004,0.7433 0.529314,1.13747 0.05631,0.45048 0.06757,0.96853 0.06757,1.41901 v 0.7996 c 0,0.21398 0.180192,0.39417 0.39417,0.39417 0.213978,0 0.39417,-0.18019 0.39417,-0.39417 v -0.73203 c 0,-0.48427 -0.01126,-1.04737 -0.07883,-1.58794 -0.11262,-0.85591 -0.427956,-1.82445 -1.306392,-1.82445 -0.777078,0 -1.205034,0.55184 -1.328916,0.72077 0,-0.13514 0,-0.25902 -0.01126,-0.38291 -0.01126,-0.20271 -0.191454,-0.37164 -0.39417,-0.37164 z m 5.980117,0.20271 c -1.205034,0 -2.105994,0.86718 -2.105994,2.37629 0,1.37396 0.979794,2.06094 1.892016,2.06094 h 0.11262 c 1.103676,-0.0563 2.027162,-1.1262 2.027162,-2.10599 0,-1.28387 -0.754556,-2.33124 -1.925804,-2.33124 z m 0,0.78834 c 1.114938,0 1.137462,1.4528 1.137462,1.5429 0,0.51805 -0.574362,1.2726 -1.283868,1.31765 h -0.02252 c -0.16893,0 -1.148724,-0.0451 -1.148724,-1.2726 0,-0.49553 0.135144,-1.58795 1.317654,-1.58795 z"
       id="text1"
       style="font-size:11.262px;font-family:honchokomono;-inkscape-font-specification:'honchokomono, Normal';white-space:pre;fill:#dddddd;stroke-width:60;stroke-linecap:round;stroke-linejoin:round"
       transform="matrix(2.2553791,0,0,2.2553791,-60.292087,-690.609)"
       aria-label="honchokomono" />
  </g>
</svg>
