<?xml version="1.0" encoding="UTF-8" standalone="no"?>
<!-- Created with Inkscape (http://www.inkscape.org/) -->

<svg
   width="154.50516mm"
   height="50.568134mm"
   viewBox="0 0 154.50516 50.568135"
   version="1.1"
   id="svg1"
   inkscape:export-filename="bitmap.png"
   inkscape:export-xdpi="192"
   inkscape:export-ydpi="192"
   inkscape:version="1.3.2 (091e20ef0f, 2023-11-25)"
   sodipodi:docname="big.svg"
   xmlns:inkscape="http://www.inkscape.org/namespaces/inkscape"
   xmlns:sodipodi="http://sodipodi.sourceforge.net/DTD/sodipodi-0.dtd"
   xmlns="http://www.w3.org/2000/svg"
   xmlns:svg="http://www.w3.org/2000/svg">
  <sodipodi:namedview
     id="namedview1"
     pagecolor="#ffffff"
     bordercolor="#000000"
     borderopacity="0.25"
     inkscape:showpageshadow="2"
     inkscape:pageopacity="0.0"
     inkscape:pagecheckerboard="0"
     inkscape:deskcolor="#d1d1d1"
     inkscape:document-units="mm"
     inkscape:export-bgcolor="#001122ff"
     inkscape:zoom="1.4901048"
     inkscape:cx="298.97226"
     inkscape:cy="240.25156"
     inkscape:window-width="1920"
     inkscape:window-height="1048"
     inkscape:window-x="0"
     inkscape:window-y="32"
     inkscape:window-maximized="1"
     inkscape:current-layer="layer1" />
  <defs
     id="defs1">
    <rect
       x="150.97844"
       y="95.561829"
       width="768.93412"
       height="200.66437"
       id="rect3" />
    <rect
       x="46.930706"
       y="362.35468"
       width="771.78345"
       height="343.57535"
       id="rect1" />
  </defs>
  <g
     inkscape:label="Layer 1"
     inkscape:groupmode="layer"
     id="layer1"
     transform="translate(-29.530817,-115.66883)">
    <rect
       style="fill:#001122;fill-opacity:1;stroke-width:35.4441;stroke-linecap:round;stroke-linejoin:round"
       id="rect2"
       width="154.50516"
       height="50.568119"
       x="29.530817"
       y="115.66883" />
    <path
       d="m 173.53852,145.36032 c -5.952,0 -9.6,3.456 -11.52,5.952 -0.096,-11.136 -0.192,-22.176 -0.288,-26.4 -0.096,-1.824 -1.536,-3.264 -3.36,-3.264 h -0.096 c -1.824,0.096 -3.264,1.536 -3.264,3.36 0,0.48 0.288,22.656 0.288,39.168 0,5.952 0,11.136 -0.096,14.304 v 0.096 c 0,1.824 1.536,3.36 3.36,3.36 1.824,0 3.264,-1.44 3.36,-3.264 0.672,-16.896 4.224,-26.592 11.52,-26.592 0,0 0,0 0.096,0 1.056,0 1.632,0.288 2.496,2.016 2.112,4.128 2.496,10.176 2.496,18.432 0,1.92 0,3.936 0,5.952 0,1.824 1.536,3.36 3.36,3.36 1.824,0 3.36,-1.44 3.36,-3.264 0,-1.344 0.096,-4.032 0.096,-7.2 0,-17.856 -4.224,-26.016 -11.808,-26.016 z m 34.36796,36.672 c 9.12,0 17.856,-9.024 17.856,-17.568 0,-13.728 -8.16,-20.16 -16.608,-20.16 -5.184,0 -9.888,2.016 -13.056,5.664 -3.168,3.648 -4.704,8.736 -4.704,14.784 0,10.56 7.2,17.28 16.512,17.28 z m 11.136,-17.568 c 0,4.608 -5.664,10.848 -11.136,10.848 -9.216,0 -9.792,-8.448 -9.792,-10.56 0,-12.192 7.104,-13.728 11.04,-13.728 9.216,0 9.888,10.464 9.888,13.44 z m 39.55196,18.048 c 1.824,0 3.264,-1.44 3.36,-3.264 0,-2.208 0.096,-4.704 0.096,-7.2 0,-13.248 -1.728,-28.416 -12.192,-28.416 -5.568,0 -9.12,3.456 -10.944,6.048 0,-0.96 -0.096,-2.016 -0.096,-3.072 -0.096,-1.824 -1.536,-3.168 -3.36,-3.168 h -0.096 c -1.824,0.096 -3.264,1.536 -3.264,3.36 v 0.096 c 0.096,3.84 0.096,7.584 0.096,11.04 0,9.6 -0.288,17.376 -0.288,21.12 0,1.824 1.536,3.36 3.36,3.36 1.824,0 3.264,-1.344 3.36,-3.168 0.384,-9.888 2.304,-28.896 11.232,-28.896 4.608,0 5.472,12.864 5.472,22.272 0,2.496 -0.096,4.704 -0.096,6.336 v 0.192 c 0,1.824 1.536,3.36 3.36,3.36 z m 10.36797,-15.168 c 0,8.064 5.664,14.784 16.704,14.784 11.136,0 15.84,-7.584 15.84,-9.792 0,-1.824 -1.536,-3.36 -3.36,-3.36 -4.608,0 -1.728,6.432 -12.48,6.432 -8.736,0 -9.984,-5.184 -9.984,-8.064 0,-8.736 5.664,-16.416 11.808,-16.416 7.776,0 7.2,5.472 10.944,5.472 1.824,0 3.36,-1.44 3.36,-3.36 0,-2.592 -5.952,-8.832 -14.304,-8.832 -9.984,0 -18.528,10.56 -18.528,23.136 z m 58.17596,-21.984 c -5.952,0 -9.6,3.456 -11.52,5.952 -0.096,-11.136 -0.192,-22.176 -0.288,-26.4 -0.096,-1.824 -1.536,-3.264 -3.36,-3.264 h -0.096 c -1.824,0.096 -3.264,1.536 -3.264,3.36 0,0.48 0.288,22.656 0.288,39.168 0,5.952 0,11.136 -0.096,14.304 v 0.096 c 0,1.824 1.536,3.36 3.36,3.36 1.824,0 3.264,-1.44 3.36,-3.264 0.672,-16.896 4.224,-26.592 11.52,-26.592 0,0 0,0 0.096,0 1.056,0 1.632,0.288 2.496,2.016 2.112,4.128 2.496,10.176 2.496,18.432 0,1.92 0,3.936 0,5.952 0,1.824 1.536,3.36 3.36,3.36 1.824,0 3.36,-1.44 3.36,-3.264 0,-1.344 0.096,-4.032 0.096,-7.2 0,-17.856 -4.224,-26.016 -11.808,-26.016 z m 34.36796,36.672 c 9.12,0 17.856,-9.024 17.856,-17.568 0,-13.728 -8.16,-20.16 -16.608,-20.16 -5.184,0 -9.888,2.016 -13.056,5.664 -3.168,3.648 -4.704,8.736 -4.704,14.784 0,10.56 7.2,17.28 16.512,17.28 z m 11.136,-17.568 c 0,4.608 -5.664,10.848 -11.136,10.848 -9.216,0 -9.792,-8.448 -9.792,-10.56 0,-12.192 7.104,-13.728 11.04,-13.728 9.216,0 9.888,10.464 9.888,13.44 z m 13.53597,-40.704 c 0,0.096 0.096,0.096 0.096,0.192 0.192,3.36 0.288,6.72 0.288,10.08 0,10.752 -0.96,21.312 -0.96,32.448 0,3.84 0.096,7.68 0.48,11.616 0.096,1.728 1.632,3.168 3.36,3.168 1.92,0 3.36,-1.536 3.36,-3.36 0,-0.384 -0.288,-3.648 -0.384,-8.928 2.112,-0.672 3.552,-0.96 4.608,-0.96 1.44,0 2.112,0.48 2.784,0.864 2.016,1.44 4.704,5.568 9.696,11.52 0.576,0.768 1.536,1.248 2.592,1.248 1.824,0 3.36,-1.536 3.36,-3.36 0,-0.864 -0.288,-1.632 -0.768,-2.208 -4.704,-5.664 -7.104,-9.888 -11.04,-12.672 -0.768,-0.576 -1.632,-0.96 -2.592,-1.344 5.28,-4.8 8.832,-9.6 11.52,-12.576 0.576,-0.576 0.864,-1.344 0.864,-2.208 0,-1.824 -1.536,-3.36 -3.36,-3.36 -1.344,0 -2.208,0.672 -2.496,1.056 -3.84,4.224 -8.16,10.176 -15.072,15.36 0.192,-8.352 0.672,-16.896 0.672,-25.632 0,-3.648 -0.096,-7.392 -0.288,-11.232 -0.096,-1.728 -1.632,-3.072 -3.36,-3.072 -1.92,0 -3.36,1.536 -3.36,3.36 z m 52.12796,58.272 c 9.12,0 17.856,-9.024 17.856,-17.568 0,-13.728 -8.16,-20.16 -16.608,-20.16 -5.184,0 -9.888,2.016 -13.056,5.664 -3.168,3.648 -4.704,8.736 -4.704,14.784 0,10.56 7.2,17.28 16.512,17.28 z m 11.136,-17.568 c 0,4.608 -5.664,10.848 -11.136,10.848 -9.216,0 -9.792,-8.448 -9.792,-10.56 0,-12.192 7.104,-13.728 11.04,-13.728 9.216,0 9.888,10.464 9.888,13.44 z m 36.19196,-13.44 c 1.536,3.552 1.92,11.136 1.92,18.144 0,3.744 -0.096,7.296 -0.192,9.792 v 0.192 c 0,1.824 1.536,3.36 3.36,3.36 1.824,0 3.264,-1.44 3.36,-3.264 0.096,-3.84 0.192,-7.392 0.192,-10.656 0,-17.376 -2.592,-24.768 -8.256,-24.768 -3.552,0 -5.856,2.88 -6.912,4.896 -1.632,-4.608 -4.8,-4.992 -5.856,-4.992 -2.976,0 -4.992,1.824 -5.952,3.168 -0.096,-3.456 -3.168,-3.456 -3.36,-3.456 h -0.096 c -1.824,0.096 -3.264,1.536 -3.264,3.36 v 0.096 c 0.096,3.84 0.096,7.584 0.096,11.04 0,9.6 -0.288,17.376 -0.288,21.12 0,1.824 1.536,3.36 3.36,3.36 1.632,0 3.072,-1.152 3.36,-2.688 1.728,-8.448 2.208,-24.864 5.664,-28.896 1.536,4.704 1.536,10.08 1.536,15.744 0,3.264 -0.096,6.432 -0.096,9.024 0,1.344 0,2.496 0.096,3.36 0,1.728 1.536,3.36 3.36,3.36 1.824,0 3.36,-1.536 3.36,-3.36 0,-0.192 0,-21.984 4.608,-27.936 z m 29.47197,31.008 c 9.12,0 17.856,-9.024 17.856,-17.568 0,-13.728 -8.16,-20.16 -16.608,-20.16 -5.184,0 -9.888,2.016 -13.056,5.664 -3.168,3.648 -4.704,8.736 -4.704,14.784 0,10.56 7.2,17.28 16.512,17.28 z m 11.136,-17.568 c 0,4.608 -5.664,10.848 -11.136,10.848 -9.216,0 -9.792,-8.448 -9.792,-10.56 0,-12.192 7.104,-13.728 11.04,-13.728 9.216,0 9.888,10.464 9.888,13.44 z m 39.55196,18.048 c 1.824,0 3.264,-1.44 3.36,-3.264 0,-2.208 0.096,-4.704 0.096,-7.2 0,-13.248 -1.728,-28.416 -12.192,-28.416 -5.568,0 -9.12,3.456 -10.944,6.048 0,-0.96 -0.096,-2.016 -0.096,-3.072 -0.096,-1.824 -1.536,-3.168 -3.36,-3.168 h -0.096 c -1.824,0.096 -3.264,1.536 -3.264,3.36 v 0.096 c 0.096,3.84 0.096,7.584 0.096,11.04 0,9.6 -0.288,17.376 -0.288,21.12 0,1.824 1.536,3.36 3.36,3.36 1.824,0 3.264,-1.344 3.36,-3.168 0.384,-9.888 2.304,-28.896 11.232,-28.896 4.608,0 5.472,12.864 5.472,22.272 0,2.496 -0.096,4.704 -0.096,6.336 v 0.192 c 0,1.824 1.536,3.36 3.36,3.36 z m 26.11196,-0.48 c 9.12,0 17.856,-9.024 17.856,-17.568 0,-13.728 -8.16,-20.16 -16.608,-20.16 -5.184,0 -9.888,2.016 -13.056,5.664 -3.168,3.648 -4.704,8.736 -4.704,14.784 0,10.56 7.2,17.28 16.512,17.28 z m 11.136,-17.568 c 0,4.608 -5.664,10.848 -11.136,10.848 -9.216,0 -9.792,-8.448 -9.792,-10.56 0,-12.192 7.104,-13.728 11.04,-13.728 9.216,0 9.888,10.464 9.888,13.44 z"
       id="text1"
       style="font-size:96px;font-family:honchokomono;-inkscape-font-specification:'honchokomono, Normal';white-space:pre;fill:#dddddd;stroke-width:70;stroke-linecap:round;stroke-linejoin:round"
       transform="matrix(0.26458333,0,0,0.26458333,5.6103514,100.88007)"
       aria-label="honchokomono" />
  </g>
</svg>
