<?xml version="1.0" encoding="UTF-8" standalone="no"?>
<!-- Created with Inkscape (http://www.inkscape.org/) -->

<svg
   width="205.40553mm"
   height="151.45593mm"
   viewBox="0 0 205.40553 151.45593"
   version="1.1"
   id="svg1"
   inkscape:export-filename="bitmap.png"
   inkscape:export-xdpi="192"
   inkscape:export-ydpi="192"
   inkscape:version="1.4 (86a8ad7, 2024-10-11)"
   sodipodi:docname="ligatures.svg"
   xmlns:inkscape="http://www.inkscape.org/namespaces/inkscape"
   xmlns:sodipodi="http://sodipodi.sourceforge.net/DTD/sodipodi-0.dtd"
   xmlns="http://www.w3.org/2000/svg"
   xmlns:svg="http://www.w3.org/2000/svg">
  <sodipodi:namedview
     id="namedview1"
     pagecolor="#ffffff"
     bordercolor="#000000"
     borderopacity="0.25"
     inkscape:showpageshadow="2"
     inkscape:pageopacity="0.0"
     inkscape:pagecheckerboard="0"
     inkscape:deskcolor="#d1d1d1"
     inkscape:document-units="mm"
     inkscape:export-bgcolor="#001122ff"
     inkscape:zoom="0.8714484"
     inkscape:cx="292.61629"
     inkscape:cy="231.79801"
     inkscape:window-width="1506"
     inkscape:window-height="1032"
     inkscape:window-x="125"
     inkscape:window-y="3"
     inkscape:window-maximized="0"
     inkscape:current-layer="layer1" />
  <defs
     id="defs1">
    <rect
       x="87.632881"
       y="124.958"
       width="707.10364"
       height="513.12677"
       id="rect7" />
    <rect
       x="124.99415"
       y="93.540749"
       width="1243.6827"
       height="538.49298"
       id="rect6" />
    <rect
       x="140.27733"
       y="110.74366"
       width="653.62219"
       height="366.3573"
       id="rect5" />
    <rect
       x="90.604599"
       y="45.608833"
       width="561.20508"
       height="372.19528"
       id="rect4" />
    <rect
       x="150.97844"
       y="95.561829"
       width="768.93414"
       height="200.66437"
       id="rect3" />
    <rect
       x="46.930706"
       y="362.35468"
       width="771.78345"
       height="343.57535"
       id="rect1" />
    <rect
       x="87.632881"
       y="124.958"
       width="707.10364"
       height="513.12677"
       id="rect7-5" />
  </defs>
  <g
     inkscape:label="Layer 1"
     inkscape:groupmode="layer"
     id="layer1"
     transform="translate(-35.776726,-96.667079)">
    <rect
       style="fill:#001122;fill-opacity:1;stroke-width:52.3956;stroke-linecap:round;stroke-linejoin:round"
       id="rect2"
       width="205.40555"
       height="151.45593"
       x="35.776726"
       y="96.667084" />
    <path
       d="m 105.68081,194.80663 c 0,-3.552 2.784,-5.76 5.76,-5.76 1.536,0 3.072,0.576 4.32,1.92 1.152,1.152 1.632,2.688 1.632,4.128 0,2.976 -2.208,5.76 -5.664,5.76 -3.264,0 -6.048,-2.88 -6.048,-6.048 z m 9.216,-19.008 c 0,2.112 -1.728,3.84 -3.84,3.84 -2.112,0 -3.84,-1.632 -3.84,-3.744 0,-0.96 0,-2.016 0,-2.976 0,-8.352 0.576,-17.472 0.576,-25.632 0,-7.68 -0.672,-12 -0.672,-12.096 0,-2.112 1.728,-3.84 3.84,-3.84 2.016,0 3.648,1.536 3.84,3.36 0.48,3.936 0.672,8.16 0.672,12.576 0,4.224 -0.192,8.64 -0.288,13.056 -0.192,4.32 -0.288,8.544 -0.288,12.48 0,1.728 0,2.976 0,2.976 z m 76.416,-4.128 c 0,-2.016 1.632,-3.744 3.648,-3.84 10.368,-0.384 16.128,-0.096 24.96,-0.288 0.096,0 0.096,0 0.096,0 2.112,0 3.84,1.632 3.84,3.84 0,2.016 -1.632,3.744 -3.744,3.84 -0.192,0 -19.296,0.096 -24.864,0.288 0,0 -0.096,0 -0.096,0 -2.112,0 -3.84,-1.728 -3.84,-3.84 z m 0,-13.632 c 0,-2.016 1.632,-3.744 3.648,-3.84 10.368,-0.384 16.128,-0.096 24.96,-0.288 0.096,0 0.096,0 0.096,0 2.112,0 3.84,1.632 3.84,3.84 0,2.016 -1.632,3.744 -3.744,3.84 -0.192,0 -19.296,0.096 -24.864,0.288 0,0 -0.096,0 -0.096,0 -2.112,0 -3.84,-1.728 -3.84,-3.84 z m 151.392,-11.904 c -1.248,2.304 -2.688,4.992 -4.224,7.872 0.576,0 1.056,0 1.44,0 17.376,0 16.32,-0.096 16.416,-0.096 2.112,0 3.84,1.632 3.84,3.84 0,2.016 -1.632,3.744 -3.744,3.84 -4.128,0.096 -7.488,0.096 -11.328,0.096 -4.128,0 -7.872,0 -11.04,0 -1.152,2.016 -2.304,4.032 -3.456,5.952 3.648,0 7.488,0 9.312,0 17.376,0 16.32,-0.096 16.416,-0.096 2.112,0 3.84,1.632 3.84,3.84 0,2.016 -1.632,3.744 -3.744,3.84 -4.128,0.096 -7.488,0.096 -11.328,0.096 -8.256,0 -14.88,0 -18.912,0 -2.976,5.28 -5.184,9.504 -5.664,11.52 -0.096,2.016 -1.824,3.552 -3.84,3.552 -2.112,0 -3.84,-1.728 -3.84,-3.84 0,-2.112 1.536,-5.568 4.512,-11.136 -3.456,-0.096 -7.968,-0.096 -7.968,-0.096 -6.624,0 -10.08,0.192 -10.56,0.192 -2.112,0 -3.84,-1.728 -3.84,-3.84 0,-2.016 1.632,-3.744 3.648,-3.84 4.128,-0.096 7.392,-0.192 10.752,-0.192 0.096,0 11.04,0.096 12.096,0.096 0.096,0 0.096,0 0.192,0 1.056,-1.824 2.208,-3.744 3.456,-6.048 -2.208,0.096 -3.552,0.096 -3.648,0.096 -1.152,0 -12,-0.096 -12.096,-0.096 -6.624,0 -10.08,0.192 -10.56,0.192 -2.112,0 -3.84,-1.728 -3.84,-3.84 0,-2.016 1.632,-3.744 3.648,-3.84 4.128,-0.096 7.392,-0.192 10.752,-0.192 0.096,0 11.04,0.096 12.096,0.096 0,0 3.936,-0.096 8.16,-0.096 2.304,-4.128 4.512,-8.064 6.144,-11.328 0.672,-1.248 1.92,-2.112 3.456,-2.112 2.208,0 3.84,1.824 3.84,3.84 0,0.576 -0.096,1.152 -0.384,1.728 z m 152.64,-0.576 c 2.016,0 3.744,1.632 3.84,3.648 0.192,3.936 0.288,7.296 0.384,10.464 2.592,0 5.28,0 8.352,-0.096 0.096,0 0.096,0 0.096,0 2.112,0 3.84,1.728 3.84,3.84 0,2.112 -1.632,3.84 -3.744,3.84 -3.168,0.096 -5.856,0.096 -8.448,0.096 0,3.264 0,6.624 0.096,10.464 0,0 0,0.096 0,0.096 0,2.112 -1.728,3.84 -3.84,3.84 -2.112,0 -3.84,-1.728 -3.84,-3.744 -0.096,-4.032 -0.096,-7.392 -0.096,-10.56 -2.592,0 -5.376,0.096 -8.736,0.192 0,0 -0.096,0 -0.096,0 -2.112,0 -3.84,-1.728 -3.84,-3.84 0,-2.016 1.632,-3.744 3.648,-3.84 3.36,-0.096 6.24,-0.192 8.928,-0.192 -0.096,-3.168 -0.192,-6.336 -0.384,-10.08 0,-0.096 0,-0.192 0,-0.288 0,-2.112 1.728,-3.84 3.84,-3.84 z m 96,0 c 2.016,0 3.744,1.632 3.84,3.648 0.192,3.936 0.288,7.296 0.384,10.464 2.592,0 5.28,0 8.352,-0.096 0.096,0 0.096,0 0.096,0 2.112,0 3.84,1.728 3.84,3.84 0,2.112 -1.632,3.84 -3.744,3.84 -3.168,0.096 -5.856,0.096 -8.448,0.096 0,3.264 0,6.624 0.096,10.464 0,0 0,0.096 0,0.096 0,2.112 -1.728,3.84 -3.84,3.84 -2.112,0 -3.84,-1.728 -3.84,-3.744 -0.096,-4.032 -0.096,-7.392 -0.096,-10.56 -2.592,0 -5.376,0.096 -8.736,0.192 0,0 -0.096,0 -0.096,0 -2.112,0 -3.84,-1.728 -3.84,-3.84 0,-2.016 1.632,-3.744 3.648,-3.84 3.36,-0.096 6.24,-0.192 8.928,-0.192 -0.096,-3.168 -0.192,-6.336 -0.384,-10.08 0,-0.096 0,-0.192 0,-0.288 0,-2.112 1.728,-3.84 3.84,-3.84 z m 108.192,21.888 c 0,3.168 0,6.528 0.096,10.368 0,0 0,0.096 0,0.096 0,2.112 -1.728,3.84 -3.84,3.84 -2.112,0 -3.84,-1.728 -3.84,-3.744 -0.096,-4.032 -0.096,-7.392 -0.096,-10.56 -5.664,0 -8.736,0.192 -8.832,0.192 -2.112,0 -3.84,-1.728 -3.84,-3.84 0,-2.016 1.632,-3.744 3.648,-3.84 3.36,-0.096 6.24,-0.192 8.928,-0.192 -0.096,-3.168 -0.192,-6.336 -0.384,-10.08 0,-0.096 0,-0.192 0,-0.288 0,-2.112 1.728,-3.84 3.84,-3.84 2.016,0 3.744,1.632 3.84,3.648 0.192,3.936 0.288,7.296 0.384,10.56 11.904,0 13.728,-0.192 23.424,-0.288 -0.096,-3.072 -0.192,-6.336 -0.384,-10.08 0,-0.096 0,-0.192 0,-0.288 0,-2.112 1.728,-3.84 3.84,-3.84 2.016,0 3.648,1.632 3.84,3.648 0.192,3.936 0.288,7.296 0.384,10.56 2.784,0 5.472,-0.096 8.352,-0.096 0.096,0 0.096,0 0.096,0 2.112,0 3.84,1.728 3.84,3.84 0,2.016 -1.632,3.744 -3.744,3.84 -3.072,0.096 -5.76,0.096 -8.544,0.096 0,3.168 0.096,6.528 0.096,10.368 0,0.096 0,0.096 0,0.096 0,2.112 -1.632,3.84 -3.84,3.84 -2.016,0 -3.744,-1.632 -3.84,-3.744 0,-3.936 -0.096,-7.392 -0.096,-10.56 -0.192,0 -16.992,0.288 -23.328,0.288 z m -578.688,111.744 c -7.584,-3.072 -14.976,-9.408 -22.751998,-16.128 -0.959999,-0.768 -1.343999,-1.92 -1.343999,-2.976 0,-1.152 0.479999,-2.304 1.536,-3.072 9.599997,-7.2 16.799997,-12.48 22.463997,-15.552 0.576,-0.288 1.248,-0.384 1.824,-0.384 2.016,0 3.84,1.536 3.84,3.84 0,1.44 -0.768,2.688 -2.016,3.36 -4.512,2.4 -11.712,7.68 -17.664,12.096 6.912,5.856 12.288,9.792 16.992,11.808 1.44,0.576 2.4,1.92 2.4,3.552 0,2.208 -1.824,3.84 -3.84,3.84 -0.48,0 -0.96,-0.096 -1.44,-0.384 z m 70.464,-11.52 c 0,-2.016 1.632,-3.744 3.648,-3.84 10.368,-0.384 16.128,-0.096 24.96,-0.288 0.096,0 0.096,0 0.096,0 2.112,0 3.84,1.632 3.84,3.84 0,2.016 -1.632,3.744 -3.744,3.84 -0.192,0 -19.296,0.096 -24.864,0.288 0,0 -0.096,0 -0.096,0 -2.112,0 -3.84,-1.728 -3.84,-3.84 z m 0,-13.632 c 0,-2.016 1.632,-3.744 3.648,-3.84 10.368,-0.384 16.128,-0.096 24.96,-0.288 0.096,0 0.096,0 0.096,0 2.112,0 3.84,1.632 3.84,3.84 0,2.016 -1.632,3.744 -3.744,3.84 -0.192,0 -19.296,0.096 -24.864,0.288 0,0 -0.096,0 -0.096,0 -2.112,0 -3.84,-1.728 -3.84,-3.84 z m 111.168,16.032 c 3.744,1.056 8.256,2.304 13.248,3.648 14.304,3.936 31.296,8.448 38.4,11.424 1.44,0.576 2.4,1.92 2.4,3.552 0,2.208 -1.824,3.84 -3.84,3.84 -0.48,0 -0.96,-0.096 -1.44,-0.288 -6.144,-2.496 -23.328,-7.2 -37.536,-11.136 -4.992,-1.344 -9.6,-2.592 -13.248,-3.648 -1.632,-0.384 -2.88,-1.92 -2.88,-3.648 0,-2.208 1.824,-3.84 3.84,-3.84 0.384,0 0.768,0 1.056,0.096 z m 48.768,9.12 c -7.296,-2.976 -44.064,-9.696 -51.552,-16.128 -0.96,-0.768 -1.344,-1.92 -1.344,-2.976 0,-1.152 0.48,-2.304 1.536,-3.072 7.296,-5.376 45.792,-12.48 51.264,-15.552 0.576,-0.288 1.248,-0.384 1.824,-0.384 2.016,0 3.84,1.536 3.84,3.84 0,1.44 -0.768,2.688 -2.016,3.36 -5.664,3.072 -28.512,7.392 -43.2,12.096 13.44,4.704 36.096,9.12 42.528,11.808 1.44,0.576 2.4,1.92 2.4,3.552 0,2.208 -1.824,3.84 -3.84,3.84 -0.48,0 -0.96,-0.096 -1.44,-0.384 z m 129.6,-1.824 c 0,-1.44 0.768,-2.688 1.92,-3.36 4.416,-2.496 10.656,-8.256 17.088,-12.768 -5.568,-4.032 -12.384,-8.832 -17.28,-11.808 -1.056,-0.672 -1.824,-1.92 -1.824,-3.264 0,-2.304 1.824,-3.84 3.84,-3.84 0.672,0 1.344,0.096 2.016,0.48 4.992,3.072 5.952,3.744 22.176,15.456 1.152,0.768 1.632,1.92 1.632,3.072 0,1.344 -0.576,2.592 -1.824,3.36 -8.16,4.8 -15.552,12.288 -21.984,15.936 -0.576,0.384 -1.248,0.576 -1.92,0.576 -2.016,0 -3.84,-1.632 -3.84,-3.84 z m 94.464,-9.696 c 0,-2.016 1.632,-3.744 3.648,-3.84 10.368,-0.384 16.128,-0.096 24.96,-0.288 0.096,0 0.096,0 0.096,0 2.112,0 3.84,1.632 3.84,3.84 0,2.016 -1.632,3.744 -3.744,3.84 -0.192,0 -19.296,0.096 -24.864,0.288 0,0 -0.096,0 -0.096,0 -2.112,0 -3.84,-1.728 -3.84,-3.84 z m 0,-13.632 c 0,-2.016 1.632,-3.744 3.648,-3.84 10.368,-0.384 16.128,-0.096 24.96,-0.288 0.096,0 0.096,0 0.096,0 2.112,0 3.84,1.632 3.84,3.84 0,2.016 -1.632,3.744 -3.744,3.84 -0.192,0 -19.296,0.096 -24.864,0.288 0,0 -0.096,0 -0.096,0 -2.112,0 -3.84,-1.728 -3.84,-3.84 z m 107.904,36.384 c 0,-1.536 0.96,-2.88 2.304,-3.456 16.32,-7.2 38.016,-10.56 49.728,-16.8 0.576,-0.288 1.152,-0.48 1.728,-0.48 2.016,0 3.84,1.632 3.84,3.84 0,1.536 -0.768,2.784 -2.016,3.456 -12.96,6.912 -34.272,9.984 -50.208,16.992 -0.48,0.192 -1.056,0.288 -1.536,0.288 -2.016,0 -3.84,-1.632 -3.84,-3.84 z m -0.768,-13.056 c 0,-1.44 0.768,-2.688 1.92,-3.36 5.472,-3.072 27.552,-7.872 42.048,-12.576 -14.592,-4.224 -36.48,-8.544 -42.24,-12 -1.056,-0.672 -1.824,-1.92 -1.824,-3.264 0,-2.304 1.824,-3.84 3.84,-3.84 0.672,0 1.344,0.096 2.016,0.48 5.856,3.648 44.064,10.464 50.976,15.456 1.152,0.768 1.632,1.92 1.632,3.072 0,1.344 -0.576,2.592 -1.824,3.36 -8.928,5.28 -45.696,13.056 -50.784,15.936 -0.576,0.384 -1.248,0.576 -1.92,0.576 -2.016,0 -3.84,-1.632 -3.84,-3.84 z m -587.135997,80.256 c 0,-2.016 1.631999,-3.744 3.648,-3.84 5.567997,-0.192 32.351997,-0.288 32.639997,-0.288 0.096,0 0.096,0 0.096,0 2.112,0 3.84,1.632 3.84,3.84 0,2.016 -1.632,3.744 -3.744,3.744 -4.608,0.192 -24.864,0.096 -32.543998,0.384 0,0 -0.096,0 -0.096,0 -2.112,0 -3.839999,-1.728 -3.839999,-3.84 z m 40.319997,0 c 0,-2.016 1.632,-3.744 3.648,-3.84 5.568,-0.192 39.936,-0.288 40.32,-0.288 0.096,0 0.096,0 0.096,0 2.112,0 3.84,1.632 3.84,3.84 0,2.016 -1.632,3.744 -3.744,3.744 -0.384,0.096 -35.04,0.192 -40.224,0.384 0,0 -0.096,0 -0.096,0 -2.112,0 -3.84,-1.728 -3.84,-3.84 z m 48,0 c 0,-2.016 1.632,-3.744 3.648,-3.84 5.568,-0.192 32.352,-0.288 32.64,-0.288 0.096,0 0.096,0 0.096,0 2.112,0 3.84,1.632 3.84,3.84 0,2.016 -1.632,3.744 -3.744,3.744 -4.608,0.192 -24.864,0.096 -32.544,0.384 0,0 -0.096,0 -0.096,0 -2.112,0 -3.84,-1.728 -3.84,-3.84 z m 55.68,6.048 c 0,-2.016 1.632,-3.744 3.648,-3.84 5.568,-0.192 32.352,-0.288 32.64,-0.288 0.096,0 0.096,0 0.096,0 2.112,0 3.84,1.632 3.84,3.84 0,2.016 -1.632,3.744 -3.744,3.84 -4.704,0.096 -24.768,0 -32.544,0.288 0,0 -0.096,0 -0.096,0 -2.112,0 -3.84,-1.728 -3.84,-3.84 z m 0,-13.632 c 0,-2.016 1.632,-3.744 3.648,-3.84 5.568,-0.192 32.352,-0.288 32.64,-0.288 0.096,0 0.096,0 0.096,0 2.112,0 3.84,1.632 3.84,3.84 0,2.016 -1.632,3.744 -3.744,3.84 -4.704,0.096 -24.768,0 -32.544,0.288 0,0 -0.096,0 -0.096,0 -2.112,0 -3.84,-1.728 -3.84,-3.84 z m 40.32,13.632 c 0,-2.016 1.632,-3.744 3.648,-3.84 5.568,-0.192 39.936,-0.288 40.32,-0.288 0.096,0 0.096,0 0.096,0 2.112,0 3.84,1.632 3.84,3.84 0,2.016 -1.632,3.744 -3.744,3.84 -0.384,0 -35.04,0.096 -40.224,0.288 0,0 -0.096,0 -0.096,0 -2.112,0 -3.84,-1.728 -3.84,-3.84 z m 0,-13.632 c 0,-2.016 1.632,-3.744 3.648,-3.84 5.568,-0.192 39.936,-0.288 40.32,-0.288 0.096,0 0.096,0 0.096,0 2.112,0 3.84,1.632 3.84,3.84 0,2.016 -1.632,3.744 -3.744,3.84 -0.384,0 -35.04,0.096 -40.224,0.288 0,0 -0.096,0 -0.096,0 -2.112,0 -3.84,-1.728 -3.84,-3.84 z m 48,13.632 c 0,-2.016 1.632,-3.744 3.648,-3.84 5.568,-0.192 39.936,-0.288 40.32,-0.288 0.096,0 0.096,0 0.096,0 2.112,0 3.84,1.632 3.84,3.84 0,2.016 -1.632,3.744 -3.744,3.84 -0.384,0 -35.04,0.096 -40.224,0.288 0,0 -0.096,0 -0.096,0 -2.112,0 -3.84,-1.728 -3.84,-3.84 z m 0,-13.632 c 0,-2.016 1.632,-3.744 3.648,-3.84 5.568,-0.192 39.936,-0.288 40.32,-0.288 0.096,0 0.096,0 0.096,0 2.112,0 3.84,1.632 3.84,3.84 0,2.016 -1.632,3.744 -3.744,3.84 -0.384,0 -35.04,0.096 -40.224,0.288 0,0 -0.096,0 -0.096,0 -2.112,0 -3.84,-1.728 -3.84,-3.84 z m 48,13.632 c 0,-2.016 1.632,-3.744 3.648,-3.84 5.568,-0.192 39.936,-0.288 40.32,-0.288 0.096,0 0.096,0 0.096,0 2.112,0 3.84,1.632 3.84,3.84 0,2.016 -1.632,3.744 -3.744,3.84 -0.384,0 -35.04,0.096 -40.224,0.288 0,0 -0.096,0 -0.096,0 -2.112,0 -3.84,-1.728 -3.84,-3.84 z m 0,-13.632 c 0,-2.016 1.632,-3.744 3.648,-3.84 5.568,-0.192 39.936,-0.288 40.32,-0.288 0.096,0 0.096,0 0.096,0 2.112,0 3.84,1.632 3.84,3.84 0,2.016 -1.632,3.744 -3.744,3.84 -0.384,0 -35.04,0.096 -40.224,0.288 0,0 -0.096,0 -0.096,0 -2.112,0 -3.84,-1.728 -3.84,-3.84 z m 48,13.632 c 0,-2.016 1.632,-3.744 3.648,-3.84 5.568,-0.192 39.936,-0.288 40.32,-0.288 0.096,0 0.096,0 0.096,0 2.112,0 3.84,1.632 3.84,3.84 0,2.016 -1.632,3.744 -3.744,3.84 -0.384,0 -35.04,0.096 -40.224,0.288 0,0 -0.096,0 -0.096,0 -2.112,0 -3.84,-1.728 -3.84,-3.84 z m 0,-13.632 c 0,-2.016 1.632,-3.744 3.648,-3.84 5.568,-0.192 39.936,-0.288 40.32,-0.288 0.096,0 0.096,0 0.096,0 2.112,0 3.84,1.632 3.84,3.84 0,2.016 -1.632,3.744 -3.744,3.84 -0.384,0 -35.04,0.096 -40.224,0.288 0,0 -0.096,0 -0.096,0 -2.112,0 -3.84,-1.728 -3.84,-3.84 z m 48,13.632 c 0,-2.016 1.632,-3.744 3.648,-3.84 5.568,-0.192 39.936,-0.288 40.32,-0.288 0.096,0 0.096,0 0.096,0 2.112,0 3.84,1.632 3.84,3.84 0,2.016 -1.632,3.744 -3.744,3.84 -0.384,0 -35.04,0.096 -40.224,0.288 0,0 -0.096,0 -0.096,0 -2.112,0 -3.84,-1.728 -3.84,-3.84 z m 0,-13.632 c 0,-2.016 1.632,-3.744 3.648,-3.84 5.568,-0.192 39.936,-0.288 40.32,-0.288 0.096,0 0.096,0 0.096,0 2.112,0 3.84,1.632 3.84,3.84 0,2.016 -1.632,3.744 -3.744,3.84 -0.384,0 -35.04,0.096 -40.224,0.288 0,0 -0.096,0 -0.096,0 -2.112,0 -3.84,-1.728 -3.84,-3.84 z m 48,13.632 c 0,-2.016 1.632,-3.744 3.648,-3.84 5.568,-0.192 39.936,-0.288 40.32,-0.288 0.096,0 0.096,0 0.096,0 2.112,0 3.84,1.632 3.84,3.84 0,2.016 -1.632,3.744 -3.744,3.84 -0.384,0 -35.04,0.096 -40.224,0.288 0,0 -0.096,0 -0.096,0 -2.112,0 -3.84,-1.728 -3.84,-3.84 z m 0,-13.632 c 0,-2.016 1.632,-3.744 3.648,-3.84 5.568,-0.192 39.936,-0.288 40.32,-0.288 0.096,0 0.096,0 0.096,0 2.112,0 3.84,1.632 3.84,3.84 0,2.016 -1.632,3.744 -3.744,3.84 -0.384,0 -35.04,0.096 -40.224,0.288 0,0 -0.096,0 -0.096,0 -2.112,0 -3.84,-1.728 -3.84,-3.84 z m 48,13.632 c 0,-2.016 1.632,-3.744 3.648,-3.84 5.568,-0.192 32.352,-0.288 32.64,-0.288 0.096,0 0.096,0 0.096,0 2.112,0 3.84,1.632 3.84,3.84 0,2.016 -1.632,3.744 -3.744,3.84 -4.704,0.096 -24.768,0 -32.544,0.288 0,0 -0.096,0 -0.096,0 -2.112,0 -3.84,-1.728 -3.84,-3.84 z m 0,-13.632 c 0,-2.016 1.632,-3.744 3.648,-3.84 5.568,-0.192 32.352,-0.288 32.64,-0.288 0.096,0 0.096,0 0.096,0 2.112,0 3.84,1.632 3.84,3.84 0,2.016 -1.632,3.744 -3.744,3.84 -4.704,0.096 -24.768,0 -32.544,0.288 0,0 -0.096,0 -0.096,0 -2.112,0 -3.84,-1.728 -3.84,-3.84 z m 55.68,7.584 c 0,-2.016 1.632,-3.744 3.648,-3.84 5.568,-0.192 32.352,-0.288 32.64,-0.288 0.096,0 0.096,0 0.096,0 2.112,0 3.84,1.632 3.84,3.84 0,2.016 -1.632,3.744 -3.744,3.744 -4.608,0.192 -24.864,0.096 -32.544,0.384 0,0 -0.096,0 -0.096,0 -2.112,0 -3.84,-1.728 -3.84,-3.84 z m 40.32,0 c 0,-2.016 1.632,-3.744 3.648,-3.84 5.568,-0.192 39.936,-0.288 40.32,-0.288 0.096,0 0.096,0 0.096,0 2.112,0 3.84,1.632 3.84,3.84 0,2.016 -1.632,3.744 -3.744,3.744 -0.384,0.096 -35.04,0.192 -40.224,0.384 0,0 -0.096,0 -0.096,0 -2.112,0 -3.84,-1.728 -3.84,-3.84 z m 48,0 c 0,-2.016 1.632,-3.744 3.648,-3.84 5.568,-0.192 32.352,-0.288 32.64,-0.288 0.096,0 0.096,0 0.096,0 2.112,0 3.84,1.632 3.84,3.84 0,2.016 -1.632,3.744 -3.744,3.744 -4.608,0.192 -24.864,0.096 -32.544,0.384 0,0 -0.096,0 -0.096,0 -2.112,0 -3.84,-1.728 -3.84,-3.84 z m -590.976,114.528 c -7.488,-3.072 -14.88,-9.504 -22.655998,-16.128 -1.247999,-1.056 -1.344,-2.4 -1.344,-2.976 0,-1.728 1.056,-2.784 1.536001,-3.072 9.599997,-7.2 16.799997,-12.48 22.463997,-15.552 0.576,-0.288 1.248,-0.48 1.824,-0.48 2.016,0 3.84,1.632 3.84,3.84 0,1.536 -0.768,2.784 -2.016,3.456 -3.168,1.632 -7.584,4.704 -12.096,7.968 5.664,0.096 11.232,0.288 16.128,0.288 2.112,0 3.264,0 3.36,0 2.112,0 3.84,1.632 3.84,3.84 0,2.016 -1.632,3.744 -3.744,3.744 -1.056,0.096 -2.208,0.096 -3.36,0.096 -5.472,0 -11.616,-0.288 -17.568,-0.384 4.992,4.032 9.12,6.72 12.768,8.256 1.44,0.672 2.4,2.016 2.4,3.552 0,2.208 -1.824,3.84 -3.84,3.84 -0.48,0 -0.96,-0.096 -1.536,-0.288 z m 14.976,-18.528 c 0,-2.016 1.632,-3.744 3.648,-3.84 5.568,-0.192 32.352,-0.288 32.64,-0.288 0.096,0 0.096,0 0.096,0 2.112,0 3.84,1.632 3.84,3.84 0,2.016 -1.632,3.744 -3.744,3.744 -4.608,0.192 -24.864,0.096 -32.544,0.384 0,0 -0.096,0 -0.096,0 -2.112,0 -3.84,-1.728 -3.84,-3.84 z m 129.024,18.528 c -7.488,-3.072 -14.88,-9.504 -22.656,-16.128 -1.248,-1.056 -1.344,-2.4 -1.344,-2.976 0,-1.728 1.056,-2.784 1.536,-3.072 9.6,-7.2 16.8,-12.48 22.464,-15.552 0.576,-0.288 1.248,-0.48 1.824,-0.48 2.016,0 3.84,1.632 3.84,3.84 0,1.536 -0.768,2.784 -2.016,3.456 -3.168,1.632 -7.584,4.704 -12.096,7.968 5.664,0.096 11.232,0.288 16.128,0.288 2.112,0 3.264,0 3.36,0 2.112,0 3.84,1.632 3.84,3.84 0,2.016 -1.632,3.744 -3.744,3.744 -1.056,0.096 -2.208,0.096 -3.36,0.096 -5.472,0 -11.616,-0.288 -17.568,-0.384 4.992,4.032 9.12,6.72 12.768,8.256 1.44,0.672 2.4,2.016 2.4,3.552 0,2.208 -1.824,3.84 -3.84,3.84 -0.48,0 -0.96,-0.096 -1.536,-0.288 z m 14.976,-18.528 c 0,-2.016 1.632,-3.744 3.648,-3.84 5.568,-0.192 39.936,-0.288 40.32,-0.288 0.096,0 0.096,0 0.096,0 2.112,0 3.84,1.632 3.84,3.84 0,2.016 -1.632,3.744 -3.744,3.744 -0.384,0.096 -35.04,0.192 -40.224,0.384 0,0 -0.096,0 -0.096,0 -2.112,0 -3.84,-1.728 -3.84,-3.84 z m 57.216,15.744 c 0,-1.44 0.768,-2.688 1.92,-3.36 3.168,-1.824 7.296,-5.28 11.712,-8.832 -5.28,0.288 -9.888,0.672 -14.208,0.672 -2.016,0 -3.936,-0.096 -5.856,-0.288 -1.824,-0.288 -3.264,-1.92 -3.264,-3.84 0,-2.112 1.728,-3.84 3.84,-3.84 0,0 2.496,0.288 5.28,0.288 4.224,0 8.832,-0.384 14.4,-0.672 -4.224,-2.976 -8.64,-5.952 -12.096,-8.064 -1.056,-0.672 -1.824,-1.92 -1.824,-3.264 0,-2.304 1.824,-3.84 3.84,-3.84 0.672,0 1.344,0.096 2.016,0.48 5.664,3.552 13.248,9.024 19.104,13.248 4.416,3.168 4.704,3.36 4.704,5.28 0,2.112 -1.44,3.072 -1.824,3.36 -8.16,4.8 -15.552,12.288 -21.984,15.936 -0.576,0.384 -1.248,0.576 -1.92,0.576 -2.016,0 -3.84,-1.632 -3.84,-3.84 z m 94.464,-15.744 c 0,-2.016 1.632,-3.744 3.648,-3.84 5.568,-0.192 32.352,-0.288 32.64,-0.288 0.096,0 0.096,0 0.096,0 2.112,0 3.84,1.632 3.84,3.84 0,2.016 -1.632,3.744 -3.744,3.744 -4.608,0.192 -24.864,0.096 -32.544,0.384 0,0 -0.096,0 -0.096,0 -2.112,0 -3.84,-1.728 -3.84,-3.84 z m 49.536,15.744 c 0,-1.44 0.768,-2.688 1.92,-3.36 3.168,-1.824 7.296,-5.28 11.712,-8.832 -5.28,0.288 -9.888,0.672 -14.208,0.672 -2.016,0 -3.936,-0.096 -5.856,-0.288 -1.824,-0.288 -3.264,-1.92 -3.264,-3.84 0,-2.112 1.728,-3.84 3.84,-3.84 0,0 2.496,0.288 5.28,0.288 4.224,0 8.832,-0.384 14.4,-0.672 -4.224,-2.976 -8.64,-5.952 -12.096,-8.064 -1.056,-0.672 -1.824,-1.92 -1.824,-3.264 0,-2.304 1.824,-3.84 3.84,-3.84 0.672,0 1.344,0.096 2.016,0.48 5.664,3.552 13.248,9.024 19.104,13.248 4.416,3.168 4.704,3.36 4.704,5.28 0,2.112 -1.44,3.072 -1.824,3.36 -8.16,4.8 -15.552,12.288 -21.984,15.936 -0.576,0.384 -1.248,0.576 -1.92,0.576 -2.016,0 -3.84,-1.632 -3.84,-3.84 z m 94.464,-15.744 c 0,-2.016 1.632,-3.744 3.648,-3.84 5.568,-0.192 32.352,-0.288 32.64,-0.288 0.096,0 0.096,0 0.096,0 2.112,0 3.84,1.632 3.84,3.84 0,2.016 -1.632,3.744 -3.744,3.744 -4.608,0.192 -24.864,0.096 -32.544,0.384 0,0 -0.096,0 -0.096,0 -2.112,0 -3.84,-1.728 -3.84,-3.84 z m 40.32,0 c 0,-2.016 1.632,-3.744 3.648,-3.84 5.568,-0.192 39.936,-0.288 40.32,-0.288 0.096,0 0.096,0 0.096,0 2.112,0 3.84,1.632 3.84,3.84 0,2.016 -1.632,3.744 -3.744,3.744 -0.384,0.096 -35.04,0.192 -40.224,0.384 0,0 -0.096,0 -0.096,0 -2.112,0 -3.84,-1.728 -3.84,-3.84 z m 48,0 c 0,-2.016 1.632,-3.744 3.648,-3.84 5.568,-0.192 39.936,-0.288 40.32,-0.288 0.096,0 0.096,0 0.096,0 2.112,0 3.84,1.632 3.84,3.84 0,2.016 -1.632,3.744 -3.744,3.744 -0.384,0.096 -35.04,0.192 -40.224,0.384 0,0 -0.096,0 -0.096,0 -2.112,0 -3.84,-1.728 -3.84,-3.84 z m 48,0 c 0,-2.016 1.632,-3.744 3.648,-3.84 5.568,-0.192 32.352,-0.288 32.64,-0.288 0.096,0 0.096,0 0.096,0 2.112,0 3.84,1.632 3.84,3.84 0,2.016 -1.632,3.744 -3.744,3.744 -4.608,0.192 -24.864,0.096 -32.544,0.384 0,0 -0.096,0 -0.096,0 -2.112,0 -3.84,-1.728 -3.84,-3.84 z m -616.319997,102.048 c 0,-2.016 1.631999,-3.744 3.648,-3.84 5.567997,-0.192 32.351997,-0.288 32.639997,-0.288 0.096,0 0.096,0 0.096,0 2.112,0 3.84,1.632 3.84,3.84 0,2.016 -1.632,3.744 -3.744,3.84 -4.704,0.096 -24.768,0 -32.543998,0.288 0,0 -0.096,0 -0.096,0 -2.112,0 -3.839999,-1.728 -3.839999,-3.84 z m 0,-13.632 c 0,-2.016 1.631999,-3.744 3.648,-3.84 5.567997,-0.192 32.351997,-0.288 32.639997,-0.288 0.096,0 0.096,0 0.096,0 2.112,0 3.84,1.632 3.84,3.84 0,2.016 -1.632,3.744 -3.744,3.84 -4.704,0.096 -24.768,0 -32.543998,0.288 0,0 -0.096,0 -0.096,0 -2.112,0 -3.839999,-1.728 -3.839999,-3.84 z m 40.319997,13.632 c 0,-2.016 1.632,-3.744 3.648,-3.84 5.568,-0.192 32.352,-0.288 32.64,-0.288 0.096,0 0.096,0 0.096,0 2.112,0 3.84,1.632 3.84,3.84 0,2.016 -1.632,3.744 -3.744,3.84 -4.704,0.096 -24.768,0 -32.544,0.288 0,0 -0.096,0 -0.096,0 -2.112,0 -3.84,-1.728 -3.84,-3.84 z m 0,-13.632 c 0,-2.016 1.632,-3.744 3.648,-3.84 5.568,-0.192 32.352,-0.288 32.64,-0.288 0.096,0 0.096,0 0.096,0 2.112,0 3.84,1.632 3.84,3.84 0,2.016 -1.632,3.744 -3.744,3.84 -4.704,0.096 -24.768,0 -32.544,0.288 0,0 -0.096,0 -0.096,0 -2.112,0 -3.84,-1.728 -3.84,-3.84 z m 103.68,13.632 c 0,-2.016 1.632,-3.744 3.648,-3.84 5.568,-0.192 32.352,-0.288 32.64,-0.288 0.096,0 0.096,0 0.096,0 2.112,0 3.84,1.632 3.84,3.84 0,2.016 -1.632,3.744 -3.744,3.84 -4.704,0.096 -24.768,0 -32.544,0.288 0,0 -0.096,0 -0.096,0 -2.112,0 -3.84,-1.728 -3.84,-3.84 z m 0,-13.632 c 0,-2.016 1.632,-3.744 3.648,-3.84 5.568,-0.192 32.352,-0.288 32.64,-0.288 0.096,0 0.096,0 0.096,0 2.112,0 3.84,1.632 3.84,3.84 0,2.016 -1.632,3.744 -3.744,3.84 -4.704,0.096 -24.768,0 -32.544,0.288 0,0 -0.096,0 -0.096,0 -2.112,0 -3.84,-1.728 -3.84,-3.84 z m 40.32,13.632 c 0,-2.016 1.632,-3.744 3.648,-3.84 5.568,-0.192 39.936,-0.288 40.32,-0.288 0.096,0 0.096,0 0.096,0 2.112,0 3.84,1.632 3.84,3.84 0,2.016 -1.632,3.744 -3.744,3.84 -0.384,0 -35.04,0.096 -40.224,0.288 0,0 -0.096,0 -0.096,0 -2.112,0 -3.84,-1.728 -3.84,-3.84 z m 0,-13.632 c 0,-2.016 1.632,-3.744 3.648,-3.84 5.568,-0.192 39.936,-0.288 40.32,-0.288 0.096,0 0.096,0 0.096,0 2.112,0 3.84,1.632 3.84,3.84 0,2.016 -1.632,3.744 -3.744,3.84 -0.384,0 -35.04,0.096 -40.224,0.288 0,0 -0.096,0 -0.096,0 -2.112,0 -3.84,-1.728 -3.84,-3.84 z m 48,13.632 c 0,-2.016 1.632,-3.744 3.648,-3.84 5.568,-0.192 32.352,-0.288 32.64,-0.288 0.096,0 0.096,0 0.096,0 2.112,0 3.84,1.632 3.84,3.84 0,2.016 -1.632,3.744 -3.744,3.84 -4.704,0.096 -24.768,0 -32.544,0.288 0,0 -0.096,0 -0.096,0 -2.112,0 -3.84,-1.728 -3.84,-3.84 z m 0,-13.632 c 0,-2.016 1.632,-3.744 3.648,-3.84 5.568,-0.192 32.352,-0.288 32.64,-0.288 0.096,0 0.096,0 0.096,0 2.112,0 3.84,1.632 3.84,3.84 0,2.016 -1.632,3.744 -3.744,3.84 -4.704,0.096 -24.768,0 -32.544,0.288 0,0 -0.096,0 -0.096,0 -2.112,0 -3.84,-1.728 -3.84,-3.84 z m 103.68,13.632 c 0,-2.016 1.632,-3.744 3.648,-3.84 5.568,-0.192 32.352,-0.288 32.64,-0.288 0.096,0 0.096,0 0.096,0 2.112,0 3.84,1.632 3.84,3.84 0,2.016 -1.632,3.744 -3.744,3.84 -4.704,0.096 -24.768,0 -32.544,0.288 0,0 -0.096,0 -0.096,0 -2.112,0 -3.84,-1.728 -3.84,-3.84 z m 0,-13.632 c 0,-2.016 1.632,-3.744 3.648,-3.84 5.568,-0.192 32.352,-0.288 32.64,-0.288 0.096,0 0.096,0 0.096,0 2.112,0 3.84,1.632 3.84,3.84 0,2.016 -1.632,3.744 -3.744,3.84 -4.704,0.096 -24.768,0 -32.544,0.288 0,0 -0.096,0 -0.096,0 -2.112,0 -3.84,-1.728 -3.84,-3.84 z m 40.32,13.632 c 0,-2.016 1.632,-3.744 3.648,-3.84 5.568,-0.192 39.936,-0.288 40.32,-0.288 0.096,0 0.096,0 0.096,0 2.112,0 3.84,1.632 3.84,3.84 0,2.016 -1.632,3.744 -3.744,3.84 -0.384,0 -35.04,0.096 -40.224,0.288 0,0 -0.096,0 -0.096,0 -2.112,0 -3.84,-1.728 -3.84,-3.84 z m 0,-13.632 c 0,-2.016 1.632,-3.744 3.648,-3.84 5.568,-0.192 39.936,-0.288 40.32,-0.288 0.096,0 0.096,0 0.096,0 2.112,0 3.84,1.632 3.84,3.84 0,2.016 -1.632,3.744 -3.744,3.84 -0.384,0 -35.04,0.096 -40.224,0.288 0,0 -0.096,0 -0.096,0 -2.112,0 -3.84,-1.728 -3.84,-3.84 z m 48,13.632 c 0,-2.016 1.632,-3.744 3.648,-3.84 5.568,-0.192 39.936,-0.288 40.32,-0.288 0.096,0 0.096,0 0.096,0 2.112,0 3.84,1.632 3.84,3.84 0,2.016 -1.632,3.744 -3.744,3.84 -0.384,0 -35.04,0.096 -40.224,0.288 0,0 -0.096,0 -0.096,0 -2.112,0 -3.84,-1.728 -3.84,-3.84 z m 0,-13.632 c 0,-2.016 1.632,-3.744 3.648,-3.84 5.568,-0.192 39.936,-0.288 40.32,-0.288 0.096,0 0.096,0 0.096,0 2.112,0 3.84,1.632 3.84,3.84 0,2.016 -1.632,3.744 -3.744,3.84 -0.384,0 -35.04,0.096 -40.224,0.288 0,0 -0.096,0 -0.096,0 -2.112,0 -3.84,-1.728 -3.84,-3.84 z m 48,13.632 c 0,-2.016 1.632,-3.744 3.648,-3.84 5.568,-0.192 32.352,-0.288 32.64,-0.288 0.096,0 0.096,0 0.096,0 2.112,0 3.84,1.632 3.84,3.84 0,2.016 -1.632,3.744 -3.744,3.84 -4.704,0.096 -24.768,0 -32.544,0.288 0,0 -0.096,0 -0.096,0 -2.112,0 -3.84,-1.728 -3.84,-3.84 z m 0,-13.632 c 0,-2.016 1.632,-3.744 3.648,-3.84 5.568,-0.192 32.352,-0.288 32.64,-0.288 0.096,0 0.096,0 0.096,0 2.112,0 3.84,1.632 3.84,3.84 0,2.016 -1.632,3.744 -3.744,3.84 -4.704,0.096 -24.768,0 -32.544,0.288 0,0 -0.096,0 -0.096,0 -2.112,0 -3.84,-1.728 -3.84,-3.84 z m 103.68,7.584 c 0,-2.016 1.632,-3.744 3.648,-3.84 5.568,-0.192 32.352,-0.288 32.64,-0.288 0.096,0 0.096,0 0.096,0 2.112,0 3.84,1.632 3.84,3.84 0,2.016 -1.632,3.744 -3.744,3.744 -4.608,0.192 -24.864,0.096 -32.544,0.384 0,0 -0.096,0 -0.096,0 -2.112,0 -3.84,-1.728 -3.84,-3.84 z m 40.32,0 c 0,-2.016 1.632,-3.744 3.648,-3.84 5.568,-0.192 32.352,-0.288 32.64,-0.288 0.096,0 0.096,0 0.096,0 2.112,0 3.84,1.632 3.84,3.84 0,2.016 -1.632,3.744 -3.744,3.744 -4.608,0.192 -24.864,0.096 -32.544,0.384 0,0 -0.096,0 -0.096,0 -2.112,0 -3.84,-1.728 -3.84,-3.84 z"
       id="text1"
       style="font-size:96px;line-height:1;font-family:honchokomono;-inkscape-font-specification:'honchokomono, Normal';letter-spacing:0px;word-spacing:0px;white-space:pre;fill:#ffffff;stroke-width:5;stroke-linecap:round;stroke-linejoin:round"
       transform="matrix(0.26458333,0,0,0.26458333,26.406012,77.761359)"
       aria-label="! = !=  + + ++&#10;&lt; = &lt;=  &gt; = &gt;=&#10;---========---&#10;&lt;- &lt;-&gt; -&gt; ----&#10;== === ==== --" />
  </g>
</svg>
