<?xml version="1.0" encoding="UTF-8" standalone="no"?>
<!-- Created with Inkscape (http://www.inkscape.org/) -->

<svg
   width="198.64149mm"
   height="104.94091mm"
   viewBox="0 0 198.64149 104.94091"
   version="1.1"
   id="svg1"
   inkscape:export-filename="bitmap.png"
   inkscape:export-xdpi="192"
   inkscape:export-ydpi="192"
   inkscape:version="1.3.2 (091e20ef0f, 2023-11-25)"
   sodipodi:docname="ligatures.svg"
   xmlns:inkscape="http://www.inkscape.org/namespaces/inkscape"
   xmlns:sodipodi="http://sodipodi.sourceforge.net/DTD/sodipodi-0.dtd"
   xmlns="http://www.w3.org/2000/svg"
   xmlns:svg="http://www.w3.org/2000/svg">
  <sodipodi:namedview
     id="namedview1"
     pagecolor="#ffffff"
     bordercolor="#000000"
     borderopacity="0.25"
     inkscape:showpageshadow="2"
     inkscape:pageopacity="0.0"
     inkscape:pagecheckerboard="0"
     inkscape:deskcolor="#d1d1d1"
     inkscape:document-units="mm"
     inkscape:export-bgcolor="#001122ff"
     inkscape:zoom="0.61620707"
     inkscape:cx="323.75481"
     inkscape:cy="183.37991"
     inkscape:window-width="948"
     inkscape:window-height="1032"
     inkscape:window-x="964"
     inkscape:window-y="40"
     inkscape:window-maximized="0"
     inkscape:current-layer="layer1" />
  <defs
     id="defs1">
    <rect
       x="124.99415"
       y="93.540749"
       width="1243.6827"
       height="538.49298"
       id="rect6" />
    <rect
       x="140.27733"
       y="110.74366"
       width="653.62219"
       height="366.3573"
       id="rect5" />
    <rect
       x="90.604599"
       y="45.608833"
       width="561.20508"
       height="372.19528"
       id="rect4" />
    <rect
       x="150.97844"
       y="95.561829"
       width="768.93414"
       height="200.66437"
       id="rect3" />
    <rect
       x="46.930706"
       y="362.35468"
       width="771.78345"
       height="343.57535"
       id="rect1" />
  </defs>
  <g
     inkscape:label="Layer 1"
     inkscape:groupmode="layer"
     id="layer1"
     transform="translate(-39.158744,-110.50565)">
    <rect
       style="fill:#001122;fill-opacity:1;stroke-width:52.3956;stroke-linecap:round;stroke-linejoin:round"
       id="rect2"
       width="198.64148"
       height="104.9409"
       x="39.158745"
       y="110.50565" />
    <path
       d="m 52.640201,129.3719 c 0,-0.5334 0.4318,-0.9906 0.9652,-1.016 2.7432,-0.1016 4.2672,-0.0254 6.604,-0.0762 0.0254,0 0.0254,0 0.0254,0 0.5588,0 1.016,0.4318 1.016,1.016 0,0.5334 -0.4318,0.9906 -0.9906,0.9906 -0.0508,0.0254 -5.1054,0.0508 -6.5786,0.1016 0,0 -0.0254,0 -0.0254,0 -0.5588,0 -1.016,-0.4572 -1.016,-1.016 z m 25.806399,4.1656 c 0,-0.381 0.2032,-0.7112 0.508,-0.889 1.1684,-0.6604 2.8194,-2.1844 4.5212,-3.3782 -1.4732,-1.0668 -3.2766,-2.3368 -4.572,-3.1242 -0.2794,-0.1778 -0.4826,-0.508 -0.4826,-0.8636 0,-0.6096 0.4826,-1.016 1.016,-1.016 0.1778,0 0.3556,0.0254 0.5334,0.127 1.3208,0.8128 1.5748,0.9906 5.8674,4.0894 0.3048,0.2032 0.4318,0.508 0.4318,0.8128 0,0.3556 -0.1524,0.6858 -0.4826,0.889 -2.159,1.27 -4.1148,3.2512 -5.8166,4.2164 -0.1524,0.1016 -0.3302,0.1524 -0.508,0.1524 -0.5334,0 -1.016,-0.4318 -1.016,-1.016 z m 38.354,-5.1816 c 0.3556,0 0.6604,0 0.9652,0 -1.1684,-0.8128 -2.3622,-1.651 -3.302,-2.2098 -0.2794,-0.1778 -0.4826,-0.508 -0.4826,-0.8636 0,-0.6096 0.4826,-1.016 1.016,-1.016 0.1778,0 0.3556,0.0254 0.5334,0.127 1.4986,0.9398 3.5052,2.3876 5.0546,3.5052 1.1684,0.8382 1.2446,0.889 1.2446,1.397 0,0.5334 -0.381,0.8128 -0.4826,0.889 -2.5146,1.524 -4.064,3.2258 -5.8166,4.2164 -0.1524,0.1016 -0.3302,0.1524 -0.508,0.1524 -0.5334,0 -1.016,-0.4318 -1.016,-1.016 0,-0.381 0.2032,-0.7112 0.508,-0.889 0.8128,-0.4572 1.8796,-1.3462 3.0226,-2.2606 -0.254,0 -0.4826,0 -0.7366,0 -1.8796,0 -3.7084,-0.0254 -5.5372,-0.0254 -2.6162,0 -4.0132,0.0762 -4.064,0.0762 -0.5588,0 -1.016,-0.4572 -1.016,-1.016 0,-0.5334 0.4318,-0.9906 0.9652,-1.016 1.3716,-0.0508 2.7432,-0.0762 4.1148,-0.0762 1.8288,0 3.683,0.0254 5.5372,0.0254 z m 41.6814,-4.2926 c 0.5334,0 0.9906,0.4318 1.016,0.9652 0.0508,1.0414 0.0762,1.9304 0.1016,2.7686 0.6858,0 1.397,0 2.2098,-0.0254 0.0254,0 0.0254,0 0.0254,0 0.5588,0 1.016,0.4572 1.016,1.016 0,0.5588 -0.4318,1.016 -0.9906,1.016 -0.8382,0.0254 -1.5494,0.0254 -2.2352,0.0254 0,0.8636 0,1.7526 0.0254,2.7686 0,0 0,0.0254 0,0.0254 0,0.5588 -0.4572,1.016 -1.016,1.016 -0.5588,0 -1.016,-0.4572 -1.016,-0.9906 -0.0254,-1.0668 -0.0254,-1.9558 -0.0254,-2.794 -0.6858,0 -1.4224,0.0254 -2.3114,0.0508 0,0 -0.0254,0 -0.0254,0 -0.5588,0 -1.016,-0.4572 -1.016,-1.016 0,-0.5334 0.4318,-0.9906 0.9652,-1.016 0.889,-0.0254 1.651,-0.0508 2.3622,-0.0508 -0.0254,-0.8382 -0.0508,-1.6764 -0.1016,-2.667 0,-0.0254 0,-0.0508 0,-0.0762 0,-0.5588 0.4572,-1.016 1.016,-1.016 z m 25.4,0 c 0.5334,0 0.9906,0.4318 1.016,0.9652 0.0508,1.0414 0.0762,1.9304 0.1016,2.7686 0.6858,0 1.397,0 2.2098,-0.0254 0.0254,0 0.0254,0 0.0254,0 0.5588,0 1.016,0.4572 1.016,1.016 0,0.5588 -0.4318,1.016 -0.9906,1.016 -0.8382,0.0254 -1.5494,0.0254 -2.2352,0.0254 0,0.8636 0,1.7526 0.0254,2.7686 0,0 0,0.0254 0,0.0254 0,0.5588 -0.4572,1.016 -1.016,1.016 -0.5588,0 -1.016,-0.4572 -1.016,-0.9906 -0.0254,-1.0668 -0.0254,-1.9558 -0.0254,-2.794 -0.6858,0 -1.4224,0.0254 -2.3114,0.0508 0,0 -0.0254,0 -0.0254,0 -0.5588,0 -1.016,-0.4572 -1.016,-1.016 0,-0.5334 0.4318,-0.9906 0.9652,-1.016 0.889,-0.0254 1.651,-0.0508 2.3622,-0.0508 -0.0254,-0.8382 -0.0508,-1.6764 -0.1016,-2.667 0,-0.0254 0,-0.0508 0,-0.0762 0,-0.5588 0.4572,-1.016 1.016,-1.016 z m 28.6258,5.7912 c 0,0.8382 0,1.7272 0.0254,2.7432 0,0 0,0.0254 0,0.0254 0,0.5588 -0.4572,1.016 -1.016,1.016 -0.5588,0 -1.016,-0.4572 -1.016,-0.9906 -0.0254,-1.0668 -0.0254,-1.9558 -0.0254,-2.794 -1.4986,0 -2.3114,0.0508 -2.3368,0.0508 -0.5588,0 -1.016,-0.4572 -1.016,-1.016 0,-0.5334 0.4318,-0.9906 0.9652,-1.016 0.889,-0.0254 1.651,-0.0508 2.3622,-0.0508 -0.0254,-0.8382 -0.0508,-1.6764 -0.1016,-2.667 0,-0.0254 0,-0.0508 0,-0.0762 0,-0.5588 0.4572,-1.016 1.016,-1.016 0.5334,0 0.9906,0.4318 1.016,0.9652 0.0508,1.0414 0.0762,1.9304 0.1016,2.794 3.1496,0 3.6322,-0.0508 6.1976,-0.0762 -0.0254,-0.8128 -0.0508,-1.6764 -0.1016,-2.667 0,-0.0254 0,-0.0508 0,-0.0762 0,-0.5588 0.4572,-1.016 1.016,-1.016 0.5334,0 0.9652,0.4318 1.016,0.9652 0.0508,1.0414 0.0762,1.9304 0.1016,2.794 0.7366,0 1.4478,-0.0254 2.2098,-0.0254 0.0254,0 0.0254,0 0.0254,0 0.5588,0 1.016,0.4572 1.016,1.016 0,0.5334 -0.4318,0.9906 -0.9906,1.016 -0.8128,0.0254 -1.524,0.0254 -2.2606,0.0254 0,0.8382 0.0254,1.7272 0.0254,2.7432 0,0.0254 0,0.0254 0,0.0254 0,0.5588 -0.4318,1.016 -1.016,1.016 -0.5334,0 -0.9906,-0.4318 -1.016,-0.9906 0,-1.0414 -0.0254,-1.9558 -0.0254,-2.794 -0.0508,0 -4.4958,0.0762 -6.1722,0.0762 z"
       id="path1"
       style="font-size:96px;font-family:honchokomono;-inkscape-font-specification:'honchokomono, Normal';white-space:pre;fill:#ffffff;stroke-width:18.5208;stroke-linecap:round;stroke-linejoin:round" />
    <path
       d="m 55.383401,168.8435 c 0,-0.9398 0.7366,-1.524 1.524,-1.524 0.4064,0 0.8128,0.1524 1.143,0.508 0.3048,0.3048 0.4318,0.7112 0.4318,1.0922 0,0.7874 -0.5842,1.524 -1.4986,1.524 -0.8636,0 -1.6002,-0.762 -1.6002,-1.6002 z m 2.4384,-5.0292 c 0,0.5588 -0.4572,1.016 -1.016,1.016 -0.5588,0 -1.016,-0.4318 -1.016,-0.9906 0,-0.254 0,-0.5334 0,-0.7874 0,-2.2098 0.1524,-4.6228 0.1524,-6.7818 0,-2.032 -0.1778,-3.175 -0.1778,-3.2004 0,-0.5588 0.4572,-1.016 1.016,-1.016 0.5334,0 0.9652,0.4064 1.016,0.889 0.127,1.0414 0.1778,2.159 0.1778,3.3274 0,1.1176 -0.0508,2.286 -0.0762,3.4544 -0.0508,1.143 -0.0762,2.2606 -0.0762,3.302 0,0.4572 0,0.7874 0,0.7874 z M 78.0402,162.7221 c 0,-0.5334 0.4318,-0.9906 0.9652,-1.016 2.7432,-0.1016 4.2672,-0.0254 6.604,-0.0762 0.0254,0 0.0254,0 0.0254,0 0.5588,0 1.016,0.4318 1.016,1.016 0,0.5334 -0.4318,0.9906 -0.9906,1.016 -0.0508,0 -5.1054,0.0254 -6.5786,0.0762 0,0 -0.0254,0 -0.0254,0 -0.5588,0 -1.016,-0.4572 -1.016,-1.016 z m 0,-3.6068 c 0,-0.5334 0.4318,-0.9906 0.9652,-1.016 2.7432,-0.1016 4.2672,-0.0254 6.604,-0.0762 0.0254,0 0.0254,0 0.0254,0 0.5588,0 1.016,0.4318 1.016,1.016 0,0.5334 -0.4318,0.9906 -0.9906,1.016 -0.0508,0 -5.1054,0.0254 -6.5786,0.0762 0,0 -0.0254,0 -0.0254,0 -0.5588,0 -1.016,-0.4572 -1.016,-1.016 z m 40.0558,-3.1496 c -0.3302,0.6096 -0.7112,1.3208 -1.1176,2.0828 0.1524,0 0.2794,0 0.381,0 4.5974,0 4.318,-0.0254 4.3434,-0.0254 0.5588,0 1.016,0.4318 1.016,1.016 0,0.5334 -0.4318,0.9906 -0.9906,1.016 -1.0922,0.0254 -1.9812,0.0254 -2.9972,0.0254 -1.0922,0 -2.0828,0 -2.921,0 -0.3048,0.5334 -0.6096,1.0668 -0.9144,1.5748 0.9652,0 1.9812,0 2.4638,0 4.5974,0 4.318,-0.0254 4.3434,-0.0254 0.5588,0 1.016,0.4318 1.016,1.016 0,0.5334 -0.4318,0.9906 -0.9906,1.016 -1.0922,0.0254 -1.9812,0.0254 -2.9972,0.0254 -2.1844,0 -3.937,0 -5.0038,0 -0.7874,1.397 -1.3716,2.5146 -1.4986,3.048 -0.0254,0.5334 -0.4826,0.9398 -1.016,0.9398 -0.5588,0 -1.016,-0.4572 -1.016,-1.016 0,-0.5588 0.4064,-1.4732 1.1938,-2.9464 -0.9144,-0.0254 -2.1082,-0.0254 -2.1082,-0.0254 -1.7526,0 -2.667,0.0508 -2.794,0.0508 -0.5588,0 -1.016,-0.4572 -1.016,-1.016 0,-0.5334 0.4318,-0.9906 0.9652,-1.016 1.0922,-0.0254 1.9558,-0.0508 2.8448,-0.0508 0.0254,0 2.921,0.0254 3.2004,0.0254 0.0254,0 0.0254,0 0.0508,0 0.2794,-0.4826 0.5842,-0.9906 0.9144,-1.6002 -0.5842,0.0254 -0.9398,0.0254 -0.9652,0.0254 -0.3048,0 -3.175,-0.0254 -3.2004,-0.0254 -1.7526,0 -2.667,0.0508 -2.794,0.0508 -0.5588,0 -1.016,-0.4572 -1.016,-1.016 0,-0.5334 0.4318,-0.9906 0.9652,-1.016 1.0922,-0.0254 1.9558,-0.0508 2.8448,-0.0508 0.0254,0 2.921,0.0254 3.2004,0.0254 0,0 1.0414,-0.0254 2.159,-0.0254 0.6096,-1.0922 1.1938,-2.1336 1.6256,-2.9972 0.1778,-0.3302 0.508,-0.5588 0.9144,-0.5588 0.5842,0 1.016,0.4826 1.016,1.016 0,0.1524 -0.0254,0.3048 -0.1016,0.4572 z m 36.1442,6.7564 c 0,-0.5334 0.4318,-0.9906 0.9652,-1.016 2.7432,-0.1016 4.2672,-0.0254 6.604,-0.0762 0.0254,0 0.0254,0 0.0254,0 0.5588,0 1.016,0.4318 1.016,1.016 0,0.5334 -0.4318,0.9906 -0.9906,1.016 -0.0508,0 -5.1054,0.0254 -6.5786,0.0762 0,0 -0.0254,0 -0.0254,0 -0.5588,0 -1.016,-0.4572 -1.016,-1.016 z m 0,-3.6068 c 0,-0.5334 0.4318,-0.9906 0.9652,-1.016 2.7432,-0.1016 4.2672,-0.0254 6.604,-0.0762 0.0254,0 0.0254,0 0.0254,0 0.5588,0 1.016,0.4318 1.016,1.016 0,0.5334 -0.4318,0.9906 -0.9906,1.016 -0.0508,0 -5.1054,0.0254 -6.5786,0.0762 0,0 -0.0254,0 -0.0254,0 -0.5588,0 -1.016,-0.4572 -1.016,-1.016 z m 25.4,3.6068 c 0,-0.5334 0.4318,-0.9906 0.9652,-1.016 2.7432,-0.1016 4.2672,-0.0254 6.604,-0.0762 0.0254,0 0.0254,0 0.0254,0 0.5588,0 1.016,0.4318 1.016,1.016 0,0.5334 -0.4318,0.9906 -0.9906,1.016 -0.0508,0 -5.1054,0.0254 -6.5786,0.0762 0,0 -0.0254,0 -0.0254,0 -0.5588,0 -1.016,-0.4572 -1.016,-1.016 z m 0,-3.6068 c 0,-0.5334 0.4318,-0.9906 0.9652,-1.016 2.7432,-0.1016 4.2672,-0.0254 6.604,-0.0762 0.0254,0 0.0254,0 0.0254,0 0.5588,0 1.016,0.4318 1.016,1.016 0,0.5334 -0.4318,0.9906 -0.9906,1.016 -0.0508,0 -5.1054,0.0254 -6.5786,0.0762 0,0 -0.0254,0 -0.0254,0 -0.5588,0 -1.016,-0.4572 -1.016,-1.016 z m 36.068,3.6068 c 0,-0.5334 0.4318,-0.9906 0.9652,-1.016 2.7432,-0.1016 4.2672,-0.0254 6.604,-0.0762 0.0254,0 0.0254,0 0.0254,0 0.5588,0 1.016,0.4318 1.016,1.016 0,0.5334 -0.4318,0.9906 -0.9906,1.016 -0.0508,0 -5.1054,0.0254 -6.5786,0.0762 0,0 -0.0254,0 -0.0254,0 -0.5588,0 -1.016,-0.4572 -1.016,-1.016 z m 0,-3.6068 c 0,-0.5334 0.4318,-0.9906 0.9652,-1.016 2.7432,-0.1016 4.2672,-0.0254 6.604,-0.0762 0.0254,0 0.0254,0 0.0254,0 0.5588,0 1.016,0.4318 1.016,1.016 0,0.5334 -0.4318,0.9906 -0.9906,1.016 -0.0508,0 -5.1054,0.0254 -6.5786,0.0762 0,0 -0.0254,0 -0.0254,0 -0.5588,0 -1.016,-0.4572 -1.016,-1.016 z m -8.636,3.6068 c 0,-0.5334 0.4318,-0.9906 0.9652,-1.016 2.7432,-0.1016 4.2672,-0.0254 6.604,-0.0762 0.0254,0 0.0254,0 0.0254,0 0.5588,0 1.016,0.4318 1.016,1.016 0,0.5334 -0.4318,0.9906 -0.9906,1.016 -0.0508,0 -5.1054,0.0254 -6.5786,0.0762 0,0 -0.0254,0 -0.0254,0 -0.5588,0 -1.016,-0.4572 -1.016,-1.016 z m 0,-3.6068 c 0,-0.5334 0.4318,-0.9906 0.9652,-1.016 2.7432,-0.1016 4.2672,-0.0254 6.604,-0.0762 0.0254,0 0.0254,0 0.0254,0 0.5588,0 1.016,0.4318 1.016,1.016 0,0.5334 -0.4318,0.9906 -0.9906,1.016 -0.0508,0 -5.1054,0.0254 -6.5786,0.0762 0,0 -0.0254,0 -0.0254,0 -0.5588,0 -1.016,-0.4572 -1.016,-1.016 z"
       id="path2"
       style="font-size:96px;font-family:honchokomono;-inkscape-font-specification:'honchokomono, Normal';white-space:pre;fill:#ffffff;stroke-width:18.5208;stroke-linecap:round;stroke-linejoin:round" />
    <path
       d="m 59.396601,197.5201 c -2.0066,-0.8128 -3.9624,-2.4892 -6.0198,-4.2672 -0.254,-0.2032 -0.3556,-0.508 -0.3556,-0.7874 0,-0.3048 0.127,-0.6096 0.4064,-0.8128 2.54,-1.905 4.445,-3.302 5.9436,-4.1148 0.1524,-0.0762 0.3302,-0.1016 0.4826,-0.1016 0.5334,0 1.016,0.4064 1.016,1.016 0,0.381 -0.2032,0.7112 -0.5334,0.889 -1.1938,0.635 -3.0988,2.032 -4.6736,3.2004 1.8288,1.5494 3.2512,2.5908 4.4958,3.1242 0.381,0.1524 0.635,0.508 0.635,0.9398 0,0.5842 -0.4826,1.016 -1.016,1.016 -0.127,0 -0.254,-0.0254 -0.381,-0.1016 z m 18.643599,-3.048 c 0,-0.5334 0.4318,-0.9906 0.9652,-1.016 2.7432,-0.1016 4.2672,-0.0254 6.604,-0.0762 0.0254,0 0.0254,0 0.0254,0 0.5588,0 1.016,0.4318 1.016,1.016 0,0.5334 -0.4318,0.9906 -0.9906,1.016 -0.0508,0 -5.1054,0.0254 -6.5786,0.0762 0,0 -0.0254,0 -0.0254,0 -0.5588,0 -1.016,-0.4572 -1.016,-1.016 z m 0,-3.6068 c 0,-0.5334 0.4318,-0.9906 0.9652,-1.016 2.7432,-0.1016 4.2672,-0.0254 6.604,-0.0762 0.0254,0 0.0254,0 0.0254,0 0.5588,0 1.016,0.4318 1.016,1.016 0,0.5334 -0.4318,0.9906 -0.9906,1.016 -0.0508,0 -5.1054,0.0254 -6.5786,0.0762 0,0 -0.0254,0 -0.0254,0 -0.5588,0 -1.016,-0.4572 -1.016,-1.016 z m 29.4132,4.2418 c 0.9906,0.2794 2.1844,0.6096 3.5052,0.9652 3.7846,1.0414 8.2804,2.2352 10.16,3.0226 0.381,0.1524 0.635,0.508 0.635,0.9398 0,0.5842 -0.4826,1.016 -1.016,1.016 -0.127,0 -0.254,-0.0254 -0.381,-0.0762 -1.6256,-0.6604 -6.1722,-1.905 -9.9314,-2.9464 -1.3208,-0.3556 -2.54,-0.6858 -3.5052,-0.9652 -0.4318,-0.1016 -0.762,-0.508 -0.762,-0.9652 0,-0.5842 0.4826,-1.016 1.016,-1.016 0.1016,0 0.2032,0 0.2794,0.0254 z m 12.9032,2.413 c -1.9304,-0.7874 -11.6586,-2.5654 -13.6398,-4.2672 -0.254,-0.2032 -0.3556,-0.508 -0.3556,-0.7874 0,-0.3048 0.127,-0.6096 0.4064,-0.8128 1.9304,-1.4224 12.1158,-3.302 13.5636,-4.1148 0.1524,-0.0762 0.3302,-0.1016 0.4826,-0.1016 0.5334,0 1.016,0.4064 1.016,1.016 0,0.381 -0.2032,0.7112 -0.5334,0.889 -1.4986,0.8128 -7.5438,1.9558 -11.43,3.2004 3.556,1.2446 9.5504,2.413 11.2522,3.1242 0.381,0.1524 0.635,0.508 0.635,0.9398 0,0.5842 -0.4826,1.016 -1.016,1.016 -0.127,0 -0.254,-0.0254 -0.381,-0.1016 z m 34.29,-0.4826 c 0,-0.381 0.2032,-0.7112 0.508,-0.889 1.1684,-0.6604 2.8194,-2.1844 4.5212,-3.3782 -1.4732,-1.0668 -3.2766,-2.3368 -4.572,-3.1242 -0.2794,-0.1778 -0.4826,-0.508 -0.4826,-0.8636 0,-0.6096 0.4826,-1.016 1.016,-1.016 0.1778,0 0.3556,0.0254 0.5334,0.127 1.3208,0.8128 1.5748,0.9906 5.8674,4.0894 0.3048,0.2032 0.4318,0.508 0.4318,0.8128 0,0.3556 -0.1524,0.6858 -0.4826,0.889 -2.159,1.27 -4.1148,3.2512 -5.8166,4.2164 -0.1524,0.1016 -0.3302,0.1524 -0.508,0.1524 -0.5334,0 -1.016,-0.4318 -1.016,-1.016 z m 24.9936,-2.5654 c 0,-0.5334 0.4318,-0.9906 0.9652,-1.016 2.7432,-0.1016 4.2672,-0.0254 6.604,-0.0762 0.0254,0 0.0254,0 0.0254,0 0.5588,0 1.016,0.4318 1.016,1.016 0,0.5334 -0.4318,0.9906 -0.9906,1.016 -0.0508,0 -5.1054,0.0254 -6.5786,0.0762 0,0 -0.0254,0 -0.0254,0 -0.5588,0 -1.016,-0.4572 -1.016,-1.016 z m 0,-3.6068 c 0,-0.5334 0.4318,-0.9906 0.9652,-1.016 2.7432,-0.1016 4.2672,-0.0254 6.604,-0.0762 0.0254,0 0.0254,0 0.0254,0 0.5588,0 1.016,0.4318 1.016,1.016 0,0.5334 -0.4318,0.9906 -0.9906,1.016 -0.0508,0 -5.1054,0.0254 -6.5786,0.0762 0,0 -0.0254,0 -0.0254,0 -0.5588,0 -1.016,-0.4572 -1.016,-1.016 z m 28.5496,9.6266 c 0,-0.4064 0.254,-0.762 0.6096,-0.9144 4.318,-1.905 10.0584,-2.794 13.1572,-4.445 0.1524,-0.0762 0.3048,-0.127 0.4572,-0.127 0.5334,0 1.016,0.4318 1.016,1.016 0,0.4064 -0.2032,0.7366 -0.5334,0.9144 -3.429,1.8288 -9.0678,2.6416 -13.2842,4.4958 -0.127,0.0508 -0.2794,0.0762 -0.4064,0.0762 -0.5334,0 -1.016,-0.4318 -1.016,-1.016 z m -0.2032,-3.4544 c 0,-0.381 0.2032,-0.7112 0.508,-0.889 1.4478,-0.8128 7.2898,-2.0828 11.1252,-3.3274 -3.8608,-1.1176 -9.652,-2.2606 -11.176,-3.175 -0.2794,-0.1778 -0.4826,-0.508 -0.4826,-0.8636 0,-0.6096 0.4826,-1.016 1.016,-1.016 0.1778,0 0.3556,0.0254 0.5334,0.127 1.5494,0.9652 11.6586,2.7686 13.4874,4.0894 0.3048,0.2032 0.4318,0.508 0.4318,0.8128 0,0.3556 -0.1524,0.6858 -0.4826,0.889 -2.3622,1.397 -12.0904,3.4544 -13.4366,4.2164 -0.1524,0.1016 -0.3302,0.1524 -0.508,0.1524 -0.5334,0 -1.016,-0.4318 -1.016,-1.016 z"
       id="path3"
       style="font-size:96px;font-family:honchokomono;-inkscape-font-specification:'honchokomono, Normal';white-space:pre;fill:#ffffff;stroke-width:18.5208;stroke-linecap:round;stroke-linejoin:round" />
  </g>
</svg>
