<?xml version="1.0" encoding="UTF-8" standalone="no"?>
<!-- Created with Inkscape (http://www.inkscape.org/) -->

<svg
   width="162.78616mm"
   height="104.88274mm"
   viewBox="0 0 162.78616 104.88274"
   version="1.1"
   id="svg1"
   inkscape:export-filename="bitmap.png"
   inkscape:export-xdpi="192"
   inkscape:export-ydpi="192"
   inkscape:version="1.3.2 (091e20ef0f, 2023-11-25)"
   sodipodi:docname="styles.svg"
   xmlns:inkscape="http://www.inkscape.org/namespaces/inkscape"
   xmlns:sodipodi="http://sodipodi.sourceforge.net/DTD/sodipodi-0.dtd"
   xmlns="http://www.w3.org/2000/svg"
   xmlns:svg="http://www.w3.org/2000/svg">
  <sodipodi:namedview
     id="namedview1"
     pagecolor="#ffffff"
     bordercolor="#000000"
     borderopacity="0.25"
     inkscape:showpageshadow="2"
     inkscape:pageopacity="0.0"
     inkscape:pagecheckerboard="0"
     inkscape:deskcolor="#d1d1d1"
     inkscape:document-units="mm"
     inkscape:export-bgcolor="#001122ff"
     inkscape:zoom="1.4901048"
     inkscape:cx="328.50038"
     inkscape:cy="183.87968"
     inkscape:window-width="1920"
     inkscape:window-height="1048"
     inkscape:window-x="0"
     inkscape:window-y="32"
     inkscape:window-maximized="1"
     inkscape:current-layer="layer1" />
  <defs
     id="defs1">
    <rect
       x="90.604599"
       y="45.608833"
       width="561.20508"
       height="372.19528"
       id="rect4" />
    <rect
       x="150.97844"
       y="95.561829"
       width="768.93414"
       height="200.66437"
       id="rect3" />
    <rect
       x="46.930706"
       y="362.35468"
       width="771.78345"
       height="343.57535"
       id="rect1" />
  </defs>
  <g
     inkscape:label="Layer 1"
     inkscape:groupmode="layer"
     id="layer1"
     transform="translate(-21.830109,-93.270671)">
    <rect
       style="fill:#001122;fill-opacity:1;stroke-width:52.3956;stroke-linecap:round;stroke-linejoin:round"
       id="rect2"
       width="162.78616"
       height="104.88275"
       x="21.830109"
       y="93.270668" />
    <g
       id="text3"
       style="font-size:96px;font-family:honchokomono;-inkscape-font-specification:'honchokomono, Normal';white-space:pre;fill:#dddddd;stroke-width:70;stroke-linecap:round;stroke-linejoin:round"
       transform="matrix(0.26458333,0,0,0.26458333,9.3676534,86.47196)"
       aria-label="light italic&#10;regular italic&#10;bold italic">
      <path
         style="font-weight:300;-inkscape-font-specification:'honchokomono, Light'"
         d="m 105.67747,130.15919 c 8.64,0 16.128,-9.216 16.128,-13.728 0,-1.056 -0.864,-1.92 -1.92,-1.92 -0.96,0 -1.728,0.672 -1.824,1.632 -0.672,4.416 -7.008,10.176 -12.384,10.176 -2.112,0 -4.032,-2.208 -4.032,-14.592 0,-9.984 3.744,-26.783997 3.744,-39.071997 0,-1.056 -0.864,-1.92 -1.92,-1.92 -1.056,0 -1.92,0.864 -1.92,1.92 0,11.52 -3.744001,28.127997 -3.744001,39.071997 0,7.104 0.192,18.432 7.872001,18.432 z m 35.80796,-15.36 c 0,-7.488 1.728,-15.647997 1.728,-16.223997 0,-1.056 -0.864,-1.92 -1.92,-1.92 -0.96,0 -1.632,0.768 -1.824,1.632 -0.768,3.935997 -1.728,10.175997 -1.728,16.223997 0,8.448 2.016,16.32 9.792,16.32 7.584,0 11.04,-7.488 11.04,-9.792 0,-1.056 -0.864,-1.92 -1.92,-1.92 -0.96,0 -1.632,0.768 -1.824,1.632 -0.576,2.88 -3.648,6.24 -7.296,6.24 -1.632,0 -6.048,-0.192 -6.048,-12.192 z m -2.688,-30.239997 c 0,3.168 2.784,6.048 6.048,6.048 3.168,0 5.76,-2.592 5.76,-5.76 0,-3.168 -2.688,-6.048 -6.048,-6.048 -3.072,0 -5.76,2.496 -5.76,5.76 z m 33.79197,32.351997 c 0,13.056 9.504,13.824 11.616,13.824 8.736,0 13.152,-6.24 14.496,-8.64 0.096,2.976 0.096,5.664 0.096,7.296 0,19.008 -10.08,20.16 -15.072,20.16 -12.48,0 -7.008,-9.408 -11.232,-9.408 -1.056,0 -1.92,0.864 -1.92,1.92 0,2.4 0.864,11.328 13.152,11.328 15.648,0 18.912,-13.152 18.912,-24 0,-16.032 -1.44,-26.688 -1.44,-26.976 -0.192,-1.44 -4.8,-5.951997 -11.424,-5.951997 -9.312,0 -17.184,11.231997 -17.184,20.447997 z m 3.84,0 c 0,-7.2 6.528,-16.608 13.344,-16.608 3.36,0 5.856,1.44 7.68,3.264 0.288,1.92 0.384,3.648 0.384,5.376 0,10.272 -5.088,17.952 -13.632,17.952 -6.816,0 -7.776,-6.336 -7.776,-9.984 z m 51.93596,-20.063997 c -7.104,0 -10.944,5.279997 -12.96,9.791997 0,-12.863997 -0.192,-26.783997 -0.288,-31.679997 0,-1.056 -0.864,-1.824 -1.92,-1.824 h -0.096 c -1.056,0 -1.824,0.864 -1.824,1.92 0,0.48 0.288,22.464 0.288,39.071997 0,5.952 0,11.136 -0.096,14.4 v 0.096 c 0,1.056 0.864,1.92 1.92,1.92 1.056,0 1.824,-0.768 1.92,-1.824 0.288,-6.816 1.152,-28.032 13.056,-28.032 6.432,0 6.432,15.36 6.432,21.12 0,2.112 0,4.32 0,6.72 0,1.056 0.864,1.92 1.92,1.92 1.056,0 1.92,-0.864 1.92,-1.92 0,-1.344 0,-3.744 0,-6.624 0,-8.448 -0.48,-25.055997 -10.272,-25.055997 z m 23.42396,15.743997 c 0,15.84 5.28,19.488 9.888,19.488 6.144,0 13.248,-6.24 13.248,-13.44 0,-1.248 -0.192,-4.896 -2.4,-4.896 -1.056,0 -1.92,0.864 -1.92,1.92 0,0.96 0.48,1.344 0.48,3.072 0,5.28 -5.952,9.504 -9.408,9.504 -4.896,0 -5.952,-8.256 -5.952,-15.648 0,-3.936 0.288,-7.584 0.576,-9.696 1.92,0.192 1.824,0.192 13.248,0.192 1.056,0 1.92,-0.864 1.92,-1.92 0,-1.056 -0.864,-1.919997 -1.92,-1.919997 -1.44,0 -3.168,0.096 -4.992,0.096 -2.688,0 -5.568,-0.096 -7.872,-0.288 0,-0.096 1.44,-11.04 1.44,-13.344 0,-2.4 -0.576,-3.456 -2.016,-3.456 -1.056,0 -1.92,0.864 -1.92,1.92 0,10.464 -2.4,16.319997 -2.4,28.415997 z"
         id="path9" />
      <path
         style="font-style:italic;font-weight:300;-inkscape-font-specification:'honchokomono, Light Italic'"
         d="m 335.55802,95.983193 c -0.48,0 -0.864,0.192 -1.248,0.48 -6.432,5.951997 -6.912,6.431997 -10.56,6.431997 -1.056,0 -1.92,0.864 -1.92,1.92 0,1.248 1.056,2.112 2.784,2.112 1.632,0 3.744,-0.672 6.144,-2.4 -3.456,9.024 -4.704,15.168 -4.704,19.2 0,7.104 3.648,8.16 6.048,8.16 5.664,0 12.576,-9.792 12.576,-11.04 0,-1.056 -0.864,-1.92 -1.92,-1.92 -0.672,0 -1.248,0.288 -1.632,0.768 -5.376,7.872 -8.928,8.352 -9.024,8.352 -0.864,0 -1.152,-0.096 -1.536,-0.864 -0.48,-0.768 -0.768,-2.016 -0.768,-3.36 0,-8.544 7.68,-25.247997 7.68,-25.919997 0,-1.056 -0.864,-1.92 -1.92,-1.92 z m 7.104,-17.184 c -3.552,0 -6.048,3.168 -6.048,6.144 0,3.168 2.592,5.76 5.76,5.76 3.456,0 6.048,-3.072 6.048,-6.144 0,-3.264 -2.784,-5.76 -5.76,-5.76 z m 25.15196,52.799997 c 6.816,0 14.112,-9.12 14.112,-16.896 0,-1.056 -0.864,-1.92 -1.92,-1.92 -1.056,0 -1.92,0.768 -1.92,1.824 -0.384,6.912 -6.24,13.152 -10.272,13.152 -2.112,0 -2.976,-1.344 -2.976,-4.8 0,-5.472 2.4,-14.496 4.32,-20.832 10.848,0 13.44,0 13.44,-2.495997 0,-1.056 -0.864,-1.92 -1.92,-1.92 h -0.384 c -2.4,0.576 -4.992,0.672 -7.68,0.672 -0.672,0 -1.44,-0.096 -2.208,-0.096 4.8,-15.072 4.896,-15.744 4.896,-16.32 0,0 0,0 0,-0.096 0,-1.056 -0.864,-1.92 -1.92,-1.92 -0.864,0 -1.632,0.576 -1.824,1.44 -1.536,5.76 -5.472,16.608 -8.064,26.495997 -1.536,5.472 -2.496,10.56 -2.496,14.592 0,7.488 3.744,9.12 6.816,9.12 z m 56.44796,-32.735997 c 0,-1.056 -0.864,-1.92 -1.92,-1.92 -0.672,0 -1.248,0.384 -1.632,0.864 -2.304,-0.864 -4.416,-1.344 -6.432,-1.344 -11.232,0 -18.432,13.439997 -18.432,23.615997 0,10.656 7.2,11.04 8.448,11.04 3.552,0 8.064,-2.304 12.384,-10.176 0.192,2.88 0.672,5.664 1.728,8.832 0.288,0.768 0.96,1.344 1.824,1.344 1.056,0 1.92,-0.864 1.92,-1.92 0,-1.056 -1.728,-4.032 -1.728,-9.696 0,-8.064 3.84,-18.624 3.84,-20.639997 z m -24.672,21.407997 c 0,-7.968 5.664,-19.968 14.688,-19.968 1.728,0 3.456,0.384 5.376,1.248 -0.288,1.056 -0.48,2.016 -0.672,2.976 -3.552,12.48 -9.024,22.848 -14.784,22.848 -4.128,0 -4.608,-5.088 -4.608,-7.104 z m 39.74397,-33.407997 c 2.976,0 5.664,-2.112 9.504,-6.24 -6.048,20.543997 -10.368,33.311997 -11.52,41.087997 -0.192,0.864 -0.192,1.632 -0.192,2.304 0,4.704 2.592,7.008 6.144,7.008 8.64,0 16.512,-11.808 16.512,-14.496 0,-1.056 -0.864,-1.92 -1.92,-1.92 -0.768,0 -1.44,0.48 -1.728,1.152 -2.784,6.72 -9.312,11.424 -12.96,11.424 -1.536,0 -2.304,-0.96 -2.304,-3.072 0,-7.2 14.304,-49.247997 14.304,-51.647997 0,-1.056 -0.864,-1.92 -1.92,-1.92 -0.576,0 -1.152,0.288 -1.536,0.768 -3.648,4.608 -9.312,11.616 -12.576,11.616 -1.056,0 -1.92,0.864 -1.92,1.92 0,1.92 1.824,2.016 2.112,2.016 z m 49.82396,9.12 c -0.48,0 -0.864,0.192 -1.248,0.48 -6.432,5.951997 -6.912,6.431997 -10.56,6.431997 -1.056,0 -1.92,0.864 -1.92,1.92 0,1.248 1.056,2.112 2.784,2.112 1.632,0 3.744,-0.672 6.144,-2.4 -3.456,9.024 -4.704,15.168 -4.704,19.2 0,7.104 3.648,8.16 6.048,8.16 5.664,0 12.576,-9.792 12.576,-11.04 0,-1.056 -0.864,-1.92 -1.92,-1.92 -0.672,0 -1.248,0.288 -1.632,0.768 -5.376,7.872 -8.928,8.352 -9.024,8.352 -0.864,0 -1.152,-0.096 -1.536,-0.864 -0.48,-0.768 -0.768,-2.016 -0.768,-3.36 0,-8.544 7.68,-25.247997 7.68,-25.919997 0,-1.056 -0.864,-1.92 -1.92,-1.92 z m 7.104,-17.184 c -3.552,0 -6.048,3.168 -6.048,6.144 0,3.168 2.592,5.76 5.76,5.76 3.456,0 6.048,-3.072 6.048,-6.144 0,-3.264 -2.784,-5.76 -5.76,-5.76 z m 14.39996,41.375997 c 0,5.856 4.512,10.656 10.656,10.656 7.008,0 14.112,-6.144 14.112,-8.64 0,-1.056 -0.864,-1.92 -1.92,-1.92 -0.672,0 -1.344,0.384 -1.632,0.96 -1.824,3.168 -7.104,5.76 -10.56,5.76 -4.224,0 -6.816,-2.784 -6.816,-6.816 0,-5.76 5.952,-19.392 16.32,-19.392 0.768,0 2.016,0.48 2.976,1.152 2.496,1.824 1.152,4.032 3.552,4.032 1.056,0 1.92,-0.864 1.92,-1.92 0,-2.976 -3.84,-7.103997 -8.448,-7.103997 -12.48,0 -20.16,14.975997 -20.16,23.231997 z"
         id="path10" />
      <path
         d="m 124.49347,226.25519 c 0,-2.208 -3.264,-12.576 -11.808,-12.576 -5.568,0 -9.024,3.552 -10.656,5.664 v -2.688 c -0.096,-1.824 -1.536,-3.168 -3.360001,-3.168 h -0.192 c -1.824,0.096 -3.168,1.536 -3.168,3.36 v 0.096 c 0.096,3.84 0.096,7.584 0.096,11.04 0,9.6 -0.288,17.376 -0.288,21.12 0,1.824 1.536,3.36 3.36,3.36 1.824001,0 3.264001,-1.344 3.360001,-3.168 0.576,-14.688 3.168,-28.896 10.848,-28.896 1.92,0 4.032,1.536 5.184,6.528 0.384,1.536 1.632,2.592 3.264,2.592 1.92,0 3.36,-1.44 3.36,-3.264 z m 7.96796,8.544 c 0,11.424 7.584,17.376 16.128,17.376 9.504,0 15.84,-8.064 15.84,-10.752 0,-1.824 -1.536,-3.36 -3.36,-3.36 -1.248,0 -2.304,0.672 -2.88,1.632 -2.208,3.648 -6.144,5.76 -9.6,5.76 -2.496,0 -8.928,-0.96 -9.408,-9.6 1.92,0.864 3.936,1.248 5.952,1.248 8.16,0 15.456,-6.432 15.456,-14.016 0,-4.896 -3.648,-8.928 -9.12,-8.928 -11.424,0 -19.008,11.424 -19.008,20.64 z m 21.408,-11.712 c 0,2.88 -3.84,7.296 -8.832,7.296 -1.44,0 -2.976,-0.384 -4.512,-1.344 1.44,-3.264 4.896,-8.16 10.944,-8.16 2.016,0 2.4,1.248 2.4,2.208 z m 17.27997,13.824 c 0,14.688 11.232,15.264 13.056,15.264 4.992,0 9.696,-2.112 13.152,-5.856 v 3.072 c 0,18.528 -9.792,18.72 -13.632,18.72 -6.048,0 -7.584,-2.112 -7.872,-6.24 -0.096,-1.728 -1.632,-3.168 -3.36,-3.168 -1.92,0 -3.36,1.536 -3.36,3.36 0,2.112 0.768,12.768 14.592,12.768 17.472,0 20.352,-15.36 20.352,-25.44 0,-3.264 -0.288,-20.928 -1.44,-27.168 -0.384,-2.304 -5.76,-7.2 -12.864,-7.2 -10.176,0 -18.624,11.904 -18.624,21.888 z m 6.72,0 c 0,-6.528 5.952,-15.168 11.904,-15.168 2.688,0 4.8,1.056 6.336,2.496 0.192,1.728 0.288,3.264 0.288,4.8 0,9.984 -4.8,16.416 -12.192,16.416 -4.992,0 -6.336,-4.128 -6.336,-8.544 z m 48.28796,15.936 c 4.128,0 7.68,-2.112 9.792,-4.992 3.168,-4.416 4.32,-9.792 4.32,-29.952 0,-1.824 -1.536,-3.36 -3.36,-3.36 -1.824,0 -3.264,1.344 -3.36,3.072 -0.384,5.472 0.192,13.248 -0.672,19.296 -1.344,9.216 -4.992,9.216 -6.72,9.216 -6.24,0 -9.696,-5.856 -9.696,-20.064 0,-2.304 0.096,-4.896 0.288,-7.68 v -0.192 c 0,-1.824 -1.536,-3.36 -3.36,-3.36 -1.824,0 -3.264,1.344 -3.36,3.072 -0.192,1.92 -0.384,4.896 -0.384,8.16 0,22.944 9.792,26.784 16.512,26.784 z m 33.11996,-1.248 c 9.504,0 17.568,-9.792 17.568,-15.168 0,-1.824 -1.536,-3.36 -3.36,-3.36 -1.728,0 -2.976,1.248 -3.264,2.88 -0.576,3.648 -6.24,8.928 -10.944,8.928 -2.304,0 -2.592,-9.216 -2.592,-13.152 0,-9.696 3.744,-26.496 3.744,-39.072 0,-1.824 -1.536,-3.36 -3.36,-3.36 -1.824,0 -3.36,1.536 -3.36,3.36 0,11.232 -3.744,27.744 -3.744,39.072 0,6.624 0,19.872 9.312,19.872 z m 43.87197,-38.496 c -3.936,0 -8.352,2.016 -12.768,6.624 -0.576,0.576 -0.96,1.44 -0.96,2.304 0,1.824 1.536,3.36 3.36,3.36 0.96,0 1.824,-0.288 2.4,-0.96 3.264,-3.36 5.856,-4.704 7.872,-4.704 4.896,0 6.72,7.488 7.296,11.136 -2.88,-1.728 -6.144,-2.592 -9.312,-2.592 -7.872,0 -15.264,5.088 -15.264,13.248 0,6.432 4.512,11.616 13.536,11.616 8.64,0 16.704,-4.416 17.568,-5.568 0.576,-0.864 0.96,-3.744 0.96,-7.392 0,-13.632 -3.84,-27.072 -14.688,-27.072 z m -2.112,21.984 c 4.512,0 9.216,2.496 9.792,8.352 -2.688,1.344 -6.528,2.976 -11.52,2.976 -1.824,0 -6.816,-0.096 -6.816,-4.896 0,-4.896 5.184,-6.432 8.544,-6.432 z m 53.85596,-8.832 c 0,-2.208 -3.264,-12.576 -11.808,-12.576 -5.568,0 -9.024,3.552 -10.656,5.664 v -2.688 c -0.096,-1.824 -1.536,-3.168 -3.36,-3.168 h -0.192 c -1.824,0.096 -3.168,1.536 -3.168,3.36 v 0.096 c 0.096,3.84 0.096,7.584 0.096,11.04 0,9.6 -0.288,17.376 -0.288,21.12 0,1.824 1.536,3.36 3.36,3.36 1.824,0 3.264,-1.344 3.36,-3.168 0.576,-14.688 3.168,-28.896 10.848,-28.896 1.92,0 4.032,1.536 5.184,6.528 0.384,1.536 1.632,2.592 3.264,2.592 1.92,0 3.36,-1.44 3.36,-3.264 z"
         id="path11" />
      <path
         style="font-style:italic;-inkscape-font-specification:'honchokomono, Italic'"
         d="m 408.03794,243.82319 c 0,-7.776 7.68,-24.96 7.68,-25.92 0,-1.824 -1.536,-3.36 -3.36,-3.36 -3.168,0 -7.008,7.008 -10.752,7.008 -0.192,0 -0.384,0 -0.48,-0.096 h -0.576 c -1.824,0 -3.36,1.536 -3.36,3.36 0,2.304 1.728,3.456 4.32,3.456 1.056,0 2.208,-0.192 3.456,-0.672 -2.688,7.68 -3.552,12.768 -3.552,16.224 0,9.024 5.952,9.504 7.488,9.504 2.976,0 5.184,-1.536 7.296,-3.456 0.672,-0.576 6.72,-6.336 6.72,-9.024 0,-1.824 -1.536,-3.36 -3.36,-3.36 -1.152,0 -2.208,0.576 -2.784,1.44 -4.8,6.912 -7.968,7.68 -7.968,7.68 0,0 -0.096,0 -0.096,0 -0.672,-0.576 -0.672,-2.592 -0.672,-2.784 z m 11.424,-45.024 c -3.552,0 -6.048,3.168 -6.048,6.144 0,3.168 2.592,5.76 5.76,5.76 3.456,0 6.048,-3.072 6.048,-6.144 0,-3.264 -2.784,-5.76 -5.76,-5.76 z m 25.15197,54.144 c 7.584,0 15.552,-9.504 15.552,-18.24 0,-1.824 -1.536,-3.36 -3.36,-3.36 -1.824,0 -3.264,1.344 -3.36,3.168 -0.288,6.336 -5.76,11.808 -8.832,11.808 -0.288,0 -0.672,-0.096 -0.864,-0.288 -0.672,-0.288 -0.768,-3.36 -0.768,-3.456 0,-4.512 1.824,-11.808 4.032,-19.008 1.056,0.096 2.112,0.096 3.168,0.096 6.528,0 10.656,-0.48 10.656,-4.032 0,-1.92 -1.536,-3.36 -3.36,-3.36 -0.096,0 -1.92,0.672 -7.2,0.672 -0.384,0 -0.768,0 -1.152,-0.096 4.032,-12.576 4.416,-14.016 4.416,-14.976 0,-1.824 -1.536,-3.36 -3.36,-3.36 -1.536,0 -2.784,1.056 -3.168,2.496 -2.4,9.408 -10.656,30.24 -10.656,41.664 0,9.12 5.376,10.272 8.256,10.272 z m 57.88796,-34.08 c 0,-1.824 -1.536,-3.36 -3.36,-3.36 -0.768,0 -1.44,0.288 -2.016,0.672 -2.112,-0.672 -4.128,-1.056 -6.048,-1.056 -12.192,0 -19.968,14.112 -19.968,25.056 0,8.928 5.28,12.48 9.792,12.48 3.744,0 8.064,-2.208 11.712,-7.488 1.152,6.336 2.304,7.392 4.416,7.392 1.824,0 3.36,-1.536 3.36,-3.36 0,-1.536 -1.728,-4.128 -1.728,-9.792 0,-7.968 3.84,-17.952 3.84,-20.544 z m -24.672,21.408 c 0,-7.2 4.992,-18.528 13.248,-18.528 1.152,0 2.304,0.288 3.648,0.672 -3.648,14.784 -9.888,23.52 -13.728,23.52 -2.976,0 -3.168,-4.8 -3.168,-5.664 z m 60.19196,-3.744 c 0,-1.824 -1.536,-3.36 -3.36,-3.36 -1.44,0 -2.592,0.864 -3.072,2.112 -2.88,6.72 -9.216,10.56 -11.424,10.56 -0.576,0 -0.96,-0.192 -0.96,-1.44 0,-8.064 14.208,-48.672 14.208,-51.936 0,-1.824 -1.536,-3.36 -3.36,-3.36 -1.056,0 -2.112,0.48 -2.688,1.248 -4.8,6.048 -8.16,9.984 -11.232,11.136 h -0.192 c -1.824,0 -3.36,1.536 -3.36,3.36 0,2.016 1.536,3.456 3.84,3.456 1.728,0 3.84,-0.768 6.24,-2.784 -5.184,17.376 -8.928,28.704 -9.984,36 -0.192,0.864 -0.192,1.632 -0.192,2.4 0,5.568 3.168,8.544 7.584,8.544 9.408,0 17.952,-12.384 17.952,-15.936 z m 23.61597,7.296 c 0,-7.776 7.68,-24.96 7.68,-25.92 0,-1.824 -1.536,-3.36 -3.36,-3.36 -3.168,0 -7.008,7.008 -10.752,7.008 -0.192,0 -0.384,0 -0.48,-0.096 h -0.576 c -1.824,0 -3.36,1.536 -3.36,3.36 0,2.304 1.728,3.456 4.32,3.456 1.056,0 2.208,-0.192 3.456,-0.672 -2.688,7.68 -3.552,12.768 -3.552,16.224 0,9.024 5.952,9.504 7.488,9.504 2.976,0 5.184,-1.536 7.296,-3.456 0.672,-0.576 6.72,-6.336 6.72,-9.024 0,-1.824 -1.536,-3.36 -3.36,-3.36 -1.152,0 -2.208,0.576 -2.784,1.44 -4.8,6.912 -7.968,7.68 -7.968,7.68 0,0 -0.096,0 -0.096,0 -0.672,-0.576 -0.672,-2.592 -0.672,-2.784 z m 11.424,-45.024 c -3.552,0 -6.048,3.168 -6.048,6.144 0,3.168 2.592,5.76 5.76,5.76 3.456,0 6.048,-3.072 6.048,-6.144 0,-3.264 -2.784,-5.76 -5.76,-5.76 z m 12.95996,41.376 c 0,6.528 5.28,12.096 12.096,12.096 7.584,0 15.552,-6.432 15.552,-10.08 0,-1.824 -1.536,-3.36 -3.36,-3.36 -1.248,0 -2.304,0.768 -2.88,1.728 -1.536,2.688 -6.336,4.992 -9.312,4.992 -3.552,0 -5.376,-2.016 -5.376,-5.376 0,-4.896 5.28,-17.952 14.88,-17.952 0.96,0 3.072,1.152 3.264,2.304 0.192,1.632 1.536,2.88 3.264,2.88 1.92,0 3.36,-1.536 3.36,-3.36 0,-3.744 -4.416,-8.544 -9.888,-8.544 -13.152,0 -21.6,15.36 -21.6,24.672 z"
         id="path12" />
      <path
         style="font-weight:bold;-inkscape-font-specification:'honchokomono, Bold'"
         d="m 127.66147,351.91552 c 0,-17.28 -14.016,-17.472 -14.592,-17.472 -3.84,0 -7.584,1.152 -10.752,3.552 -0.288,-16.32 -0.288,-16.224 -0.288,-23.808 0,-2.592 -2.112001,-4.8 -4.704001,-4.8 h -0.096 c -2.592,0 -4.8,2.112 -4.8,4.704 -0.096,1.728 -0.096,3.36 -0.096,4.992 0,8.736 0.384,16.704 0.384,26.304 0,6.912 -0.192,14.592 -0.768,24 0.096,0.96 0.192,3.168 2.592,4.512 1.152,0.576 4.512,1.248 8.736001,1.248 22.464,0 24.384,-17.472 24.384,-23.232 z m -25.632,13.536 c 0.96,-9.024 2.496,-14.784 4.128,-17.664 1.92,-3.36 3.072,-3.744 6.912,-3.744 2.016,0 2.688,0.576 3.552,1.824 0.864,1.248 1.44,3.552 1.44,6.048 0,10.176 -6.144,13.632 -14.4,13.632 -0.576,0 -1.056,0 -1.632,-0.096 z m 27.55196,-9.408 c 0,11.328 7.776,18.72 17.952,18.72 9.888,0 19.296,-9.6 19.296,-19.008 0,-14.784 -9.024,-21.6 -18.048,-21.6 -9.984,0 -19.2,6.816 -19.2,21.888 z m 27.648,-0.288 c 0,3.744 -4.992,9.408 -9.696,9.408 -7.584,0 -8.352,-6.624 -8.352,-9.12 0,-10.368 5.376,-12.288 9.6,-12.288 7.776,0 8.448,8.832 8.448,12 z m 44.25597,1.92 c 0,-2.688 -2.112,-4.8 -4.8,-4.8 -2.4,0 -4.32,1.824 -4.704,4.128 -0.384,2.592 -4.992,7.392 -9.216,7.68 -1.248,-2.016 -1.44,-8.256 -1.44,-11.712 0,-9.312 3.744,-26.208 3.744,-39.072 0,-2.688 -2.112,-4.8 -4.8,-4.8 -2.688,0 -4.8,2.112 -4.8,4.8 0,10.848 -3.744,27.456 -3.744,39.072 0,6.72 0,21.312 10.752,21.312 10.272,0 19.008,-10.368 19.008,-16.608 z m 30.33596,-42.816 c 0,0.192 1.536,7.872 1.824,20.736 -2.208,-1.056 -4.704,-1.824 -7.392,-1.824 -10.944,0 -19.968,9.984 -19.968,23.04 0,15.936 10.848,18.624 16.608,18.624 3.648,0 9.408,-1.248 13.632,-6.24 4.224,-4.992 6.816,-13.056 6.816,-25.824 0,-10.752 -0.288,-19.872 -2.016,-29.376 -0.384,-2.208 -2.496,-3.84 -4.8,-3.84 -2.688,0 -4.704,2.112 -4.704,4.704 z m -15.936,41.952 c 0,-8.928 5.088,-13.44 10.368,-13.44 3.264,0 5.376,1.632 7.296,4.704 -0.864,13.344 -5.28,17.76 -10.656,17.76 -2.496,0 -7.008,-0.096 -7.008,-9.024 z"
         id="path13" />
      <path
         style="font-style:italic;font-weight:bold;-inkscape-font-specification:'honchokomono, Bold Italic'"
         d="m 279.61695,346.05952 c 0,0.768 0.288,4.896 5.568,4.896 0.48,0 0.864,0 1.44,-0.096 -2.496,7.584 -2.784,12.192 -2.784,14.112 0,10.752 7.776,11.04 8.928,11.04 3.648,0 5.952,-1.824 8.256,-3.84 0.096,-0.096 7.2,-6.432 7.2,-10.08 0,-2.688 -2.112,-4.8 -4.8,-4.8 -1.632,0 -3.072,0.768 -3.936,2.016 -1.152,1.728 -3.84,5.088 -5.952,6.432 -0.096,-0.288 -0.096,-0.576 -0.096,-0.864 0,-6.72 5.28,-19.584 7.2,-23.808 0.288,-0.576 0.384,-1.248 0.384,-1.92 0,-2.688 -2.112,-4.8 -4.8,-4.8 -1.632,0 -2.592,0.768 -3.168,1.248 -4.704,4.416 -6.432,5.856 -7.68,5.856 -0.096,0 -0.192,0 -0.192,-0.096 -0.288,0 -0.48,-0.096 -0.768,-0.096 -2.688,0 -4.8,2.112 -4.8,4.8 z m 23.712,-26.016 c -3.552,0 -6.048,3.168 -6.048,6.144 0,3.168 2.592,5.76 5.76,5.76 3.456,0 6.048,-3.072 6.048,-6.144 0,-3.264 -2.784,-5.76 -5.76,-5.76 z m 25.05596,55.584 c 8.448,0 17.088,-10.176 17.088,-19.68 0,-2.688 -2.112,-4.8 -4.8,-4.8 -2.592,0 -4.704,1.92 -4.8,4.512 -0.192,5.088 -4.512,9.984 -7.296,10.368 -0.192,-0.576 -0.288,-1.344 -0.288,-2.112 0,-4.608 2.016,-12.192 3.648,-17.664 0.96,0.096 1.92,0.096 3.072,0.096 6.432,0 11.136,-0.864 11.136,-5.472 0,-2.688 -2.208,-4.8 -4.8,-4.8 -1.344,0 -1.344,0.576 -6.336,0.576 2.496,-7.872 3.84,-12.192 3.84,-13.536 0,-2.688 -2.112,-4.8 -4.8,-4.8 -2.208,0 -4.032,1.536 -4.608,3.648 -1.44,5.472 -5.376,16.416 -8.064,26.496 -1.44,5.184 -2.688,10.656 -2.688,15.36 0,10.848 7.104,11.808 9.696,11.808 z m 59.42396,-35.52 c 0,-2.688 -2.112,-4.8 -4.8,-4.8 -0.768,0 -1.632,0.096 -2.304,0.48 -2.112,-0.576 -4.032,-0.864 -5.856,-0.864 -13.056,0 -21.216,14.784 -21.216,26.4 0,9.6 5.568,14.016 11.136,14.016 3.552,0 7.488,-1.824 10.944,-5.664 0.672,2.4 1.44,5.568 5.184,5.568 2.592,0 4.8,-2.112 4.8,-4.8 0,-2.016 -1.728,-4.32 -1.728,-9.792 0,-7.872 3.84,-17.568 3.84,-20.544 z m -24.576,21.6 c 0,-6.24 4.608,-17.28 11.808,-17.28 0.576,0 1.248,0.096 1.92,0.192 -4.512,16.224 -9.888,21.12 -12.096,21.12 -1.344,0 -1.632,-2.592 -1.632,-4.032 z m 60.09597,-3.936 c 0,-2.688 -2.112,-4.8 -4.8,-4.8 -2.016,0 -3.648,1.248 -4.416,2.976 -2.016,4.8 -6.816,8.928 -9.6,9.504 -0.096,0 -0.096,-0.096 -0.096,-0.096 0,-6.432 14.304,-48.48 14.304,-51.648 0,-2.592 -2.112,-4.704 -4.704,-4.8 h -0.096 c -1.536,0 -2.88,0.768 -3.744,1.824 -2.304,2.88 -4.8,5.856 -6.912,7.968 -1.824,1.824 -3.456,2.4 -3.456,2.592 v 0 c -2.688,0 -4.8,2.112 -4.8,4.8 0,2.976 2.208,4.896 5.28,4.896 1.152,0 2.4,-0.288 3.744,-0.864 -4.608,15.264 -7.872,25.344 -8.928,32.448 -0.192,0.96 -0.288,1.824 -0.288,2.592 0,6.432 3.936,10.08 9.216,10.08 10.464,0 19.296,-13.152 19.296,-17.472 z m 9.88796,-11.712 c 0,0.768 0.288,4.896 5.568,4.896 0.48,0 0.864,0 1.44,-0.096 -2.496,7.584 -2.784,12.192 -2.784,14.112 0,10.752 7.776,11.04 8.928,11.04 3.648,0 5.952,-1.824 8.256,-3.84 0.096,-0.096 7.2,-6.432 7.2,-10.08 0,-2.688 -2.112,-4.8 -4.8,-4.8 -1.632,0 -3.072,0.768 -3.936,2.016 -1.152,1.728 -3.84,5.088 -5.952,6.432 -0.096,-0.288 -0.096,-0.576 -0.096,-0.864 0,-6.72 5.28,-19.584 7.2,-23.808 0.288,-0.576 0.384,-1.248 0.384,-1.92 0,-2.688 -2.112,-4.8 -4.8,-4.8 -1.632,0 -2.592,0.768 -3.168,1.248 -4.704,4.416 -6.432,5.856 -7.68,5.856 -0.096,0 -0.192,0 -0.192,-0.096 -0.288,0 -0.48,-0.096 -0.768,-0.096 -2.688,0 -4.8,2.112 -4.8,4.8 z m 23.712,-26.016 c -3.552,0 -6.048,3.168 -6.048,6.144 0,3.168 2.592,5.76 5.76,5.76 3.456,0 6.048,-3.072 6.048,-6.144 0,-3.264 -2.784,-5.76 -5.76,-5.76 z m 36.28796,26.016 c 0,0 0.096,0 0.096,-0.096 0.288,2.304 2.304,4.128 4.704,4.128 2.688,0 4.8,-2.208 4.8,-4.8 0,-4.512 -4.992,-9.984 -11.328,-9.984 -13.92,0 -23.04,15.84 -23.04,26.112 0,7.2 5.952,13.536 13.536,13.536 8.16,0 16.992,-6.816 16.992,-11.52 0,-2.688 -2.112,-4.8 -4.8,-4.8 -1.824,0 -3.264,0.96 -4.128,2.4 -1.248,2.208 -5.568,4.32 -8.064,4.32 -2.784,0 -3.936,-1.248 -3.936,-3.936 0,-3.936 4.8,-16.512 13.44,-16.512 1.248,0.384 1.728,1.152 1.728,1.152 z"
         id="path14" />
    </g>
  </g>
</svg>
