<?xml version="1.0" encoding="UTF-8" standalone="no"?>
<!-- Created with Inkscape (http://www.inkscape.org/) -->

<svg
   width="190.69293mm"
   height="110.04793mm"
   viewBox="0 0 190.69293 110.04793"
   version="1.1"
   id="svg1"
   inkscape:export-filename="bitmap.png"
   inkscape:export-xdpi="192"
   inkscape:export-ydpi="192"
   inkscape:version="1.3.2 (091e20ef0f, 2023-11-25)"
   sodipodi:docname="styles.svg"
   xmlns:inkscape="http://www.inkscape.org/namespaces/inkscape"
   xmlns:sodipodi="http://sodipodi.sourceforge.net/DTD/sodipodi-0.dtd"
   xmlns="http://www.w3.org/2000/svg"
   xmlns:svg="http://www.w3.org/2000/svg">
  <sodipodi:namedview
     id="namedview1"
     pagecolor="#ffffff"
     bordercolor="#000000"
     borderopacity="0.25"
     inkscape:showpageshadow="2"
     inkscape:pageopacity="0.0"
     inkscape:pagecheckerboard="0"
     inkscape:deskcolor="#d1d1d1"
     inkscape:document-units="mm"
     inkscape:export-bgcolor="#001122ff"
     inkscape:zoom="0.61620707"
     inkscape:cx="404.89636"
     inkscape:cy="258.03015"
     inkscape:window-width="1904"
     inkscape:window-height="1032"
     inkscape:window-x="8"
     inkscape:window-y="40"
     inkscape:window-maximized="0"
     inkscape:current-layer="layer1" />
  <defs
     id="defs1">
    <rect
       x="140.27733"
       y="110.74366"
       width="653.62219"
       height="366.3573"
       id="rect5" />
    <rect
       x="90.604599"
       y="45.608833"
       width="561.20508"
       height="372.19528"
       id="rect4" />
    <rect
       x="150.97844"
       y="95.561829"
       width="768.93414"
       height="200.66437"
       id="rect3" />
    <rect
       x="46.930706"
       y="362.35468"
       width="771.78345"
       height="343.57535"
       id="rect1" />
  </defs>
  <g
     inkscape:label="Layer 1"
     inkscape:groupmode="layer"
     id="layer1"
     transform="translate(-17.536835,-90.68807)">
    <rect
       style="fill:#001122;fill-opacity:1;stroke-width:52.3956;stroke-linecap:round;stroke-linejoin:round"
       id="rect2"
       width="190.69292"
       height="110.04794"
       x="17.536835"
       y="90.688072" />
    <path
       style="font-weight:300;font-size:96px;font-family:honchokomono;-inkscape-font-specification:'honchokomono, Light';white-space:pre;fill:#ffffff;stroke-width:18.5208;stroke-linecap:round;stroke-linejoin:round"
       d="m 36.073704,121.67094 c 1.778,0 3.9116,-1.8542 4.1402,-3.3274 0.0508,-0.2286 0.254,-0.4318 0.508,-0.4318 0.2794,0 0.508,0.254 0.508,0.508 0,0.0254 0,0.0508 0,0.0762 -0.3048,1.9812 -2.8448,4.191 -5.1562,4.191 -2.3114,0 -2.4638,-3.2512 -2.4638,-5.7658 0,-3.3782 1.2192,-8.6614 1.2192,-12.3698 0,-0.2794 0.2286,-0.508 0.508,-0.508 0.2794,0 0.508,0.2286 0.508,0.508 0,3.81 -1.2192,9.1186 -1.2192,12.3698 0,3.429 0.4572,4.7498 1.4478,4.7498 z m 13.817599,-13.5128 c 0,0.6096 -0.508,1.016 -1.0414,1.016 -0.2032,0 -0.4318,-0.0508 -0.6096,-0.2032 -0.3556,-0.2794 -0.508,-0.6096 -0.508,-0.9144 0,-0.5334 0.4572,-1.016 1.0414,-1.016 0.5588,0 1.1176,0.5588 1.1176,1.1176 z m -3.2512,9.4996 c 0,-1.397 0.1778,-3.0988 0.5588,-5.207 0.0254,-0.254 0.2286,-0.4318 0.4826,-0.4318 0.3048,0 0.508,0.2286 0.508,0.508 0,0.0254 0,0.0762 0,0.1016 -0.381,2.0574 -0.5334,3.7338 -0.5334,5.0292 0,3.9624 1.524,4.0132 2.0828,4.0132 1.3208,0 2.3622,-1.0922 2.5654,-2.0828 0.0508,-0.2286 0.254,-0.4064 0.4826,-0.4064 0.3302,0 0.4826,0.2286 0.4826,0.5588 0,0.9652 -1.3716,2.9464 -3.5306,2.9464 -3.0988,0 -3.0988,-3.9878 -3.0988,-5.0292 z m 15.8496,9.1694 c -2.6416,0 -4.8768,-1.6256 -5.0038,-3.429 0,0 0,-0.0254 0,-0.0254 0,-0.2794 0.2286,-0.508 0.508,-0.508 0.254,0 0.4826,0.2032 0.508,0.4572 0.0762,1.2192 1.8796,2.4892 3.9878,2.4892 1.9558,0 2.7432,-1.778 2.7432,-4.6482 0,-0.889 -0.0508,-2.3368 -0.1524,-3.7592 -0.8636,2.7178 -2.3368,4.0894 -3.8862,4.0894 -2.3876,0 -3.556,-2.032 -3.556,-3.8354 0,-2.8702 2.4892,-5.5626 4.699,-5.5626 1.4732,0 2.5654,0.7112 3.302,1.5494 0.4572,0.5334 0.6096,7.4422 0.6096,7.5184 0,4.826 -2.2098,5.6642 -3.7592,5.6642 z m -3.8354,-9.1694 c 0,1.4478 0.8636,2.8194 2.54,2.8194 0.4826,0 0.9652,-0.2032 1.4478,-0.6858 0.9398,-0.9398 1.7526,-2.8956 2.0828,-5.6388 -0.5842,-0.6096 -1.3462,-1.0414 -2.3876,-1.0414 -1.5748,0 -3.683,2.2098 -3.683,4.5466 z m 20.32,2.1844 c 0,0.7366 -0.0508,2.159 -0.0508,2.1844 0,0.2794 -0.2286,0.508 -0.508,0.508 -0.2794,0 -0.508,-0.2286 -0.508,-0.508 0,-0.0254 0.0508,-1.4732 0.0508,-2.1844 0,-3.0988 -0.381,-6.8834 -2.2606,-6.8834 -4.064,0 -4.3688,6.9596 -4.4704,9.1186 0,0.254 -0.2286,0.4826 -0.508,0.4826 -0.2794,0 -0.508,-0.2286 -0.508,-0.508 0,-0.0508 0.0508,-0.9144 0.0508,-5.1308 0,-7.5946 -0.1016,-11.9888 -0.1016,-12.0904 0,-0.2794 0.2286,-0.508 0.508,-0.508 0.2794,0 0.508,0.2032 0.508,0.4826 0.0508,1.6256 0.1016,6.5278 0.1016,10.7696 1.143,-2.9718 2.9718,-3.6322 4.4196,-3.6322 3.1242,0 3.2766,5.461 3.2766,7.8994 z m 8.0518,-6.2992 c -0.7366,0 -1.4732,0 -2.1336,-0.0762 -0.127,1.2446 -0.2032,2.3114 -0.2032,3.2004 0,4.3942 1.397,4.9022 2.032,4.9022 1.2446,0 3.1242,-1.4224 3.1242,-3.0988 0,-0.508 -0.1524,-0.7366 -0.1524,-0.9144 0,-0.2794 0.2286,-0.508 0.508,-0.508 0.2032,0 0.4064,0.1524 0.4826,0.3556 0.1016,0.3556 0.1778,0.7112 0.1778,1.0668 0,2.2098 -2.286,4.1148 -4.1402,4.1148 -1.7272,0 -2.4638,-1.651 -2.7432,-2.9718 -0.2032,-0.9144 -0.3048,-1.9558 -0.3048,-2.9972 0,-3.302 0.7874,-6.858 0.7874,-8.4074 0,-0.3048 -0.0254,-0.381 -0.0254,-0.4572 0,-0.2794 0.2286,-0.508 0.508,-0.508 0.254,0 0.4572,0.1778 0.508,0.4318 0,0.1524 0.0254,0.3048 0.0254,0.4826 0,0.9906 -0.254,2.5654 -0.4572,4.2926 0.4064,0.0508 1.0414,0.0762 2.0066,0.0762 0,0 1.6002,0 2.1082,0 0.0508,0 0.0762,0 0.1016,0 0.2794,0 0.508,0.2286 0.508,0.508 0,0.2794 -0.2286,0.508 -0.508,0.508 -0.8128,0 -2.2098,0 -2.2098,0 z"
       id="path1" />
    <path
       style="font-style:italic;font-weight:300;font-size:96px;font-family:honchokomono;-inkscape-font-specification:'honchokomono, Light Italic';white-space:pre;fill:#ffffff;stroke-width:18.5208;stroke-linecap:round;stroke-linejoin:round"
       d="m 116.4901,110.16474 c -0.6096,0 -1.016,-0.508 -1.016,-1.016 0,-0.2032 0.0508,-0.4064 0.1778,-0.5842 0.1778,-0.3302 0.508,-0.5588 0.9144,-0.5588 0.5588,0 1.016,0.4572 1.016,1.016 0,0.4826 -0.4064,1.143 -1.0922,1.143 z m -6.096,4.8006 c 0,-0.2794 0.2286,-0.508 0.508,-0.508 0.0762,0 0.127,0.0254 0.3048,0.0254 0.7874,0 1.4986,-0.635 2.8956,-1.9304 0.1016,-0.0762 0.2286,-0.127 0.3302,-0.127 0.2794,0 0.5334,0.2286 0.5334,0.508 0,0.0762 -0.0254,0.127 -0.0508,0.2032 -1.6256,3.683 -2.2352,6.0706 -2.2352,7.4168 0,0.4572 0.0762,0.7874 0.2032,0.9906 0.1016,0.2032 0.2794,0.3048 0.4826,0.3048 0.7112,0 1.905,-1.1684 2.8194,-2.4638 0.0762,-0.1524 0.2286,-0.2286 0.4064,-0.2286 0.3048,0 0.508,0.254 0.508,0.508 0,0.1016 -0.0254,0.2032 -0.0762,0.2794 -0.5334,0.762 -2.159,2.921 -3.6322,2.921 -0.5842,0 -1.0922,-0.2794 -1.397,-0.8128 -0.2286,-0.4064 -0.3302,-0.9144 -0.3302,-1.524 0,-1.524 0.6096,-3.6068 1.4732,-5.7912 -0.762,0.5588 -1.4478,0.7874 -1.9304,0.7874 -0.508,0 -0.8128,-0.2286 -0.8128,-0.5588 z m 14.0462,7.4422 c -0.7112,-0.381 -0.9906,-1.2192 -0.9906,-2.3622 0,-2.286 1.143,-5.7404 2.2098,-9.0424 0.4064,-1.2446 0.762,-2.3114 0.9652,-3.0988 0.0762,-0.2286 0.2794,-0.381 0.508,-0.381 0.2794,0 0.508,0.2286 0.508,0.508 0,0.0508 0,0.0762 -0.0254,0.127 -0.3048,1.143 -0.9144,2.8956 -1.4986,4.7752 0.5334,0 1.143,0 1.143,0 1.524,0 1.8542,-0.1524 2.0574,-0.1524 0.2794,0 0.508,0.2286 0.508,0.508 0,0.2286 -0.1778,0.4318 -0.4064,0.4826 -0.7112,0.1524 -1.4478,0.1778 -2.159,0.1778 0,0 0.127,0 0.127,0 0,0 -0.2794,0 -1.6002,0 -0.7112,2.286 -1.3208,4.6228 -1.3208,6.1214 0,0.9144 0.2286,1.3208 0.4572,1.4224 0.1524,0.1016 0.3302,0.127 0.508,0.127 1.27,0 3.0734,-1.8288 3.175,-3.9116 0,-0.2794 0.2286,-0.4826 0.508,-0.4826 0.1778,0 0.508,0.127 0.508,0.5334 -0.127,2.5908 -2.3114,4.8768 -4.191,4.8768 -0.3556,0 -0.6858,-0.0762 -0.9906,-0.2286 z m 17.5768,-3.175 c 0,1.5748 0.4826,2.5654 0.4826,2.794 0,0.2794 -0.2286,0.508 -0.508,0.508 -0.2286,0 -0.4064,-0.1524 -0.4826,-0.3556 -0.3048,-0.9398 -0.4572,-1.778 -0.508,-2.6416 -0.5842,1.1176 -1.8034,2.9972 -3.5814,2.9972 -1.143,0 -1.8542,-0.762 -2.1336,-1.651 -0.1524,-0.4318 -0.2032,-0.9144 -0.2032,-1.4224 0,-2.8702 2.0574,-6.6802 5.2324,-6.6802 0.5588,0 1.1684,0.127 1.8034,0.381 0.1016,-0.2032 0.2794,-0.2794 0.4572,-0.2794 0.254,0 0.508,0.1778 0.508,0.508 0,0.5842 -1.0668,3.6068 -1.0668,5.842 z m -4.699,2.286 c 0.0254,0 0.0762,0 0.1016,0 0.4064,0 0.8636,-0.1524 1.3716,-0.6096 1.6002,-1.4986 2.6162,-4.826 3.0734,-6.731 -0.5334,-0.2794 -1.0668,-0.381 -1.5494,-0.381 -2.6162,0 -4.2164,3.4036 -4.2164,5.6896 0,1.1176 0.381,1.9812 1.2192,2.032 z m 12.1158,-13.589 c 0,0 0.0508,0 0.0508,0 1.0414,0 2.8448,-2.1844 4.0132,-3.6068 0.1016,-0.127 0.254,-0.1778 0.381,-0.1778 0.2794,0 0.5334,0.2032 0.5334,0.4826 0,0.0508 -0.0254,0.1016 -0.0254,0.1524 -0.8636,2.8956 -1.6256,5.3594 -2.286,7.4422 -1.4224,4.5466 -2.1844,7.0612 -2.1844,8.3058 0,0.7366 0.2794,1.016 0.8382,1.016 1.1684,0 3.2258,-1.3716 4.1656,-3.556 0.0762,-0.1778 0.254,-0.3048 0.4572,-0.3048 0.3048,0 0.508,0.254 0.508,0.508 0,0.0762 0,0.127 -0.0508,0.2032 -1.0414,2.4638 -3.4036,4.1656 -5.08,4.1656 -0.5842,0 -1.0922,-0.2032 -1.4478,-0.6604 -0.2794,-0.3556 -0.4064,-0.762 -0.4064,-1.3716 0,-1.397 0.7366,-3.7592 2.2352,-8.6106 0.4826,-1.4986 1.016,-3.2004 1.5748,-5.1054 -1.2954,1.4224 -2.3114,2.1336 -3.2258,2.1336 -0.381,0 -0.5588,-0.2286 -0.5588,-0.4826 0,-0.254 0.1778,-0.5334 0.508,-0.5334 z m 17.8562,2.2352 c -0.6096,0 -1.016,-0.508 -1.016,-1.016 0,-0.2032 0.0508,-0.4064 0.1778,-0.5842 0.1778,-0.3302 0.508,-0.5588 0.9144,-0.5588 0.5588,0 1.016,0.4572 1.016,1.016 0,0.4826 -0.4064,1.143 -1.0922,1.143 z m -6.096,4.8006 c 0,-0.2794 0.2286,-0.508 0.508,-0.508 0.0762,0 0.127,0.0254 0.3048,0.0254 0.7874,0 1.4986,-0.635 2.8956,-1.9304 0.1016,-0.0762 0.2286,-0.127 0.3302,-0.127 0.2794,0 0.5334,0.2286 0.5334,0.508 0,0.0762 -0.0254,0.127 -0.0508,0.2032 -1.6256,3.683 -2.2352,6.0706 -2.2352,7.4168 0,0.4572 0.0762,0.7874 0.2032,0.9906 0.1016,0.2032 0.2794,0.3048 0.4826,0.3048 0.7112,0 1.905,-1.1684 2.8194,-2.4638 0.0762,-0.1524 0.2286,-0.2286 0.4064,-0.2286 0.3048,0 0.508,0.254 0.508,0.508 0,0.1016 -0.0254,0.2032 -0.0762,0.2794 -0.5334,0.762 -2.159,2.921 -3.6322,2.921 -0.5842,0 -1.0922,-0.2794 -1.397,-0.8128 -0.2286,-0.4064 -0.3302,-0.9144 -0.3302,-1.524 0,-1.524 0.6096,-3.6068 1.4732,-5.7912 -0.762,0.5588 -1.4478,0.7874 -1.9304,0.7874 -0.508,0 -0.8128,-0.2286 -0.8128,-0.5588 z m 12.9794,4.572 c 0,1.2446 0.8382,2.159 2.1336,2.159 1.0414,0 2.667,-0.762 3.2512,-1.778 0.1016,-0.1524 0.254,-0.254 0.4318,-0.254 0.3048,0 0.508,0.254 0.508,0.508 0,0.0762 0,0.1778 -0.0508,0.254 -0.381,0.635 -0.9652,1.1176 -1.6002,1.4986 -0.9144,0.5588 -1.778,0.7874 -2.54,0.7874 -1.8796,0 -3.1496,-1.397 -3.1496,-3.175 0,-2.3876 2.2352,-6.9088 6.0198,-6.9088 1.0414,0 2.3368,0.8128 2.4892,1.9812 0,0.0254 0,0.0508 0,0.0762 0,0.2794 -0.2286,0.508 -0.508,0.508 -0.254,0 -0.4572,-0.1778 -0.508,-0.4318 -0.0762,-0.6604 -0.9652,-1.1176 -1.4732,-1.1176 -3.1496,0 -5.0038,4.0386 -5.0038,5.8928 z"
       id="path2" />
    <path
       d="m 37.318304,145.31834 c -2.6416,0 -3.2004,5.588 -3.302,8.4582 -0.0254,0.5334 -0.4826,0.9652 -1.016,0.9652 -0.5588,0 -1.016,-0.4572 -1.016,-1.016 0,-0.889 0.1016,-3.9116 0.1016,-6.223 0,-1.8542 -0.0508,-3.175 -0.0508,-3.2766 0,-0.5588 0.4572,-1.016 1.016,-1.016 0.5334,0 0.9906,0.4318 1.016,0.9652 0,0.2794 0,0.5588 0.0254,0.8382 1.0414,-1.4224 2.3114,-1.7272 3.2258,-1.7272 3.048,0 3.6322,4.1402 3.6322,8.3312 0,0.7366 0,1.4478 -0.0254,2.159 -0.0254,0.5588 -0.4826,0.9906 -1.016,0.9906 -0.5842,0 -1.016,-0.4572 -1.016,-1.016 0,-0.0254 0.0254,-1.016 0.0254,-2.0574 0,-1.8796 -0.1524,-6.3754 -1.6002,-6.3754 z m 11.633199,9.525 c -2.8194,0 -5.0546,-1.9812 -5.0546,-5.2832 0,-4.2418 2.4638,-6.2992 5.461,-6.2992 2.6162,0 5.08,1.9812 5.08,6.1976 0,2.5654 -2.6416,5.3848 -5.4864,5.3848 z m 0,-2.032 c 1.6764,0 3.4544,-1.905 3.4544,-3.3528 0,-2.4638 -1.0668,-4.1656 -3.048,-4.1656 -3.048,0 -3.429,2.794 -3.429,4.2672 0,3.0734 2.4638,3.2512 3.0226,3.2512 z m 13.8176,-9.7536 c 1.8288,0 3.1496,1.5494 3.6068,3.6068 0.0254,0.0762 0.0254,0.1524 0.0254,0.2286 0,0.5334 -0.4572,1.016 -1.016,1.016 -0.4826,0 -0.889,-0.3556 -0.9906,-0.8128 -0.3556,-1.5748 -1.1176,-2.0066 -1.6256,-2.0066 -2.3876,0 -3.2004,4.318 -3.3782,8.8392 -0.0254,0.5334 -0.4572,0.9652 -1.016,0.9652 -0.5588,0 -1.016,-0.4318 -1.016,-1.016 0,-0.9144 0.1016,-4.064 0.1016,-6.4516 0,-1.9558 -0.0508,-3.3274 -0.0508,-3.429 0,-0.5588 0.4572,-1.016 1.016,-1.016 0.5588,0 0.9906,0.4318 1.016,0.9906 0,0.2794 0.0254,0.5842 0.0254,0.8636 1.0668,-1.4732 2.3622,-1.778 3.302,-1.778 z m 12.319,1.6002 c 0.5842,-1.0414 1.3462,-1.4478 2.032,-1.4478 0.381,0 0.762,0.1524 1.0414,0.3556 0.6604,0.5334 1.4732,1.8034 1.4732,7.0358 0,0.9398 -0.0254,1.9812 -0.0762,3.175 -0.0254,0.5334 -0.4572,0.9652 -1.016,0.9652 -0.5588,0 -1.016,-0.4572 -1.016,-1.016 0,-0.0762 0.0762,-1.4732 0.0762,-3.0734 0,-3.2004 -0.3048,-4.6736 -0.5842,-5.2578 -1.27,1.6764 -1.3462,7.7978 -1.3462,7.8994 0,0.2286 0,0.3556 0,0.381 0,0.5588 -0.4572,1.016 -1.016,1.016 -0.5334,0 -0.9906,-0.4318 -1.016,-0.9652 0,-0.3302 0,-0.7112 0,-1.143 0,0 0,-2.032 0,-2.1844 0,-1.5748 -0.0254,-3.9878 -0.4572,-5.0292 -0.9906,1.2192 -1.1684,6.1214 -1.6764,8.5598 -0.1016,0.4572 -0.508,0.8128 -0.9906,0.8128 -0.5588,0 -1.016,-0.4572 -1.016,-1.016 0,-0.9144 0.1016,-3.9878 0.1016,-6.2992 0,-1.8796 -0.0508,-3.2258 -0.0508,-3.3274 0,-0.5588 0.4318,-1.016 1.016,-1.016 0.4064,0 0.9906,0.3048 1.016,1.0414 0.4318,-0.5842 1.0922,-0.9398 1.7272,-0.9398 0.6858,0 1.3716,0.4318 1.778,1.4732 z m 7.5692,6.985 c 0,-2.413 2.159,-3.8354 4.3942,-3.8354 0.889,0 1.778,0.2286 2.5654,0.6858 -0.4318,-2.5146 -1.3462,-2.9718 -1.9558,-2.9718 -0.4572,0 -1.2192,0.254 -2.2098,1.2954 -0.1778,0.2032 -0.4318,0.3302 -0.7366,0.3302 -0.6096,0 -1.016,-0.508 -1.016,-1.0414 0,-0.2286 0.1016,-0.4826 0.2794,-0.6858 1.3208,-1.3716 2.5908,-1.9304 3.683,-1.9304 1.6002,0 2.8702,1.1938 3.4798,2.794 0.5588,1.524 0.7112,3.4544 0.7112,4.9276 0,0.6858 -0.0254,1.2954 -0.0762,1.6764 -0.0254,0.4064 -0.3048,0.7366 -0.6604,0.8636 -1.3208,0.635 -2.5908,1.2446 -4.5466,1.2446 -2.8448,0 -3.9116,-1.7526 -3.9116,-3.3528 z m 2.032,0 c 0,1.0922 0.9652,1.3208 1.8796,1.3208 1.3462,0 2.4384,-0.4572 3.175,-0.8128 -0.1524,-1.6002 -1.4478,-2.3114 -2.6924,-2.3114 -1.1938,0 -2.3622,0.6604 -2.3622,1.8034 z m 14.8844,1.27 c 1.574797,0 3.454397,-1.7272 3.632197,-2.8956 0.0762,-0.4826 0.508,-0.8636 1.016,-0.8636 0.5588,0 1.016,0.4826 1.016,1.016 0,0.0508 0,0.1016 -0.0254,0.1778 -0.3556,2.3622 -3.2766,4.5974 -5.562597,4.5974 -0.6096,0 -1.1938,-0.1778 -1.651,-0.5588 -1.1176,-0.9652 -1.397,-2.8448 -1.397,-5.715 0,-3.429 1.2192,-8.7122 1.2192,-12.3698 0,-0.5588 0.4572,-1.016 1.016,-1.016 0.5842,0 1.016,0.4572 1.016,1.016 0,3.8608 -1.2192,9.1694 -1.2192,12.3698 0,2.2352 0.2032,4.2418 0.9398,4.2418 z"
       id="path3"
       style="font-size:96px;font-family:honchokomono;-inkscape-font-specification:'honchokomono, Normal';white-space:pre;fill:#ffffff;stroke-width:18.5208;stroke-linecap:round;stroke-linejoin:round" />
    <path
       style="font-style:italic;font-size:96px;font-family:honchokomono;-inkscape-font-specification:'honchokomono, Italic';white-space:pre;fill:#ffffff;stroke-width:18.5208;stroke-linecap:round;stroke-linejoin:round"
       d="m 129.1901,142.42274 c -0.889,0 -1.524,-0.7366 -1.524,-1.524 0,-0.3048 0.0762,-0.5842 0.254,-0.8636 0.254,-0.4572 0.762,-0.7874 1.3462,-0.7874 0.8382,0 1.524,0.6858 1.524,1.524 0,0.762 -0.635,1.651 -1.6002,1.651 z m -6.604,4.2926 c 0,-0.5588 0.4572,-1.016 1.016,-1.016 0.127,0 0.1778,0.0254 0.3048,0.0254 0.5334,0 1.1938,-0.5334 2.3876,-1.6256 0.2794,-0.254 0.4572,-0.4318 0.8636,-0.4318 0.5842,0 1.016,0.4826 1.016,1.016 0,0.1524 -0.0254,0.2794 -0.1016,0.4064 -1.8288,4.1148 -2.1844,6.2484 -2.1844,7.239 0,0.5588 0.127,0.762 0.1524,0.762 0,0 0,0 0,0 0,0 0.0254,0 0.0254,0 0.2794,0 0.889,-0.5334 0.9144,-0.5334 1.3716,-1.1938 1.4224,-2.159 2.3114,-2.159 0.6096,0 1.016,0.4826 1.016,1.016 0,0.2032 -0.0508,0.4064 -0.1778,0.5842 -1.6256,2.3368 -3.048,3.1242 -4.1148,3.1242 -0.8128,0 -1.4224,-0.4826 -1.778,-1.0668 -0.2032,-0.381 -0.381,-0.9144 -0.381,-1.778 0,-1.016 0.254,-2.5146 1.0414,-4.699 -0.3302,0.127 -0.6858,0.1778 -0.9906,0.1778 -0.7366,0 -1.3208,-0.3302 -1.3208,-1.0414 z m 20.2438,2.8194 c -0.127,2.8448 -2.5146,5.3594 -4.699,5.3594 -0.4318,0 -0.8382,-0.0762 -1.2192,-0.2794 -0.9398,-0.508 -1.27,-1.5494 -1.27,-2.794 0,-1.1938 0.2794,-2.5908 0.635,-3.9116 0.7874,-3.0988 2.0828,-6.5278 2.5654,-8.382 0.127,-0.4318 0.508,-0.762 0.9906,-0.762 0.5588,0 1.016,0.4572 1.016,1.016 -0.0508,0.1016 -0.6604,2.2606 -1.3462,4.3942 0.254,0 0.4572,0 0.4572,0 0.6604,0 1.2954,-0.0254 1.8542,-0.127 0.0508,-0.0254 0.127,-0.0254 0.2032,-0.0254 0.5588,0 1.016,0.4318 1.016,1.016 0,0.4826 -0.3302,0.889 -0.7874,0.9906 -0.7874,0.1524 -1.5494,0.1778 -2.286,0.1778 0,0 0,0 0,0 0,0 0.1016,0 0.1016,0 0,0 -0.2032,0 -1.1938,0 -0.2286,0.762 -0.4572,1.4986 -0.635,2.2098 -0.4318,1.7272 -0.5588,2.794 -0.5588,3.429 0,0.7112 0.127,0.9144 0.1778,0.9652 0.0762,0.0254 0.1778,0.0508 0.2794,0.0508 0.9144,0 2.5908,-1.524 2.667,-3.429 0.0254,-0.5334 0.4572,-0.9652 1.016,-0.9652 0.381,0 1.016,0.254 1.016,1.0668 z m 10.541,3.2512 c -1.27,1.7526 -2.4892,2.0066 -3.2512,2.0066 -1.524,0 -2.8448,-1.143 -2.8448,-3.5814 0,-3.2004 2.286,-7.1882 5.7404,-7.1882 0.5334,0 1.0922,0.0762 1.6764,0.3048 0.1778,-0.1524 0.381,-0.2032 0.5842,-0.2032 0.5334,0 1.016,0.4064 1.016,1.016 0,0.7112 -1.0668,3.683 -1.0668,5.842 0,1.5494 0.4826,2.3876 0.4826,2.794 0,0.5588 -0.4572,1.016 -1.016,1.016 -0.7112,0 -0.9906,-0.4572 -1.3208,-2.0066 z m -3.7084,-0.1778 c 0.1016,0.1016 0.254,0.1778 0.4572,0.1778 0.2794,0 0.6096,-0.127 1.016,-0.508 1.7526,-1.6002 2.7686,-5.8166 2.8448,-6.0452 -0.3556,-0.127 -0.6858,-0.1778 -0.9652,-0.1778 -2.3114,0 -3.7084,3.2258 -3.7084,5.2324 0,0.5842 0.1016,1.0414 0.3556,1.3208 z m 14.7066,-12.3444 c -1.0414,0.8382 -1.7272,0.9398 -2.1844,0.9398 -0.7874,0 -1.0668,-0.6096 -1.0668,-1.016 0,-0.5588 0.4572,-1.016 1.016,-1.016 0.8382,0 2.6416,-2.159 3.683,-3.429 0.1778,-0.2286 0.4572,-0.3556 0.7874,-0.3556 0.5588,0 1.016,0.4572 1.016,1.016 0,0.0762 -0.0254,0.1778 -0.0508,0.2794 -0.8382,2.8702 -1.6256,5.3594 -2.2606,7.4422 -1.3462,4.2926 -2.1844,7.0358 -2.1844,8.1534 0,0.2032 0.0254,0.3556 0.1016,0.4572 0,0 0.0254,0.0508 0.2286,0.0508 0.9144,0 2.8194,-1.1938 3.683,-3.2512 0.1524,-0.3556 0.5334,-0.6096 0.9398,-0.6096 0.5842,0 1.016,0.4826 1.016,1.016 0,0.127 -0.0254,0.2794 -0.0762,0.4064 -1.0922,2.54 -3.5814,4.4704 -5.5626,4.4704 -1.1176,0 -2.3622,-0.7112 -2.3622,-2.5908 0,-0.2286 0.0254,-0.4826 0.0508,-0.762 0.2286,-1.4478 0.2286,-1.4478 3.2258,-11.2014 z m 15.621,2.159 c -0.889,0 -1.524,-0.7366 -1.524,-1.524 0,-0.3048 0.0762,-0.5842 0.254,-0.8636 0.254,-0.4572 0.762,-0.7874 1.3462,-0.7874 0.8382,0 1.524,0.6858 1.524,1.524 0,0.762 -0.635,1.651 -1.6002,1.651 z m -6.604,4.2926 c 0,-0.5588 0.4572,-1.016 1.016,-1.016 0.127,0 0.1778,0.0254 0.3048,0.0254 0.5334,0 1.1938,-0.5334 2.3876,-1.6256 0.2794,-0.254 0.4572,-0.4318 0.8636,-0.4318 0.5842,0 1.016,0.4826 1.016,1.016 0,0.1524 -0.0254,0.2794 -0.1016,0.4064 -1.8288,4.1148 -2.1844,6.2484 -2.1844,7.239 0,0.5588 0.127,0.762 0.1524,0.762 0,0 0,0 0,0 0,0 0.0254,0 0.0254,0 0.2794,0 0.889,-0.5334 0.9144,-0.5334 1.3716,-1.1938 1.4224,-2.159 2.3114,-2.159 0.6096,0 1.016,0.4826 1.016,1.016 0,0.2032 -0.0508,0.4064 -0.1778,0.5842 -1.6256,2.3368 -3.048,3.1242 -4.1148,3.1242 -0.8128,0 -1.4224,-0.4826 -1.778,-1.0668 -0.2032,-0.381 -0.381,-0.9144 -0.381,-1.778 0,-1.016 0.254,-2.5146 1.0414,-4.699 -0.3302,0.127 -0.6858,0.1778 -0.9906,0.1778 -0.7366,0 -1.3208,-0.3302 -1.3208,-1.0414 z m 13.9954,4.572 c 0,0.889 0.5334,1.651 1.6256,1.651 0.8382,0 2.3368,-0.6858 2.8194,-1.524 0.1778,-0.3048 0.508,-0.508 0.8636,-0.508 0.6096,0 1.016,0.4826 1.016,1.016 0,0.1778 -0.0254,0.3556 -0.127,0.508 -0.4318,0.7366 -1.0922,1.27 -1.778,1.7018 -0.9906,0.5842 -1.9558,0.8382 -2.794,0.8382 -2.159,0 -3.6576,-1.6256 -3.6576,-3.683 0,-2.6416 2.4384,-7.4168 6.5278,-7.4168 1.3208,0 2.794,1.016 2.9972,2.4384 0,0.0254 0,0.0762 0,0.127 0,0.5588 -0.4318,1.016 -1.016,1.016 -0.508,0 -0.9398,-0.381 -0.9906,-0.8636 -0.0508,-0.3556 -0.7112,-0.6858 -0.9906,-0.6858 -2.8194,0 -4.4958,3.7846 -4.4958,5.3848 z"
       id="path4" />
    <path
       style="font-weight:bold;font-size:96px;font-family:honchokomono;-inkscape-font-specification:'honchokomono, Bold';white-space:pre;fill:#ffffff;stroke-width:18.5208;stroke-linecap:round;stroke-linejoin:round"
       d="m 34.168704,175.46814 c 1.016,-0.762 2.1844,-0.9906 3.302,-0.9906 2.6924,0 4.571999,2.159 4.571999,5.4356 0,3.8862 -2.260599,7.1882 -7.492999,7.1882 -0.7366,0 -1.524,-0.0762 -2.3622,-0.2032 -0.7366,-0.1016 -1.2954,-0.7366 -1.2954,-1.4986 0,-0.0254 0,-0.0762 0,-0.1016 0.2032,-2.8448 0.254,-5.1562 0.254,-7.2136 0,-3.0226 -0.127,-5.4864 -0.127,-8.2804 0,-0.508 0,-1.0414 0.0254,-1.6002 0,-0.8128 0.6858,-1.4986 1.524,-1.4986 0.762,0 1.524,0.5842 1.524,1.5494 -0.0254,0.4064 -0.0254,0.6604 -0.0254,1.0414 0,0.8128 0.0254,2.1082 0.1016,6.1722 z m -0.0762,8.5598 c 0.1524,0.0254 0.3048,0.0254 0.4572,0.0254 2.6924,0 3.5052,-1.143 3.81,-1.6256 0.381,-0.6096 0.635,-1.6256 0.635,-2.5654 0,-1.2192 -0.4318,-2.3368 -1.524,-2.3368 -1.2446,0 -2.667,0.0508 -3.3782,6.5024 z m 14.858999,3.0734 c -3.0988,0 -5.5626,-2.1844 -5.5626,-5.7912 0,-4.4196 2.5908,-6.8072 5.969,-6.8072 2.8194,0 5.588,2.1336 5.588,6.7056 0,2.9464 -2.9718,5.8928 -5.9944,5.8928 z m 0,-3.048 c 1.4478,0 2.9464,-1.7272 2.9464,-2.8448 0,-3.3528 -1.8796,-3.6576 -2.54,-3.6576 -2.4892,0 -2.921,2.1844 -2.921,3.7592 0,2.5146 1.8288,2.7432 2.5146,2.7432 z m 9.0424,-3.6322 c 0,-3.4798 1.2192,-8.763 1.2192,-12.3698 0,-0.8382 0.6858,-1.524 1.524,-1.524 0.8636,0 1.524,0.6858 1.524,1.524 0,3.9116 -1.2192,9.2456 -1.2192,12.3698 0,2.4384 0.254,3.4036 0.4572,3.7338 1.3462,-0.0508 2.9718,-1.524 3.1242,-2.4638 0.1016,-0.7366 0.7366,-1.2954 1.4986,-1.2954 0.8382,0 1.524,0.7112 1.524,1.524 0,0.0762 0,0.1524 -0.0254,0.254 -0.381,2.5146 -3.3782,5.0292 -6.1468,5.0292 -3.4798,0 -3.4798,-4.6736 -3.4798,-6.7818 z m 19.2786,-5.8166 c -0.0508,-2.159 -0.1778,-4.0386 -0.5334,-5.9436 -0.0254,-0.1016 -0.0254,-0.2032 -0.0254,-0.2794 0,-0.8382 0.6604,-1.524 1.524,-1.524 0.7366,0 1.3462,0.5334 1.4986,1.2446 0.5334,2.8956 0.6096,5.715 0.6096,8.9916 0,6.2484 -2.1336,8.6614 -4.3688,9.4996 -0.5588,0.2286 -1.2954,0.3556 -2.0574,0.3556 -2.3622,0 -5.1308,-1.3208 -5.1308,-5.7404 0,-4.445 3.0988,-7.112 6.223,-7.112 0.7874,0 1.5494,0.1778 2.2606,0.508 z m -3.302,9.2964 c 2.2098,0 3.0734,-2.3622 3.2766,-5.3594 -0.8636,-1.3208 -1.7526,-1.397 -2.2098,-1.397 -1.778,0 -3.2004,1.6256 -3.2004,4.064 0,2.4892 1.1684,2.6924 2.1336,2.6924 z"
       id="path5" />
    <path
       style="font-style:italic;font-weight:bold;font-size:96px;font-family:honchokomono;-inkscape-font-specification:'honchokomono, Bold Italic';white-space:pre;fill:#ffffff;stroke-width:18.5208;stroke-linecap:round;stroke-linejoin:round"
       d="m 103.7901,174.68074 c -1.1938,0 -2.032,-0.9906 -2.032,-2.0574 0,-0.3556 0.1016,-0.7366 0.3302,-1.0922 0.3556,-0.6096 1.016,-1.0414 1.778,-1.0414 1.1176,0 2.032,0.9144 2.032,2.032 0,1.0414 -0.8382,2.159 -2.1082,2.159 z m 0.1016,6.9596 c 0.9144,0 1.524,0.7366 1.524,1.524 0,0.3048 -0.0762,0.6096 -0.2794,0.8636 -1.7526,2.5146 -3.302,3.3528 -4.5212,3.3528 -1.041397,0 -1.828797,-0.635 -2.209797,-1.3462 -0.2794,-0.4826 -0.4572,-1.0922 -0.4572,-2.0066 0,-0.9652 0.2286,-2.2606 0.7874,-4.0132 -0.1016,0 -0.1778,0 -0.254,0 -1.7526,0 -1.8034,-1.3716 -1.8034,-1.5494 0,-0.8382 0.6858,-1.524 1.524,-1.524 0.1524,0 0.2286,0.0254 0.3048,0.0254 0.381,0 1.2192,-0.762 2.031997,-1.4986 0.3302,-0.2794 0.635,-0.5588 1.2192,-0.5588 0.8636,0 1.524,0.7366 1.524,1.524 0,0.2032 -0.0508,0.4318 -0.127,0.635 -0.8382,1.8288 -2.159,5.1054 -2.159,6.9596 0,0.0254 0,0.0508 0,0.0762 1.4986,-1.0922 1.6002,-2.4638 2.8956,-2.4638 z m 14.0462,-0.3556 c -0.0762,1.7526 -0.9144,3.302 -1.9812,4.3688 -1.0668,1.0414 -2.2098,1.4986 -3.2512,1.4986 -1.0414,0 -1.9304,-0.4826 -2.4384,-1.2954 -0.381,-0.6096 -0.5334,-1.397 -0.5334,-2.286 0,-1.1684 0.254,-2.54 0.635,-4.0386 0.7874,-3.1242 2.1082,-6.5532 2.5908,-8.382 0.1778,-0.6604 0.762,-1.143 1.4732,-1.143 0.8636,0 1.524,0.7112 1.524,1.524 0,0.127 -0.0254,0.254 -0.0508,0.381 -0.254,0.9398 -0.6604,2.159 -1.0922,3.5052 1.27,0 1.4224,-0.1524 1.8034,-0.1524 0.8382,0 1.524,0.6858 1.524,1.524 0,0.7112 -0.508,1.3208 -1.1938,1.4732 -0.8382,0.1778 -1.651,0.2032 -2.3876,0.2032 0,0 0.1016,0 0.1016,0 0,0 -0.1524,0 -0.8382,0 -0.5842,1.9558 -1.0414,3.9116 -1.0414,5.1054 0,0.2032 0,0.381 0.0508,0.5334 0.8128,-0.1778 2.0066,-1.524 2.0574,-2.9464 0.0254,-0.8128 0.7112,-1.4478 1.524,-1.4478 0.8382,0 1.524,0.6858 1.524,1.524 0,0.0254 0,0.0254 0,0.0508 z m 9.8044,4.3434 c -1.0668,1.0922 -2.1336,1.4224 -3.0226,1.4224 -1.7272,0 -3.3528,-1.2954 -3.3528,-4.0894 0,-3.5052 2.5146,-7.6962 6.2484,-7.6962 0.508,0 1.0414,0.0762 1.6002,0.254 0.2286,-0.1016 0.4572,-0.1524 0.6604,-0.1524 0.8128,0 1.524,0.635 1.524,1.524 0,0.8128 -1.0668,3.7592 -1.0668,5.842 0,1.524 0.4826,2.2098 0.4826,2.794 0,0.8382 -0.6858,1.524 -1.524,1.524 -1.143,0 -1.4224,-0.9906 -1.5494,-1.4224 z m 0.2286,-7.2898 c -0.127,-0.0254 -0.2286,-0.0254 -0.3302,-0.0254 -1.9558,0 -3.2258,2.8956 -3.2258,4.6736 0,0.3048 0.0254,0.5588 0.1016,0.7874 0.0762,0.2286 0.127,0.2286 0.2032,0.2286 1.1938,0 2.8194,-3.9116 3.2512,-5.6642 z m 10.1092,-5.1562 c -0.381,0.1524 -0.7874,0.2794 -1.2954,0.2794 -1.0414,0 -1.5748,-0.8128 -1.5748,-1.524 0,-0.8382 0.6858,-1.524 1.524,-1.524 0.4826,0 1.8796,-1.5494 3.2766,-3.2512 0.2794,-0.3302 0.7112,-0.5334 1.1938,-0.5334 0.8636,0 1.524,0.7112 1.524,1.524 0,0.127 -0.0254,0.2794 -0.0762,0.4318 -0.8382,2.8702 -1.6256,5.3594 -2.2606,7.4422 -1.3462,4.2418 -2.159,7.0104 -2.159,7.9502 0,0.0254 0,0.0254 0,0.0508 0.889,-0.2032 2.3622,-1.3462 3.048,-2.9464 0.2286,-0.5334 0.762,-0.9144 1.397,-0.9144 0.889,0 1.524,0.7366 1.524,1.524 0,0.2032 -0.0254,0.4064 -0.127,0.6096 -1.1938,2.794 -3.8862,4.7752 -6.0198,4.7752 -1.3462,0 -2.8702,-0.889 -2.8702,-3.0988 0,-0.254 0.0254,-0.5334 0.0508,-0.8382 0.254,-1.651 0.3556,-1.9812 2.8448,-9.9568 z m 16.51,1.4986 c -1.1938,0 -2.032,-0.9906 -2.032,-2.0574 0,-0.3556 0.1016,-0.7366 0.3302,-1.0922 0.3556,-0.6096 1.016,-1.0414 1.778,-1.0414 1.1176,0 2.032,0.9144 2.032,2.032 0,1.0414 -0.8382,2.159 -2.1082,2.159 z m 0.1016,6.9596 c 0.9144,0 1.524,0.7366 1.524,1.524 0,0.3048 -0.0762,0.6096 -0.2794,0.8636 -1.7526,2.5146 -3.302,3.3528 -4.5212,3.3528 -1.0414,0 -1.8288,-0.635 -2.2098,-1.3462 -0.2794,-0.4826 -0.4572,-1.0922 -0.4572,-2.0066 0,-0.9652 0.2286,-2.2606 0.7874,-4.0132 -0.1016,0 -0.1778,0 -0.254,0 -1.7526,0 -1.8034,-1.3716 -1.8034,-1.5494 0,-0.8382 0.6858,-1.524 1.524,-1.524 0.1524,0 0.2286,0.0254 0.3048,0.0254 0.381,0 1.2192,-0.762 2.032,-1.4986 0.3302,-0.2794 0.635,-0.5588 1.2192,-0.5588 0.8636,0 1.524,0.7366 1.524,1.524 0,0.2032 -0.0508,0.4318 -0.127,0.635 -0.8382,1.8288 -2.159,5.1054 -2.159,6.9596 0,0.0254 0,0.0508 0,0.0762 1.4986,-1.0922 1.6002,-2.4638 2.8956,-2.4638 z m 7.7978,1.397 c 0,0.3556 0.1016,0.6096 0.2286,0.7874 0.2286,0.254 0.5334,0.3556 0.8636,0.3556 0.9144,0 2.0828,-0.762 2.3876,-1.27 0.2794,-0.4572 0.762,-0.762 1.3208,-0.762 0.889,0 1.524,0.7366 1.524,1.524 0,0.254 -0.0508,0.508 -0.2032,0.762 -1.016,1.778 -3.1242,2.4384 -3.6068,2.5908 -0.508,0.127 -0.9906,0.2032 -1.4224,0.2032 -2.4384,0 -4.1402,-1.8796 -4.1402,-4.191 0,-2.8702 2.5908,-7.9248 7.0358,-7.9248 1.143,0 2.0066,0.6096 2.3114,0.8636 0.8128,0.6604 1.1684,1.4732 1.1684,2.159 0,0.889 -0.5588,1.5748 -1.4986,1.5748 -0.762,0 -1.3716,-0.5588 -1.4986,-1.27 -0.1524,-0.2032 -0.4826,-0.2794 -0.4826,-0.2794 -2.4638,0 -3.9878,3.5052 -3.9878,4.8768 z"
       id="path6" />
  </g>
</svg>
